<svg width="205" height="105" viewBox="0 0 205 105" fill="none" xmlns="http://www.w3.org/2000/svg">
<g clip-path="url(#clip0_36_26951)">
<path d="M197.131 71.2044C197.104 71.2092 197.073 71.2148 197.045 71.2108C195.771 71.1967 194.086 70.2522 191.752 68.948C186.617 66.0788 178.017 61.2742 164.168 61.102C152.63 60.9556 138.889 59.6951 138.957 54.5213C138.966 53.8193 139.222 53.2453 139.72 52.8229C141.441 51.3552 145.721 51.9785 150.675 52.6977C155.6 53.4128 161.182 54.2271 163.235 52.4763C163.787 52.0031 164.063 51.3619 164.077 50.509C164.094 49.3007 163.683 48.3386 162.812 47.5644C158.491 43.7016 144.129 45.4735 131.457 47.0384C120.448 48.3968 110.941 49.5687 108.297 47.2068C107.78 46.7458 107.519 46.1611 107.531 45.4767C107.571 42.559 111.41 42.3575 115.122 42.1653C118.983 41.9642 122.98 41.7566 123.019 38.8073C123.031 37.9728 122.733 37.3313 122.111 36.844C117.434 33.1822 96.9498 38.4717 73.23 44.5945C49.5932 50.6977 22.7984 57.6109 4.7276 57.387C4.52622 57.3826 4.35621 57.2498 4.30338 57.0593C4.25054 56.8688 4.3317 56.663 4.49985 56.5597C8.53743 54.0664 13.6614 49.5977 15.3479 48.0908C10.4994 46.3202 2.95167 41.0334 0.862424 39.0936C0.724906 38.9639 0.679297 38.763 0.757228 38.5897C0.830745 38.4172 1.00692 38.3079 1.20027 38.3182C3.66409 38.4801 16.1544 35.4384 31.9664 31.5841C67.1789 23.0009 115.405 11.2446 122.644 16.9922C123.331 17.5359 123.676 18.2282 123.665 19.0487C123.626 21.8208 123.238 23.5967 122.892 25.1601C122.645 26.2828 122.434 27.2534 122.416 28.3573C122.398 29.6929 122.804 31.7748 123.192 33.7871C123.572 35.7554 123.933 37.618 123.919 38.8167C123.867 42.6005 119.248 42.8438 115.17 43.057C111.72 43.238 108.459 43.4073 108.431 45.4861C108.427 45.9144 108.569 46.2477 108.9 46.5378C111.24 48.6276 121.009 47.4217 131.35 46.1483C144.838 44.4851 158.785 42.7614 163.411 46.8962C164.467 47.8413 164.994 49.0599 164.977 50.5183C164.963 51.6258 164.573 52.5108 163.823 53.1518C161.462 55.1632 155.913 54.3565 150.551 53.575C146.211 52.9445 141.725 52.2905 140.311 53.4931C140.011 53.7478 139.866 54.0788 139.86 54.5255C139.815 57.8898 148.907 60.0084 164.187 60.2026C178.265 60.3788 186.987 65.2522 192.197 68.1622C193.8 69.058 195.079 69.7716 196.061 70.1072C192.931 65.6506 187.112 58.0123 187.047 57.9287C186.964 57.8211 186.933 57.6766 186.968 57.5429C187.003 57.4092 187.097 57.3011 187.224 57.2463C192.077 55.1506 197.14 52.8076 199.393 51.7572C198.202 51.3504 196.641 50.5379 194.598 49.481C188.276 46.1955 177.69 40.701 163.836 40.5252C163.589 40.52 163.389 40.32 163.394 40.0734C163.395 39.8277 163.6 39.6267 163.847 39.6318C177.916 39.8096 188.617 45.3649 195.015 48.6869C197.653 50.0586 199.737 51.1399 200.792 51.1529C201.002 51.1556 201.179 51.3008 201.225 51.5062C201.272 51.7115 201.168 51.9168 200.979 52.0057C200.911 52.0361 194.425 55.1016 188.108 57.8452C189.522 59.7075 194.907 66.8196 197.428 70.5091C197.522 70.6467 197.532 70.8268 197.453 70.973C197.389 71.0938 197.272 71.1787 197.14 71.2028L197.131 71.2044ZM6.24734 56.4924C24.1668 56.3346 50.0769 49.6457 73.0091 43.7296C96.9596 37.5467 117.644 32.2072 122.667 36.1426C122.688 36.157 122.71 36.1758 122.73 36.1902C122.608 35.4894 122.466 34.733 122.311 33.9562C121.91 31.9007 121.501 29.774 121.519 28.3427C121.535 27.1484 121.757 26.135 122.014 24.965C122.348 23.4444 122.727 21.7157 122.765 19.0349C122.773 18.5014 122.551 18.0596 122.083 17.6899C115.189 12.216 65.2297 24.3918 32.1741 32.4513C17.4674 36.0412 6.39622 38.7388 2.31538 39.1617C5.2516 41.5479 12.1703 46.2077 16.3488 47.477C16.5028 47.5218 16.6219 47.6502 16.6551 47.8079C16.6927 47.9648 16.6405 48.1289 16.5188 48.2374C16.4606 48.2934 10.9741 53.301 6.24292 56.4932L6.24734 56.4924Z" fill="#F1E4C5"/>
<path d="M164.562 51.4758C164.536 51.4806 164.505 51.4862 164.477 51.4822C164.23 51.4771 164.029 51.277 164.035 51.0304C164.063 49.1017 163.903 47.4436 163.735 45.6914C163.548 43.7335 163.354 41.7087 163.389 39.092C163.403 37.9161 163.818 36.7085 164.252 35.4336C164.766 33.9258 165.349 32.2146 165.379 30.2447C165.394 29.2233 164.817 28.2549 163.667 27.3722C157.394 22.5498 136.658 21.6093 122.574 25.5135C122.334 25.5752 122.086 25.4384 122.02 25.2003C121.954 24.9622 122.096 24.7136 122.334 24.6475C136.901 20.6146 157.647 21.6124 164.213 26.6637C165.601 27.7303 166.295 28.9369 166.274 30.2549C166.247 32.3653 165.637 34.1497 165.101 35.7204C164.669 36.9812 164.298 38.072 164.285 39.1066C164.25 41.6733 164.44 43.676 164.627 45.6067C164.795 47.3861 164.959 49.0663 164.931 51.045C164.929 51.2635 164.771 51.4425 164.563 51.4802L164.562 51.4758Z" fill="#F1E4C5"/>
<path d="M139.484 54.9667C139.423 54.9779 139.358 54.9759 139.292 54.9607C139.053 54.8995 138.908 54.653 138.969 54.4145L141.336 45.2849C141.398 45.0464 141.645 44.9014 141.884 44.9626C142.123 45.0238 142.268 45.2703 142.207 45.5088L139.84 54.6384C139.794 54.8149 139.652 54.9362 139.484 54.9667V54.9667Z" fill="#F1E4C5"/>
<path d="M108.062 45.9168C108.023 45.924 107.982 45.9268 107.94 45.9208C107.694 45.8973 107.509 45.6808 107.533 45.4354L108.354 36.1502C108.377 35.9048 108.595 35.7198 108.84 35.7434C109.086 35.767 109.272 35.9834 109.248 36.2288L108.427 45.514C108.409 45.7174 108.252 45.8823 108.062 45.9168V45.9168Z" fill="#F1E4C5"/>
<path d="M121.194 33.477C121.194 33.477 121.095 33.3085 120.935 33.0055C120.779 32.7018 120.563 32.2636 120.358 31.7141C120.25 31.4428 120.149 31.1382 120.049 30.8153C119.963 30.4899 119.851 30.1509 119.789 29.7847C119.71 29.4262 119.646 29.0467 119.598 28.6597C119.564 28.2703 119.525 27.8773 119.516 27.4787L119.522 26.8819C119.531 26.6846 119.55 26.4857 119.565 26.2919C119.58 25.8981 119.68 25.5207 119.737 25.1556C119.812 24.7918 119.927 24.4436 120.022 24.117C120.147 23.7987 120.27 23.4989 120.389 23.2271C120.528 22.9609 120.663 22.7272 120.785 22.5186C120.897 22.3073 121.042 22.1491 121.139 22.0086C121.349 21.734 121.472 21.5843 121.472 21.5843C121.472 21.5843 121.411 21.7728 121.295 22.0894C121.242 22.2491 121.157 22.4329 121.093 22.6582C121.029 22.8836 120.956 23.1333 120.872 23.3987C120.808 23.6741 120.749 23.9759 120.668 24.2817C120.62 24.5995 120.567 24.9321 120.511 25.2787C120.479 25.6257 120.434 25.9839 120.423 26.3498C120.415 26.5331 120.399 26.718 120.396 26.9005L120.406 27.458C120.4 27.8274 120.427 28.2045 120.452 28.5683C120.491 28.9341 120.507 29.2951 120.557 29.6453C120.598 29.9971 120.65 30.3332 120.691 30.6578C120.749 30.9792 120.786 31.2862 120.842 31.5671C120.945 32.135 121.187 33.4646 121.187 33.4646L121.194 33.477Z" fill="#F1E4C5"/>
<path d="M119.123 32.3662C119.123 32.3662 119.095 32.3394 119.045 32.2894C118.998 32.2341 118.913 32.1677 118.831 32.0645C118.753 31.9604 118.634 31.832 118.536 31.6723C118.431 31.5187 118.312 31.3402 118.205 31.1321C118.087 30.9308 117.982 30.7043 117.878 30.4594C117.783 30.2128 117.667 29.9519 117.598 29.669C117.515 29.3884 117.435 29.0983 117.389 28.7929C117.325 28.4908 117.308 28.1754 117.283 27.8616C117.285 27.5474 117.268 27.2276 117.313 26.9194C117.329 26.6072 117.407 26.3066 117.473 26.0173C117.529 25.7251 117.659 25.4605 117.744 25.2039C117.854 24.9565 117.987 24.7324 118.1 24.5254C118.233 24.3285 118.366 24.1587 118.48 24.0106C118.584 23.8553 118.73 23.756 118.822 23.6575C119.021 23.4714 119.136 23.3777 119.136 23.3777C119.136 23.3777 119.076 23.525 118.964 23.7636C118.914 23.8864 118.828 24.0157 118.773 24.1895C118.712 24.3596 118.641 24.5453 118.564 24.7458C118.511 24.96 118.442 25.1817 118.38 25.4159C118.342 25.6592 118.277 25.903 118.247 26.1676C118.213 26.4285 118.189 26.7011 118.181 26.98C118.158 27.257 118.178 27.54 118.179 27.8217C118.198 28.1047 118.209 28.3893 118.25 28.6682C118.271 28.8055 118.287 28.948 118.298 29.0825C118.323 29.2189 118.348 29.3554 118.367 29.4883C118.464 30.021 118.573 30.5196 118.687 30.9447C118.797 31.3749 118.91 31.7227 118.988 31.9768C119.075 32.2293 119.124 32.375 119.124 32.375L119.123 32.3662Z" fill="#F1E4C5"/>
<path d="M162.507 43.4996C162.507 43.4996 162.42 43.3244 162.29 43.007C162.164 42.6889 161.981 42.2354 161.829 41.6719C161.741 41.3922 161.671 41.082 161.602 40.7491C161.542 40.4189 161.465 40.0691 161.43 39.7025C161.382 39.3383 161.353 38.9525 161.341 38.5634C161.339 38.1728 161.336 37.7778 161.364 37.3815L161.425 36.7884C161.453 36.5923 161.491 36.3989 161.519 36.2028C161.567 35.8122 161.701 35.4467 161.79 35.0849C161.899 34.7286 162.043 34.3932 162.167 34.075C162.316 33.766 162.469 33.479 162.61 33.2216C162.769 32.9698 162.929 32.7452 163.067 32.5519C163.199 32.3505 163.356 32.2084 163.468 32.0743C163.7 31.8185 163.835 31.6848 163.835 31.6848C163.835 31.6848 163.759 31.8669 163.614 32.1751C163.547 32.3328 163.446 32.5058 163.363 32.7255C163.28 32.9453 163.186 33.185 163.074 33.4464C162.987 33.717 162.899 34.0104 162.794 34.3114C162.718 34.6208 162.636 34.9494 162.552 35.2876C162.491 35.6306 162.413 35.9813 162.37 36.3439C162.344 36.526 162.313 36.7089 162.296 36.8894L162.256 37.447C162.218 37.8176 162.213 38.1914 162.202 38.5572C162.209 38.9242 162.189 39.2873 162.212 39.6423C162.222 39.9953 162.243 40.3371 162.256 40.662C162.287 40.9838 162.298 41.2956 162.327 41.5814C162.381 42.1537 162.498 43.5013 162.498 43.5013L162.507 43.4996Z" fill="#F1E4C5"/>
<path d="M160.109 42.1663C160.109 42.1663 160.085 42.1343 160.038 42.0791C159.996 42.0231 159.923 41.9454 159.852 41.831C159.785 41.7157 159.683 41.5797 159.602 41.408C159.512 41.2423 159.414 41.051 159.333 40.8337C159.24 40.6188 159.16 40.3831 159.082 40.129C159.017 39.8725 158.932 39.6015 158.889 39.3138C158.837 39.0276 158.791 38.7266 158.776 38.4201C158.748 38.1115 158.764 37.7993 158.775 37.4835C158.809 37.1681 158.829 36.8551 158.911 36.5493C158.964 36.2395 159.071 35.9517 159.17 35.6699C159.26 35.3854 159.415 35.1344 159.53 34.8906C159.67 34.656 159.823 34.4463 159.958 34.2581C160.112 34.0756 160.262 33.9254 160.397 33.7873C160.521 33.642 160.67 33.5603 160.773 33.4734C160.989 33.3113 161.116 33.2292 161.116 33.2292C161.116 33.2292 161.04 33.3657 160.903 33.5907C160.838 33.7072 160.742 33.8293 160.667 33.993C160.587 34.1575 160.496 34.3332 160.394 34.5246C160.317 34.7295 160.228 34.9412 160.137 35.167C160.075 35.4056 159.977 35.6417 159.924 35.9015C159.861 36.1585 159.804 36.4234 159.768 36.7028C159.718 36.9758 159.701 37.2607 159.674 37.5385C159.662 37.8227 159.64 38.1041 159.65 38.3842C159.652 38.5247 159.655 38.6652 159.653 38.8021C159.66 38.9417 159.666 39.077 159.677 39.2115C159.711 39.751 159.767 40.2593 159.832 40.6931C159.894 41.1322 159.968 41.4916 160.02 41.7505C160.081 42.0122 160.112 42.1611 160.112 42.1611L160.109 42.1663Z" fill="#F1E4C5"/>
<path d="M123.551 40.0297C123.551 40.0297 123.455 40.1018 123.286 40.2279C123.192 40.2904 123.116 40.3725 122.967 40.4541C122.826 40.5342 122.666 40.6271 122.488 40.7276C122.314 40.8273 122.12 40.8854 121.918 40.9767C121.816 41.018 121.714 41.0592 121.607 41.1013C121.499 41.1301 121.385 41.1598 121.273 41.1938C121.046 41.2487 120.816 41.336 120.57 41.3625C120.33 41.397 120.081 41.433 119.838 41.4727C119.593 41.508 119.345 41.4985 119.106 41.5101C118.865 41.513 118.628 41.5423 118.4 41.5155C118.174 41.4976 117.952 41.4832 117.745 41.4709C117.537 41.4541 117.34 41.4489 117.16 41.4134C116.445 41.2931 115.97 41.2112 115.97 41.2112C115.97 41.2112 116.453 41.237 117.17 41.2705C117.351 41.2876 117.544 41.2708 117.752 41.2603C117.956 41.2507 118.172 41.2386 118.398 41.2293C118.622 41.2297 118.849 41.1748 119.081 41.1463C119.31 41.1046 119.549 41.0886 119.775 41.0293C120.002 40.97 120.227 40.9063 120.449 40.8478C120.672 40.7981 120.876 40.6884 121.077 40.6155C121.179 40.5743 121.277 40.5382 121.375 40.4978C121.466 40.4493 121.553 40.4017 121.64 40.354C121.809 40.2551 121.987 40.1818 122.111 40.0821C122.239 39.986 122.36 39.9004 122.465 39.8267C122.568 39.7626 122.665 39.6449 122.74 39.5813C122.891 39.4356 122.981 39.3511 122.981 39.3511C123.16 39.1821 123.443 39.1853 123.617 39.3629C123.786 39.5414 123.782 39.824 123.604 39.9973C123.593 40.0085 123.577 40.0205 123.565 40.0317L123.551 40.0297Z" fill="#F1E4C5"/>
<path d="M123.517 38.8625C123.517 38.8625 123.424 38.9294 123.268 39.0487C123.182 39.1051 123.11 39.182 122.964 39.2585C122.832 39.3369 122.679 39.4238 122.514 39.5175C122.349 39.6112 122.167 39.6669 121.973 39.7522C121.784 39.8411 121.581 39.9008 121.362 39.9541C121.148 40.0022 120.931 40.0871 120.698 40.1111C120.471 40.1432 120.24 40.1761 120.009 40.209C119.777 40.233 119.548 40.2291 119.317 40.2392C119.09 40.244 118.865 40.2621 118.651 40.2373C118.224 40.1966 117.823 40.1923 117.488 40.1304C116.815 40.0161 116.367 39.9337 116.367 39.9337C116.367 39.9337 116.818 39.9564 117.498 39.9875C117.835 40.0082 118.232 39.9633 118.649 39.9512C118.859 39.9495 119.074 39.9058 119.288 39.8762C119.504 39.8369 119.723 39.8152 119.938 39.7671C120.151 39.7102 120.364 39.6534 120.572 39.5929C120.783 39.55 120.969 39.4435 121.162 39.3766C121.354 39.3053 121.531 39.2276 121.687 39.1311C121.844 39.039 122.008 38.9637 122.128 38.8737C122.249 38.7836 122.357 38.7047 122.458 38.6318C122.557 38.573 122.641 38.4621 122.713 38.4036C122.857 38.2683 122.938 38.1898 122.938 38.1898C123.117 38.0165 123.401 38.024 123.574 38.2017C123.748 38.3793 123.74 38.6627 123.562 38.8361C123.55 38.8473 123.531 38.8645 123.518 38.8713L123.517 38.8625Z" fill="#F1E4C5"/>
<path d="M123.242 37.9302C123.242 37.9302 123.156 37.9822 123.005 38.0779C122.926 38.124 122.851 38.1832 122.725 38.2469C122.599 38.3062 122.462 38.3766 122.306 38.4503C122.153 38.5328 121.986 38.5677 121.811 38.6313C121.635 38.695 121.449 38.7515 121.254 38.7824C121.06 38.8176 120.861 38.8765 120.654 38.8914C120.448 38.9107 120.242 38.9299 120.031 38.95C119.825 38.9692 119.617 38.9525 119.413 38.9577C119.21 38.949 119.009 38.9675 118.816 38.9387C118.435 38.8944 118.076 38.8776 117.774 38.8189C117.174 38.705 116.778 38.6314 116.778 38.6314C116.778 38.6314 117.182 38.6489 117.789 38.6796C118.093 38.6927 118.443 38.6654 118.82 38.6561C119.007 38.6585 119.2 38.6144 119.393 38.5975C119.588 38.5667 119.787 38.5578 119.979 38.5093C120.171 38.4653 120.358 38.4176 120.547 38.3743C120.735 38.331 120.907 38.2498 121.079 38.1957C121.252 38.1416 121.412 38.0671 121.553 37.9914C121.694 37.9158 121.848 37.8605 121.952 37.778C122.061 37.7035 122.168 37.6387 122.257 37.577C122.347 37.5198 122.432 37.4361 122.5 37.3828C122.634 37.2675 122.714 37.2031 122.714 37.2031C122.904 37.0457 123.186 37.0673 123.348 37.2562C123.505 37.4458 123.484 37.7272 123.294 37.8889C123.278 37.9009 123.258 37.9138 123.241 37.9258L123.242 37.9302Z" fill="#F1E4C5"/>
<path d="M122.658 37.1722C122.658 37.1722 122.582 37.2043 122.442 37.2615C122.373 37.2876 122.294 37.3248 122.191 37.3617C122.083 37.3949 121.958 37.4358 121.819 37.4746C121.682 37.5223 121.541 37.5479 121.391 37.5752C121.241 37.6025 121.083 37.6401 120.917 37.6522C120.751 37.6686 120.586 37.6851 120.41 37.6987C120.238 37.7028 120.065 37.7024 119.892 37.7065C119.72 37.7149 119.548 37.6961 119.378 37.6862C119.206 37.6718 119.042 37.6698 118.883 37.6487C118.724 37.6275 118.57 37.6055 118.424 37.582C118.279 37.5584 118.14 37.5472 118.016 37.5196C117.519 37.4145 117.186 37.3429 117.186 37.3429C117.186 37.3429 117.522 37.3592 118.028 37.3811C118.152 37.3903 118.292 37.3787 118.432 37.3758C118.578 37.3722 118.727 37.3677 118.887 37.3661C119.045 37.3601 119.205 37.3356 119.367 37.3244C119.528 37.3087 119.695 37.2967 119.857 37.2626C120.02 37.2329 120.179 37.2041 120.338 37.1752C120.495 37.1332 120.642 37.0927 120.79 37.0522C120.939 37.0206 121.069 36.9605 121.198 36.9145C121.326 36.8684 121.45 36.8231 121.545 36.7695C121.646 36.7194 121.738 36.6754 121.817 36.6337C121.9 36.5869 121.982 36.5356 122.043 36.4972C122.17 36.4195 122.24 36.3751 122.24 36.3751C122.453 36.2453 122.729 36.3089 122.858 36.5174C122.988 36.7303 122.924 37.0057 122.715 37.1346C122.694 37.1474 122.67 37.161 122.648 37.1694L122.658 37.1722Z" fill="#F1E4C5"/>
<path d="M121.431 36.4671C121.431 36.4671 121.193 36.4832 120.84 36.5017C120.671 36.5234 120.435 36.5026 120.201 36.4951C120.086 36.4887 119.962 36.4839 119.838 36.4792C119.715 36.4788 119.596 36.4504 119.474 36.436C119.236 36.4021 118.996 36.3637 118.776 36.3309C118.554 36.2894 118.352 36.2306 118.177 36.1942C117.829 36.1118 117.6 36.0535 117.6 36.0535C117.6 36.0535 117.837 36.0558 118.193 36.0549C118.37 36.0545 118.576 36.058 118.793 36.0504C119.014 36.0331 119.242 36.0098 119.475 35.9902C119.592 35.9781 119.705 35.9757 119.815 35.9512C119.925 35.9312 120.031 35.912 120.133 35.8935C120.339 35.8515 120.523 35.8318 120.694 35.7689C121.035 35.666 121.26 35.5979 121.26 35.5979C121.497 35.523 121.749 35.659 121.824 35.8955C121.899 36.132 121.763 36.3842 121.525 36.4591C121.49 36.4655 121.45 36.4727 121.42 36.4784L121.431 36.4671Z" fill="#F1E4C5"/>
<path d="M164.546 52.0427C164.546 52.0427 164.518 52.0615 164.462 52.1036C164.396 52.1428 164.347 52.1973 164.193 52.2797C164.052 52.3598 163.882 52.4499 163.702 52.5144C163.52 52.5929 163.318 52.657 163.093 52.7251C162.196 52.9791 160.988 53.1303 159.79 53.1113C159.192 53.1107 158.595 53.06 158.042 53.0013C157.486 52.9294 156.978 52.8399 156.542 52.7508C156.109 52.6476 155.751 52.5624 155.505 52.4845C155.259 52.4109 155.114 52.3689 155.114 52.3689C155.114 52.3689 155.261 52.3969 155.511 52.4468C155.763 52.5012 156.128 52.5531 156.563 52.6151C157 52.663 157.514 52.7061 158.059 52.7208C158.607 52.7258 159.19 52.7201 159.772 52.6643C160.932 52.5719 162.07 52.3151 162.849 52.0099C163.04 51.9298 163.218 51.8565 163.358 51.7765C163.514 51.7028 163.61 51.6307 163.692 51.5795C163.771 51.5378 163.863 51.4437 163.911 51.4077C163.962 51.3621 163.995 51.338 163.995 51.338C164.184 51.1763 164.466 51.1978 164.628 51.3867C164.79 51.5756 164.768 51.8569 164.579 52.0187C164.567 52.0299 164.555 52.0367 164.546 52.0427V52.0427Z" fill="#F1E4C5"/>
<path d="M164.481 51.1041C164.481 51.1041 164.357 51.1493 164.144 51.2334C164.037 51.2711 163.91 51.3259 163.755 51.3768C163.586 51.4213 163.398 51.4689 163.189 51.5206C163.084 51.5443 162.975 51.5731 162.866 51.5975C162.754 51.6132 162.643 51.6288 162.528 51.6453C162.296 51.6737 162.053 51.7178 161.8 51.7319C161.547 51.7416 161.289 51.752 161.027 51.7633C160.765 51.779 160.495 51.7462 160.229 51.7399C159.962 51.7248 159.697 51.7228 159.438 51.6745C159.181 51.6393 158.923 51.6042 158.68 51.5666C158.432 51.5342 158.2 51.4627 157.982 51.4159C157.763 51.3647 157.554 51.3163 157.358 51.27C156.611 51.0236 156.111 50.8552 156.111 50.8552C156.111 50.8552 156.624 50.9668 157.388 51.1327C157.584 51.1562 157.794 51.1818 158.013 51.2101C158.236 51.2333 158.467 51.2777 158.71 51.2836C158.953 51.2896 159.205 51.2983 159.458 51.307C159.711 51.3246 159.971 51.3001 160.225 51.2904C160.481 51.2712 160.738 51.2791 160.99 51.2334C161.238 51.1973 161.483 51.162 161.723 51.1276C161.957 51.0895 162.178 51.0222 162.392 50.9741C162.497 50.9505 162.602 50.9224 162.698 50.9004C162.787 50.8659 163.284 50.6893 163.421 50.6416C163.561 50.58 163.689 50.5067 163.789 50.4566C163.993 50.3513 164.114 50.2885 164.114 50.2885C164.335 50.1755 164.606 50.2627 164.719 50.4832C164.832 50.7037 164.745 50.9743 164.523 51.0872C164.511 51.094 164.494 51.1016 164.482 51.1085L164.481 51.1041Z" fill="#F1E4C5"/>
<path d="M164.34 50.0748C164.34 50.0748 163.821 50.2054 163.691 50.2427C163.55 50.2727 163.378 50.2996 163.199 50.3228C163.017 50.3469 162.82 50.3918 162.619 50.3918C162.416 50.4015 162.204 50.4127 161.983 50.4256C161.764 50.4245 161.538 50.4109 161.308 50.4026C161.08 50.403 160.847 50.3727 160.618 50.3415C160.388 50.3059 160.158 50.2932 159.934 50.2428C159.712 50.1968 159.493 50.1457 159.284 50.1017C159.072 50.0629 158.876 49.9893 158.688 49.9326C158.5 49.8758 158.325 49.8166 158.162 49.769C158.002 49.7162 157.857 49.647 157.728 49.593C157.6 49.539 157.108 49.3374 157.108 49.3374C157.108 49.3374 157.621 49.4806 157.755 49.5153C157.889 49.5501 158.035 49.6009 158.201 49.6345C158.366 49.6637 158.55 49.6984 158.739 49.7324C158.931 49.7656 159.127 49.812 159.339 49.8235C159.548 49.8447 159.765 49.8598 159.983 49.8838C160.202 49.9078 160.427 49.8897 160.646 49.8952C160.871 49.9 161.09 49.9011 161.307 49.8707C161.523 49.8498 161.739 49.8377 161.945 49.8141C162.148 49.7772 162.342 49.7419 162.527 49.7082C162.714 49.6834 162.876 49.6221 163.029 49.5852C163.18 49.5396 163.316 49.5103 163.445 49.4643C163.572 49.4138 164.07 49.2188 164.07 49.2188C164.3 49.1271 164.562 49.2387 164.653 49.4676C164.745 49.6965 164.633 49.9579 164.399 50.0504C164.381 50.0536 164.36 50.062 164.343 50.0696L164.34 50.0748Z" fill="#F1E4C5"/>
<path d="M163.997 49.0183C163.997 49.0183 163.559 49.0661 163.448 49.0817C163.338 49.1017 163.19 49.0922 163.041 49.101C162.891 49.101 162.725 49.1175 162.559 49.1067C162.393 49.096 162.218 49.0868 162.033 49.0748C161.85 49.0673 161.665 49.0281 161.478 49.0029C161.291 48.9778 161.099 48.949 160.912 48.901C160.727 48.8574 160.537 48.8191 160.36 48.7695C160.18 48.7111 160.006 48.6563 159.837 48.6007C159.498 48.4939 159.198 48.3483 158.938 48.2455C158.81 48.1915 158.697 48.1255 158.593 48.0763C158.491 48.0219 158.1 47.8247 158.1 47.8247C158.1 47.8247 158.517 47.9627 158.625 48.0023C158.731 48.0375 158.849 48.0843 158.988 48.1183C159.263 48.1774 159.569 48.281 159.911 48.3325C160.08 48.3609 160.258 48.3877 160.437 48.4189C160.615 48.4412 160.798 48.4488 160.984 48.4652C161.165 48.4867 161.347 48.4855 161.525 48.485C161.702 48.4802 161.878 48.4937 162.047 48.4721C162.213 48.4556 162.379 48.4436 162.532 48.4295C162.684 48.4155 162.819 48.3774 162.948 48.363C163.081 48.339 163.188 48.3285 163.3 48.2945C163.409 48.2656 163.835 48.1518 163.835 48.1518C164.074 48.0858 164.323 48.227 164.385 48.4659C164.451 48.704 164.309 48.9526 164.069 49.0143C164.047 49.0183 164.025 49.0223 164.003 49.0263L163.997 49.0183Z" fill="#F1E4C5"/>
<path d="M163.079 47.8525C163.079 47.8525 162.82 47.8086 162.425 47.7439C162.326 47.7255 162.224 47.7123 162.11 47.6875C161.994 47.6539 161.869 47.6175 161.743 47.5767C161.491 47.4951 161.216 47.436 160.972 47.3212C160.724 47.2116 160.48 47.0968 160.251 46.9928C160.02 46.8984 159.833 46.7459 159.656 46.6507C159.317 46.4439 159.095 46.3022 159.095 46.3022C159.095 46.3022 159.344 46.389 159.72 46.5254C159.908 46.5822 160.113 46.6858 160.354 46.7286C160.591 46.7809 160.843 46.8353 161.094 46.8897C161.346 46.9485 161.595 46.9396 161.829 46.9699C161.945 46.9807 162.056 46.9879 162.157 46.9967C162.267 46.9995 162.379 46.9882 162.474 46.9846C162.872 46.9669 163.135 46.9556 163.135 46.9556C163.383 46.9423 163.596 47.1356 163.605 47.3841C163.618 47.6319 163.424 47.8445 163.175 47.8533C163.144 47.8589 163.111 47.8513 163.078 47.8481L163.079 47.8525Z" fill="#F1E4C5"/>
<path d="M139.853 54.8361C139.853 54.8361 139.926 54.9865 139.946 55.0237C139.965 55.0522 139.984 55.0806 140.008 55.117C140.043 55.179 140.135 55.2851 140.223 55.3963C140.325 55.5051 140.435 55.6352 140.576 55.7552C140.713 55.8849 140.869 56.0157 141.044 56.1477C141.222 56.2746 141.407 56.4138 141.615 56.535C141.821 56.6614 142.039 56.7855 142.269 56.8939C142.496 57.0163 142.739 57.0995 142.977 57.2063C143.224 57.2842 143.466 57.3858 143.718 57.4446C143.967 57.5086 144.212 57.5778 144.456 57.6153C144.697 57.6625 144.936 57.7009 145.162 57.7144C145.39 57.7368 145.604 57.7615 145.804 57.7571C146.005 57.7614 146.188 57.7646 146.348 57.7673C146.51 57.7561 147.137 57.7195 147.137 57.7195C147.137 57.7195 146.518 57.8229 146.358 57.8474C146.197 57.863 146.013 57.8783 145.811 57.8967C145.61 57.9196 145.391 57.9185 145.158 57.9197C144.927 57.9254 144.679 57.9158 144.429 57.8931C144.171 57.8808 143.913 57.8412 143.646 57.7988C143.38 57.7653 143.115 57.6861 142.845 57.6305C142.584 57.5506 142.312 57.4862 142.061 57.3818C141.803 57.2922 141.556 57.187 141.325 57.0698C141.087 56.963 140.867 56.8346 140.663 56.7126C140.458 56.5861 140.266 56.4617 140.097 56.3333C139.924 56.21 139.776 56.0732 139.642 55.9612C139.513 55.8299 139.405 55.7359 139.308 55.6034C139.261 55.5438 139.22 55.4922 139.183 55.4442C139.159 55.4078 139.069 55.2649 139.069 55.2649C138.935 55.0572 138.999 54.7774 139.207 54.6441C139.415 54.5108 139.695 54.5735 139.829 54.7812C139.836 54.7936 139.843 54.8104 139.85 54.8229L139.852 54.8317L139.853 54.8361Z" fill="#F1E4C5"/>
<path d="M139.94 53.9108C139.94 53.9108 139.959 53.9392 139.991 53.988C140.021 54.0324 140.069 54.1193 140.122 54.1825C140.17 54.2509 140.241 54.3382 140.338 54.4434C140.425 54.5502 140.545 54.6559 140.668 54.7791C140.802 54.8911 140.939 55.0208 141.107 55.1404C141.267 55.2661 141.451 55.3781 141.638 55.5033C142.022 55.7337 142.457 55.9457 142.911 56.1133C143.369 56.2757 143.84 56.4085 144.296 56.4848C144.522 56.5256 144.743 56.5627 144.955 56.5743C145.164 56.5954 145.364 56.6182 145.551 56.6162C145.738 56.6185 145.908 56.6241 146.058 56.624C146.207 56.6152 146.795 56.5858 146.795 56.5858C146.795 56.5858 146.215 56.682 146.064 56.7049C145.912 56.7189 145.741 56.7362 145.553 56.7522C145.366 56.7771 145.16 56.7736 144.942 56.7768C144.725 56.7889 144.495 56.7761 144.26 56.7598C143.786 56.7367 143.278 56.6516 142.779 56.5376C142.282 56.4141 141.794 56.2389 141.348 56.0381C141.131 55.9273 140.912 55.8261 140.722 55.706C140.524 55.5964 140.351 55.4688 140.185 55.358C140.03 55.2359 139.878 55.1271 139.757 55.0127C139.633 54.9079 139.527 54.7998 139.441 54.7018C139.345 54.6009 139.307 54.5441 139.267 54.4969C139.232 54.4533 139.208 54.4257 139.208 54.4257C139.05 54.2316 139.082 53.953 139.276 53.7949C139.466 53.6376 139.75 53.6679 139.908 53.862C139.92 53.8736 139.927 53.8904 139.938 53.902L139.94 53.9108Z" fill="#F1E4C5"/>
<path d="M140.149 53.1313C140.149 53.1313 140.225 53.2221 140.353 53.3718C140.415 53.4422 140.491 53.5558 140.581 53.6259C140.669 53.7099 140.769 53.8055 140.879 53.9084C140.985 54.0164 141.138 54.1068 141.281 54.2172C141.355 54.272 141.433 54.3261 141.508 54.3853C141.594 54.4333 141.68 54.4813 141.766 54.5293C141.947 54.6193 142.12 54.7425 142.321 54.8197C142.521 54.8969 142.723 54.9785 142.925 55.0601C143.127 55.1461 143.347 55.1745 143.554 55.2369C143.767 55.28 143.969 55.3616 144.176 55.374C144.382 55.4003 144.582 55.4231 144.772 55.4431C144.963 55.463 145.143 55.4986 145.309 55.4866C145.982 55.478 146.433 55.4735 146.433 55.4735C146.433 55.4735 145.983 55.5324 145.312 55.627C145.144 55.6575 144.96 55.6455 144.76 55.65C144.564 55.6492 144.354 55.6509 144.141 55.6534C143.924 55.6654 143.704 55.6098 143.482 55.5911C143.256 55.5547 143.023 55.5516 142.798 55.488C142.573 55.4288 142.348 55.3696 142.123 55.3149C141.899 55.2601 141.697 55.1513 141.487 55.0757C141.384 55.0353 141.285 54.9941 141.182 54.9537C141.091 54.9021 140.995 54.8513 140.909 54.8033C140.73 54.6993 140.557 54.6217 140.408 54.5076C140.256 54.3944 140.119 54.2964 139.998 54.2048C139.868 54.1147 139.798 54.0319 139.722 53.9639C139.579 53.8306 139.497 53.7546 139.497 53.7546C139.316 53.5874 139.305 53.3028 139.473 53.1222C139.641 52.9417 139.926 52.9308 140.107 53.0981C140.118 53.1097 140.134 53.1249 140.146 53.1365L140.149 53.1313Z" fill="#F1E4C5"/>
<path d="M140.71 52.6522C140.71 52.6522 140.78 52.7122 140.9 52.8223C140.96 52.8751 141.037 52.9475 141.122 53.0139C141.205 53.0715 141.296 53.1416 141.4 53.2136C141.496 53.2916 141.623 53.364 141.755 53.4356C141.886 53.5072 142.022 53.6008 142.178 53.6588C142.332 53.7264 142.491 53.7976 142.654 53.868C142.823 53.9236 142.997 53.974 143.166 54.0296C143.338 54.094 143.517 54.1252 143.695 54.1563C143.87 54.1883 144.047 54.2335 144.215 54.2575C144.387 54.2762 144.554 54.2914 144.711 54.3038C144.869 54.3161 145.02 54.3433 145.16 54.3405C145.721 54.3387 146.095 54.339 146.095 54.339C146.095 54.339 145.722 54.3976 145.167 54.4802C145.026 54.5058 144.875 54.5015 144.713 54.5127C144.55 54.5195 144.379 54.5324 144.198 54.538C144.02 54.5385 143.835 54.5221 143.647 54.5154C143.459 54.5086 143.266 54.5027 143.077 54.4643C142.885 54.4355 142.692 54.4023 142.504 54.3728C142.317 54.3248 142.134 54.2716 141.958 54.2264C141.777 54.1865 141.617 54.1064 141.456 54.0493C141.299 53.9869 141.147 53.9325 141.01 53.8529C140.874 53.782 140.748 53.714 140.636 53.6524C140.539 53.5928 140.171 53.3504 140.171 53.3504C139.964 53.2151 139.904 52.935 140.04 52.7284C140.175 52.5219 140.456 52.4618 140.663 52.597C140.683 52.607 140.7 52.6222 140.716 52.6374L140.71 52.6522Z" fill="#F1E4C5"/>
<path d="M141.583 52.2161C141.583 52.2161 141.83 52.3441 142.194 52.5417C142.285 52.5933 142.386 52.6477 142.487 52.6749C142.589 52.7109 143.047 52.8689 143.169 52.9149C143.288 52.9661 143.426 52.9729 143.559 53.0033C143.828 53.0544 144.093 53.1064 144.343 53.1519C144.597 53.1739 144.836 53.1806 145.043 53.193C145.457 53.2133 145.737 53.226 145.737 53.226C145.737 53.226 145.462 53.2669 145.05 53.3327C144.841 53.3615 144.598 53.4056 144.335 53.4353C144.066 53.4386 143.785 53.4443 143.502 53.4455C143.36 53.4396 143.214 53.4616 143.072 53.4372C142.928 53.4181 142.375 53.3366 142.248 53.3186C142.114 53.3066 142.007 53.2714 141.906 53.2398C141.506 53.1214 141.241 53.0423 141.241 53.0423C141 52.9723 140.868 52.7234 140.939 52.4832C141.009 52.2431 141.263 52.1105 141.499 52.1813C141.528 52.1897 141.558 52.2025 141.583 52.2161V52.2161Z" fill="#F1E4C5"/>
</g>
<defs>
<clipPath id="clip0_36_26951">
<rect width="195" height="71" fill="white" transform="translate(0 34.8481) rotate(-10.2946)"/>
</clipPath>
</defs>
</svg>
