<svg width="167" height="70" viewBox="0 0 167 70" fill="none" xmlns="http://www.w3.org/2000/svg">
<g clip-path="url(#clip0_36_26856)">
<path d="M163.137 49.4941C163.137 49.4941 163.096 49.4186 163.014 49.2814C162.938 49.1441 162.801 48.9451 162.671 48.6774C162.389 48.149 161.992 47.3873 161.614 46.4265C161.422 45.9461 161.23 45.4245 161.058 44.8549C160.887 44.2922 160.702 43.6882 160.571 43.0569C160.42 42.4255 160.304 41.7667 160.208 41.0872C160.139 40.4078 160.05 39.7216 160.029 39.0284C159.988 38.3353 160.029 37.6422 160.05 36.9559C160.077 36.2696 160.187 35.6039 160.263 34.9588C160.386 34.3206 160.489 33.7029 160.654 33.1265C160.818 32.5569 160.962 32.0147 161.148 31.5274C161.333 31.0402 161.518 30.6078 161.683 30.2235C161.847 29.8392 162.04 29.5235 162.177 29.2559C162.465 28.7274 162.643 28.4392 162.643 28.4392C162.643 28.4392 162.575 28.7755 162.431 29.352C162.362 29.6402 162.266 29.9833 162.177 30.3882C162.101 30.7931 162.012 31.2461 161.902 31.7333C161.806 32.2206 161.751 32.7627 161.648 33.3255C161.559 33.8882 161.539 34.4922 161.456 35.1029C161.415 35.7206 161.388 36.3588 161.367 37.0039C161.367 37.649 161.347 38.3078 161.395 38.9667C161.395 39.6255 161.463 40.2843 161.518 40.9294C161.607 41.5745 161.642 42.2127 161.751 42.8304C161.841 43.448 161.937 44.0382 162.04 44.601C162.149 45.1637 162.252 45.699 162.355 46.1863C162.568 47.1676 162.774 47.9912 162.911 48.5676C163.048 49.151 163.13 49.4804 163.13 49.4804L163.137 49.4941Z" fill="#F1E4C5"/>
<path d="M160.009 45.4931C160.009 45.4931 159.872 45.3147 159.659 44.9921C159.453 44.6627 159.165 44.1823 158.897 43.5716C158.76 43.2696 158.616 42.9333 158.499 42.5696C158.376 42.2059 158.246 41.8216 158.156 41.4098C157.951 40.5931 157.807 39.701 157.779 38.7951C157.752 38.3422 157.772 37.8892 157.793 37.45C157.813 37.0039 157.896 36.5716 157.957 36.1529C158.115 35.3225 158.349 34.5608 158.602 33.9431C158.87 33.3255 159.131 32.8314 159.357 32.5088C159.57 32.1794 159.7 32.001 159.7 32.001C159.7 32.001 159.673 32.2274 159.611 32.6049C159.577 32.7902 159.535 33.0167 159.494 33.2774C159.46 33.5382 159.426 33.8333 159.364 34.149C159.316 34.4647 159.302 34.8147 159.247 35.1647C159.206 35.5216 159.206 35.9059 159.158 36.2971C159.151 36.6882 159.138 37.0931 159.131 37.498C159.138 37.9098 159.124 38.3216 159.151 38.7402C159.151 39.1588 159.199 39.5706 159.22 39.9823C159.268 40.3872 159.282 40.799 159.343 41.1902C159.398 41.5814 159.446 41.9588 159.494 42.3225C159.549 42.6863 160.016 45.5 160.016 45.5L160.009 45.4931Z" fill="#F1E4C5"/>
<path d="M3.5127 19.1882C3.5127 19.1882 3.56758 19.2569 3.67049 19.3804C3.77341 19.5039 3.93121 19.6755 4.10959 19.9225C4.47321 20.3961 4.98092 21.0892 5.5092 21.9814C5.76992 22.4206 6.05121 22.9078 6.31192 23.4431C6.57264 23.9716 6.84707 24.5343 7.08034 25.1451C7.32733 25.7422 7.54688 26.3804 7.74584 27.0323C7.92422 27.6912 8.11633 28.3569 8.24668 29.0363C8.39762 29.7157 8.47309 30.4088 8.55542 31.0814C8.63775 31.7608 8.63775 32.4333 8.6652 33.0853C8.64461 33.7373 8.63775 34.3686 8.56914 34.9588C8.49367 35.549 8.43879 36.1049 8.33587 36.6127C8.2261 37.1206 8.11633 37.5804 8.01341 37.9853C7.9105 38.3902 7.76642 38.7333 7.67723 39.0147C7.47827 39.5774 7.34791 39.8931 7.34791 39.8931C7.34791 39.8931 7.36163 39.55 7.40966 38.9529C7.43024 38.6578 7.47827 38.301 7.49885 37.8961C7.51257 37.4843 7.52629 37.0245 7.55374 36.5235C7.57432 36.0225 7.54002 35.4804 7.55374 34.9108C7.55374 34.3412 7.47827 33.7441 7.46455 33.1265C7.4028 32.5088 7.32733 31.8774 7.25186 31.2323C7.15581 30.5941 7.06662 29.9422 6.90882 29.2971C6.79904 28.6451 6.62752 28.0069 6.47658 27.3755C6.29134 26.751 6.15412 26.1265 5.9483 25.5363C5.75619 24.9461 5.57095 24.3696 5.37885 23.8343C5.17988 23.299 4.99464 22.7843 4.8094 22.3176C4.43891 21.3843 4.11645 20.602 3.88318 20.0529C3.64991 19.5039 3.51956 19.1882 3.51956 19.1882H3.5127Z" fill="#F1E4C5"/>
<path d="M7.23828 22.6401C7.23828 22.6401 7.40294 22.7911 7.66365 23.0794C7.92437 23.3676 8.28113 23.7999 8.64476 24.3627C8.83 24.6441 9.0221 24.946 9.20048 25.2892C9.37887 25.6254 9.57097 25.9892 9.72877 26.3803C10.0581 27.1558 10.3462 28.0137 10.5178 28.899C10.6138 29.3382 10.6687 29.7911 10.7167 30.2303C10.7648 30.6695 10.751 31.1156 10.7648 31.5343C10.7442 32.3784 10.6344 33.1676 10.4766 33.8195C10.3119 34.4715 10.1336 34.9999 9.96204 35.3568C9.80424 35.7137 9.70133 35.9127 9.70133 35.9127C9.70133 35.9127 9.69447 35.6862 9.69447 35.3019C9.69447 35.1097 9.69447 34.8833 9.70819 34.6156C9.70133 34.348 9.68761 34.0529 9.69447 33.7372C9.69447 33.4215 9.6533 33.0715 9.64644 32.7146C9.63272 32.3509 9.57097 31.9735 9.55725 31.5892C9.50236 31.2048 9.45434 30.7999 9.39945 30.395C9.32398 29.9901 9.27595 29.5784 9.1799 29.1735C9.11129 28.7617 9.00152 28.3637 8.91233 27.9588C8.80256 27.5607 8.72023 27.1627 8.60359 26.7852C8.48696 26.4078 8.37718 26.0372 8.27427 25.6941C8.15764 25.3441 7.252 22.6401 7.252 22.6401H7.23828Z" fill="#F1E4C5"/>
<path d="M4.34292 51.4706C3.96557 51.4706 3.65683 51.1618 3.65683 50.7843C3.65683 39.6392 2.64143 36.0157 1.66719 32.5088C0.809581 29.4412 0 26.5382 0 18.9824C0 15.201 1.37217 12.1814 4.08907 10.0059C16.1436 0.356862 53.0138 8.62647 88.6765 16.6284C120.134 23.6833 149.848 30.3471 158.143 23.7039C159.604 22.5373 160.311 20.9931 160.311 18.9892C160.311 17.5824 159.872 16.5186 158.966 15.7294C155.542 12.751 146.157 14.0618 137.08 15.3314C127.708 16.6422 118.851 17.8843 115.276 14.7755C114.206 13.8422 113.657 12.5657 113.657 10.9804C113.657 8.75686 114.37 6.91765 115.784 5.52451C119.571 1.79118 127.694 1.89412 134.233 1.98333C138.157 2.03824 142.219 2.09314 143.2 1.11863C143.33 0.995098 143.385 0.864706 143.385 0.686275C143.385 0.308824 143.694 0 144.071 0C144.448 0 144.757 0.308824 144.757 0.686275C144.757 1.22843 144.551 1.71569 144.167 2.1C142.774 3.47255 138.994 3.42451 134.219 3.36275C127.941 3.28039 120.127 3.17745 116.751 6.50588C115.592 7.65196 115.029 9.11373 115.029 10.9873C115.029 12.1745 115.406 13.0735 116.175 13.7461C119.276 16.4431 128.229 15.1941 136.888 13.9794C146.699 12.6069 155.968 11.3098 159.865 14.7C161.072 15.75 161.683 17.198 161.683 18.9961C161.683 21.4118 160.777 23.3539 159 24.7814C150.191 31.8363 120.161 25.1039 88.3746 17.9735C53.0344 10.0402 16.4866 1.84608 4.94667 11.0833C2.54538 13.0118 1.37217 15.5922 1.37217 18.9892C1.37217 26.3529 2.16117 29.1667 2.99133 32.1451C3.99302 35.7343 5.03587 39.4539 5.03587 50.7843C5.03587 51.1618 4.72713 51.4706 4.34978 51.4706H4.34292Z" fill="#F1E4C5"/>
<path d="M27.9922 69.9999C21.6596 69.9999 15.7799 68.3735 11.4301 65.4225C6.34619 61.9636 3.65674 56.9058 3.65674 50.7842C3.65674 47.3254 4.93286 44.5254 7.45765 42.4666C19.2309 32.8587 56.698 40.5244 92.9301 47.9362C125.06 54.5107 155.405 60.7215 163.59 54.0372C164.955 52.9185 165.621 51.4842 165.621 49.645C165.621 45.3558 165.072 43.4136 164.585 41.7048C164.235 40.4764 163.913 39.3234 163.913 37.5803C163.913 35.8372 164.057 34.1695 164.214 32.4744C164.393 30.4842 164.599 28.2264 164.599 25.1656C164.599 18.4607 163.274 17.5617 158.678 15.4891C158.335 15.3313 158.177 14.9264 158.335 14.5833C158.492 14.2401 158.897 14.0823 159.24 14.2401C164.324 16.5391 165.971 17.8911 165.971 25.1725C165.971 28.295 165.765 30.5803 165.58 32.6048C165.429 34.2656 165.285 35.8303 165.285 37.5803C165.285 39.1313 165.559 40.1058 165.909 41.3342C166.396 43.0431 166.993 45.1705 166.993 49.6519C166.993 51.9029 166.142 53.7352 164.461 55.1078C155.769 62.2038 125.114 55.9313 92.6557 49.2882C56.7323 41.9382 19.5945 34.3411 8.32212 43.5372C6.10606 45.3489 5.02205 47.7235 5.02205 50.7911C5.02205 56.4323 7.49882 61.1058 12.1916 64.2901C16.315 67.0901 21.9203 68.6342 27.9785 68.6342C38.16 68.6342 48.4718 64.1529 48.4718 55.595C48.4718 49.6519 41.5698 45.6646 35.1206 45.6646C32.6781 45.6646 30.4964 46.2685 28.987 47.3529C27.313 48.5607 26.4622 50.3176 26.4622 52.5617C26.4622 54.6342 27.1071 56.1921 28.3764 57.2078C29.7486 58.3058 31.5667 58.5323 32.8428 58.5323C36.7878 58.5323 40.4995 56.4872 40.4995 54.9019C40.4995 54.5244 40.8083 54.2156 41.1856 54.2156C41.5629 54.2156 41.8717 54.5244 41.8717 54.9019C41.8717 57.7156 37.0142 59.9048 32.8428 59.9048C30.6954 59.9048 28.8566 59.3421 27.5188 58.2784C25.9065 56.995 25.09 55.0666 25.09 52.5617C25.09 49.8852 26.1603 47.7029 28.1843 46.2411C29.9475 44.9646 32.3488 44.2921 35.1206 44.2921C42.201 44.2921 49.844 48.6156 49.844 55.595C49.844 65.0587 38.846 70.0068 27.9785 70.0068L27.9922 69.9999Z" fill="#F1E4C5"/>
<path d="M49.1512 56.8373C48.7739 56.8373 48.4651 56.5284 48.4651 56.151C48.4651 49.8647 46.7087 47.4284 45.1651 45.2804C44.0605 43.7431 43.0107 42.2951 43.0107 39.8108C43.0107 39.4333 43.3195 39.1245 43.6968 39.1245C44.0742 39.1245 44.3829 39.4333 44.3829 39.8108C44.3829 41.8559 45.2199 43.0088 46.2765 44.4775C47.8614 46.6804 49.8373 49.4186 49.8373 56.151C49.8373 56.5284 49.5286 56.8373 49.1512 56.8373Z" fill="#F1E4C5"/>
<path d="M26.3594 50.2353C26.3045 50.2353 26.2496 50.2353 26.1947 50.2147C25.8243 50.1255 25.6047 49.7549 25.6939 49.3843L28.3765 38.5069C28.4657 38.1363 28.8362 37.9167 29.2067 38.0059C29.5771 38.0951 29.7967 38.4657 29.7075 38.8363L27.0249 49.7138C26.9494 50.0294 26.6681 50.2353 26.3594 50.2353V50.2353Z" fill="#F1E4C5"/>
<path d="M41.1924 55.5883C40.8974 55.5883 40.6298 55.3962 40.5338 55.1011L37.5768 45.4658C37.467 45.1021 37.666 44.7177 38.0296 44.6079C38.3932 44.4981 38.7774 44.704 38.8872 45.0609L41.8442 54.6962C41.954 55.0599 41.755 55.4442 41.3914 55.554C41.3228 55.5746 41.2542 55.5815 41.1924 55.5815V55.5883Z" fill="#F1E4C5"/>
<path d="M119.097 24.4999C118.72 24.4999 118.411 24.1911 118.411 23.8136C118.411 21.2675 117.506 19.5656 115.701 16.1822C115.317 15.4617 114.899 14.6793 114.446 13.8009C114.274 13.4646 114.405 13.0528 114.741 12.8744C115.077 12.696 115.489 12.8332 115.667 13.1695C116.12 14.0411 116.538 14.8234 116.916 15.5371C118.768 19.0097 119.784 20.9175 119.784 23.8136C119.784 24.1911 119.475 24.4999 119.097 24.4999Z" fill="#F1E4C5"/>
<path d="M144.078 14.398C143.701 14.398 143.392 14.0892 143.392 13.7118V0.686275C143.392 0.308824 143.701 0 144.078 0C144.455 0 144.764 0.308824 144.764 0.686275V13.7118C144.764 14.0892 144.455 14.398 144.078 14.398Z" fill="#F1E4C5"/>
<path d="M144.613 15.7293C144.613 15.7293 145.615 15.448 147.152 15.1323C148.682 14.8097 150.753 14.4803 152.867 14.4254C153.395 14.4048 153.923 14.4186 154.445 14.4254C154.966 14.4529 155.481 14.4803 155.981 14.5558C156.482 14.6039 156.956 14.7205 157.415 14.8029C157.868 14.9264 158.3 15.0293 158.685 15.1803C159.069 15.3382 159.432 15.4548 159.727 15.6333C160.029 15.798 160.304 15.9146 160.503 16.0725C160.908 16.3607 161.141 16.5254 161.141 16.5254C161.45 16.745 161.525 17.1774 161.305 17.4862C161.086 17.795 160.654 17.8705 160.345 17.6509C160.331 17.6372 160.318 17.6303 160.304 17.6166C160.304 17.6166 160.057 17.4107 159.741 17.1431C159.597 16.999 159.364 16.8823 159.124 16.7176C158.89 16.546 158.575 16.4156 158.252 16.2509C157.923 16.0862 157.539 15.9627 157.141 15.8186C156.729 15.7088 156.297 15.5578 155.831 15.4754C155.371 15.3656 154.884 15.3039 154.383 15.2284C153.882 15.1735 153.374 15.1186 152.86 15.098C150.808 14.9882 148.73 15.1391 147.186 15.3313C145.642 15.5166 144.62 15.7156 144.62 15.7156L144.613 15.7293Z" fill="#F1E4C5"/>
<path d="M145.066 17.692C145.066 17.692 146.081 17.4587 147.625 17.191C148.393 17.0606 149.299 16.9234 150.28 16.8273C150.767 16.7724 151.275 16.7449 151.796 16.7106C152.311 16.6969 152.839 16.6626 153.368 16.6832C153.896 16.6832 154.424 16.7175 154.952 16.7655C155.474 16.8204 155.988 16.8891 156.482 16.992C156.729 17.0469 156.976 17.1018 157.21 17.1567C157.443 17.2322 157.676 17.3008 157.896 17.3763C158.349 17.5136 158.753 17.7195 159.131 17.891C159.487 18.1106 159.844 18.2685 160.112 18.4949C160.379 18.7146 160.647 18.8724 160.812 19.0646C161.168 19.4283 161.367 19.6342 161.367 19.6342C161.635 19.9087 161.628 20.341 161.354 20.6087C161.086 20.8763 160.647 20.8695 160.379 20.5949C160.366 20.5812 160.352 20.5675 160.345 20.5538C160.345 20.5538 160.132 20.2998 159.879 19.991C159.762 19.8195 159.549 19.6822 159.343 19.4763C159.144 19.2704 158.843 19.1126 158.561 18.8998C158.246 18.7283 157.909 18.5155 157.512 18.3577C157.313 18.2753 157.114 18.193 156.908 18.1106C156.695 18.042 156.476 17.9734 156.249 17.9047C155.803 17.7675 155.316 17.6646 154.829 17.5753C154.335 17.4861 153.834 17.4106 153.32 17.3695C152.812 17.3077 152.297 17.294 151.79 17.2665C151.282 17.2665 150.781 17.2391 150.294 17.2596C149.327 17.2665 148.421 17.3351 147.639 17.3969C146.088 17.5342 145.052 17.6851 145.052 17.6851L145.066 17.692Z" fill="#F1E4C5"/>
<path d="M145.519 19.6548C145.519 19.6548 146.458 19.4695 147.892 19.2636C148.606 19.1675 149.443 19.0577 150.349 18.9891C151.254 18.9136 152.222 18.8862 153.203 18.9068C153.69 18.9342 154.177 18.9479 154.664 19.0166C155.144 19.0577 155.618 19.1538 156.077 19.243C156.53 19.3597 156.976 19.4558 157.381 19.6136C157.799 19.744 158.17 19.9293 158.52 20.094C158.856 20.2862 159.172 20.4577 159.432 20.643C159.686 20.8421 159.919 20.993 160.084 21.1509C160.42 21.4734 160.612 21.6519 160.612 21.6519C160.887 21.9126 160.894 22.3519 160.633 22.6264C160.372 22.9009 159.933 22.9146 159.659 22.647C159.645 22.6332 159.631 22.6195 159.618 22.6058C159.618 22.6058 159.425 22.3862 159.179 22.1048C159.055 21.9607 158.87 21.8166 158.678 21.6381C158.479 21.4666 158.225 21.295 157.95 21.1028C157.655 20.9381 157.354 20.746 156.99 20.595C156.64 20.4234 156.242 20.293 155.837 20.1489C155.419 20.0323 154.987 19.9019 154.534 19.8195C154.088 19.7166 153.614 19.6617 153.148 19.593C152.208 19.4832 151.261 19.4283 150.362 19.4215C149.47 19.4077 148.627 19.4421 147.913 19.4764C146.479 19.5587 145.519 19.6548 145.519 19.6548V19.6548Z" fill="#F1E4C5"/>
<path d="M145.971 21.6176C145.971 21.6176 146.802 21.501 148.05 21.3294C148.359 21.2813 148.702 21.2676 149.066 21.2264C149.429 21.1921 149.807 21.1578 150.205 21.1235C150.603 21.096 151.007 21.096 151.426 21.0823C151.844 21.0755 152.27 21.048 152.695 21.0823C153.12 21.1098 153.553 21.1304 153.971 21.1578C154.397 21.2264 154.808 21.2882 155.206 21.3568C155.611 21.398 155.988 21.5627 156.352 21.6519C156.537 21.7068 156.709 21.7549 156.88 21.8098C157.045 21.8784 157.203 21.9539 157.36 22.0225C157.669 22.1666 157.95 22.297 158.197 22.4137C158.431 22.5647 159.316 23.1617 159.316 23.1617C159.631 23.3745 159.714 23.8 159.501 24.1157C159.288 24.4313 158.863 24.5137 158.547 24.301C158.527 24.2872 158.513 24.2735 158.492 24.2598C158.492 24.2598 157.717 23.6147 157.539 23.4637C157.333 23.3402 157.107 23.2029 156.853 23.0588C156.722 22.9833 156.599 22.9009 156.455 22.8255C156.304 22.7637 156.153 22.7019 155.995 22.6402C155.673 22.5304 155.357 22.3382 154.98 22.2627C154.609 22.1666 154.232 22.0637 153.848 21.9608C153.45 21.899 153.045 21.8304 152.64 21.7686C152.235 21.6862 151.817 21.6725 151.412 21.6382C151.007 21.6108 150.603 21.5696 150.211 21.5559C149.82 21.5559 149.443 21.549 149.086 21.5421C148.73 21.5421 148.386 21.5215 148.071 21.5421C146.815 21.5902 145.971 21.6176 145.971 21.6176V21.6176Z" fill="#F1E4C5"/>
<path d="M146.424 23.5733C146.424 23.5733 147.104 23.491 148.126 23.3606C148.634 23.292 149.237 23.2645 149.882 23.2096C150.205 23.1753 150.541 23.1753 150.877 23.1684C151.22 23.1684 151.563 23.1479 151.913 23.1547C152.263 23.1753 152.613 23.189 152.956 23.2096C153.299 23.2096 153.642 23.2851 153.971 23.3263C154.301 23.3606 154.623 23.4224 154.918 23.4979C155.213 23.5802 155.508 23.6214 155.762 23.7243C156.023 23.8135 156.256 23.9028 156.469 23.9714C156.674 24.0469 156.846 24.143 156.997 24.2116C157.285 24.3557 157.457 24.4312 157.457 24.4312C157.8 24.5959 157.944 25.0077 157.779 25.3508C157.614 25.6939 157.203 25.8381 156.86 25.6733C156.832 25.6596 156.812 25.6459 156.791 25.6322C156.791 25.6322 156.599 25.5086 156.366 25.3577C156.249 25.289 156.112 25.1792 155.94 25.09C155.769 25.0008 155.57 24.9047 155.357 24.7949C155.144 24.6714 154.891 24.6096 154.63 24.4998C154.369 24.39 154.088 24.3008 153.786 24.2322C153.484 24.1635 153.182 24.0537 152.853 24.0057C152.53 23.9508 152.201 23.889 151.865 23.8273C151.529 23.7792 151.193 23.7518 150.863 23.7175C150.534 23.6832 150.205 23.642 149.889 23.6351C149.251 23.6077 148.661 23.5596 148.146 23.5665C147.117 23.5665 146.431 23.5665 146.431 23.5665L146.424 23.5733Z" fill="#F1E4C5"/>
<path d="M146.877 25.5363C146.877 25.5363 148.791 25.3098 149.23 25.2549C149.45 25.2274 149.676 25.2274 149.91 25.2137C150.143 25.2 150.383 25.1931 150.616 25.1794C151.09 25.152 151.57 25.1314 152.023 25.1657C152.249 25.1725 152.469 25.1863 152.675 25.1931C152.88 25.2069 153.079 25.1931 153.265 25.2343C153.999 25.351 154.493 25.4333 154.493 25.4333C154.87 25.4951 155.124 25.852 155.069 26.2294C155.007 26.6069 154.651 26.8608 154.273 26.8059C154.232 26.8059 154.191 26.7922 154.157 26.7784C154.157 26.7784 153.663 26.6 153.038 26.3804C152.887 26.3118 152.702 26.2912 152.51 26.2431C152.318 26.202 152.119 26.1539 151.913 26.1059C151.501 25.9961 151.049 25.9274 150.589 25.8725C150.363 25.8451 150.129 25.8108 149.91 25.7833C149.683 25.7559 149.464 25.7147 149.244 25.701C148.805 25.6735 146.884 25.55 146.884 25.55L146.877 25.5363Z" fill="#F1E4C5"/>
<path d="M114.185 8.8118C114.185 8.8118 114.37 8.6814 114.7 8.4618C114.864 8.35199 115.098 8.21474 115.338 8.06376C115.585 7.90591 115.873 7.76866 116.182 7.59709C116.806 7.28827 117.54 6.9314 118.357 6.64317C119.166 6.33434 120.051 6.0667 120.95 5.86768C121.842 5.65493 122.754 5.52454 123.612 5.45591C124.47 5.39415 125.272 5.38729 125.952 5.45591C126.295 5.46964 126.603 5.52454 126.878 5.56572C127.152 5.60003 127.392 5.64807 127.584 5.69611C127.969 5.78533 128.188 5.84023 128.188 5.84023C128.188 5.84023 127.962 5.81278 127.571 5.75787C127.379 5.72356 127.138 5.70297 126.864 5.69611C126.59 5.68238 126.281 5.65493 125.945 5.67552C125.272 5.67552 124.49 5.75787 123.667 5.88827C122.844 6.03925 121.979 6.24513 121.135 6.53336C120.291 6.80787 119.468 7.14415 118.727 7.51474C117.979 7.86474 117.314 8.26278 116.758 8.61278C116.49 8.79807 116.23 8.95591 116.024 9.11376C115.818 9.2716 115.64 9.39513 115.489 9.51866C115.187 9.77258 115.015 9.9167 115.015 9.9167C114.727 10.1638 114.295 10.1226 114.048 9.83434C113.801 9.54611 113.842 9.11376 114.13 8.8667C114.144 8.85297 114.165 8.83925 114.185 8.82552V8.8118Z" fill="#F1E4C5"/>
<path d="M114.219 10.7472C114.219 10.7472 115.036 10.205 115.249 10.0677C115.448 9.92363 115.729 9.77951 116.024 9.62853C116.319 9.47755 116.634 9.31284 116.971 9.14127C117.314 8.99716 117.677 8.8599 118.048 8.70892C118.233 8.63343 118.425 8.55794 118.617 8.48245C118.816 8.42755 119.015 8.36578 119.214 8.31088C119.619 8.20108 120.024 8.07069 120.435 7.96774C120.854 7.89225 121.272 7.81676 121.684 7.74127C122.089 7.6452 122.507 7.6452 122.898 7.61088C123.296 7.59716 123.674 7.52853 124.037 7.55598C124.401 7.57657 125.361 7.62461 125.506 7.63147C125.65 7.65892 127.118 7.94716 127.118 7.94716C127.118 7.94716 125.636 7.8099 125.492 7.79618C125.348 7.80304 124.401 7.85108 124.051 7.87167C123.701 7.87853 123.331 7.98147 122.953 8.04323C122.576 8.11873 122.178 8.1599 121.794 8.29029C121.41 8.4001 121.012 8.51676 120.621 8.63343C120.236 8.77069 119.859 8.93539 119.489 9.07951C119.303 9.155 119.118 9.23049 118.94 9.30598C118.768 9.3952 117.767 9.92363 117.458 10.0815C117.176 10.2668 116.909 10.4452 116.662 10.603C116.415 10.7609 116.189 10.8981 115.996 11.0766C115.797 11.2413 115.043 11.8589 115.043 11.8589C114.748 12.0991 114.316 12.0579 114.075 11.7697C113.835 11.4746 113.876 11.0423 114.171 10.8021C114.192 10.7883 114.213 10.7746 114.226 10.7609L114.219 10.7472Z" fill="#F1E4C5"/>
<path d="M114.652 12.3393C114.652 12.3393 115.379 11.8863 115.571 11.7697C115.756 11.653 115.969 11.5158 116.243 11.3922C116.504 11.2687 116.792 11.1314 117.087 10.9805C117.382 10.8226 117.712 10.7265 118.041 10.603C118.377 10.4932 118.713 10.3422 119.07 10.2599C119.427 10.1707 119.79 10.0814 120.154 9.99223C120.518 9.89615 120.895 9.87556 121.252 9.8138C121.615 9.75889 121.972 9.70399 122.322 9.70399C122.672 9.69027 123.008 9.67654 123.324 9.66968C123.639 9.69027 123.941 9.71772 124.223 9.7383C124.497 9.76576 124.751 9.76576 124.97 9.82752C125.19 9.87556 126.034 10.0471 126.034 10.0471C126.034 10.0471 125.183 9.97164 124.957 9.95105C124.737 9.91674 124.483 9.94419 124.216 9.95105C123.948 9.96478 123.653 9.9785 123.344 9.98536C123.036 10.0334 122.713 10.0814 122.377 10.1363C122.041 10.1707 121.705 10.2667 121.362 10.356C121.019 10.4589 120.669 10.5138 120.332 10.6511C119.996 10.7746 119.667 10.905 119.338 11.0285C119.008 11.1452 118.706 11.3305 118.405 11.4677C118.11 11.6187 117.808 11.7422 117.568 11.9138C117.321 12.0716 117.08 12.2226 116.861 12.3599C116.641 12.4834 116.449 12.6412 116.271 12.7854C116.099 12.9226 115.427 13.4579 115.427 13.4579C115.132 13.6981 114.7 13.6501 114.46 13.3481C114.219 13.053 114.267 12.6207 114.569 12.3805C114.59 12.3667 114.617 12.3461 114.638 12.3324L114.652 12.3393Z" fill="#F1E4C5"/>
<path d="M115.557 13.609C115.557 13.609 116.175 13.2864 116.34 13.2041C116.504 13.1217 116.669 13.0188 116.895 12.9296C117.341 12.7648 117.849 12.5109 118.411 12.3599C118.693 12.2845 118.981 12.2021 119.269 12.1197C119.564 12.0443 119.866 12.0099 120.168 11.9482C120.47 11.8864 120.772 11.8452 121.073 11.8315C121.375 11.8109 121.664 11.7766 121.952 11.7766C122.233 11.7766 122.507 11.7903 122.775 11.7972C123.036 11.7972 123.276 11.8452 123.502 11.8658C123.955 11.907 124.319 11.9962 124.573 12.058C124.826 12.1197 124.97 12.1472 124.97 12.1472C124.97 12.1472 124.82 12.1335 124.559 12.1129C124.298 12.0854 123.934 12.0511 123.489 12.0786C123.269 12.0923 123.029 12.0786 122.775 12.1129C122.521 12.1403 122.26 12.1747 121.986 12.209C121.712 12.2501 121.437 12.3256 121.156 12.3805C120.875 12.4354 120.593 12.5109 120.319 12.6139C120.044 12.7099 119.763 12.7854 119.502 12.8952C119.242 13.0119 118.988 13.1217 118.741 13.2315C118.247 13.4443 117.849 13.7256 117.478 13.9178C117.3 14.0207 117.128 14.158 116.984 14.2609C116.84 14.3639 116.271 14.7756 116.271 14.7756C115.962 14.9952 115.53 14.9266 115.31 14.6178C115.091 14.309 115.159 13.8766 115.468 13.657C115.496 13.6364 115.523 13.6227 115.55 13.6021L115.557 13.609Z" fill="#F1E4C5"/>
<path d="M117.403 14.4461C117.403 14.4461 117.787 14.3294 118.363 14.1579C118.686 14.0892 119.056 14 119.447 13.9383C119.838 13.8971 120.25 13.8285 120.669 13.8353C120.874 13.8353 121.08 13.8147 121.286 13.8353C121.485 13.849 121.684 13.8559 121.883 13.8696C122.267 13.9177 122.617 13.952 122.919 14.0206C123.221 14.0755 123.461 14.1373 123.632 14.1922C123.804 14.2402 123.9 14.2677 123.9 14.2677C123.9 14.2677 123.797 14.2677 123.626 14.254C123.454 14.2402 123.2 14.2334 122.905 14.2402C122.61 14.2402 122.26 14.2745 121.897 14.3089C121.718 14.3363 121.526 14.3706 121.341 14.3981C121.149 14.4255 120.964 14.4873 120.771 14.5285C120.394 14.6039 120.03 14.7549 119.687 14.8647C119.358 14.9951 119.07 15.1392 118.816 15.2422C118.288 15.5373 117.938 15.7294 117.938 15.7294C117.602 15.9147 117.183 15.7912 116.998 15.4618C116.813 15.1255 116.936 14.7069 117.266 14.5216C117.307 14.501 117.355 14.4804 117.403 14.4667V14.4461Z" fill="#F1E4C5"/>
<path d="M27.1826 55.7325C27.1826 55.7325 27.3473 55.8148 27.6286 55.9521C27.7726 56.0276 27.9236 56.0825 28.1088 56.1648C28.2872 56.2472 28.5205 56.3158 28.7606 56.405C29.728 56.7344 31.107 57.0295 32.5066 57.0364C33.2064 57.057 33.9062 56.9815 34.558 56.8717C35.2098 56.755 35.8067 56.5903 36.3075 56.3913C36.5614 56.3089 36.7809 56.1923 36.9799 56.1031C37.1789 56.0207 37.3504 55.9246 37.4807 55.8423C37.7552 55.6844 37.9061 55.5952 37.9061 55.5952C37.9061 55.5952 37.762 55.705 37.5082 55.8903C37.3847 55.9864 37.2269 56.0962 37.0348 56.2129C36.8427 56.3295 36.6369 56.4668 36.3899 56.5834C35.9096 56.8442 35.3127 57.0844 34.6541 57.2903C33.9954 57.4825 33.2682 57.6472 32.5341 57.7158C31.059 57.8874 29.5565 57.757 28.4519 57.5236C28.1774 57.455 27.9236 57.4138 27.6903 57.3384C27.4639 57.2697 27.2444 57.2148 27.1071 57.1599C26.8121 57.057 26.6406 56.9952 26.6406 56.9952C26.2838 56.8717 26.0917 56.4736 26.2221 56.1168C26.3456 55.7599 26.7435 55.5678 27.1003 55.6982C27.1277 55.705 27.1552 55.7187 27.1757 55.7325H27.1826Z" fill="#F1E4C5"/>
<path d="M26.524 53.502C26.524 53.502 26.668 53.5913 26.9288 53.7491C27.0591 53.8314 27.1963 53.8932 27.361 53.9824C27.5257 54.0716 27.7383 54.154 27.9579 54.2569C28.8567 54.6275 30.1534 54.9912 31.4912 55.0462C31.8274 55.0736 32.1636 55.0599 32.4929 55.0599C32.8222 55.0324 33.1516 55.0256 33.4603 54.9707C34.0915 54.8952 34.6678 54.7373 35.1481 54.5726C35.3951 54.504 35.6077 54.3942 35.7998 54.3187C35.9988 54.2432 36.1566 54.1609 36.287 54.0854C36.5545 53.9412 36.7055 53.8658 36.7055 53.8658C36.7055 53.8658 36.5614 53.9618 36.3144 54.1403C36.1909 54.2295 36.04 54.3324 35.8547 54.4354C35.6695 54.5383 35.4705 54.6756 35.2235 54.7716C34.7501 54.9981 34.1807 55.2314 33.5358 55.3962C33.2202 55.4991 32.8771 55.5403 32.5409 55.6158C32.1979 55.6569 31.8411 55.7187 31.4912 55.7324C31.1345 55.7667 30.7777 55.7599 30.4278 55.7599C30.0779 55.7393 29.728 55.7393 29.3918 55.6913C28.7194 55.6295 28.102 55.4854 27.5737 55.3481C27.313 55.2658 27.0728 55.204 26.8533 55.1148C26.6406 55.0324 26.4348 54.9569 26.2976 54.8952C26.0231 54.7716 25.8653 54.6962 25.8653 54.6962C25.5223 54.5383 25.3713 54.1265 25.5291 53.7834C25.6869 53.4403 26.0986 53.2893 26.4416 53.4471C26.4691 53.4609 26.4965 53.4746 26.5171 53.4883L26.524 53.502Z" fill="#F1E4C5"/>
<path d="M26.4211 51.5598C26.4211 51.5598 27.0454 51.9372 27.2101 52.0402C27.3747 52.1431 27.5394 52.1912 27.7315 52.2872C27.9236 52.3627 28.1157 52.4863 28.3627 52.548C28.6028 52.6235 28.8567 52.699 29.1174 52.7814C29.3781 52.8706 29.6663 52.8912 29.9544 52.9529C30.2426 53.0078 30.5376 53.0627 30.8326 53.0627C31.1345 53.0765 31.4295 53.0902 31.7245 53.1039C32.0195 53.0765 32.3077 53.0559 32.589 53.0284C32.7331 53.0147 32.8703 53.0078 33.0075 52.9872C33.1379 52.9529 33.8926 52.7745 34.1121 52.7196C34.3385 52.6784 34.5169 52.5618 34.6953 52.5C34.8668 52.4245 35.5323 52.1431 35.5323 52.1431C35.5323 52.1431 34.908 52.5137 34.7502 52.6098C34.5855 52.699 34.414 52.8431 34.1876 52.9186C33.968 53.001 33.2271 53.2961 33.0898 53.351C32.9526 53.3921 32.8085 53.4196 32.6645 53.4539C32.3763 53.5225 32.0744 53.5912 31.7726 53.6598C31.4638 53.6941 31.1482 53.7216 30.8258 53.749C30.5033 53.7902 30.1877 53.7833 29.8721 53.7627C29.5565 53.7421 29.2409 53.7627 28.9459 53.701C28.644 53.6529 28.3559 53.6049 28.0814 53.5637C27.807 53.5294 27.5394 53.4196 27.2924 53.3578C27.0523 53.2823 26.8053 53.2206 26.6338 53.1451C26.4623 53.0696 25.7968 52.7814 25.7968 52.7814C25.4468 52.6304 25.2891 52.2255 25.44 51.8755C25.5909 51.5255 25.9957 51.3676 26.3456 51.5186C26.3731 51.5323 26.4005 51.5461 26.428 51.5598H26.4211Z" fill="#F1E4C5"/>
<path d="M26.7436 49.8855C26.7436 49.8855 27.265 50.1806 27.4022 50.2629C27.5394 50.3453 27.6766 50.3865 27.8344 50.462C27.9922 50.5237 28.1569 50.6198 28.3559 50.6747C28.5548 50.7365 28.7675 50.7982 28.9802 50.8669C29.1997 50.9423 29.433 50.9561 29.6731 51.011C29.9133 51.059 30.1534 51.1002 30.4004 51.1002C30.6474 51.1139 30.8944 51.1345 31.1414 51.1345C31.3884 51.1139 31.6285 51.1002 31.8618 51.0796C32.1019 51.0796 32.3214 51.0247 32.5341 50.9767C32.7468 50.9286 32.9458 50.8874 33.131 50.8463C33.3163 50.812 33.4741 50.7296 33.625 50.6816C33.7691 50.6267 34.3385 50.4139 34.3385 50.4139C34.3385 50.4139 33.8171 50.7159 33.6799 50.7914C33.5427 50.8669 33.3917 50.9767 33.2133 51.0453C33.0281 51.1208 32.836 51.1963 32.6233 51.2786C32.4106 51.3678 32.1911 51.4502 31.9509 51.4982C31.7108 51.56 31.457 51.6149 31.2031 51.6767C30.9424 51.7178 30.6817 51.7384 30.4141 51.7727C30.1465 51.8139 29.879 51.8139 29.6183 51.807C29.3575 51.7933 29.09 51.8208 28.8361 51.7796C28.5823 51.7453 28.3353 51.7178 28.1089 51.6904C27.8756 51.6629 27.6492 51.5874 27.4434 51.5394C27.2444 51.4845 27.0317 51.4433 26.8876 51.3884C26.7436 51.3335 26.1741 51.1276 26.1741 51.1276C25.8173 50.9972 25.6321 50.6061 25.7625 50.2423C25.8928 49.8855 26.2839 49.7002 26.6475 49.8306C26.6818 49.8443 26.723 49.8649 26.7504 49.8786L26.7436 49.8855Z" fill="#F1E4C5"/>
<path d="M27.2444 48.2933C27.2444 48.2933 27.6629 48.4992 27.7727 48.5541C27.8893 48.6158 27.9854 48.6364 28.1089 48.6913C28.349 48.7942 28.6577 48.8835 28.9939 48.9727C29.1654 49.0276 29.3438 49.0344 29.5222 49.0688C29.7074 49.1031 29.8927 49.1305 30.0848 49.1305C30.2769 49.1374 30.469 49.158 30.6542 49.158C30.8463 49.1442 31.0316 49.1374 31.21 49.1237C31.5736 49.1099 31.9029 49.0139 32.1979 48.9727C32.342 48.9452 32.4655 48.8972 32.5821 48.8629C32.6988 48.8286 33.1447 48.6913 33.1447 48.6913C33.1447 48.6913 32.7399 48.9246 32.6302 48.9795C32.5204 49.0344 32.4038 49.1168 32.2665 49.1717C31.9852 49.2746 31.6628 49.4462 31.2992 49.5491C31.1139 49.6041 30.9218 49.659 30.7297 49.7139C30.5307 49.755 30.3249 49.7825 30.1191 49.8237C29.9133 49.8648 29.7074 49.8786 29.5016 49.8854C29.2958 49.8854 29.09 49.9197 28.891 49.906C28.4931 49.8923 28.1226 49.8717 27.7864 49.8099C27.6286 49.7825 27.4571 49.7619 27.3473 49.7276C27.2307 49.7001 26.7779 49.5903 26.7779 49.5903C26.4074 49.5011 26.181 49.1237 26.2702 48.7599C26.3593 48.3893 26.7367 48.1629 27.1003 48.2521C27.1483 48.2658 27.1964 48.2795 27.2375 48.3001L27.2444 48.2933Z" fill="#F1E4C5"/>
<path d="M28.1432 46.7491C28.1432 46.7491 28.3833 46.8178 28.7469 46.9276C28.8361 46.955 28.939 46.9893 29.0351 47.0099C29.1311 47.0236 29.2272 47.0374 29.3301 47.0511C29.5359 47.0717 29.7623 47.1403 30.0025 47.1334C30.2426 47.1334 30.4896 47.1334 30.716 47.1334C30.9493 47.1403 31.1551 47.0717 31.3403 47.058C31.7108 46.9962 31.9647 46.955 31.9647 46.955C31.9647 46.955 31.7451 47.0785 31.4089 47.2638C31.2374 47.3462 31.0453 47.4903 30.8189 47.5589C30.5856 47.6413 30.3386 47.7305 30.0917 47.8197C29.8447 47.9158 29.5634 47.9364 29.3027 47.9913C29.1723 48.0119 29.0419 48.0393 28.9253 48.0599C28.8087 48.0736 28.7126 48.0736 28.6166 48.0805C28.2392 48.1011 27.9854 48.1148 27.9854 48.1148C27.6012 48.1354 27.2718 47.8403 27.2513 47.456C27.2307 47.0717 27.5257 46.7423 27.9099 46.7217C27.9922 46.7217 28.0746 46.7217 28.1432 46.7491V46.7491Z" fill="#F1E4C5"/>
<path d="M48.616 52.6166H47.8888L47.3193 52.1705C47.4428 51.8136 47.8339 51.6215 48.1907 51.745C48.5474 51.8685 48.7395 52.2597 48.616 52.6166V52.6166Z" fill="#F1E4C5"/>
<path d="M49.5148 57.695C49.5148 57.695 49.3227 57.9901 49.0346 58.4225C48.8905 58.6421 48.6572 58.9097 48.4445 59.1842C48.3348 59.3215 48.1838 59.4382 48.0535 59.5686C47.9162 59.6921 47.7859 59.8225 47.6144 59.9186C47.4497 60.0146 47.3056 60.1382 47.1272 60.1999C46.9489 60.2617 46.7773 60.3303 46.6127 60.3784C46.4412 60.399 46.2765 60.4195 46.1187 60.4401C45.9609 60.4607 45.8168 60.4264 45.6865 60.4264C45.4189 60.4264 45.2062 60.3509 45.0621 60.3235C44.9181 60.2891 44.8289 60.2754 44.8289 60.2754C44.8289 60.2754 44.9181 60.2754 45.069 60.2686C45.2199 60.2548 45.4326 60.2686 45.6796 60.2137C45.8031 60.1862 45.9403 60.1793 46.0707 60.1313C46.201 60.0833 46.3314 60.0284 46.4755 59.9735C46.6058 59.898 46.7225 59.8019 46.8528 59.7195C46.9763 59.6372 47.0724 59.4999 47.1821 59.397C47.2919 59.294 47.3742 59.1568 47.4566 59.0264C47.5389 58.8891 47.6281 58.7793 47.6898 58.6421C47.8065 58.3607 47.93 58.148 48.0123 57.9078C48.1838 57.4205 48.2936 57.0911 48.2936 57.0911C48.4171 56.7274 48.815 56.5421 49.1718 56.6656C49.5354 56.7891 49.7206 57.1872 49.5972 57.544C49.5766 57.5989 49.556 57.647 49.5217 57.695H49.5148Z" fill="#F1E4C5"/>
<path d="M49.2883 56.0205C49.2883 56.0205 49.1099 56.3088 48.8355 56.7411C48.7806 56.8441 48.664 56.9745 48.5679 57.1048C48.465 57.2352 48.3621 57.3656 48.2523 57.5098C48.1357 57.647 47.9916 57.7637 47.8613 57.8872C47.7309 58.0176 47.5868 58.1343 47.4153 58.2303C47.2438 58.3196 47.1066 58.45 46.9213 58.4911C46.7429 58.546 46.5783 58.6215 46.4068 58.649C46.2352 58.6696 46.0706 58.6833 45.9196 58.697C45.7687 58.7039 45.6246 58.6764 45.4943 58.6696C45.2336 58.6627 45.0277 58.5872 44.8768 58.5529C44.7327 58.5186 44.6504 58.498 44.6504 58.498C44.6504 58.498 44.7327 58.498 44.8837 58.498C45.0346 58.4911 45.2404 58.5117 45.4874 58.4568C45.6109 58.4294 45.7413 58.4225 45.8716 58.3813C46.002 58.3333 46.1323 58.2852 46.2764 58.2303C46.4068 58.1686 46.5303 58.0725 46.6538 57.997C46.7841 57.9352 46.8733 57.7843 46.9831 57.6882C47.0929 57.5921 47.182 57.4686 47.2575 57.3313C47.333 57.2009 47.429 57.0911 47.4839 56.9607C47.5388 56.8303 47.5937 56.7068 47.6486 56.5901C47.6966 56.4666 47.7515 56.3774 47.7927 56.247C47.9505 55.7598 48.0534 55.4372 48.0534 55.4372C48.17 55.0735 48.5611 54.8745 48.9247 54.9911C49.2883 55.1078 49.4873 55.499 49.3775 55.8627C49.3569 55.9176 49.3364 55.9725 49.3089 56.0205H49.2883Z" fill="#F1E4C5"/>
<path d="M48.9453 54.3324C48.9453 54.3324 48.7738 54.6138 48.5268 55.0461C48.4719 55.1491 48.369 55.2795 48.273 55.4099C48.1769 55.5403 48.074 55.6707 47.9711 55.8079C47.8613 55.9383 47.7172 56.0618 47.5869 56.1854L47.3879 56.3707L47.1478 56.5216C46.9831 56.6108 46.8459 56.7344 46.6607 56.7756C46.4823 56.8236 46.3245 56.8991 46.153 56.9197C45.9883 56.9334 45.8236 56.9471 45.6727 56.9608C45.5218 56.9608 45.3845 56.9334 45.2542 56.9197C45.0003 56.9059 44.8014 56.8236 44.6573 56.7893C44.5201 56.755 44.4377 56.7275 44.4377 56.7275C44.4377 56.7275 44.5201 56.7275 44.6642 56.7275C44.8082 56.7207 45.0141 56.7481 45.2542 56.7001C45.3708 56.6795 45.5012 56.6726 45.6315 56.6383C45.755 56.5971 45.8854 56.5491 46.0226 56.501C46.153 56.453 46.2696 56.3501 46.3862 56.2814C46.5166 56.2197 46.5989 56.0824 46.7018 55.9863L46.8459 55.8354L46.9625 55.6432C47.038 55.5197 47.1203 55.403 47.1752 55.2795C47.2233 55.1559 47.2713 55.0324 47.3193 54.9157C47.3605 54.7991 47.4154 54.7099 47.4428 54.5795C47.58 54.0991 47.6692 53.7834 47.6692 53.7834C47.7721 53.4128 48.1563 53.2001 48.52 53.303C48.8904 53.4059 49.1031 53.7903 49.0002 54.1608C48.9865 54.2226 48.959 54.2707 48.9316 54.3256L48.9453 54.3324Z" fill="#F1E4C5"/>
<path d="M48.5199 52.8842C48.5199 52.8842 48.3621 53.145 48.1288 53.543C48.0808 53.6391 47.971 53.7695 47.8818 53.8862C47.7926 54.0028 47.6897 54.1332 47.5937 54.2636C47.477 54.3803 47.3467 54.4901 47.2232 54.6068C47.1065 54.7303 46.9487 54.8195 46.7909 54.9019C46.64 54.9911 46.4891 55.0734 46.3175 55.1077C46.1529 55.1421 46.0019 55.2175 45.8373 55.2107C45.6863 55.2107 45.5354 55.2175 45.3913 55.2244C45.2541 55.2038 45.1237 55.1832 45.0071 55.1695C44.7738 55.1489 44.5886 55.0597 44.4582 55.0323C44.3279 54.9911 44.2593 54.9705 44.2593 54.9705C44.2593 54.9705 44.3347 54.9705 44.472 54.9705C44.6023 54.9636 44.7944 54.9979 45.0208 54.9568C45.1306 54.943 45.2472 54.9293 45.3707 54.9087C45.4874 54.8675 45.6109 54.8332 45.7344 54.792C45.8647 54.7646 45.9676 54.6685 46.0843 54.6068C46.2009 54.5519 46.2969 54.4489 46.3861 54.3528C46.4753 54.2636 46.5714 54.1744 46.6331 54.0509C46.7017 53.9411 46.7703 53.8313 46.8321 53.7283C46.8733 53.6117 46.9213 53.5019 46.9624 53.3989C46.9968 53.2891 47.0448 53.2205 47.0722 53.097C47.1889 52.6509 47.2712 52.3558 47.2712 52.3558C47.3672 51.9852 47.7514 51.7656 48.1151 51.8617C48.4856 51.9577 48.7051 52.3421 48.6091 52.7126C48.5953 52.7744 48.5679 52.8362 48.5336 52.8911L48.5199 52.8842Z" fill="#F1E4C5"/>
<path d="M48.0466 51.6008C48.0466 51.6008 47.8957 51.8273 47.6761 52.1704C47.6144 52.2597 47.5183 52.3763 47.4291 52.4793C47.3331 52.5822 47.2508 52.7057 47.1341 52.8018C47.0175 52.8979 46.894 52.994 46.7705 53.09C46.6539 53.1861 46.4892 53.241 46.3451 53.3165C46.2079 53.392 46.0501 53.4195 45.8992 53.4469C45.7482 53.4812 45.6042 53.5018 45.4669 53.4881C45.3297 53.4812 45.1925 53.4881 45.0759 53.4675C44.9592 53.44 44.8426 53.4195 44.7397 53.3989C44.5339 53.3577 44.3761 53.2822 44.2594 53.2479C44.1497 53.2067 44.0811 53.1861 44.0811 53.1861C44.0811 53.1861 44.1497 53.1861 44.2663 53.1861C44.3829 53.1861 44.5545 53.2067 44.7534 53.1861C44.8495 53.1724 44.9592 53.1655 45.069 53.1518C45.1788 53.1449 45.2886 53.09 45.3983 53.0626C45.515 53.042 45.6179 52.9871 45.7208 52.9185C45.8237 52.8636 45.9266 52.8155 46.0021 52.7195C46.0776 52.6302 46.1736 52.5822 46.2354 52.4793C46.2971 52.3832 46.3589 52.294 46.4137 52.2048C46.4686 52.1155 46.4961 52.0126 46.5304 51.9302C46.5647 51.841 46.599 51.7793 46.6264 51.6832C46.7362 51.2851 46.8048 51.0244 46.8048 51.0244C46.9077 50.6538 47.2851 50.4342 47.6556 50.5371C48.026 50.64 48.2456 51.0175 48.1427 51.3881C48.1221 51.4567 48.0947 51.5253 48.0535 51.5871L48.0466 51.6008Z" fill="#F1E4C5"/>
<path d="M47.3537 50.7568C47.3537 50.7568 47.1753 50.9353 47.1341 50.9833C47.0792 51.0313 47.0518 51.0725 46.9626 51.148C46.7911 51.2853 46.6058 51.4706 46.3726 51.5666C46.2559 51.6147 46.153 51.6902 46.0227 51.7108C45.8992 51.7451 45.7688 51.7725 45.6453 51.7931C45.5218 51.7931 45.3983 51.7931 45.2748 51.8C45.1582 51.8 45.0416 51.7725 44.9387 51.7588C44.7191 51.7382 44.5407 51.6559 44.3829 51.6078C44.0742 51.4911 43.8821 51.4019 43.8821 51.4019C43.8821 51.4019 44.1016 51.4088 44.4172 51.4019C44.575 51.3813 44.7603 51.3813 44.9387 51.3264C45.0278 51.299 45.1239 51.2921 45.2062 51.251L45.4532 51.1411L45.659 50.9833C45.7277 50.9421 45.7688 50.8598 45.8237 50.8049C45.9335 50.6951 45.9609 50.5578 46.0158 50.4823C46.0364 50.448 46.0707 50.3451 46.0913 50.297C46.1119 50.2353 46.2079 50.0019 46.2079 50.0019C46.352 49.6451 46.7568 49.4666 47.1135 49.6039C47.4772 49.748 47.6487 50.1529 47.5115 50.5098C47.4772 50.599 47.4291 50.6745 47.3605 50.7431H47.3537V50.7568Z" fill="#F1E4C5"/>
<path d="M46.5509 49.7892C46.5509 49.7892 46.3725 49.8852 46.3314 49.9058C46.2971 49.9264 46.2353 49.9607 46.1393 50.0019C45.9609 50.0911 45.7619 50.1598 45.563 50.1803C45.364 50.2078 45.1513 50.2009 44.9661 50.1666C44.5887 50.1048 44.28 49.9401 44.0536 49.8372C43.834 49.7137 43.6899 49.6382 43.6899 49.6382C43.6899 49.6382 43.8546 49.6382 44.1016 49.6313C44.3417 49.6107 44.671 49.5901 44.9318 49.4872C45.0621 49.4392 45.1787 49.3774 45.2542 49.3019C45.3434 49.2333 45.3846 49.1578 45.4052 49.1097C45.5218 48.9245 45.5973 48.8009 45.5973 48.8009C45.8031 48.4647 46.2422 48.3617 46.5715 48.5676C46.9077 48.7735 47.0106 49.2127 46.8048 49.5421C46.7362 49.6519 46.647 49.7343 46.5441 49.796L46.5509 49.7892Z" fill="#F1E4C5"/>
<path d="M5.04281 52.0677C5.04281 52.0677 5.07025 52.1364 5.11828 52.2736C5.16631 52.404 5.24178 52.603 5.34469 52.8295C5.44074 53.056 5.56424 53.3374 5.72204 53.6599C5.87297 53.9825 6.07194 54.3324 6.27776 54.7236C6.50417 55.1011 6.73744 55.5197 7.01874 55.9452C7.28631 56.3775 7.60877 56.803 7.93123 57.256C8.27427 57.6883 8.61732 58.1481 9.01524 58.5805C9.21421 58.8001 9.40631 59.0128 9.60528 59.2324L10.2433 59.857C10.655 60.2893 11.1352 60.6462 11.5743 61.0374C12.0477 61.3874 12.5006 61.7511 12.9671 62.053C13.4474 62.3413 13.8864 62.6638 14.3461 62.8903C14.8058 63.1168 15.2243 63.3775 15.6428 63.5423C16.0613 63.7207 16.4387 63.8785 16.7749 64.0226C17.1179 64.153 17.4266 64.2354 17.6736 64.3246C18.1745 64.4893 18.4626 64.5785 18.4626 64.5785C18.4626 64.5785 18.1676 64.503 17.6531 64.3795C17.3992 64.3109 17.0836 64.2491 16.7268 64.1462C16.3769 64.0295 15.979 63.8923 15.5536 63.7481C15.1214 63.6109 14.6823 63.3775 14.1952 63.1785C13.7081 62.9864 13.2415 62.6844 12.727 62.4236C12.2261 62.1423 11.739 61.8128 11.2313 61.4834C10.7579 61.1128 10.2365 60.7834 9.78366 60.3717L9.08385 59.7746C8.86431 59.5619 8.64476 59.3491 8.42521 59.1432C7.98612 58.7315 7.59505 58.2785 7.20398 57.853C6.83349 57.4138 6.46987 56.9883 6.15427 56.556C5.82495 56.1374 5.55051 55.7187 5.28294 55.3344C5.03595 54.9432 4.79582 54.5864 4.61744 54.2501C4.42533 53.9275 4.26754 53.6324 4.13718 53.3785C3.99996 53.1246 3.92449 52.9393 3.86274 52.8089C3.801 52.6785 3.77355 52.6099 3.77355 52.6099C3.61575 52.2668 3.75983 51.855 4.10287 51.6972C4.44592 51.5393 4.85757 51.6834 5.01537 52.0266C5.01537 52.0403 5.02909 52.0609 5.03595 52.0746L5.04281 52.0677Z" fill="#F1E4C5"/>
<path d="M5.28299 48.6708C5.28299 48.6708 5.30357 48.7394 5.34474 48.8767C5.3859 49.007 5.44079 49.2198 5.52998 49.4394C5.68778 49.8923 5.96221 50.5649 6.36014 51.3404C6.56597 51.7247 6.78552 52.1433 7.05309 52.5688C7.19031 52.7816 7.32752 53.0012 7.46474 53.2208C7.61568 53.4335 7.77348 53.6531 7.93128 53.8796C8.25374 54.3188 8.61736 54.7649 8.99471 55.1972C9.38578 55.6227 9.78371 56.0551 10.2228 56.4463C10.6413 56.8649 11.1216 57.208 11.5675 57.5786C12.0409 57.908 12.5075 58.2443 12.9877 58.5325C13.4748 58.7933 13.9277 59.1021 14.4011 59.2943C14.8676 59.4933 15.2998 59.7267 15.7252 59.8639C16.1506 60.0149 16.5348 60.1453 16.8778 60.2688C17.2277 60.3718 17.5365 60.4404 17.7903 60.509C18.298 60.6394 18.5862 60.708 18.5862 60.708C18.5862 60.708 18.2912 60.6531 17.7766 60.5639C17.5159 60.5159 17.2003 60.4678 16.8435 60.3923C16.4868 60.2963 16.0888 60.1865 15.6566 60.0698C15.2175 59.96 14.7715 59.7541 14.2776 59.5894C13.7836 59.4247 13.3033 59.1502 12.7819 58.9168C12.2742 58.6629 11.7734 58.3541 11.2588 58.0453C10.7717 57.6953 10.2502 57.3796 9.78371 56.9747C9.29659 56.6041 8.85063 56.1855 8.41154 55.7669C7.97931 55.3482 7.57451 54.909 7.19717 54.4767C7.01192 54.257 6.83354 54.0374 6.65516 53.8247C6.4905 53.5982 6.32584 53.3855 6.1749 53.1727C5.8593 52.7472 5.59859 52.3218 5.34474 51.9306C4.86448 51.1345 4.52144 50.4414 4.29503 49.9198C4.17153 49.659 4.11665 49.4737 4.06176 49.3433C4.01373 49.2129 3.98629 49.1443 3.98629 49.1443C3.84907 48.7874 4.02745 48.3894 4.37736 48.259C4.73412 48.1218 5.12519 48.3002 5.26241 48.6502C5.26241 48.6639 5.27613 48.6845 5.27613 48.6982L5.28299 48.6708Z" fill="#F1E4C5"/>
<path d="M6.01024 46.1932C6.01024 46.1932 6.10629 46.4677 6.27095 46.9069C6.43562 47.3461 6.70319 47.9706 7.06681 48.6981C7.26578 49.0549 7.45788 49.4461 7.71173 49.8373C7.945 50.2422 8.24002 50.6334 8.52818 51.052C8.85064 51.4432 9.15937 51.8755 9.54358 52.253C9.90035 52.6579 10.3051 53.0147 10.7099 53.3785C11.1284 53.7285 11.5675 54.0579 12.0066 54.3667C12.4663 54.6481 12.9054 54.9569 13.3719 55.1696C13.8316 55.403 14.2776 55.6363 14.7304 55.7873C15.1763 55.9589 15.588 56.1373 15.9928 56.2334C16.3907 56.35 16.7612 56.453 17.0905 56.5422C17.4267 56.6039 18.7097 56.851 18.7097 56.851C18.7097 56.851 17.4061 56.7069 17.0631 56.6726C16.7269 56.6039 16.3495 56.5285 15.9379 56.4461C15.5194 56.3775 15.0871 56.2334 14.6206 56.0892C14.1472 55.9657 13.6738 55.7667 13.1867 55.5608C12.6859 55.3755 12.2125 55.0941 11.7116 54.8402C11.2245 54.5589 10.7442 54.25 10.2777 53.9206C9.82488 53.5775 9.3652 53.2275 8.96041 52.8294C8.52818 52.4589 8.16455 52.0402 7.79406 51.649C7.45102 51.2304 7.10798 50.8392 6.82668 50.4275C6.52481 50.0294 6.28468 49.6314 6.04455 49.2677C5.59859 48.5265 5.26241 47.8883 5.04972 47.4216C4.83018 46.9618 4.72726 46.7147 4.72726 46.7147L4.71354 46.6873C4.5626 46.3373 4.72726 45.9324 5.07717 45.7883C5.42707 45.6373 5.83186 45.802 5.97594 46.152C5.97594 46.1657 5.98966 46.1863 5.99652 46.2L6.01024 46.1932Z" fill="#F1E4C5"/>
<path d="M7.01178 44.5186C7.01178 44.5186 7.10784 44.7451 7.2725 45.1431C7.43716 45.5137 7.67729 46.0559 8.04091 46.6667C8.21243 46.9823 8.43198 47.2912 8.65153 47.6343C8.89852 47.9569 9.14551 48.3137 9.44739 48.6431C9.72868 48.9863 10.0717 49.302 10.4079 49.6314C10.7647 49.9402 11.1283 50.249 11.5262 50.5167C11.9036 50.8118 12.3427 51.0245 12.7406 51.2784C13.1728 51.4774 13.5845 51.7176 14.0099 51.8686C14.4352 52.0265 14.8469 52.2049 15.2517 52.3078C15.6565 52.4176 16.0338 52.548 16.3974 52.6098C16.7611 52.6853 17.0904 52.7539 17.3854 52.8088C17.6804 52.8431 18.833 52.9873 18.833 52.9873C18.833 52.9873 17.6735 52.9461 17.3717 52.9323C17.0698 52.898 16.7336 52.8569 16.3631 52.8157C15.9926 52.7882 15.5947 52.6922 15.1762 52.6098C14.7508 52.5412 14.3186 52.4039 13.8658 52.2735C13.4061 52.1569 12.967 51.9441 12.5005 51.7794C12.0614 51.5529 11.5811 51.3676 11.1557 51.0931C10.7098 50.8461 10.2981 50.551 9.88648 50.2559C9.49541 49.9402 9.10434 49.6382 8.76816 49.2882C8.4114 48.9588 8.10952 48.6088 7.8145 48.2794C7.54007 47.9363 7.2725 47.6137 7.05981 47.2912C6.61385 46.6667 6.29826 46.1039 6.07185 45.699C5.87288 45.3147 5.75625 45.0951 5.75625 45.0951C5.57787 44.7588 5.70822 44.3471 6.0444 44.1686C6.38059 43.9902 6.79224 44.1206 6.97062 44.4569C6.97748 44.4774 6.9912 44.498 6.99806 44.5118L7.01178 44.5186Z" fill="#F1E4C5"/>
<path d="M8.23304 43.1463C8.23304 43.1463 8.7133 43.9972 8.8368 44.2168C8.97401 44.409 9.12495 44.6217 9.29647 44.8482C9.44741 45.0953 9.66696 45.3286 9.90023 45.5688C10.1404 45.8021 10.353 46.1041 10.6618 46.3168C10.9568 46.5502 11.2587 46.7904 11.5674 47.0306C11.9105 47.2296 12.2604 47.4286 12.6103 47.6276C12.9464 47.8541 13.3444 47.957 13.7149 48.1149C14.0922 48.2453 14.449 48.4306 14.8263 48.5061C15.2037 48.5884 15.5673 48.6708 15.9103 48.7531C16.2602 48.8217 16.5827 48.9247 16.8914 48.9384C18.1333 49.0551 18.9634 49.1306 18.9634 49.1306C18.9634 49.1306 18.1264 49.1374 16.8777 49.1512C16.5621 49.1717 16.2259 49.1031 15.8692 49.0688C15.5124 49.0276 15.1282 48.9796 14.7371 48.9316C14.3392 48.8972 13.955 48.7394 13.5433 48.6433C13.1454 48.5198 12.7132 48.458 12.329 48.2521C11.9379 48.0806 11.54 47.9021 11.1489 47.7306C10.7853 47.5041 10.4354 47.2776 10.0855 47.058C9.72185 46.859 9.45427 46.557 9.16612 46.3237C8.87796 46.0835 8.61039 45.8433 8.3977 45.5757C8.17129 45.3217 7.97233 45.0884 7.78709 44.8825C7.63615 44.6766 7.07356 43.8806 7.07356 43.8806C6.85401 43.5717 6.92262 43.1394 7.23136 42.9198C7.5401 42.7002 7.97233 42.7688 8.19188 43.0776C8.2056 43.0982 8.21932 43.1188 8.23304 43.1394V43.1463Z" fill="#F1E4C5"/>
<path d="M9.74246 41.7805C9.74246 41.7805 10.257 42.3638 10.3942 42.5148C10.5315 42.6315 10.6824 42.7687 10.8471 42.9197C11.0049 43.0775 11.2107 43.2217 11.4371 43.3726C11.6635 43.5168 11.883 43.7089 12.1575 43.8256C12.425 43.9628 12.6995 44.1001 12.9808 44.2442C13.2758 44.354 13.5845 44.4638 13.8864 44.5668C14.1883 44.6972 14.5107 44.7383 14.8195 44.8207C15.1351 44.8824 15.437 44.9854 15.7457 45.0197C16.0544 45.0609 16.3495 45.0952 16.6308 45.1295C16.912 45.157 17.1796 45.2119 17.4266 45.2119C18.4214 45.2393 19.0869 45.2668 19.0869 45.2668C19.0869 45.2668 18.4214 45.3285 17.4197 45.4315C17.1659 45.4658 16.8983 45.4452 16.6102 45.4521C16.322 45.4521 16.0133 45.4521 15.6977 45.4521C15.3821 45.4521 15.0528 45.3972 14.7234 45.3697C14.3941 45.3285 14.0442 45.3217 13.7149 45.2325C13.3787 45.157 13.0425 45.0815 12.7063 45.006C12.3839 44.8893 12.0614 44.7795 11.7527 44.6697C11.4371 44.5736 11.1627 44.4021 10.8882 44.2717C10.6138 44.1344 10.3599 44.004 10.1335 43.8324C9.90712 43.6746 9.69443 43.5305 9.50919 43.4001C9.35825 43.2628 8.76822 42.7481 8.76822 42.7481C8.48006 42.4942 8.45262 42.0619 8.70647 41.7805C8.95346 41.4923 9.39255 41.4648 9.67385 41.7187C9.69443 41.7393 9.71501 41.7599 9.7356 41.7805H9.74246Z" fill="#F1E4C5"/>
<path d="M12.1713 40.1815C12.1713 40.1815 12.5967 40.3668 13.2279 40.6344C13.3857 40.7099 13.5572 40.7785 13.7356 40.8129C13.914 40.8609 14.6961 41.0668 14.902 41.1217C15.1078 41.1766 15.341 41.1834 15.5606 41.2178C16.0134 41.2727 16.4594 41.3276 16.8847 41.3825C17.3101 41.3825 19.2106 41.4099 19.2106 41.4099C19.2106 41.4099 17.3307 41.7393 16.8985 41.8148C16.4594 41.8423 15.9928 41.8697 15.5263 41.904C15.293 41.9109 15.0529 41.9452 14.8196 41.9315C14.5795 41.9109 13.6601 41.8423 13.4475 41.8285C13.2279 41.8217 13.0358 41.7874 12.8711 41.7393C12.1988 41.5883 11.746 41.4854 11.746 41.4854C11.3755 41.4031 11.1422 41.0325 11.2245 40.6619C11.3069 40.2913 11.6774 40.058 12.0478 40.1403C12.089 40.1472 12.1302 40.1609 12.1645 40.1815H12.1713V40.1815Z" fill="#F1E4C5"/>
</g>
<defs>
<clipPath id="clip0_36_26856">
<rect width="167" height="70" fill="white"/>
</clipPath>
</defs>
</svg>
