<svg width="247" height="121" viewBox="0 0 247 121" fill="none" xmlns="http://www.w3.org/2000/svg">
<g clip-path="url(#clip0_36_27025)">
<path d="M220.899 121C220.809 121 220.719 121 220.629 120.964C220.287 120.856 220.07 120.531 220.07 120.17C220.07 113.696 212.59 109.98 204.659 106.067C195.844 101.702 186.742 97.1932 186.742 88.2296C186.742 85.5243 187.553 83.4322 189.139 81.9713C192.762 78.6347 199.828 79.266 206.065 79.807C210.715 80.2038 215.51 80.6367 217.168 79.1036C217.619 78.6888 217.835 78.1478 217.835 77.3722C217.835 74.2701 216.7 71.8714 214.374 70.0318C200.098 58.8137 145.842 72.0157 97.9852 83.6666C58.2936 93.3336 24.0276 101.684 16.1686 95.5159C14.9609 94.56 14.3481 93.3156 14.3481 91.7826C14.3481 88.5723 14.8167 86.8409 15.3034 85.0193C15.8982 82.837 16.5652 80.3481 16.5111 74.4866C16.457 69.2923 15.6819 65.0179 14.997 61.2485C14.4202 58.0743 13.8794 55.0804 13.8794 52.1045C13.8794 51.6356 14.2579 51.2749 14.7086 51.2749C15.1592 51.2749 15.5377 51.6536 15.5377 52.1045C15.5377 54.9181 16.0424 57.7136 16.6192 60.9419C17.3042 64.7835 18.0973 69.112 18.1514 74.4505C18.2235 80.5465 17.5205 83.1436 16.8896 85.4341C16.4029 87.2196 15.9883 88.7707 15.9883 91.7645C15.9883 92.7745 16.3669 93.5681 17.16 94.1813C24.3701 99.8444 59.9159 91.1874 97.5526 82.0254C145.77 70.2843 200.441 56.9741 215.366 68.6972C218.087 70.8434 219.475 73.7471 219.475 77.3542C219.475 78.5806 219.079 79.5726 218.268 80.312C218.087 80.4743 217.907 80.6186 217.691 80.7449C223.549 83.0173 240.493 89.6003 246.423 91.8908C246.748 92.017 246.964 92.3417 246.964 92.6844C246.964 93.027 246.73 93.3517 246.405 93.4599C245.684 93.7124 229.479 99.2673 224.036 100.584C224.504 103.704 225.82 115.12 221.53 120.675C221.368 120.892 221.116 121 220.863 121H220.899ZM198.692 81.0154C195.231 81.0154 192.113 81.4843 190.274 83.1797C189.031 84.3339 188.418 85.9752 188.418 88.2116C188.418 96.1472 197.052 100.422 205.398 104.552C212.482 108.069 219.782 111.676 221.404 117.645C224.216 111.225 222.323 100.187 222.305 100.079C222.233 99.628 222.522 99.2132 222.954 99.123C226.397 98.4377 238.69 94.3256 243.719 92.6122C235.41 89.4019 217.565 82.4582 215.33 81.6106C212.878 82.0615 209.562 81.7729 205.92 81.4483C203.541 81.2499 201.036 81.0154 198.674 81.0154H198.692Z" fill="#F1E4C5"/>
<path d="M188.094 85.8127C188.094 85.8127 188.058 85.8127 188.021 85.8127C187.571 85.7766 187.21 85.3798 187.246 84.9109L188.761 65.0178C188.797 64.5669 189.175 64.2062 189.662 64.2422C190.112 64.2783 190.455 64.6751 190.437 65.144L188.923 85.0371C188.887 85.47 188.526 85.8127 188.094 85.8127Z" fill="#F1E4C5"/>
<path d="M47.136 59.8597C46.7755 59.8597 46.4331 59.6072 46.3249 59.2284C43.5851 48.822 47.0099 43.3392 50.6329 37.5318C51.5522 36.0709 52.4895 34.5559 53.3728 32.9147C53.5891 32.5179 54.0938 32.3556 54.5084 32.572C54.9049 32.7884 55.0671 33.2934 54.8508 33.7083C53.9496 35.3856 52.9942 36.9366 52.0569 38.4155C48.4879 44.1328 45.3876 49.0925 47.9472 58.7956C48.0553 59.2465 47.803 59.6974 47.3523 59.8056C47.2802 59.8236 47.2081 59.8417 47.136 59.8417V59.8597Z" fill="#F1E4C5"/>
<path d="M218.466 76.272C217.997 76.272 217.637 75.8932 217.637 75.4423C217.637 66.2623 220.647 59.8777 223.062 54.7376C224.576 51.5273 225.892 48.7498 225.892 46.2609C225.892 39.9846 223.819 35.3495 219.547 32.1031C201.414 18.324 147.825 33.2213 100.545 46.3692C61.0153 57.3708 26.8755 66.8575 16.8715 59.2645C14.8887 57.7495 13.8793 55.6214 13.8793 52.9341C13.8793 48.5875 14.9247 45.4674 16.6732 43.231C10.3283 41.7521 0.612684 35.3675 -0.00017487 31.9588C-0.0722759 31.544 0.180078 31.1292 0.576633 31.021C7.0477 29.1092 16.4929 22.6525 19.7735 20.3259C19.1607 14.8431 21.6842 1.28047 21.7924 0.685301C21.8645 0.270485 22.261 -0.0361178 22.6936 -4.68399e-05C23.1262 0.0360241 23.4507 0.396734 23.4507 0.829585C23.4507 6.31237 30.0299 8.40448 37.6546 10.8393C46.6131 13.6889 56.7613 16.9172 56.7613 27.0892C56.7613 38.0007 46.7393 38.3975 37.0417 38.7943C29.9037 39.0828 23 39.3534 19.0165 43.0867C18.9444 43.213 18.8362 43.3031 18.7281 43.3753C16.7273 45.4133 15.5196 48.4432 15.5196 52.916C15.5196 55.0983 16.2766 56.7396 17.8448 57.9299C27.1819 65.0359 62.5835 55.1885 100.058 44.764C147.717 31.5079 201.72 16.4844 220.503 30.7685C225.153 34.3034 227.515 39.5157 227.515 46.2429C227.515 49.0925 226.127 52.0323 224.54 55.423C222.197 60.4008 219.277 66.605 219.277 75.4063C219.277 75.8752 218.898 76.2359 218.448 76.2359L218.466 76.272ZM1.92853 32.3376C3.65895 35.1511 12.5454 41.0126 18.0251 41.7881C22.5494 37.7121 30.0659 37.4055 37.0057 37.135C46.7213 36.7382 55.121 36.4136 55.121 27.1073C55.121 17.801 46.0003 15.258 37.1679 12.4444C31.0033 10.4786 25.127 8.60287 22.8198 4.70721C22.0627 9.41447 20.9632 17.296 21.5039 20.5784C21.558 20.885 21.4318 21.2097 21.1615 21.39C18.2955 23.4461 8.85022 29.9929 1.92853 32.3556V32.3376Z" fill="#F1E4C5"/>
<path d="M21.0895 67.4346C21.0895 67.4346 21.3599 67.7051 21.7925 68.1921C22.0268 68.4265 22.2431 68.7512 22.5315 69.1299C22.8199 69.5087 23.0723 69.9595 23.3607 70.4465C23.6491 70.9515 23.9195 71.5106 24.1718 72.1058C24.4062 72.719 24.6585 73.3682 24.8207 74.0716C24.9289 74.4143 25.001 74.775 25.0731 75.1357C25.1452 75.4964 25.2353 75.8752 25.2534 76.2539C25.3255 77.0114 25.3976 77.7689 25.3976 78.5444C25.3976 78.9232 25.3976 79.3199 25.3435 79.6987C25.3074 80.0774 25.3074 80.4562 25.2353 80.8349C25.1272 81.5924 25.001 82.3138 24.8027 83.0172C24.6585 83.7206 24.4062 84.3699 24.1718 84.9831C23.9555 85.5963 23.6671 86.1554 23.4328 86.6604C23.1804 87.1654 22.9101 87.6163 22.6757 88.013C22.4594 88.4098 22.2071 88.7345 22.0088 89.005C21.6122 89.528 21.3779 89.8346 21.3779 89.8346C21.3779 89.8346 21.4861 89.4739 21.7024 88.8607C21.8105 88.5541 21.9547 88.1934 22.0809 87.7606C22.2071 87.3277 22.3693 86.8588 22.5315 86.3357C22.6577 85.7947 22.838 85.2356 22.9641 84.6404C23.0903 84.0272 23.2345 83.396 23.3427 82.7287C23.4869 82.0613 23.5229 81.376 23.6131 80.6906C23.6491 80.348 23.6491 79.9873 23.6852 79.6266C23.7032 79.2658 23.7212 78.9232 23.7032 78.5625C23.7212 77.8591 23.6852 77.1377 23.6311 76.4523C23.541 75.767 23.5049 75.0636 23.3607 74.4143C23.2525 73.747 23.1083 73.1338 22.9641 72.5206C22.8019 71.9254 22.6397 71.3663 22.4594 70.8433C22.2612 70.3383 22.117 69.8513 21.9367 69.4545C21.7565 69.0578 21.6303 68.679 21.4861 68.3904C21.1977 67.7953 21.0535 67.4526 21.0535 67.4526L21.0895 67.4346Z" fill="#F1E4C5"/>
<path d="M26.1907 69.8333C26.1907 69.8333 26.425 70.0316 26.7855 70.3923C27.146 70.7531 27.6687 71.3122 28.1915 72.0516C28.4619 72.4123 28.7322 72.8271 28.9846 73.2961C29.2369 73.765 29.5073 74.2519 29.6876 74.793C29.7957 75.0635 29.8858 75.3521 29.976 75.6407C30.0661 75.9292 30.1562 76.2178 30.2103 76.5244C30.3545 77.1376 30.3906 77.7508 30.4266 78.3821C30.4266 79.0133 30.4086 79.6446 30.3004 80.2397C30.2464 80.8529 30.0481 81.4301 29.9039 81.9892C29.5614 83.0893 29.1108 84.0632 28.6601 84.8388C28.2095 85.6143 27.7769 86.2275 27.4344 86.6423C27.11 87.0571 26.9117 87.2736 26.9117 87.2736C26.9117 87.2736 26.9838 86.985 27.146 86.48C27.2361 86.2275 27.3263 85.9389 27.4344 85.5963C27.5426 85.2536 27.6507 84.8748 27.7769 84.46C27.9031 84.0452 27.9932 83.5943 28.1554 83.1254C28.2816 82.6565 28.3537 82.1515 28.4979 81.6465C28.57 81.1235 28.6782 80.6004 28.7142 80.0594C28.7863 79.5183 28.7683 78.9772 28.7863 78.4362C28.7503 77.8951 28.7322 77.354 28.6421 76.813C28.57 76.29 28.4619 75.7489 28.3357 75.2619C28.2095 74.7569 28.0473 74.27 27.885 73.8191C27.7048 73.3682 27.5606 72.9354 27.3803 72.5386C27.0379 71.745 26.7495 71.0777 26.5332 70.6088C26.3169 70.1399 26.2087 69.8513 26.2087 69.8513L26.1907 69.8333Z" fill="#F1E4C5"/>
<path d="M216.393 66.4247C216.393 66.4247 216.249 66.082 216.015 65.4688C215.888 65.1622 215.798 64.7835 215.672 64.3326C215.528 63.8817 215.456 63.3767 215.366 62.7996C215.276 62.2405 215.239 61.6092 215.221 60.9599C215.221 60.3107 215.221 59.6073 215.312 58.8859C215.348 58.5252 215.384 58.1644 215.456 57.8037C215.528 57.443 215.582 57.0643 215.672 56.7036C215.87 55.9641 216.087 55.2247 216.375 54.5213C216.501 54.1606 216.663 53.7999 216.844 53.4572C217.006 53.1145 217.168 52.7538 217.348 52.4292C217.709 51.7618 218.105 51.1306 218.538 50.5535C218.935 49.9583 219.403 49.4353 219.836 48.9483C220.25 48.4433 220.737 48.0465 221.134 47.6498C221.548 47.253 221.981 46.9464 222.323 46.6578C222.666 46.3692 223.026 46.1528 223.297 45.9725C223.856 45.6117 224.18 45.4314 224.18 45.4314C224.18 45.4314 223.946 45.738 223.513 46.225C223.297 46.4775 223.026 46.766 222.756 47.1087C222.486 47.4694 222.161 47.8482 221.819 48.281C221.512 48.7319 221.134 49.1828 220.791 49.7058C220.449 50.2288 220.088 50.7699 219.746 51.347C219.385 51.9061 219.097 52.5374 218.754 53.1506C218.592 53.4572 218.466 53.7818 218.304 54.1065C218.16 54.4311 218.015 54.7557 217.907 55.0984C217.637 55.7477 217.421 56.433 217.222 57.1003C217.06 57.7857 216.844 58.435 216.736 59.1023C216.609 59.7516 216.501 60.4008 216.429 61.014C216.375 61.6273 216.321 62.2044 216.285 62.7455C216.285 63.2865 216.231 63.7915 216.267 64.2244C216.285 64.6572 216.267 65.054 216.303 65.3786C216.357 66.0279 216.357 66.4067 216.357 66.4067L216.393 66.4247Z" fill="#F1E4C5"/>
<path d="M212.518 62.3306C212.518 62.3306 212.373 62.06 212.157 61.5911C211.941 61.1222 211.67 60.4008 211.436 59.5351C211.31 59.1022 211.22 58.6152 211.13 58.0922C211.058 57.5692 211.004 57.0101 211.022 56.433C211.022 56.1444 211.022 55.8378 211.058 55.5492C211.076 55.2426 211.094 54.936 211.166 54.6474C211.256 54.0342 211.436 53.4391 211.634 52.8259C211.869 52.2487 212.103 51.6536 212.428 51.1305C212.698 50.5714 213.094 50.1205 213.419 49.6336C214.14 48.7318 214.915 47.9924 215.618 47.4333C216.321 46.8742 216.952 46.4593 217.421 46.2068C217.871 45.9363 218.142 45.8101 218.142 45.8101C218.142 45.8101 217.961 46.0626 217.637 46.4593C217.475 46.6577 217.276 46.8922 217.042 47.1808C216.826 47.4693 216.591 47.7759 216.303 48.1186C216.033 48.4613 215.78 48.8581 215.474 49.2368C215.185 49.6336 214.933 50.0664 214.627 50.4993C214.374 50.9502 214.086 51.4191 213.852 51.9061C213.599 52.393 213.401 52.898 213.203 53.403C213.04 53.926 212.86 54.431 212.752 54.9721C212.626 55.4951 212.536 56.0181 212.482 56.5412C212.428 57.0642 212.391 57.5692 212.373 58.0561C212.373 58.5431 212.373 59.012 212.373 59.4449C212.41 60.3106 212.446 61.032 212.464 61.555C212.5 62.0781 212.5 62.3847 212.5 62.3847L212.518 62.3306Z" fill="#F1E4C5"/>
<path d="M54.346 31.58C54.346 31.58 54.346 31.3095 54.3099 30.8226C54.2739 30.3717 54.2198 29.7044 54.0576 28.9108C53.9855 28.514 53.8773 28.0992 53.7692 27.6483C53.625 27.2155 53.4988 26.7465 53.3005 26.2957C53.1383 25.8267 52.8859 25.3758 52.6516 24.8889C52.3812 24.438 52.1289 23.9691 51.7864 23.5362C51.498 23.0853 51.1195 22.6886 50.777 22.2737C50.3985 21.913 50.038 21.4982 49.6414 21.1736C49.2448 20.8489 48.8843 20.5063 48.4878 20.2538C48.1093 19.9832 47.7487 19.7127 47.3882 19.4963C47.0277 19.2799 46.7033 19.0815 46.4149 18.9191C46.1084 18.7749 44.9548 18.1797 44.9548 18.1797C44.9548 18.1797 46.1625 18.6666 46.487 18.7929C46.7934 18.9372 47.1359 19.0995 47.5144 19.2979C47.8929 19.4602 48.2895 19.7127 48.7041 19.9472C49.1367 20.1816 49.5332 20.4882 49.9839 20.7768C50.4345 21.0654 50.8311 21.4441 51.2637 21.8048C51.6602 22.2016 52.0928 22.5803 52.4533 23.0312C52.8499 23.446 53.1743 23.933 53.4988 24.3839C53.8052 24.8708 54.1117 25.3398 54.346 25.8267C54.5983 26.3137 54.7966 26.8006 54.9949 27.2515C55.1571 27.7205 55.3194 28.1713 55.4275 28.5862C55.6799 29.4158 55.806 30.1372 55.8962 30.6422C55.9683 31.1292 56.0043 31.3997 56.0043 31.3997C56.0764 31.8506 55.77 32.2834 55.3013 32.3556C54.8507 32.4277 54.4181 32.1211 54.346 31.6522C54.346 31.6342 54.346 31.5981 54.346 31.58V31.58Z" fill="#F1E4C5"/>
<path d="M51.2817 34.2493C51.2817 34.2493 51.2817 33.9788 51.2457 33.5098C51.2096 33.0589 51.1736 32.4097 51.0474 31.6522C50.9933 31.2734 50.9032 30.8586 50.795 30.4258C50.6688 30.011 50.5607 29.542 50.3804 29.1092C50.2182 28.6583 50.0019 28.2074 49.7676 27.7565C49.5152 27.3237 49.2629 26.8728 48.9384 26.476C48.65 26.0431 48.2715 25.6824 47.929 25.3037C47.5505 24.961 47.19 24.5823 46.7934 24.3117C46.3969 24.0051 46.0183 23.7166 45.6218 23.4821C45.2432 23.2476 44.8827 22.9951 44.5042 22.8328C44.1437 22.6525 43.8192 22.4902 43.5308 22.3459C43.2244 22.2196 42.0708 21.7327 42.0708 21.7327C42.0708 21.7327 43.2785 22.1114 43.5849 22.2016C43.8914 22.3278 44.2338 22.4541 44.6124 22.5984C44.9909 22.7246 45.3874 22.941 45.802 23.1394C46.2346 23.3378 46.6492 23.6084 47.0818 23.8609C47.5325 24.1133 47.929 24.4741 48.3616 24.7807C48.7582 25.1594 49.1908 25.5021 49.5513 25.9349C49.9478 26.3317 50.2543 26.8006 50.5967 27.2335C50.8851 27.7024 51.1916 28.1533 51.4079 28.6403C51.6602 29.1092 51.8225 29.5961 52.0027 30.047C52.1649 30.4979 52.2911 30.9488 52.3993 31.3456C52.6156 32.1572 52.7237 32.8425 52.8138 33.3295C52.8859 33.7984 52.922 34.0509 52.922 34.0509C52.9941 34.5018 52.6696 34.9346 52.219 35.0068C51.7684 35.0789 51.3358 34.7543 51.2637 34.3034C51.2637 34.2854 51.2637 34.2493 51.2637 34.2132L51.2817 34.2493Z" fill="#F1E4C5"/>
<path d="M48.1634 36.3774C48.1634 36.3774 48.1634 36.1249 48.1274 35.6921C48.0913 35.2773 48.0553 34.6821 47.9471 33.9607C47.893 33.6 47.8209 33.2212 47.7128 32.8244C47.6046 32.4277 47.4965 32.0128 47.3162 31.6161C47.154 31.2013 46.9377 30.8045 46.7214 30.3897C46.4691 29.9929 46.2167 29.5961 45.8922 29.2354C45.6038 28.8566 45.2253 28.532 44.9009 28.1893C44.5223 27.9008 44.1798 27.5761 43.7833 27.3417C43.4048 27.0892 43.0262 26.8367 42.6477 26.6563C42.2692 26.4579 41.9087 26.2595 41.5662 26.1333C41.2237 25.989 40.8992 25.8447 40.6289 25.7365C40.3405 25.6463 39.2229 25.2676 39.2229 25.2676C39.2229 25.2676 40.3765 25.5201 40.6649 25.5922C40.9533 25.6644 41.2958 25.7726 41.6563 25.8808C42.0168 25.971 42.4134 26.1333 42.8099 26.2956C43.2245 26.4399 43.6391 26.6563 44.0537 26.8727C44.4863 27.0711 44.8828 27.3777 45.3335 27.6483C45.73 27.9729 46.1626 28.2615 46.5231 28.6582C46.9197 29.019 47.2261 29.4338 47.5686 29.8306C47.857 30.2634 48.1454 30.6782 48.3617 31.1291C48.596 31.562 48.7763 32.0128 48.9385 32.4277C49.1007 32.8605 49.2269 33.2573 49.3351 33.636C49.5333 34.3935 49.6595 35.0428 49.7316 35.4937C49.8037 35.9265 49.8398 36.179 49.8398 36.179C49.9119 36.6299 49.6054 37.0628 49.1548 37.1349C48.7042 37.2071 48.2716 36.9005 48.1995 36.4496C48.1995 36.4135 48.1995 36.3955 48.1995 36.3594L48.1634 36.3774Z" fill="#F1E4C5"/>
<path d="M44.9009 37.2792C44.9009 37.2792 44.8828 37.0628 44.8288 36.7021C44.7747 36.3594 44.7206 35.8724 44.5584 35.2953C44.4863 35.0067 44.3962 34.7001 44.27 34.3755C44.1438 34.0508 43.9996 33.7262 43.8193 33.4016C43.6391 33.0769 43.4228 32.7703 43.1885 32.4457C42.9361 32.1571 42.6657 31.8505 42.3593 31.58C42.0709 31.2914 41.7284 31.075 41.404 30.8225C41.0615 30.6241 40.719 30.3716 40.3765 30.2273C40.034 30.047 39.6916 29.8847 39.3491 29.7584C39.0066 29.6141 38.7002 29.4879 38.3937 29.3977C37.7989 29.1993 37.2762 29.055 36.9157 28.9648C36.5552 28.8747 36.3389 28.8206 36.3389 28.8206C36.3389 28.8206 36.5552 28.8386 36.9157 28.8927C37.2942 28.9288 37.8169 29.0009 38.4478 29.1272C38.7723 29.1813 39.0967 29.2714 39.4572 29.3616C39.8177 29.4518 40.1963 29.578 40.5748 29.7223C40.9714 29.8486 41.3499 30.047 41.7464 30.2273C42.125 30.4438 42.5215 30.6421 42.882 30.9127C43.2606 31.1652 43.585 31.4718 43.9275 31.7603C44.2339 32.085 44.5404 32.4096 44.7927 32.7703C45.0451 33.113 45.2614 33.4737 45.4596 33.8164C45.6579 34.1591 45.8021 34.5017 45.9283 34.8264C46.1807 35.4576 46.3249 36.0167 46.433 36.4135C46.5231 36.7742 46.5772 36.9906 46.5772 36.9906C46.6854 37.4415 46.415 37.8924 45.9644 38.0006C45.5137 38.1088 45.0631 37.8383 44.9549 37.3874C44.9549 37.3513 44.9549 37.3153 44.9549 37.2792H44.9009Z" fill="#F1E4C5"/>
<path d="M41.404 37.7842C41.404 37.7842 41.1516 37.0448 41.0795 36.8464C41.0074 36.7021 40.9173 36.5217 40.8091 36.3414C40.737 36.143 40.5928 35.9446 40.4306 35.7462C40.2684 35.5478 40.1242 35.2953 39.9079 35.115C39.6916 34.9166 39.4933 34.7001 39.2409 34.5198C38.9886 34.3394 38.7182 34.1771 38.4478 33.9968C38.1775 33.8164 37.871 33.7082 37.5826 33.5639C37.2942 33.4377 37.0058 33.2753 36.7174 33.2032C36.1226 33.0228 35.5818 32.8064 35.0951 32.7162C34.1037 32.5179 33.4548 32.3916 33.4548 32.3916C33.4548 32.3916 34.1218 32.4277 35.1312 32.4637C35.6359 32.4637 36.2307 32.608 36.8616 32.6982C37.1861 32.7343 37.4925 32.8425 37.835 32.9327C38.1594 33.0409 38.5019 33.095 38.8264 33.2573C39.1508 33.4016 39.4753 33.5459 39.7817 33.7082C40.0881 33.8705 40.3765 34.0869 40.6469 34.2853C40.9533 34.4657 41.1516 34.7182 41.3859 34.9346C41.6203 35.151 41.8366 35.3675 41.9808 35.62C42.143 35.8544 42.3052 36.0708 42.4494 36.2692C42.5396 36.4496 42.9181 37.153 42.9181 37.153C43.1344 37.5678 42.9902 38.0728 42.5756 38.2892C42.161 38.5056 41.6563 38.3613 41.44 37.9465C41.422 37.9105 41.404 37.8564 41.3859 37.8203L41.404 37.7842Z" fill="#F1E4C5"/>
<path d="M37.0598 38.3973C37.0598 38.3973 36.6633 38.0366 36.5551 37.9284C36.465 37.8563 36.3569 37.7841 36.2487 37.694C36.1406 37.6038 35.9964 37.5136 35.8341 37.4234C35.6719 37.3332 35.5097 37.225 35.3294 37.1349C35.1492 37.0447 34.9509 36.9545 34.7526 36.8643C34.5543 36.7922 34.338 36.72 34.1217 36.6479C33.7072 36.5036 33.2565 36.3954 32.8419 36.2872C32.4274 36.197 32.0308 36.1249 31.6883 36.0708C31.0034 35.9806 30.5527 35.9084 30.5527 35.9084C30.5527 35.9084 31.0214 35.8724 31.7063 35.8002C32.0488 35.7822 32.4634 35.7822 32.896 35.7642C33.3286 35.7642 33.8153 35.7642 34.284 35.8363C34.5183 35.8724 34.7706 35.8904 35.005 35.9265C35.2393 35.9806 35.4736 36.0347 35.6899 36.0708C35.9243 36.1068 36.1225 36.197 36.3388 36.2511C36.5371 36.3233 36.7354 36.3774 36.9337 36.4675C37.1139 36.5577 37.2942 36.6299 37.4384 36.702C37.5646 36.7741 38.0332 37.0447 38.0332 37.0447C38.4298 37.2791 38.574 37.7841 38.3396 38.199C38.1053 38.5957 37.6006 38.74 37.186 38.5056C37.1319 38.4695 37.0779 38.4334 37.0418 38.3973H37.0598Z" fill="#F1E4C5"/>
<path d="M190.148 93.8564C190.148 93.8564 190.851 94.2532 191.031 94.3614C191.212 94.4697 191.41 94.5418 191.626 94.668C191.843 94.7763 192.077 94.9025 192.347 94.9927C192.618 95.1009 192.888 95.2091 193.195 95.3173C193.483 95.4255 193.807 95.5157 194.114 95.6059C194.438 95.7141 194.763 95.8043 195.087 95.8584C195.412 95.9305 195.754 96.0207 196.079 96.0748C196.403 96.1289 196.745 96.165 197.052 96.2191C197.683 96.3093 198.296 96.3093 198.8 96.3634C199.323 96.3634 199.738 96.3634 200.044 96.3634C200.351 96.3634 200.513 96.3634 200.513 96.3634C200.513 96.3634 200.351 96.3995 200.044 96.4355C199.738 96.4716 199.323 96.5618 198.8 96.6339C198.278 96.67 197.665 96.7602 197.016 96.7602C196.691 96.7602 196.349 96.7602 196.006 96.7602C195.664 96.7602 195.303 96.7241 194.961 96.7061C194.6 96.7061 194.258 96.6519 193.916 96.5978C193.573 96.5437 193.231 96.5077 192.888 96.4355C192.564 96.3634 192.239 96.2912 191.951 96.2191C191.644 96.147 191.356 96.0387 191.104 95.9666C190.851 95.8764 190.581 95.8223 190.401 95.7321C190.202 95.66 189.445 95.3714 189.445 95.3714C189.013 95.2091 188.796 94.7221 188.977 94.2893C189.139 93.8564 189.626 93.64 190.058 93.8204C190.094 93.8204 190.13 93.8564 190.166 93.8745L190.148 93.8564Z" fill="#F1E4C5"/>
<path d="M188.742 90.52C188.742 90.52 189.481 91.043 189.662 91.1873C189.86 91.3316 190.058 91.4218 190.292 91.5661C190.527 91.6923 190.761 91.8727 191.05 91.9809C191.338 92.1071 191.644 92.2514 191.951 92.3957C192.275 92.522 192.618 92.6302 192.96 92.7564C193.303 92.8827 193.663 92.9728 194.042 93.063C194.402 93.1352 194.763 93.2614 195.141 93.2975C195.502 93.3516 195.88 93.4057 196.223 93.4418C196.583 93.5139 196.926 93.4778 197.25 93.5139C197.575 93.5139 197.881 93.55 198.17 93.55C199.323 93.4959 200.08 93.4598 200.08 93.4598C200.08 93.4598 199.323 93.6041 198.188 93.8025C197.899 93.8385 197.593 93.8566 197.25 93.8927C196.926 93.9107 196.565 93.9828 196.205 93.9648C195.844 93.9648 195.466 93.9648 195.069 93.9648C194.673 93.9648 194.294 93.9107 193.898 93.8746C193.501 93.8385 193.104 93.8025 192.726 93.7123C192.347 93.6402 191.969 93.568 191.59 93.4778C191.23 93.3696 190.887 93.2614 190.545 93.1712C190.202 93.0811 189.896 92.9368 189.608 92.8105C189.319 92.6843 189.031 92.5761 188.832 92.4678C188.616 92.3596 187.823 91.9268 187.823 91.9268C187.408 91.7104 187.264 91.2054 187.481 90.7905C187.697 90.3757 188.202 90.2314 188.616 90.4479C188.652 90.4479 188.688 90.4839 188.706 90.502L188.742 90.52Z" fill="#F1E4C5"/>
<path d="M188.382 87.7785C188.382 87.7785 189.085 88.3376 189.283 88.4818C189.463 88.6261 189.662 88.7163 189.896 88.8606C190.13 88.9868 190.347 89.1672 190.635 89.2934C190.923 89.4197 191.212 89.564 191.536 89.7083C191.861 89.8165 192.203 89.9427 192.546 90.0509C192.888 90.1772 193.249 90.2493 193.627 90.3395C193.988 90.4116 194.366 90.5198 194.727 90.5559C195.105 90.592 195.466 90.6461 195.808 90.6822C196.169 90.7363 196.511 90.7002 196.836 90.7182C197.16 90.7182 197.485 90.7182 197.755 90.7182C198.909 90.61 199.666 90.5559 199.666 90.5559C199.666 90.5559 198.909 90.7182 197.773 90.9888C197.485 91.0248 197.178 91.0609 196.836 91.115C196.511 91.1511 196.151 91.2232 195.79 91.2232C195.43 91.2232 195.033 91.2413 194.655 91.2593C194.258 91.2954 193.88 91.2232 193.483 91.2052C193.086 91.1691 192.69 91.1511 192.311 91.0609C191.933 90.9888 191.536 90.9166 191.176 90.8265C190.815 90.7182 190.455 90.61 190.13 90.5018C189.788 90.4116 189.481 90.2493 189.193 90.1231C188.905 89.9968 188.616 89.8706 188.418 89.7624C188.22 89.6361 187.445 89.1852 187.445 89.1852C187.048 88.9508 186.922 88.4458 187.156 88.049C187.39 87.6522 187.895 87.526 188.292 87.7604C188.328 87.7785 188.364 87.7965 188.382 87.8326V87.7785Z" fill="#F1E4C5"/>
<path d="M188.526 85.4158C188.526 85.4158 189.193 85.9569 189.373 86.0831C189.553 86.2274 189.734 86.2995 189.95 86.4438C190.166 86.5701 190.365 86.7324 190.653 86.8226C190.923 86.9488 191.212 87.0751 191.5 87.2013C191.807 87.2915 192.131 87.3997 192.473 87.4899C192.798 87.5981 193.158 87.6522 193.501 87.7063C193.843 87.7604 194.204 87.8506 194.546 87.8506C194.907 87.8686 195.249 87.9047 195.574 87.9227C195.916 87.9588 196.241 87.9227 196.547 87.9227C196.854 87.9227 197.16 87.9047 197.43 87.8867C198.512 87.7424 199.233 87.6342 199.233 87.6342C199.233 87.6342 198.53 87.8326 197.466 88.1392C197.196 88.1933 196.908 88.2474 196.583 88.3015C196.277 88.3556 195.934 88.4458 195.592 88.4638C195.249 88.4818 194.889 88.5179 194.51 88.554C194.15 88.6081 193.771 88.554 193.393 88.554C193.014 88.554 192.636 88.554 192.257 88.4638C191.897 88.4097 191.518 88.3556 191.158 88.3015C190.815 88.2113 190.473 88.1031 190.148 88.031C189.824 87.9588 189.517 87.7965 189.247 87.6883C188.977 87.562 188.688 87.4538 188.49 87.3456C188.292 87.2374 187.553 86.8045 187.553 86.8045C187.156 86.5701 187.012 86.0651 187.246 85.6683C187.48 85.2715 187.985 85.1272 188.382 85.3617C188.418 85.3797 188.454 85.3978 188.49 85.4338L188.526 85.4158Z" fill="#F1E4C5"/>
<path d="M189.121 83.396C189.121 83.396 189.752 83.8289 189.914 83.9371C190.076 84.0453 190.238 84.0994 190.437 84.2076C190.635 84.2978 190.815 84.424 191.086 84.4962C191.338 84.5864 191.59 84.6765 191.861 84.7667C192.149 84.8389 192.437 84.893 192.744 84.9651C193.05 85.0553 193.357 85.0733 193.663 85.1094C193.97 85.1274 194.294 85.1996 194.6 85.1815C194.925 85.1815 195.231 85.1815 195.52 85.1815C195.826 85.1815 196.115 85.1274 196.385 85.1094C196.655 85.0733 196.926 85.0553 197.16 85.0373C198.115 84.8569 198.764 84.7306 198.764 84.7306C198.764 84.7306 198.151 84.9471 197.214 85.2898C196.98 85.3619 196.709 85.416 196.439 85.4881C196.169 85.5603 195.88 85.6505 195.574 85.7046C195.267 85.7587 194.943 85.8128 194.618 85.8669C194.294 85.939 193.952 85.921 193.609 85.9571C193.267 85.9751 192.924 86.0112 192.6 85.9571C192.257 85.939 191.933 85.921 191.608 85.8849C191.284 85.8308 190.977 85.7767 190.689 85.7226C190.401 85.6865 190.112 85.5603 189.842 85.4881C189.589 85.398 189.319 85.3258 189.139 85.2356C188.959 85.1455 188.256 84.8208 188.256 84.8208C187.841 84.6224 187.661 84.1355 187.859 83.7026C188.057 83.2878 188.544 83.1075 188.977 83.3058C189.013 83.3239 189.067 83.3419 189.085 83.378L189.121 83.396Z" fill="#F1E4C5"/>
<path d="M190.365 81.6465C190.365 81.6465 190.941 81.899 191.086 81.9531C191.23 82.0252 191.374 82.0433 191.536 82.0974C191.698 82.1335 191.879 82.2236 192.077 82.2417C192.293 82.2777 192.51 82.3318 192.744 82.3679C192.978 82.404 193.213 82.404 193.465 82.4401C193.717 82.4761 193.97 82.4761 194.222 82.4581C194.474 82.4581 194.745 82.4581 194.997 82.4401C195.249 82.422 195.502 82.3859 195.736 82.3679C195.988 82.3679 196.205 82.2958 196.439 82.2597C196.655 82.2236 196.872 82.1876 197.07 82.1515C197.845 81.9531 198.35 81.8268 198.35 81.8268C198.35 81.8268 197.863 82.0613 197.142 82.404C196.962 82.4761 196.746 82.5483 196.529 82.6384C196.313 82.7106 196.097 82.8188 195.844 82.8909C195.592 82.9631 195.34 83.0352 195.087 83.1254C194.835 83.2156 194.564 83.2516 194.294 83.3058C194.024 83.3599 193.753 83.414 193.483 83.432C193.213 83.4681 192.942 83.5041 192.672 83.5041C192.401 83.5041 192.149 83.5041 191.915 83.5041C191.68 83.5041 191.428 83.4681 191.194 83.45C190.977 83.432 190.743 83.414 190.599 83.3779C190.437 83.3418 189.824 83.2156 189.824 83.2156C189.373 83.1254 189.085 82.6745 189.175 82.2236C189.265 81.7727 189.716 81.4842 190.166 81.5743C190.22 81.5743 190.274 81.6104 190.329 81.6285L190.365 81.6465Z" fill="#F1E4C5"/>
<path d="M14.2218 53.7097L14.9248 54.1967L15.3394 54.9361C14.9969 55.2427 14.4742 55.2247 14.1677 54.882C13.8613 54.5393 13.8793 54.0163 14.2218 53.7097Z" fill="#F1E4C5"/>
<path d="M15.8984 44.8902C15.8984 44.8902 16.1327 44.764 16.5473 44.5656C16.9619 44.3672 17.5206 44.0426 18.2957 43.736C18.6743 43.5737 19.0708 43.3933 19.5034 43.2129C19.936 43.0326 20.4047 42.8883 20.8733 42.726C21.342 42.5456 21.8467 42.3833 22.3514 42.2571C22.8561 42.1308 23.3788 41.9685 23.9016 41.8423C24.4243 41.7521 24.9651 41.6439 25.4878 41.5537C26.0105 41.4455 26.5333 41.4455 27.0199 41.3914C27.5247 41.3733 27.9933 41.2832 28.462 41.3192C28.9126 41.3192 29.3452 41.3553 29.7598 41.3733C30.1563 41.3733 30.5168 41.4274 30.8413 41.4815C31.1658 41.5357 32.3734 41.7521 32.3734 41.7521C32.3734 41.7521 31.1477 41.6619 30.8233 41.6439C30.4988 41.6078 30.1383 41.5898 29.7598 41.6439C29.3632 41.6619 28.9487 41.698 28.498 41.716C28.0474 41.716 27.5787 41.8603 27.1101 41.9324C26.6234 42.0226 26.1367 42.0767 25.632 42.239C25.1453 42.3833 24.6406 42.5276 24.1359 42.6539C23.6492 42.8162 23.1625 43.0146 22.6759 43.1949C22.1892 43.3572 21.7386 43.5737 21.3059 43.7901C20.8733 44.0065 20.4407 44.1869 20.0442 44.3853C19.6656 44.6017 19.2871 44.8001 18.9627 44.9804C18.2957 45.3231 17.7369 45.7199 17.3404 45.9543C16.9438 46.2068 16.7275 46.3511 16.7275 46.3511C16.331 46.6036 15.8263 46.4774 15.5739 46.0986C15.3216 45.7018 15.4477 45.1969 15.8263 44.9444C15.8443 44.9444 15.8803 44.9083 15.8984 44.9083V44.8902Z" fill="#F1E4C5"/>
<path d="M14.6005 49.4892C14.6005 49.4892 14.8348 49.3269 15.2494 49.0563C15.682 48.7858 16.3129 48.371 17.088 47.9381C17.8631 47.5053 18.7824 47.0364 19.7918 46.6215C20.8012 46.1887 21.9007 45.7919 23.0363 45.5033C23.5951 45.341 24.1719 45.2328 24.7307 45.1246C25.3075 45.0344 25.8483 44.9262 26.389 44.8901C26.9298 44.836 27.4525 44.8 27.9572 44.8C28.4619 44.7819 28.9306 44.8 29.3632 44.818C29.7958 44.818 30.1923 44.8901 30.5348 44.9262C30.8773 44.9623 31.1837 45.0164 31.4361 45.0524C31.9228 45.1426 32.2112 45.1967 32.2112 45.1967C32.2112 45.1967 31.9228 45.1787 31.4181 45.1246C31.1657 45.1066 30.8593 45.0705 30.5168 45.0705C30.1743 45.0705 29.7778 45.0344 29.3452 45.0705C28.9125 45.0885 28.4619 45.1066 27.9752 45.1787C27.4886 45.2328 26.9838 45.3049 26.4611 45.4132C25.9384 45.4853 25.4156 45.6476 24.8749 45.7739C24.3341 45.9362 23.7934 46.0805 23.2706 46.2969C22.2072 46.6756 21.1797 47.1446 20.2604 47.6496C19.3231 48.1365 18.494 48.6595 17.809 49.1285C17.4665 49.3629 17.1421 49.5794 16.8897 49.7958C16.6193 50.0122 16.385 50.1565 16.1867 50.3368C15.7902 50.6615 15.5739 50.8418 15.5739 50.8418C15.2134 51.1304 14.6906 51.0763 14.4022 50.7156C14.1138 50.3549 14.1679 49.8318 14.5284 49.5433C14.5464 49.5433 14.5644 49.5072 14.5825 49.5072L14.6005 49.4892Z" fill="#F1E4C5"/>
<path d="M14.3662 53.5653C14.3662 53.5653 14.6006 53.385 14.9971 53.0603C15.4117 52.7357 16.0246 52.2848 16.7816 51.7798C17.1601 51.5454 17.5747 51.2748 18.0254 51.0223C18.476 50.7698 18.9446 50.5173 19.4674 50.2648C19.9721 50.0304 20.4948 49.7779 21.0536 49.5795C21.5944 49.3631 22.1712 49.1827 22.748 49.0024C23.3248 48.84 23.9016 48.6958 24.4784 48.5875C25.0552 48.4793 25.614 48.3892 26.1728 48.335C26.7316 48.2629 27.2543 48.2629 27.759 48.2449C28.2637 48.2449 28.7504 48.2629 29.183 48.2629C29.6156 48.299 30.0302 48.335 30.3727 48.3711C30.7332 48.3892 31.0396 48.4613 31.2919 48.4974C31.7966 48.5875 32.085 48.6236 32.085 48.6236C32.085 48.6236 31.7966 48.6056 31.2919 48.5695C31.0396 48.5695 30.7332 48.5154 30.3727 48.5154C30.0121 48.5154 29.6156 48.5154 29.183 48.5154C28.7504 48.5515 28.2817 48.5695 27.777 48.6236C27.2903 48.6958 26.7676 48.7318 26.2268 48.8581C25.7041 48.9483 25.1634 49.0745 24.6046 49.2368C24.0638 49.3811 23.5231 49.5795 22.9823 49.7779C22.4415 49.9943 21.9188 50.2107 21.4321 50.4632C20.9274 50.6977 20.4407 50.9863 19.9901 51.2388C19.5395 51.5093 19.1069 51.7979 18.7103 52.0684C18.2957 52.3389 17.9533 52.6275 17.6108 52.88C16.9438 53.4211 16.4211 53.8719 16.0606 54.2146C15.7001 54.5753 15.4838 54.7737 15.4838 54.7737C15.1593 55.0984 14.6186 55.0803 14.3122 54.7557C13.9877 54.413 14.0057 53.89 14.3302 53.5834C14.3302 53.5834 14.3662 53.5473 14.3843 53.5293L14.3662 53.5653Z" fill="#F1E4C5"/>
<path d="M15.4117 56.5591C15.4117 56.5591 16.4031 55.7475 16.6554 55.5491C16.9078 55.3327 17.2683 55.1163 17.6108 54.8818C17.9713 54.6473 18.3318 54.3588 18.7644 54.1424C19.197 53.9079 19.6296 53.6734 20.0982 53.4209C20.5849 53.2225 21.0896 53.0242 21.5943 52.8077C22.099 52.5733 22.6578 52.4831 23.1806 52.3208C23.7213 52.1765 24.244 52.0142 24.8028 51.9781C25.3436 51.906 25.8663 51.8338 26.3891 51.7797C26.9118 51.7436 27.3985 51.7797 27.8851 51.7797C28.3538 51.7797 28.8044 51.7797 29.219 51.7977C30.8413 52.0142 31.9228 52.1404 31.9228 52.1404C31.9228 52.1404 30.8413 52.1043 29.219 52.0502C28.8225 52.0502 28.3718 52.1224 27.9212 52.1585C27.4525 52.2126 26.9659 52.2306 26.4792 52.3027C25.9925 52.4109 25.4878 52.5372 24.9651 52.6454C24.4423 52.7356 23.9556 52.934 23.4509 53.1143C22.9643 53.3127 22.4415 53.439 21.9909 53.7095C21.5222 53.944 21.0716 54.1784 20.639 54.4129C20.2244 54.6834 19.8459 54.9539 19.4674 55.2064C19.0888 55.4409 18.7824 55.7295 18.476 55.982C18.1876 56.2345 17.8992 56.4509 17.6648 56.6673C17.4305 56.9018 16.5292 57.8036 16.5292 57.8036C16.2048 58.1282 15.6821 58.1282 15.3576 57.8036C15.0331 57.4789 15.0331 56.9559 15.3576 56.6312C15.3756 56.6132 15.3936 56.5952 15.4117 56.5771V56.5591Z" fill="#F1E4C5"/>
<path d="M17.6469 58.3807C17.6469 58.3807 18.5121 57.7495 18.7284 57.5871C18.9627 57.4248 19.2692 57.2625 19.5756 57.0821C19.882 56.8837 20.2245 56.7034 20.603 56.5411C20.9816 56.3788 21.3601 56.1804 21.7927 56.0361C22.2073 55.9098 22.6579 55.7656 23.0905 55.6393C23.5412 55.5131 24.0098 55.4589 24.4604 55.3688C24.6948 55.3327 24.9111 55.2786 25.1454 55.2606C25.3797 55.2606 25.6141 55.2245 25.8304 55.2245C26.281 55.2065 26.7316 55.1523 27.1642 55.1523C27.5968 55.1704 28.0114 55.1884 28.408 55.2065C28.8045 55.2245 29.165 55.2064 29.5075 55.2786C30.8594 55.4589 31.7607 55.5852 31.7607 55.5852C31.7607 55.5852 30.8594 55.5672 29.4895 55.5311C29.147 55.5311 28.7865 55.5672 28.3899 55.5852C28.0114 55.6213 27.5968 55.6393 27.1823 55.6754C26.7677 55.7295 26.3351 55.8197 25.9025 55.8918C25.6862 55.9279 25.4699 55.9639 25.2536 56.018C25.0373 56.0722 24.8209 56.1443 24.6227 56.1984C24.2081 56.3427 23.7755 56.4329 23.3789 56.5952C22.9824 56.7755 22.6038 56.9379 22.2253 57.1002C21.8648 57.2625 21.5223 57.497 21.1979 57.6773C20.8734 57.8577 20.585 58.0561 20.3507 58.2544C20.0983 58.4528 19.864 58.6152 19.6657 58.7775C19.4675 58.9578 18.6743 59.6792 18.6743 59.6792C18.3319 59.9859 17.8091 59.9678 17.5027 59.6251C17.1963 59.2825 17.2143 58.7594 17.5568 58.4528C17.5748 58.4348 17.6108 58.4168 17.6289 58.3987L17.6469 58.3807Z" fill="#F1E4C5"/>
<path d="M21.1618 59.4629C21.1618 59.4629 21.8828 59.2104 22.0631 59.1383C22.2794 59.0842 22.5137 59.012 22.7661 58.9399C23.0184 58.8677 23.2888 58.7956 23.5772 58.7595C23.8656 58.7054 24.1721 58.6333 24.4785 58.6152C24.7849 58.5792 25.1094 58.5611 25.4518 58.5251C25.7763 58.507 26.1188 58.5251 26.4432 58.507C27.1102 58.489 27.7591 58.5611 28.3719 58.5792C28.9848 58.6513 29.5436 58.7054 30.0303 58.7776C30.9856 58.9399 31.6345 59.0481 31.6345 59.0481C31.6345 59.0481 30.9856 59.0481 30.0122 59.0481C29.5256 59.0481 28.9668 59.1022 28.3719 59.1202C27.7771 59.1924 27.1282 59.2284 26.5153 59.3547C26.2089 59.4088 25.8845 59.4629 25.596 59.535C25.2896 59.6072 25.0012 59.6974 24.7128 59.7695C24.4244 59.8416 24.1721 59.9499 23.9197 60.04C23.6673 60.1302 23.433 60.2204 23.2347 60.3106C23.0365 60.4007 22.8562 60.4909 22.694 60.5631C22.5137 60.6532 21.8648 61.032 21.8648 61.032C21.4683 61.2665 20.9455 61.1222 20.7292 60.7074C20.5129 60.2925 20.6391 59.7875 21.0537 59.5711C21.0897 59.5531 21.1438 59.535 21.1799 59.517L21.1618 59.4629Z" fill="#F1E4C5"/>
<path d="M218.196 79.6626C218.196 79.6626 216.808 79.8249 216.429 79.8609C216.069 79.9151 215.636 79.9151 215.167 79.9331C214.699 79.9331 214.194 79.9692 213.671 79.9872C213.149 79.9872 212.59 79.9511 212.013 79.9151C211.436 79.9151 210.859 79.861 210.265 79.7888C209.67 79.7167 209.075 79.6445 208.462 79.5724C207.867 79.4642 207.272 79.3379 206.678 79.2297C206.083 79.1395 205.524 78.9772 204.983 78.8149C204.442 78.6526 203.902 78.5263 203.415 78.364C202.928 78.1837 202.478 78.0033 202.045 77.841C201.631 77.6787 201.234 77.5344 200.91 77.336C200.585 77.1556 199.341 76.5063 199.341 76.5063C199.341 76.5063 200.639 77.0654 200.964 77.1917C201.288 77.354 201.685 77.4622 202.117 77.5885C202.55 77.7147 203.018 77.841 203.505 77.9853C203.992 78.1115 204.533 78.1836 205.073 78.2919C205.614 78.4001 206.191 78.5083 206.768 78.5624C207.345 78.6165 207.939 78.6886 208.534 78.7427C209.129 78.7427 209.724 78.7788 210.301 78.7969C210.877 78.8329 211.454 78.7969 212.013 78.7788C212.572 78.7428 213.095 78.7427 213.599 78.7067C214.086 78.6526 214.555 78.5985 214.987 78.5444C215.42 78.4903 215.798 78.4542 216.159 78.364C216.519 78.2919 217.889 78.0033 217.889 78.0033C218.34 77.9131 218.791 78.2017 218.881 78.6526C218.971 79.1035 218.682 79.5543 218.232 79.6445C218.214 79.6445 218.178 79.6445 218.16 79.6445L218.196 79.6626Z" fill="#F1E4C5"/>
<path d="M218.574 77.5704C218.574 77.5704 217.276 77.7688 216.934 77.8229C216.61 77.895 216.195 77.9131 215.762 77.9311C215.33 77.9672 214.861 77.9852 214.356 78.0213C213.87 78.0213 212.265 78.0033 211.995 77.9852C211.725 77.9672 211.436 77.9311 211.166 77.9131C210.607 77.859 210.048 77.8229 209.472 77.7508C208.913 77.6606 208.354 77.5524 207.795 77.4622C207.236 77.39 206.714 77.2277 206.209 77.0834C205.704 76.9392 205.2 76.8309 204.749 76.6686C204.298 76.4883 203.091 76.0374 202.91 75.9652C202.73 75.8931 202.586 75.7849 202.424 75.7127C202.117 75.5504 200.964 74.9192 200.964 74.9192C200.964 74.9192 202.171 75.4242 202.478 75.5685C202.64 75.6226 202.802 75.7127 202.982 75.7669C203.163 75.821 204.388 76.1636 204.857 76.2899C205.308 76.4161 205.83 76.4702 206.335 76.5604C206.84 76.6506 207.363 76.7588 207.921 76.7768C208.462 76.8129 209.021 76.867 209.562 76.9031C210.12 76.9031 210.661 76.9031 211.202 76.9031C211.472 76.9031 211.743 76.9031 212.013 76.9031C212.283 76.8851 213.798 76.7588 214.266 76.7227C214.717 76.6506 215.15 76.5784 215.546 76.5063C215.943 76.4342 216.303 76.3981 216.628 76.3079C216.952 76.2177 218.232 75.8931 218.232 75.8931C218.682 75.7849 219.133 76.0374 219.241 76.4883C219.349 76.9392 219.097 77.3901 218.646 77.4983C218.628 77.4983 218.592 77.4983 218.574 77.4983V77.5704Z" fill="#F1E4C5"/>
<path d="M218.25 75.6406C218.25 75.6406 217.096 75.839 216.79 75.8751C216.501 75.9292 216.123 75.9653 215.744 75.9833C215.348 76.0194 214.933 76.0554 214.482 76.0915C214.05 76.0915 212.626 76.0915 212.374 76.0915C212.121 76.0735 211.887 76.0554 211.634 76.0374C211.13 76.0013 210.625 75.9653 210.12 75.9112C209.616 75.821 209.111 75.7488 208.624 75.6587C208.138 75.6046 207.651 75.4422 207.2 75.334C206.75 75.2078 206.299 75.1176 205.884 74.9553C205.488 74.793 204.406 74.3781 204.244 74.324C204.1 74.2339 202.532 73.3682 202.532 73.3682C202.532 73.3682 204.172 74.0535 204.334 74.1257C204.496 74.1617 205.596 74.4683 206.011 74.5765C206.407 74.7028 206.876 74.7208 207.326 74.811C207.777 74.8831 208.246 74.9733 208.732 74.9914C209.219 75.0274 209.706 75.0455 210.192 75.0815C210.679 75.0815 211.166 75.0635 211.653 75.0455C211.887 75.0455 212.139 75.0455 212.374 75.0274C212.608 75.0094 213.96 74.8651 214.374 74.811C214.771 74.7389 215.167 74.6667 215.51 74.5946C215.852 74.5224 216.177 74.4864 216.483 74.3782C216.772 74.306 217.907 73.9814 217.907 73.9814C218.358 73.8551 218.809 74.1257 218.935 74.5585C219.061 74.9914 218.791 75.4603 218.358 75.5865C218.322 75.5865 218.304 75.5865 218.268 75.6046L218.25 75.6406Z" fill="#F1E4C5"/>
<path d="M217.547 73.819C217.547 73.819 217.331 73.8551 216.97 73.9092C216.592 73.9633 216.087 74.0715 215.402 74.1076C215.077 74.1437 214.717 74.1617 214.32 74.1978C213.942 74.1978 213.545 74.1978 213.131 74.1978C212.716 74.1978 212.302 74.1978 211.869 74.1617C211.436 74.1256 211.004 74.1076 210.571 74.0535C210.139 73.9814 209.706 73.9092 209.291 73.8371C208.859 73.783 208.462 73.6387 208.066 73.5485C207.669 73.4223 207.291 73.3682 206.948 73.2058C206.606 73.0616 206.281 72.9353 205.975 72.8091C205.668 72.7008 205.416 72.5566 205.182 72.4303C204.947 72.3041 204.082 71.7991 204.082 71.7991C204.082 71.7991 205.001 72.1778 205.236 72.286C205.47 72.3942 205.74 72.5025 206.047 72.5746C206.353 72.6648 206.678 72.7369 207.038 72.8451C207.381 72.9533 207.777 72.9714 208.156 73.0435C208.552 73.0976 208.949 73.1878 209.363 73.1878C209.778 73.1878 210.193 73.2239 210.607 73.2419C211.022 73.2419 211.436 73.2058 211.851 73.1878C212.265 73.1878 212.662 73.1337 213.041 73.0796C213.419 73.0255 213.798 72.9894 214.158 72.9353C214.501 72.8632 214.825 72.791 215.132 72.7369C215.726 72.6287 216.249 72.4483 216.61 72.3582C216.97 72.25 217.168 72.1958 217.168 72.1958C217.619 72.0696 218.07 72.3221 218.196 72.773C218.322 73.2239 218.07 73.6748 217.619 73.801C217.583 73.801 217.547 73.801 217.511 73.819H217.547Z" fill="#F1E4C5"/>
<path d="M216.664 72.0336C216.664 72.0336 216.483 72.0516 216.195 72.1057C215.889 72.1418 215.474 72.232 214.915 72.25C214.374 72.3041 213.726 72.3402 213.059 72.3221C212.716 72.3221 212.374 72.3221 212.013 72.2861C211.653 72.25 211.31 72.2319 210.95 72.1959C210.589 72.1418 210.247 72.0696 209.904 72.0155C209.562 71.9795 209.219 71.8352 208.913 71.763C208.588 71.6548 208.282 71.6007 208.012 71.4564C207.741 71.3302 207.471 71.222 207.218 71.1137C206.732 70.9154 206.371 70.6268 206.119 70.5005C205.867 70.3382 205.704 70.248 205.704 70.248C205.704 70.248 205.867 70.3202 206.155 70.4284C206.443 70.5366 206.822 70.753 207.327 70.8793C207.579 70.9514 207.849 71.0236 208.138 71.0957C208.408 71.1859 208.733 71.2039 209.039 71.258C209.363 71.2941 209.67 71.3662 210.012 71.3662C210.355 71.3662 210.679 71.3662 211.022 71.3843C211.364 71.3843 211.707 71.3482 212.031 71.3302C212.356 71.3302 212.68 71.2761 213.005 71.222C213.635 71.1498 214.194 71.0055 214.681 70.8973C215.15 70.8071 215.582 70.6448 215.871 70.5727C216.159 70.4825 216.321 70.4284 216.321 70.4284C216.772 70.3022 217.222 70.5546 217.367 70.9875C217.493 71.4384 217.24 71.8893 216.808 72.0336C216.772 72.0336 216.718 72.0516 216.682 72.0516L216.664 72.0336Z" fill="#F1E4C5"/>
<path d="M214.915 70.4825C214.915 70.4825 214.789 70.4825 214.573 70.5006C214.356 70.5006 214.086 70.5547 213.671 70.5547C213.275 70.5547 212.824 70.5547 212.356 70.5186C212.121 70.5186 211.869 70.4825 211.617 70.4465C211.364 70.4104 211.112 70.3743 210.878 70.3202C210.625 70.2661 210.391 70.194 210.139 70.1399C209.904 70.0858 209.67 69.9775 209.454 69.9054C209.003 69.7611 208.624 69.5267 208.3 69.3643C207.975 69.184 207.741 68.9856 207.561 68.8774C207.381 68.7511 207.291 68.697 207.291 68.697C207.291 68.697 207.399 68.7511 207.597 68.8233C207.795 68.8954 208.066 69.0397 208.408 69.1299C208.769 69.2201 209.147 69.3643 209.598 69.4004C209.814 69.4184 210.03 69.4725 210.265 69.4906C210.499 69.4906 210.733 69.4906 210.968 69.5086C211.202 69.5086 211.436 69.4906 211.653 69.4725C211.887 69.4725 212.103 69.4365 212.32 69.4004C212.752 69.3463 213.149 69.2561 213.473 69.184C213.798 69.1118 214.104 69.0036 214.302 68.9495C214.501 68.8954 214.627 68.8593 214.627 68.8593C215.077 68.7331 215.528 68.9856 215.672 69.4365C215.798 69.8874 215.546 70.3383 215.095 70.4825C215.041 70.4825 214.969 70.5186 214.915 70.5186V70.4825Z" fill="#F1E4C5"/>
<path d="M90.8113 72.2321C90.8113 73.0257 90.7933 73.8012 90.7752 74.5948C88.8285 74.7751 86.8818 74.8653 84.9351 74.8292C85.0072 69.2743 85.0612 63.7194 85.1333 58.1645C86.0887 58.1645 87.044 58.1645 88.0174 58.1104C87.9633 62.8898 87.9092 67.6511 87.8371 72.4305C88.8285 72.3944 89.8199 72.3223 90.7933 72.2321H90.8113Z" fill="#F1E4C5"/>
<path d="M96.5613 57.1545C96.4892 62.7275 96.4351 68.2824 96.363 73.8554C95.4077 74.0177 94.4524 74.162 93.479 74.2882C93.5511 68.7153 93.6052 63.1604 93.6773 57.5874C94.6326 57.4611 95.588 57.3169 96.5613 57.1545V57.1545Z" fill="#F1E4C5"/>
<path d="M106.187 55.0083C106.115 60.5813 106.061 66.1542 105.988 71.7272C105.285 71.9075 104.583 72.0879 103.861 72.2683C103.177 69.581 102.51 66.8937 101.825 64.2064C101.789 67.056 101.753 69.9236 101.716 72.7732C100.923 72.9536 100.13 73.134 99.3372 73.2963C99.4093 67.7233 99.4633 62.1503 99.5354 56.5954C100.347 56.4331 101.158 56.2527 101.951 56.0724C102.528 58.399 103.122 60.7255 103.699 63.0341C103.735 60.5632 103.753 58.0924 103.789 55.6395C104.583 55.4412 105.376 55.2428 106.169 55.0263L106.187 55.0083Z" fill="#F1E4C5"/>
<path d="M114.19 58.7958C115.001 62.0963 115.812 65.3787 116.623 68.6792C115.632 68.9858 114.641 69.2744 113.631 69.581C113.199 67.4348 112.784 65.2885 112.351 63.1423C112.207 63.5391 112.063 63.9539 111.919 64.3507C111.901 66.2625 111.865 68.1923 111.847 70.104C110.891 70.3926 109.936 70.6631 108.963 70.9337C109.035 65.3607 109.089 59.7877 109.161 54.2148C110.116 53.9442 111.072 53.6737 112.045 53.3851C112.027 55.0083 112.009 56.6496 111.991 58.2727C112.586 56.4692 113.199 54.6656 113.793 52.8621C114.713 52.5916 115.632 52.321 116.533 52.0325C115.74 54.2869 114.947 56.5413 114.172 58.8138L114.19 58.7958Z" fill="#F1E4C5"/>
<path d="M124.573 63.972C124.573 64.7475 124.554 65.505 124.536 66.2805C122.59 66.8396 120.643 67.4167 118.696 68.0119C118.768 62.457 118.822 56.884 118.895 51.3291C120.841 50.752 122.77 50.1568 124.717 49.6157C124.717 50.3912 124.699 51.1487 124.681 51.9243C123.707 52.2128 122.716 52.4834 121.743 52.79C121.725 54.341 121.707 55.874 121.688 57.4251C122.5 57.1906 123.311 56.9381 124.14 56.7037C124.14 57.4792 124.122 58.2728 124.104 59.0483C123.293 59.2827 122.482 59.5172 121.652 59.7697C121.634 61.465 121.616 63.1784 121.598 64.8737C122.59 64.5852 123.581 64.2966 124.554 64.008L124.573 63.972Z" fill="#F1E4C5"/>
<path d="M134.577 50.842C134.54 53.9802 134.504 57.1003 134.468 60.2385C134.468 61.519 134.144 62.4749 133.531 63.1422C132.918 63.8095 132.017 64.2784 130.827 64.567C129.638 64.8736 128.43 65.1802 127.24 65.5048C127.312 59.9499 127.366 54.395 127.439 48.822C128.61 48.4974 129.782 48.1908 130.971 47.9022C132.233 47.5956 133.153 47.6677 133.747 48.1006C134.342 48.5335 134.631 49.4533 134.613 50.842H134.577ZM131.584 61.032C131.62 57.7496 131.656 54.4671 131.711 51.2027C131.711 50.7338 131.656 50.4452 131.512 50.319C131.386 50.1927 131.152 50.1747 130.827 50.2468C130.647 50.3009 130.449 50.337 130.268 50.3911C130.214 54.413 130.178 58.4349 130.124 62.4568C130.305 62.4208 130.467 62.3667 130.647 62.3306C130.989 62.2404 131.242 62.1142 131.368 61.9158C131.512 61.7174 131.584 61.4288 131.584 61.0501V61.032Z" fill="#F1E4C5"/>
<path d="M140.309 46.0266C140.237 51.5996 140.182 57.1545 140.11 62.7275C139.155 62.8717 138.2 63.0341 137.226 63.2144C137.298 57.6415 137.352 52.0865 137.425 46.5136C138.38 46.3332 139.335 46.1709 140.309 46.0446V46.0266Z" fill="#F1E4C5"/>
<path d="M149.916 45.3412C149.844 50.8961 149.79 56.4511 149.718 62.006C149.015 62.006 148.312 62.006 147.591 62.024C146.906 59.1925 146.239 56.3789 145.554 53.5654C145.518 56.415 145.482 59.2646 145.446 62.1142C144.653 62.1683 143.86 62.2405 143.066 62.3306C143.139 56.7757 143.193 51.2027 143.265 45.6478C144.076 45.5576 144.887 45.5035 145.68 45.4494C146.257 47.8662 146.852 50.301 147.429 52.7358C147.465 50.2829 147.483 47.8121 147.519 45.3592C148.312 45.3412 149.105 45.3232 149.898 45.3412H149.916Z" fill="#F1E4C5"/>
</g>
<defs>
<clipPath id="clip0_36_27025">
<rect width="247" height="121" fill="white"/>
</clipPath>
</defs>
</svg>
