<svg width="113" height="95" viewBox="0 0 113 95" fill="none" xmlns="http://www.w3.org/2000/svg">
<g clip-path="url(#clip0_36_26978)">
<path d="M5.92829 95.0001C5.0264 95.0001 4.229 94.9286 3.72856 94.8462C3.4316 94.8022 3.22263 94.5164 3.27212 94.2196C3.32161 93.9172 3.59658 93.7139 3.89904 93.7633C5.91729 94.0766 9.43136 93.9337 10.5642 92.6255C10.9712 92.1583 11.0482 91.5536 10.8117 90.7841C10.3937 89.4429 9.48085 89.4044 7.91354 89.4539C6.30224 89.5034 4.29499 89.5638 3.47559 86.9254C3.18413 85.991 3.27762 85.2434 3.74506 84.7047C4.95491 83.3086 8.2435 83.8472 12.049 84.4684C14.9252 84.9356 18.5107 85.5237 19.3136 84.5948C19.5116 84.3639 19.5281 83.9792 19.3631 83.4405C18.1643 79.5873 14.2873 80.1479 10.1738 80.7361C6.08227 81.3242 1.85329 81.9344 0.560955 77.7733C0.176003 76.5256 0.329984 75.4152 1.0284 74.4698C4.2235 70.1439 18.6482 70.1714 35.3716 70.1988C54.1298 70.2373 75.4012 70.2703 80.4001 63.5038C81.5659 61.9263 81.7859 60.0574 81.082 57.7927C80.829 56.9792 80.4496 56.468 79.9216 56.2317C78.6458 55.6545 76.4791 56.6219 74.3893 57.5619C72.0356 58.6172 69.5994 59.7056 67.8231 58.8976C66.9652 58.5128 66.3438 57.7213 65.9809 56.545C65.5079 55.0224 65.6289 53.5822 66.3438 52.2575C68.681 47.9206 77.1335 45.4855 85.3055 43.1329C92.5921 41.0332 100.126 38.862 101.891 35.5914C102.32 34.7944 102.392 33.9589 102.106 33.0464C102.018 32.7551 102.177 32.4473 102.469 32.3594C102.76 32.2714 103.068 32.4308 103.156 32.7221C103.525 33.9149 103.426 35.0582 102.854 36.1136C100.869 39.7909 93.4555 41.9292 85.6024 44.1938C77.6504 46.4859 69.4234 48.855 67.3062 52.7852C66.7288 53.8516 66.6408 54.9729 67.0257 56.2207C67.2952 57.0946 67.7021 57.6388 68.2686 57.8972C69.5994 58.4963 71.7991 57.5124 73.9329 56.556C76.3526 55.4731 78.6403 54.4452 80.3726 55.2312C81.192 55.5995 81.7859 56.3581 82.1324 57.4684C82.9353 60.0574 82.6493 62.3055 81.2855 64.1579C75.9566 71.3751 55.3232 71.3367 35.3716 71.3037C19.6381 71.2762 4.77893 71.2487 1.91379 75.1294C1.42985 75.7835 1.33086 76.5476 1.61132 77.449C2.55721 80.4942 5.41685 80.3128 10.0143 79.6532C14.1938 79.0541 18.9342 78.3725 20.408 83.1217C20.694 84.0451 20.606 84.7872 20.1385 85.3258C18.9342 86.711 15.6566 86.1778 11.8676 85.5622C8.97491 85.0895 5.38386 84.5068 4.56996 85.4358C4.36648 85.6666 4.34999 86.0624 4.52046 86.6121C5.0649 88.36 6.14826 88.4205 7.87505 88.3655C9.34337 88.3216 11.1691 88.2666 11.8566 90.4708C12.302 91.8999 11.8511 92.8289 11.3946 93.3566C10.2453 94.6813 7.84205 95.0166 5.92279 95.0166L5.92829 95.0001Z" fill="#F1E4C5"/>
<path d="M102.634 33.4257C102.447 33.4257 102.26 33.3267 102.155 33.1508L91.0963 14.1157C90.9423 13.8518 91.0358 13.5165 91.2943 13.3626C91.5582 13.2142 91.8937 13.3021 92.0477 13.5605L103.107 32.5957C103.261 32.8595 103.167 33.1948 102.909 33.3487C102.821 33.3982 102.727 33.4202 102.634 33.4202V33.4257Z" fill="#F1E4C5"/>
<path d="M66.5087 56.9241C66.2722 56.9241 66.0577 56.7757 65.9807 56.5394C63.2201 47.6457 63.7205 44.551 64.21 41.5553C64.6994 38.5541 65.1613 35.7233 62.4722 27.0659C62.1862 26.137 62.2797 25.3179 62.7526 24.6254C64.2595 22.4212 69.3573 22.0639 75.2636 21.6516C81.5603 21.2064 88.6929 20.7062 90.7497 17.705C91.4206 16.7211 91.5196 15.5118 91.0521 14.0057C90.8377 13.3076 90.5352 12.9063 90.1393 12.7689C89.0669 12.4061 87.0596 13.8298 85.2889 15.0885C83.0891 16.6496 81.0159 18.1282 79.3826 17.573C78.6182 17.3147 78.0627 16.6386 77.7273 15.5667C77.3588 14.3904 77.6558 13.1317 78.5962 11.829C82.9351 5.81554 100.049 0.0989412 105.174 0C105.356 0.00549673 105.532 0.082451 105.636 0.236359C105.741 0.384771 105.763 0.577157 105.697 0.747555C105.581 1.04438 103.151 7.31065 101.413 10.4218C105.68 10.0645 108.87 12.1863 111.471 13.9232C111.906 14.2145 112.329 14.4949 112.736 14.7477C112.928 14.8687 113.027 15.0995 112.983 15.3194C112.939 15.5448 112.758 15.7152 112.532 15.7536C104.119 17.1388 100.769 19.2166 98.2068 24.6418C98.0748 24.9167 97.7503 25.0321 97.4753 24.9057C97.2004 24.7738 97.0849 24.4495 97.2114 24.1746C99.8181 18.6614 103.123 16.3748 110.976 14.9126C110.938 14.8851 110.899 14.8632 110.861 14.8357C108.051 12.9668 104.866 10.8396 100.439 11.6586C100.22 11.697 99.9995 11.6036 99.8785 11.4167C99.7576 11.2298 99.7631 10.988 99.8895 10.8066C101.209 8.9102 103.514 3.26506 104.349 1.15981C98.6522 1.77544 83.3531 7.10727 79.4761 12.4776C78.7502 13.4835 78.5082 14.4179 78.7667 15.2424C78.9921 15.968 79.3056 16.3913 79.7235 16.5342C80.8289 16.9079 82.8527 15.4678 84.6399 14.1926C86.8177 12.648 88.8689 11.1804 90.4802 11.73C91.2281 11.9829 91.7726 12.637 92.0915 13.6814C92.6579 15.5063 92.5095 17.0673 91.6461 18.3261C89.2924 21.7671 82.1927 22.2673 75.3296 22.751C70.1767 23.1138 64.8534 23.4875 63.649 25.252C63.3741 25.6587 63.3301 26.1479 63.5115 26.7471C66.2777 35.6518 65.7718 38.7465 65.2878 41.7422C64.7984 44.7434 64.3364 47.5742 67.0256 56.2206C67.1136 56.5119 66.9541 56.8197 66.6627 56.9077C66.6077 56.9241 66.5527 56.9296 66.4977 56.9296L66.5087 56.9241Z" fill="#F1E4C5"/>
<path d="M0.923857 77.2786C0.687387 77.2786 0.472913 77.1302 0.395923 76.8938C-0.560959 73.8156 0.384924 69.9844 1.3913 65.9278C2.55166 61.2336 3.86599 55.9128 2.34268 51.0097C2.11171 50.2676 2.2272 49.575 2.67264 48.9979C5.16383 45.7988 18.9726 46.5079 33.5953 47.2664C46.4692 47.9315 61.0644 48.6901 63.5391 46.0571C63.7756 45.8043 63.8746 45.5404 63.8361 45.2216C63.8031 44.9193 64.0175 44.65 64.32 44.6115C64.6225 44.5785 64.8919 44.7929 64.9304 45.0952C65.0019 45.7328 64.7984 46.321 64.342 46.8102C61.5154 49.8114 47.9265 49.1078 33.5403 48.3658C20.4794 47.6897 5.68077 46.9256 3.54153 49.674C3.31606 49.9653 3.26657 50.2841 3.39305 50.6799C5.00435 55.8743 3.65152 61.3545 2.45817 66.1917C1.49579 70.0998 0.5829 73.7881 1.44629 76.5695C1.53428 76.8608 1.3748 77.1686 1.08334 77.2566C1.02834 77.2731 0.973351 77.2786 0.918358 77.2786H0.923857Z" fill="#F1E4C5"/>
<path d="M81.1645 57.1769C80.9445 57.1769 80.741 57.045 80.653 56.8306L76.4846 46.4583C76.3691 46.178 76.5066 45.8592 76.787 45.7437C77.0675 45.6338 77.3919 45.7657 77.5019 46.0461L81.6704 56.4184C81.7859 56.6987 81.6484 57.0175 81.368 57.133C81.302 57.1604 81.2305 57.1714 81.1645 57.1714V57.1769Z" fill="#F1E4C5"/>
<path d="M19.891 83.825C19.5886 83.825 19.3466 83.5832 19.3411 83.2809L19.2146 70.8857C19.2146 70.5834 19.4566 70.3361 19.759 70.3306H19.7645C20.067 70.3306 20.309 70.5724 20.3145 70.8747L20.4409 83.2699C20.4409 83.5722 20.199 83.8195 19.8965 83.825H19.891V83.825Z" fill="#F1E4C5"/>
<path d="M11.4937 92.1748C11.4937 92.1748 11.4827 92.1748 11.4772 92.1748C11.1747 92.1638 10.9327 91.9109 10.9437 91.6086L11.1582 84.9466C11.1692 84.6442 11.4442 84.3859 11.7246 84.4134C12.0271 84.4244 12.2691 84.6772 12.2581 84.9795L12.0436 91.6416C12.0326 91.9384 11.7906 92.1748 11.4937 92.1748Z" fill="#F1E4C5"/>
<path d="M3.87152 86.3262C3.81103 86.3262 3.75054 86.3152 3.69005 86.2932C3.40408 86.1942 3.2501 85.8809 3.35459 85.5951L5.16936 80.4172C5.26835 80.1313 5.58181 79.9774 5.86778 80.0819C6.15374 80.1808 6.30772 80.4941 6.20323 80.78L4.38846 85.9579C4.31147 86.1832 4.097 86.3262 3.87152 86.3262V86.3262Z" fill="#F1E4C5"/>
<path d="M3.81655 94.8571C3.74506 94.8571 3.67907 94.8461 3.60758 94.8186C3.32711 94.7032 3.18963 94.3844 3.30512 94.104L5.54884 88.6128C5.66433 88.3325 5.98329 88.195 6.26375 88.3105C6.54422 88.4259 6.6817 88.7447 6.56621 89.025L4.32249 94.5163C4.2345 94.7306 4.03103 94.8571 3.81105 94.8571H3.81655Z" fill="#F1E4C5"/>
<path d="M65.695 28.8962C65.695 28.8962 65.8379 29.1106 66.0634 29.5009C66.2834 29.8966 66.5914 30.4683 66.8883 31.1829C67.0368 31.5402 67.1908 31.9359 67.3283 32.3592C67.4657 32.7824 67.6087 33.2332 67.7132 33.7114C67.8342 34.1841 67.9277 34.6843 68.0047 35.19C68.0652 35.7012 68.1367 36.2179 68.1587 36.7456C68.1917 37.2678 68.1697 37.7954 68.1587 38.3066C68.1477 38.8233 68.0652 39.329 68.0102 39.8127C67.9222 40.2965 67.8452 40.7637 67.7242 41.1979C67.6032 41.6322 67.4932 42.0389 67.3558 42.4072C67.2183 42.7755 67.0808 43.1053 66.9598 43.3966C66.8388 43.6879 66.6903 43.9243 66.5859 44.1277C66.3659 44.5234 66.2339 44.7433 66.2339 44.7433C66.2339 44.7433 66.2834 44.485 66.3769 44.0507C66.4209 43.8309 66.4924 43.5725 66.5529 43.2702C66.6024 42.9624 66.6628 42.6216 66.7398 42.2533C66.8058 41.885 66.8388 41.4728 66.9103 41.055C66.9708 40.6318 66.9818 40.1755 67.0368 39.7193C67.0588 39.2521 67.0753 38.7739 67.0863 38.2847C67.0863 37.7954 67.0863 37.3007 67.0478 36.806C67.0423 36.3113 66.9818 35.8166 66.9378 35.3274C66.8663 34.8437 66.8388 34.36 66.7508 33.9038C66.6793 33.442 66.6024 32.9968 66.5199 32.5736C66.4319 32.1503 66.3494 31.749 66.2724 31.3808C66.1074 30.6442 65.6785 28.9017 65.6785 28.9017L65.695 28.8962Z" fill="#F1E4C5"/>
<path d="M68.0872 31.8811C68.0872 31.8811 68.1916 32.013 68.3621 32.2549C68.5271 32.5023 68.7471 32.8595 68.9616 33.3158C69.0715 33.5466 69.1815 33.794 69.2805 34.0688C69.3795 34.3437 69.484 34.6295 69.5555 34.9373C69.715 35.5529 69.8414 36.2235 69.8689 36.9051C69.8909 37.2459 69.8799 37.5867 69.8689 37.922C69.8524 38.2573 69.7974 38.5871 69.7535 38.9004C69.638 39.5326 69.4675 40.1042 69.275 40.5715C69.077 41.0387 68.8791 41.4125 68.7086 41.6543C68.5491 41.9017 68.4501 42.0336 68.4501 42.0336C68.4501 42.0336 68.4666 41.8632 68.5051 41.5719C68.5271 41.4289 68.5546 41.2585 68.5821 41.0607C68.6041 40.8628 68.6261 40.6374 68.6646 40.4011C68.6866 40.1647 68.7141 39.9064 68.7416 39.6315C68.7691 39.3622 68.7636 39.0709 68.7966 38.7795C68.7966 38.4882 68.8021 38.1804 68.8076 37.8726C68.7966 37.5647 68.8076 37.2514 68.7801 36.9381C68.7801 36.6248 68.7361 36.317 68.7196 36.0037C68.6811 35.6959 68.6701 35.388 68.6206 35.0967C68.5766 34.7999 68.5381 34.5141 68.4996 34.2447C68.4556 33.9699 68.1037 31.8481 68.1037 31.8481L68.0872 31.8811Z" fill="#F1E4C5"/>
<path d="M6.53326 52.0541C6.53326 52.0541 6.63775 52.2904 6.79173 52.7137C6.94021 53.1424 7.14368 53.7581 7.30866 54.5166C7.39115 54.8959 7.47914 55.3081 7.53414 55.7534C7.59463 56.1931 7.66062 56.6658 7.67712 57.155C7.71011 57.6443 7.71561 58.15 7.70462 58.6612C7.67162 59.1723 7.65512 59.7 7.58363 60.2167C7.52314 60.7389 7.41315 61.2501 7.31416 61.7558C7.20968 62.2615 7.0447 62.7452 6.90721 63.2124C6.73674 63.6742 6.57725 64.1194 6.38478 64.5262C6.1868 64.9329 6.01083 65.3177 5.81285 65.653C5.61487 65.9883 5.4169 66.2906 5.24642 66.5545C5.07594 66.8183 4.88896 67.0272 4.75148 67.2086C4.46552 67.5604 4.30054 67.7527 4.30054 67.7527C4.30054 67.7527 4.39403 67.5054 4.5645 67.0931C4.64699 66.8843 4.76248 66.6424 4.87797 66.3566C4.98245 66.0652 5.09794 65.7354 5.24092 65.3891C5.3729 65.0374 5.47739 64.6416 5.62037 64.2348C5.75236 63.8281 5.84035 63.3828 5.97783 62.9376C6.08232 62.4814 6.1813 62.0142 6.27479 61.5359C6.35728 61.0522 6.45077 60.5685 6.49477 60.0738C6.57726 59.5846 6.60475 59.0899 6.64875 58.6007C6.66524 58.1115 6.72024 57.6333 6.71474 57.166C6.72024 56.6988 6.73124 56.2426 6.72024 55.8138C6.70924 55.3796 6.69824 54.9728 6.68724 54.5936C6.65425 53.835 6.53876 52.0486 6.53876 52.0486L6.53326 52.0541Z" fill="#F1E4C5"/>
<path d="M8.36439 55.418C8.36439 55.418 8.44688 55.5664 8.56787 55.8357C8.68335 56.1051 8.84283 56.4953 8.97482 56.9845C9.04081 57.2264 9.1068 57.4957 9.1563 57.7816C9.20579 58.0674 9.26078 58.3697 9.27728 58.6885C9.33227 59.3206 9.33227 60.0077 9.23878 60.6838C9.20029 61.0246 9.1288 61.3599 9.05731 61.6842C8.98582 62.014 8.87033 62.3274 8.77134 62.6297C8.55137 63.2288 8.2764 63.762 8.00694 64.1908C7.73197 64.6195 7.468 64.9493 7.25903 65.1582C7.05556 65.3725 6.93457 65.488 6.93457 65.488C6.93457 65.488 6.97856 65.3231 7.07205 65.0482C7.11605 64.9108 7.17654 64.7459 7.23703 64.559C7.29203 64.3666 7.35252 64.1523 7.43501 63.9269C7.501 63.696 7.56699 63.4487 7.64398 63.1848C7.72097 62.9265 7.76497 62.6407 7.84746 62.3548C7.90245 62.069 7.95744 61.7667 8.01794 61.4644C8.06193 61.1621 8.12242 60.8542 8.14992 60.5409C8.19941 60.2331 8.21591 59.9198 8.25441 59.612C8.27091 59.3042 8.3149 59.0018 8.3149 58.705C8.3259 58.4082 8.3369 58.1169 8.3479 57.8475C8.3479 57.5727 8.37539 55.4235 8.37539 55.4235L8.36439 55.418Z" fill="#F1E4C5"/>
<path d="M82.1984 22.1299C82.0225 22.1299 81.8465 22.0419 81.742 21.888L78.2389 16.6716C78.0684 16.4188 78.1344 16.078 78.3874 15.9076C78.6404 15.7372 78.9813 15.8031 79.1518 16.056L82.6549 21.2724C82.8254 21.5252 82.7594 21.866 82.5064 22.0364C82.4129 22.1024 82.3029 22.1299 82.1984 22.1299V22.1299Z" fill="#F1E4C5"/>
<path d="M83.3423 18.0679C83.3423 18.0679 83.3918 17.9304 83.4963 17.6886C83.6173 17.4577 83.8042 17.1279 84.0847 16.7761C84.6346 16.0561 85.52 15.226 86.5044 14.5225C86.9993 14.1762 87.5108 13.8464 88.0222 13.5825C88.2752 13.4396 88.5226 13.3242 88.7646 13.2142C89.0011 13.0933 89.2376 13.0164 89.452 12.9229C89.6665 12.8295 89.8755 12.78 90.0515 12.714C90.2329 12.6481 90.3924 12.6096 90.5299 12.5766C90.7994 12.5107 90.9533 12.4722 90.9533 12.4722C91.2503 12.4007 91.5473 12.5766 91.6188 12.8734C91.6903 13.1703 91.5143 13.4671 91.2173 13.5386C91.1953 13.5386 91.1733 13.5495 91.1568 13.5495C91.1568 13.5495 90.9808 13.5715 90.7389 13.6045C90.6179 13.621 90.4694 13.6375 90.3044 13.676C90.1394 13.7144 89.9415 13.7364 89.738 13.8024C89.5345 13.8629 89.3035 13.9123 89.0726 13.9948C88.8361 14.0717 88.5886 14.1542 88.3412 14.2586C87.8352 14.451 87.3128 14.7094 86.8014 14.9842C85.784 15.5504 84.8271 16.2539 84.2167 16.8861C83.9032 17.1994 83.6832 17.4962 83.5403 17.7106C83.4083 17.9359 83.3423 18.0679 83.3423 18.0679Z" fill="#F1E4C5"/>
<path d="M85.0142 18.3371C85.0142 18.3371 85.2671 17.8039 85.3331 17.6665C85.4211 17.5401 85.5201 17.3972 85.6301 17.2378C85.7401 17.0784 85.8611 16.9025 86.015 16.7486C86.1635 16.5837 86.3175 16.4133 86.4825 16.2374C86.664 16.078 86.8454 15.9131 87.0379 15.7427C87.2194 15.5668 87.4284 15.4184 87.6428 15.2699C87.8518 15.1215 88.0553 14.9566 88.2753 14.8247C88.4952 14.6983 88.7152 14.5719 88.9242 14.4509C89.1332 14.319 89.3476 14.2256 89.5566 14.1376C89.7656 14.0442 89.9581 13.9617 90.1395 13.8848C90.3155 13.7968 90.5025 13.7638 90.651 13.7144C90.8049 13.6704 91.4099 13.489 91.4099 13.489C91.7013 13.4011 92.0093 13.5715 92.0973 13.8628C92.1853 14.1541 92.0148 14.4619 91.7233 14.5499C91.7013 14.5554 91.6793 14.5609 91.6573 14.5664C91.6573 14.5664 91.0414 14.6598 90.8984 14.6818C90.7554 14.7093 90.5905 14.7093 90.42 14.7697C90.244 14.8192 90.057 14.8742 89.8591 14.9291C89.6611 14.9841 89.4466 15.0446 89.2431 15.138C89.0342 15.226 88.8142 15.3139 88.5942 15.4019C88.3742 15.4953 88.1653 15.6217 87.9453 15.7372C87.7253 15.8526 87.5109 15.968 87.3129 16.1054C87.1094 16.2429 86.9114 16.3748 86.719 16.5012C86.543 16.6496 86.3725 16.7925 86.2075 16.93C86.037 17.0619 85.8996 17.2048 85.7786 17.3422C85.6521 17.4796 85.5366 17.6006 85.4321 17.716C85.3496 17.8424 85.0252 18.3371 85.0252 18.3371H85.0142Z" fill="#F1E4C5"/>
<path d="M86.6913 18.6011C86.6913 18.6011 86.8893 18.1833 86.9388 18.0734C86.9882 17.9635 87.0707 17.8535 87.1532 17.7271C87.2412 17.6062 87.3182 17.4523 87.4282 17.3203C87.5382 17.1884 87.6537 17.0455 87.7747 16.9026C87.8956 16.7542 88.0441 16.6278 88.1871 16.4848C88.3301 16.3419 88.4786 16.2045 88.6435 16.0836C88.803 15.9627 88.9625 15.8252 89.133 15.7098C89.3035 15.6054 89.4739 15.4954 89.6389 15.3965C89.9634 15.1876 90.3043 15.0557 90.5848 14.9128C90.7223 14.8413 90.8653 14.8083 90.9808 14.7589C91.1017 14.7149 91.5637 14.55 91.5637 14.55C91.8496 14.4456 92.1686 14.594 92.2731 14.8853C92.3776 15.1711 92.2291 15.4899 91.9376 15.5944C91.9101 15.6054 91.8771 15.6109 91.8497 15.6164C91.8497 15.6164 91.3657 15.6988 91.2557 15.7208C91.1457 15.7428 91.0137 15.7538 90.8818 15.7923C90.6178 15.8802 90.2878 15.9407 89.9634 16.0781C89.7984 16.144 89.6279 16.2155 89.4574 16.2815C89.287 16.3584 89.122 16.4574 88.9515 16.5398C88.781 16.6223 88.616 16.7267 88.4621 16.8366C88.3081 16.9466 88.1431 17.04 88.0056 17.1554C87.8681 17.2709 87.7362 17.3863 87.6097 17.4907C87.4777 17.5952 87.3897 17.7216 87.2852 17.826C87.1917 17.936 87.0872 18.0239 87.0212 18.1229C86.9498 18.2218 86.6858 18.6011 86.6858 18.6011H86.6913Z" fill="#F1E4C5"/>
<path d="M88.3632 18.865C88.3632 18.865 88.3907 18.799 88.4402 18.6891C88.4952 18.5792 88.5501 18.4143 88.6546 18.2329C88.7041 18.1394 88.7646 18.0405 88.8196 17.9305C88.8746 17.8206 88.9571 17.7217 89.0341 17.6062C89.1056 17.4908 89.1881 17.3809 89.2871 17.2764C89.386 17.172 89.4685 17.0511 89.5785 16.9521C89.6885 16.8532 89.7985 16.7488 89.903 16.6553C90.0185 16.5674 90.134 16.4849 90.2439 16.4025C90.4694 16.2321 90.6949 16.1166 90.8819 15.9957C91.2668 15.7923 91.5363 15.6659 91.5363 15.6659C91.8112 15.534 92.1412 15.6494 92.2787 15.9242C92.4107 16.1991 92.2952 16.5289 92.0202 16.6663C91.9817 16.6883 91.9377 16.6993 91.8937 16.7103H91.8772C91.8772 16.7103 91.6243 16.7652 91.2393 16.8587C91.0578 16.9192 90.8269 16.9686 90.6069 17.0621C90.4914 17.106 90.3759 17.1555 90.2604 17.205C90.1504 17.2654 90.035 17.3259 89.9195 17.3919C89.7985 17.4523 89.705 17.5348 89.595 17.6062C89.485 17.6777 89.386 17.7601 89.2925 17.8426C89.1991 17.9251 89.1001 18.002 89.0231 18.09C88.9406 18.1779 88.8691 18.2549 88.7976 18.3318C88.6546 18.4802 88.5556 18.6286 88.4787 18.7166C88.4017 18.81 88.3577 18.865 88.3577 18.865H88.3632Z" fill="#F1E4C5"/>
<path d="M78.2278 53.8516C78.2278 53.8516 78.0518 53.923 77.7439 54.0494C77.4304 54.1704 76.996 54.3573 76.4735 54.5881C75.4287 55.0498 74.0813 55.7424 72.701 56.413C72.3601 56.5834 72.0026 56.7373 71.6561 56.8913C71.3042 57.0397 70.9522 57.1826 70.6003 57.298C70.2483 57.4134 69.9019 57.5179 69.5554 57.5783C69.2144 57.6553 68.879 57.6773 68.5655 57.6883C68.2521 57.6883 67.9606 57.6718 67.7076 57.6278C67.4547 57.5728 67.2237 57.5454 67.0532 57.4794C66.7013 57.3585 66.5033 57.287 66.5033 57.287C66.2173 57.1881 66.0633 56.8693 66.1678 56.5834C66.2668 56.2976 66.5858 56.1437 66.8717 56.2481C66.8882 56.2481 66.8992 56.2591 66.9157 56.2646C66.9157 56.2646 67.1302 56.3636 67.3997 56.4845C67.5316 56.5505 67.7076 56.5834 67.9056 56.6494C68.1036 56.7044 68.3346 56.7318 68.593 56.7593C68.8515 56.7703 69.1375 56.7813 69.4399 56.7373C69.7424 56.7154 70.0668 56.6494 70.4023 56.5724C70.7378 56.4955 71.0842 56.3911 71.4362 56.2811C71.7881 56.1657 72.1401 56.0393 72.4975 55.9073C73.9164 55.3687 75.3352 54.7915 76.4241 54.4287C76.9685 54.2418 77.4194 54.0989 77.7439 54.0055C78.0628 53.912 78.2443 53.8571 78.2443 53.8571L78.2278 53.8516Z" fill="#F1E4C5"/>
<path d="M77.4633 52.7467C77.4633 52.7467 73.4268 54.4947 72.052 55.0553C71.711 55.1983 71.3591 55.3247 71.0126 55.4456C70.6607 55.561 70.3087 55.671 69.9567 55.7424C69.7863 55.7919 69.6048 55.8139 69.4343 55.8414C69.2583 55.8689 69.0933 55.8963 68.9229 55.9018C68.5819 55.9348 68.2575 55.9183 67.955 55.9018C67.658 55.8579 67.3776 55.8194 67.1411 55.7479C66.9101 55.671 66.6901 55.6215 66.5362 55.5445C66.2117 55.3961 66.0302 55.3137 66.0302 55.3137C65.7553 55.1873 65.6288 54.863 65.7553 54.5826C65.8817 54.3078 66.2062 54.1814 66.4867 54.3078C66.5032 54.3133 66.5142 54.3243 66.5307 54.3298C66.5307 54.3298 66.7231 54.4397 66.9761 54.5826C67.0971 54.6651 67.2676 54.709 67.4491 54.7915C67.636 54.8684 67.856 54.9179 68.0925 54.9784C68.3399 55.0169 68.6039 55.0608 68.9009 55.0553C69.0439 55.0663 69.1978 55.0553 69.3518 55.0443C69.5058 55.0333 69.6653 55.0279 69.8303 55.0004C70.1547 54.9619 70.4957 54.8904 70.8366 54.8135C71.1776 54.7255 71.5295 54.6376 71.876 54.5276C73.2673 54.1099 74.6587 53.6097 75.709 53.2799C76.237 53.1095 77.4633 52.7412 77.4633 52.7412V52.7467Z" fill="#F1E4C5"/>
<path d="M76.6989 51.6472C76.6989 51.6472 76.083 51.9001 75.1646 52.2738C74.2407 52.6476 73.0199 53.1643 71.7495 53.5931C71.1171 53.8129 70.4627 53.9943 69.8193 54.1043C69.5003 54.1647 69.1813 54.1922 68.8789 54.2142C68.7249 54.2142 68.5764 54.2197 68.4334 54.2252C68.2905 54.2142 68.1475 54.2032 68.0155 54.1977C67.4766 54.1482 67.0311 54.0218 66.7286 53.9174C66.4317 53.8019 66.2612 53.736 66.2612 53.736C65.9752 53.626 65.8378 53.3072 65.9477 53.0214C66.0577 52.7356 66.3767 52.5982 66.6627 52.7081C66.6792 52.7136 66.6956 52.7246 66.7121 52.7301C66.7121 52.7301 66.8881 52.818 67.1191 52.9389C67.3556 53.0489 67.702 53.1863 68.1475 53.2797C68.2575 53.3017 68.3784 53.3182 68.4939 53.3402C68.6204 53.3512 68.7469 53.3622 68.8789 53.3732C69.1428 53.3842 69.4288 53.3897 69.7258 53.3622C70.3197 53.3237 70.9631 53.2138 71.601 53.0654C72.8824 52.7795 74.1527 52.3893 75.1096 52.1144C76.0665 51.8341 76.6989 51.6527 76.6989 51.6527V51.6472Z" fill="#F1E4C5"/>
<path d="M75.9345 50.5479C75.9345 50.5479 75.4286 50.7567 74.6697 51.07C74.2902 51.2294 73.8393 51.3889 73.3553 51.5757C73.1134 51.6747 72.8604 51.7461 72.6019 51.8341C72.3435 51.9165 72.085 52.0155 71.8155 52.0869C71.5461 52.1584 71.2766 52.2299 71.0126 52.3013C70.7432 52.3728 70.4737 52.4057 70.2097 52.4607C69.9513 52.5157 69.6873 52.5377 69.4453 52.5542C69.1979 52.5706 68.9614 52.6036 68.7414 52.5816C68.5214 52.5707 68.318 52.5652 68.1365 52.5542C67.9605 52.5322 67.801 52.4992 67.6745 52.4772C67.4161 52.4332 67.2676 52.4057 67.2676 52.4057C66.9651 52.3508 66.7672 52.0649 66.8222 51.7681C66.8771 51.4713 67.1631 51.2679 67.4601 51.3229C67.4821 51.3229 67.5041 51.3339 67.5206 51.3394C67.5206 51.3394 67.7075 51.3944 67.9165 51.4603C68.021 51.4878 68.1475 51.5373 68.296 51.5757C68.45 51.6032 68.6204 51.6307 68.8074 51.6637C68.9944 51.7077 69.2034 51.7077 69.4288 51.7187C69.6543 51.7296 69.8853 51.7461 70.1327 51.7187C70.3802 51.7022 70.6387 51.7022 70.8971 51.6692C71.1611 51.6362 71.4251 51.5977 71.6945 51.5593C71.964 51.5263 72.228 51.4603 72.4865 51.4108C72.7504 51.3559 73.0089 51.3174 73.2564 51.2514C73.7513 51.1305 74.2187 51.0261 74.6147 50.9161C75.4066 50.7018 75.9345 50.5588 75.9345 50.5588V50.5479Z" fill="#F1E4C5"/>
<path d="M75.1702 49.4431C75.1702 49.4431 73.5918 50.0917 73.2344 50.2401C73.0529 50.3116 72.8549 50.3611 72.6625 50.4215C72.4645 50.482 71.6506 50.7239 71.4526 50.7843C71.2491 50.8283 71.0457 50.8558 70.8477 50.8888C70.4517 50.9437 70.0833 51.0427 69.7533 51.0372C69.0934 51.0372 68.648 51.0427 68.648 51.0427C68.34 51.0427 68.0925 50.7953 68.0925 50.493C68.0925 50.1852 68.34 49.9378 68.6425 49.9378C68.67 49.9378 68.703 49.9378 68.7305 49.9433C68.7305 49.9433 69.1979 50.0203 69.7698 50.1082C70.0558 50.1632 70.4077 50.1247 70.7762 50.1412C70.9632 50.1412 71.1557 50.1412 71.3536 50.1412C71.5516 50.1192 72.349 50.0148 72.547 49.9928C72.745 49.9653 72.9429 49.9543 73.1299 49.9103C73.5094 49.8224 75.1702 49.4486 75.1702 49.4486V49.4431Z" fill="#F1E4C5"/>
<path d="M74.4056 48.3438C74.4056 48.3438 74.1911 48.4537 73.8611 48.6131C73.6962 48.69 73.5092 48.7945 73.3057 48.8879C73.0912 48.9759 72.8603 49.0693 72.6348 49.1628C72.4038 49.2672 72.1674 49.3277 71.9419 49.4046C71.7164 49.4761 71.5074 49.5475 71.3205 49.5805C70.9465 49.663 70.6935 49.7179 70.6935 49.7179C70.3911 49.7839 70.0941 49.5915 70.0281 49.2947C69.9621 48.9924 70.1546 48.6955 70.4516 48.6296C70.5011 48.6186 70.556 48.6131 70.6055 48.6186C70.6055 48.6186 70.8805 48.6351 71.2215 48.6626C71.3919 48.6845 71.5954 48.6681 71.8154 48.6626C72.0354 48.6571 72.2718 48.6626 72.5028 48.6296C72.7393 48.6076 72.9758 48.5801 73.1957 48.5581C73.4212 48.5306 73.6302 48.4812 73.8062 48.4537C74.1636 48.3877 74.4001 48.3438 74.4001 48.3438H74.4056Z" fill="#F1E4C5"/>
<path d="M13.4401 78.2074C13.4401 78.2074 12.6922 78.2679 11.5868 78.4108C10.476 78.5537 9.01317 78.8066 7.53935 79.0539C6.80244 79.1748 6.05453 79.2848 5.35062 79.3562C4.64121 79.4222 3.97029 79.4552 3.38187 79.4387C2.79344 79.4167 2.304 79.3452 1.95754 79.2738C1.61658 79.1913 1.41861 79.1419 1.41861 79.1419C1.12165 79.0704 0.940168 78.7736 1.01166 78.4768C1.08315 78.1799 1.38011 77.9985 1.67708 78.07C1.69357 78.07 1.71007 78.081 1.72657 78.081C1.72657 78.081 1.93554 78.1525 2.21601 78.2514C2.50197 78.3393 2.92542 78.4383 3.45336 78.5097C3.98129 78.5757 4.61921 78.6087 5.30113 78.6032C5.98854 78.5922 6.73095 78.5537 7.46786 78.5042C8.95268 78.3943 10.4485 78.2789 11.5649 78.2349C12.6867 78.1909 13.4291 78.2019 13.4291 78.2019L13.4401 78.2074Z" fill="#F1E4C5"/>
<path d="M12.4504 76.8277C12.4504 76.8277 11.7244 76.8937 10.6411 77.0311C9.55772 77.163 8.12239 77.3774 6.66507 77.5478C5.93366 77.6247 5.20225 77.6962 4.49834 77.7072C4.14639 77.7072 3.80543 77.7072 3.48097 77.6797C3.15651 77.6632 2.84305 77.6192 2.55708 77.5698C1.98515 77.4653 1.51221 77.3059 1.18775 77.174C0.868791 77.0256 0.687314 76.9431 0.687314 76.9431C0.412348 76.8167 0.291363 76.4869 0.417847 76.2121C0.544331 75.9372 0.87429 75.8163 1.14926 75.9427C1.16575 75.9482 1.18225 75.9592 1.19325 75.9647C1.19325 75.9647 1.38023 76.0746 1.6277 76.2176C1.88067 76.3495 2.26562 76.5199 2.75506 76.6573C3.00253 76.7233 3.27199 76.7892 3.56896 76.8332C3.86042 76.8882 4.17938 76.9156 4.50934 76.9486C5.16926 77.0036 5.89517 77.0036 6.61558 76.9926C8.0619 76.9596 12.4394 76.8222 12.4394 76.8222L12.4504 76.8277Z" fill="#F1E4C5"/>
<path d="M11.4605 75.4427C11.4605 75.4427 8.8758 75.7396 8.28738 75.8055C7.69895 75.8605 7.07203 75.9374 6.43411 75.9704C6.11515 75.9869 5.79619 76.0089 5.48272 76.0254C5.16376 76.0254 4.8558 76.0254 4.55334 76.0254C4.25088 76.0364 3.95391 75.9814 3.67345 75.9649C3.53047 75.9539 3.39298 75.9374 3.261 75.9264C3.12902 75.899 2.40311 75.7396 2.20513 75.6956C2.01266 75.6241 1.25925 75.3328 1.25925 75.3328C0.973284 75.2229 0.835801 74.904 0.945787 74.6182C1.05577 74.3324 1.37473 74.195 1.6607 74.3049C1.6772 74.3104 1.69369 74.3214 1.71019 74.3269C1.71019 74.3269 2.38661 74.6732 2.54059 74.7556C2.71107 74.8106 3.32699 75.0195 3.43698 75.058C3.55796 75.0799 3.67895 75.1074 3.80543 75.1294C4.0639 75.1734 4.32237 75.2503 4.61383 75.2723C4.8998 75.3053 5.19676 75.3383 5.49922 75.3713C5.80718 75.3878 6.11515 75.4043 6.42861 75.4207C7.05003 75.4537 7.68245 75.4427 8.27088 75.4537C8.85931 75.4537 11.4605 75.4372 11.4605 75.4372V75.4427Z" fill="#F1E4C5"/>
<path d="M10.4705 74.0631C10.4705 74.0631 10.003 74.1235 9.30463 74.2225C8.60622 74.3104 7.66584 74.4148 6.71445 74.4643C6.24151 74.4918 5.76307 74.5028 5.31213 74.4918C5.08665 74.4918 4.86668 74.4698 4.65771 74.4588C4.44873 74.4478 4.25076 74.4313 4.06928 74.4039C3.8878 74.3819 3.71732 74.3544 3.56884 74.3379C3.42036 74.3049 2.84843 74.1785 2.84843 74.1785C2.55147 74.1125 2.36449 73.8157 2.43048 73.5189C2.49648 73.2221 2.79344 73.0352 3.0904 73.1011C3.1179 73.1011 3.1399 73.1121 3.16189 73.1231C3.16189 73.1231 3.31038 73.1781 3.48635 73.244C3.66233 73.321 3.9263 73.4089 4.25076 73.4914C4.41024 73.5409 4.59172 73.5848 4.77869 73.6233C4.97117 73.6618 5.16914 73.7168 5.38362 73.7387C5.80707 73.8102 6.26351 73.8707 6.73095 73.9092C7.65484 73.9971 8.59522 74.0301 9.29913 74.0466C10.003 74.0576 10.476 74.0631 10.476 74.0631H10.4705Z" fill="#F1E4C5"/>
<path d="M9.47525 72.6778C9.47525 72.6778 8.47988 72.8537 7.4845 73.0241C7.23703 73.079 6.97856 73.0735 6.73659 73.0955C6.48912 73.1065 5.39476 73.1615 5.39476 73.1615C5.0868 73.178 4.82283 72.9361 4.81183 72.6283C4.79533 72.3205 5.0373 72.0566 5.34527 72.0457C5.39476 72.0457 5.44425 72.0456 5.49375 72.0566C5.49375 72.0566 6.52762 72.293 6.75309 72.3425C6.97856 72.3864 7.21503 72.4634 7.468 72.4744C8.47438 72.5733 9.48075 72.6778 9.48075 72.6778H9.47525Z" fill="#F1E4C5"/>
<path d="M13.5503 83.9351C13.5503 83.9351 13.6493 83.9571 13.8198 84.0011C13.9902 84.045 14.2377 84.1055 14.5347 84.144C14.6832 84.166 14.8426 84.1989 15.0131 84.2099C15.1836 84.2264 15.3651 84.2374 15.552 84.2539C15.739 84.2759 15.9315 84.2649 16.124 84.2704C16.3165 84.2704 16.5144 84.2814 16.7124 84.2594C16.9104 84.2484 17.1029 84.2319 17.2953 84.2209C17.4878 84.1935 17.6748 84.166 17.8563 84.1385C18.2192 84.1 18.5382 83.9846 18.8186 83.9241C18.9616 83.8966 19.0771 83.8362 19.1871 83.8032C19.2971 83.7647 19.7645 83.5888 19.7645 83.5888C20.0505 83.4844 20.3694 83.6273 20.4739 83.9131C20.5784 84.1989 20.4354 84.5178 20.1495 84.6222C20.122 84.6332 20.089 84.6387 20.0615 84.6497C20.0615 84.6497 19.561 84.7431 19.4346 84.7706C19.3026 84.7926 19.1596 84.8311 19.0001 84.8366C18.6812 84.8531 18.3127 84.9135 17.9168 84.886C17.7188 84.886 17.5153 84.875 17.3118 84.8695C17.1084 84.8476 16.8994 84.8256 16.6959 84.8036C16.4869 84.7871 16.2835 84.7486 16.0855 84.7101C15.8875 84.6717 15.6895 84.6442 15.5026 84.5947C15.3156 84.5452 15.1341 84.5013 14.9636 84.4518C14.7931 84.4133 14.6392 84.3474 14.4907 84.2979C14.1992 84.2044 13.9682 84.1055 13.8033 84.034C13.6383 83.9626 13.5503 83.9241 13.5503 83.9241V83.9351Z" fill="#F1E4C5"/>
<path d="M14.0068 82.8357C14.0068 82.8357 14.0893 82.8577 14.2433 82.9017C14.3918 82.9456 14.6063 83.0061 14.8647 83.0556C14.9967 83.0776 15.1287 83.116 15.2772 83.127C15.4257 83.1435 15.5796 83.16 15.7446 83.182C15.9041 83.1985 16.0746 83.193 16.2451 83.1985C16.4155 83.2095 16.586 83.1985 16.7565 83.1875C16.927 83.171 17.0975 83.1765 17.2624 83.1435C17.4274 83.116 17.5869 83.0885 17.7464 83.0611C17.9004 83.0446 18.0488 82.9896 18.1863 82.9511C18.3238 82.9127 18.4558 82.8797 18.5768 82.8412C19.0442 82.6598 19.3467 82.5389 19.3467 82.5389L19.3797 82.5224C19.6601 82.407 19.9846 82.5444 20.1001 82.8247C20.2156 83.105 20.0781 83.4293 19.7976 83.5448C19.7646 83.5558 19.7316 83.5668 19.6986 83.5723C19.6986 83.5723 19.3247 83.6492 18.7747 83.7372C18.6373 83.7482 18.4833 83.7591 18.3238 83.7701C18.1643 83.7811 17.9993 83.8031 17.8234 83.7921C17.6474 83.7921 17.4714 83.7811 17.2899 83.7756C17.1085 83.7756 16.927 83.7372 16.7455 83.7152C16.564 83.6932 16.3825 83.6657 16.2066 83.6217C16.0306 83.5778 15.8601 83.5503 15.6951 83.5008C15.5356 83.4513 15.3762 83.4019 15.2332 83.3524C15.0847 83.3084 14.9527 83.2425 14.8262 83.193C14.5733 83.094 14.3808 82.9951 14.2433 82.9236C14.1058 82.8522 14.0288 82.8137 14.0288 82.8137L14.0068 82.8357Z" fill="#F1E4C5"/>
<path d="M14.4631 81.7419C14.4631 81.7419 14.5346 81.7639 14.6611 81.8078C14.7876 81.8518 14.9691 81.9178 15.1835 81.9672C15.398 82.0332 15.6565 82.0662 15.926 82.1157C16.0634 82.1211 16.2009 82.1321 16.3439 82.1376C16.4869 82.1541 16.6299 82.1211 16.7728 82.1211C17.0588 82.1211 17.3393 82.0277 17.5977 81.9892C17.8562 81.9068 18.0927 81.8408 18.2962 81.7639C18.6921 81.5935 18.9946 81.467 18.9946 81.467C19.275 81.3461 19.605 81.478 19.726 81.7584C19.847 82.0387 19.715 82.3685 19.4345 82.4894C19.396 82.5059 19.352 82.5169 19.3135 82.5279C19.3135 82.5279 18.9946 82.5829 18.5216 82.6708C18.2852 82.7038 17.9992 82.7148 17.7022 82.7423C17.3943 82.7258 17.0753 82.7423 16.7564 82.6818C16.5969 82.6488 16.4374 82.6433 16.2889 82.5939C16.1404 82.5499 15.9919 82.5114 15.849 82.4674C15.574 82.352 15.321 82.2586 15.1231 82.1431C14.9141 82.0387 14.7546 81.9398 14.6446 81.8683C14.5291 81.7968 14.4686 81.7584 14.4686 81.7584L14.4631 81.7419Z" fill="#F1E4C5"/>
<path d="M14.9197 80.6426C14.9197 80.6426 15.1287 80.736 15.4476 80.8459C15.6071 80.9064 15.7941 80.9559 15.9865 81.0053C16.0855 81.0163 16.1845 81.0273 16.289 81.0383C16.388 81.0493 16.498 81.0383 16.597 81.0328C16.696 81.0328 16.8004 81.0053 16.8994 80.9889C16.9984 80.9669 17.0919 80.9614 17.1909 80.9229C17.3779 80.8569 17.5484 80.813 17.6968 80.747C17.9883 80.6206 18.2138 80.5216 18.2138 80.5216C18.4942 80.3952 18.8242 80.5216 18.9507 80.8075C19.0772 81.0878 18.9507 81.4176 18.6647 81.544C18.6152 81.566 18.5547 81.5825 18.4997 81.588C18.4997 81.588 18.2578 81.6155 17.9003 81.654C17.7243 81.676 17.4989 81.665 17.2734 81.6759C17.1634 81.6814 17.0369 81.654 16.9159 81.6485C16.7949 81.632 16.674 81.6265 16.5475 81.588C16.4265 81.555 16.3055 81.533 16.19 81.4836C16.08 81.4341 15.97 81.3846 15.8656 81.3406C15.6731 81.2252 15.4971 81.1153 15.3651 81.0053C15.0902 80.7965 14.9197 80.6481 14.9197 80.6481V80.6426Z" fill="#F1E4C5"/>
<path d="M5.99414 93.3344C5.99414 93.3344 6.3131 93.3344 6.79154 93.3344C6.91253 93.3344 7.03901 93.3454 7.17649 93.318C7.30848 93.296 7.45146 93.2795 7.59444 93.2575C7.88591 93.2025 8.18287 93.197 8.48533 93.0981C8.7823 93.0156 9.07926 92.9332 9.35972 92.8562C9.64019 92.7903 9.87666 92.6474 10.0856 92.5704C10.4981 92.3945 10.8445 92.2461 10.8445 92.2461C11.125 92.1252 11.455 92.2571 11.5759 92.5374C11.6969 92.8178 11.565 93.1475 11.2845 93.2685C11.246 93.285 11.2075 93.296 11.169 93.3015C11.169 93.3015 10.839 93.3674 10.3441 93.4609C10.0966 93.4938 9.82167 93.5873 9.50821 93.5928C9.20024 93.6093 8.87578 93.6258 8.54582 93.6478C8.22686 93.6807 7.88591 93.6203 7.58344 93.6093C7.43496 93.5983 7.28648 93.5873 7.149 93.5763C7.01151 93.5763 6.89053 93.5268 6.76955 93.5103C6.3021 93.4059 5.99414 93.3399 5.99414 93.3399V93.3344Z" fill="#F1E4C5"/>
<path d="M6.76953 92.1912C6.76953 92.1912 6.84102 92.1912 6.96751 92.2022C7.09399 92.2022 7.27547 92.2242 7.48444 92.2022C7.69342 92.2022 7.93539 92.1747 8.19935 92.1307C8.33134 92.1197 8.46332 92.0813 8.5953 92.0538C8.72729 92.0208 8.86477 91.9988 8.99676 91.9548C9.26622 91.8779 9.52469 91.7954 9.76116 91.6965C10.0031 91.614 10.2121 91.4931 10.3991 91.4107C10.5806 91.3227 10.7235 91.2293 10.828 91.1743C10.927 91.1138 11.015 91.0644 11.015 91.0644C11.279 90.9105 11.6199 91.0039 11.7739 91.2732C11.9279 91.5371 11.8344 91.8779 11.5649 92.0318C11.5264 92.0538 11.4824 92.0703 11.444 92.0813C11.444 92.0813 11.3725 92.1033 11.2405 92.1417C11.1085 92.1747 10.9325 92.2407 10.707 92.2846C10.4816 92.3286 10.2286 92.3946 9.94814 92.4221C9.67317 92.466 9.37071 92.488 9.07375 92.499C8.92526 92.51 8.77678 92.499 8.6338 92.499C8.49082 92.499 8.34784 92.499 8.21035 92.477C7.93539 92.455 7.68242 92.4221 7.46245 92.3726C7.24247 92.3396 7.07749 92.2792 6.95651 92.2462C6.83552 92.2132 6.76953 92.1912 6.76953 92.1912V92.1912Z" fill="#F1E4C5"/>
<path d="M7.54492 91.0534C7.54492 91.0534 7.59991 91.0534 7.6989 91.0589C7.79789 91.0589 7.94087 91.0809 8.11135 91.0589C8.27633 91.0479 8.46881 91.0424 8.67228 90.9984C8.87576 90.9709 9.08473 90.905 9.28821 90.85C9.49168 90.7731 9.69516 90.7071 9.87113 90.6192C10.0526 90.5422 10.2121 90.4433 10.3496 90.3663C10.619 90.2014 10.7895 90.0805 10.7895 90.0805C11.0425 89.8991 11.3889 89.9595 11.5649 90.2069C11.7409 90.4543 11.6859 90.806 11.4384 90.9819C11.3944 91.0149 11.3395 91.0424 11.29 91.0589H11.2735C11.2735 91.0589 11.037 91.1413 10.685 91.2238C10.5036 91.2623 10.3001 91.3117 10.0746 91.3337C9.85464 91.3722 9.60717 91.3722 9.3707 91.3887C9.12873 91.3777 8.89226 91.3777 8.67228 91.3392C8.45231 91.3172 8.24883 91.2623 8.08385 91.2238C7.91338 91.1853 7.78689 91.1249 7.6934 91.0974C7.59991 91.0644 7.54492 91.0424 7.54492 91.0424V91.0534Z" fill="#F1E4C5"/>
<path d="M8.32044 89.9156C8.32044 89.9156 8.47442 89.9101 8.70539 89.8991C8.82088 89.8881 8.96386 89.9046 9.09585 89.8661C9.22233 89.8331 9.35981 89.7946 9.4973 89.7617C9.62378 89.7287 9.75576 89.6462 9.87125 89.5968C9.98673 89.5473 10.0912 89.4868 10.1682 89.4209C10.3277 89.3054 10.4762 89.1955 10.4762 89.1955C10.7291 89.0086 11.0866 89.0691 11.2736 89.3219C11.4606 89.5748 11.4001 89.9321 11.1471 90.1189C11.0756 90.1684 10.9931 90.2014 10.9161 90.2179C10.9161 90.2179 10.7401 90.2509 10.4817 90.2948C10.3552 90.3223 10.2067 90.3388 10.0362 90.3333C9.87125 90.3278 9.70627 90.3498 9.53579 90.3113C9.37081 90.2784 9.20583 90.2454 9.04635 90.2124C8.89787 90.1849 8.78238 90.108 8.6724 90.0695C8.45792 89.976 8.31494 89.9156 8.31494 89.9156H8.32044Z" fill="#F1E4C5"/>
<path d="M4.55903 86.722C4.55903 86.722 4.867 86.9198 4.94399 86.9748C5.01548 87.0133 5.09247 87.0518 5.18046 87.0957C5.34544 87.1947 5.59291 87.2771 5.84587 87.3816C6.10984 87.4585 6.38481 87.5575 6.68177 87.6179C6.82475 87.6509 6.97323 87.6894 7.11622 87.7114C7.2647 87.7334 7.40768 87.7553 7.54516 87.7773C7.82563 87.8158 8.0896 87.8323 8.32057 87.8543C8.77701 87.8653 9.08497 87.8763 9.08497 87.8763C9.08497 87.8763 8.78251 87.9367 8.32607 88.0247C8.0951 88.0522 7.82563 88.1016 7.53417 88.1236C7.38568 88.1346 7.2372 88.1456 7.08322 88.1511C6.92924 88.1676 6.76976 88.1511 6.61578 88.1566C6.29682 88.1676 5.98336 88.1291 5.6809 88.1071C5.37843 88.0577 5.10347 88.0302 4.845 87.9532C4.71851 87.9202 4.60303 87.8873 4.49854 87.8598C4.41055 87.8268 4.07509 87.7059 4.07509 87.7059C3.78913 87.6014 3.64065 87.2826 3.74514 86.9968C3.84962 86.711 4.16858 86.5626 4.45455 86.667C4.49304 86.6835 4.53154 86.7 4.56453 86.722H4.55903Z" fill="#F1E4C5"/>
<path d="M4.6414 85.3919C4.6414 85.3919 4.83388 85.6503 4.88887 85.7162C4.94386 85.7987 4.98236 85.7987 5.03735 85.8536C5.09785 85.8976 5.13634 85.9581 5.22433 86.0075C5.31232 86.0625 5.41131 86.1175 5.51029 86.1724C5.60378 86.2384 5.73027 86.2659 5.84575 86.3209C5.96124 86.3703 6.08222 86.4198 6.21421 86.4528C6.46718 86.5297 6.72564 86.5957 6.97861 86.6342C7.22608 86.6891 7.46255 86.7001 7.67153 86.7276C7.875 86.7496 8.04548 86.7496 8.16647 86.7551C8.28745 86.7551 8.35894 86.7606 8.35894 86.7606C8.35894 86.7606 8.29295 86.7771 8.17196 86.7991C8.05098 86.8211 7.886 86.8705 7.67703 86.898C7.46805 86.9255 7.22608 86.9695 6.96211 86.9805C6.69815 87.0079 6.41218 87.0079 6.12622 86.997C5.98324 86.997 5.83475 86.975 5.69177 86.9585C5.54879 86.931 5.40031 86.931 5.26832 86.887C5.13084 86.8485 4.99336 86.8101 4.86687 86.7716C4.74039 86.7331 4.60291 86.6507 4.48192 86.5902C4.37194 86.5242 4.22895 86.4583 4.17396 86.4033C4.10797 86.3483 3.855 86.145 3.855 86.145C3.61853 85.9526 3.58003 85.6063 3.76701 85.3644C3.95949 85.1281 4.30594 85.0896 4.54791 85.2765C4.58641 85.304 4.61391 85.3369 4.6414 85.3754V85.3919Z" fill="#F1E4C5"/>
<path d="M5.00434 84.3804C5.00434 84.3804 5.19682 84.6992 5.21882 84.7322L5.26831 84.7817C5.30131 84.8147 5.3343 84.8586 5.3728 84.9081C5.41679 84.9576 5.49378 85.0015 5.55428 85.051C5.68076 85.161 5.86224 85.2324 6.03272 85.3204C6.21419 85.3863 6.40117 85.4633 6.58815 85.5018C6.76963 85.5567 6.9511 85.5842 7.10508 85.6062C7.41305 85.6502 7.62202 85.6612 7.62202 85.6612C7.62202 85.6612 7.41855 85.7216 7.10508 85.7766C6.9456 85.8041 6.76413 85.8371 6.55515 85.848C6.35168 85.8755 6.1317 85.859 5.90623 85.859C5.68076 85.8261 5.44979 85.8151 5.23532 85.7381C5.12533 85.6996 5.02084 85.6776 4.91635 85.6282C4.81187 85.5732 4.70738 85.5127 4.61389 85.4578C4.5699 85.4303 4.5204 85.3973 4.48191 85.3753C4.45441 85.3533 4.16295 85.1115 4.16295 85.1115C3.92648 84.9136 3.89348 84.5618 4.09696 84.3255C4.29493 84.0891 4.64689 84.0561 4.88336 84.2595C4.93285 84.298 4.97135 84.3474 5.00434 84.3969V84.3804Z" fill="#F1E4C5"/>
</g>
<defs>
<clipPath id="clip0_36_26978">
<rect width="113" height="95" fill="white"/>
</clipPath>
</defs>
</svg>
