<svg width="175" height="168" viewBox="0 0 175 168" fill="none" xmlns="http://www.w3.org/2000/svg">
<g clip-path="url(#clip0_36_26905)">
<path d="M47.6814 120.435C47.3661 120.632 46.9475 120.536 46.7511 120.222C40.6129 110.409 34.6573 110.194 29.8734 110.017C26.6672 109.902 23.8991 109.798 22.0816 106.892C20.739 104.746 20.3968 102.363 21.07 99.8052C24.4647 86.8087 53.1538 70.9538 80.8957 55.612C103.353 43.1941 124.562 31.47 126.519 23.979C126.785 22.963 126.672 22.0807 126.168 21.2757C124.058 17.9016 120.292 19.5183 114.347 22.5852C108.185 25.7641 101.195 29.3656 96.8462 22.412C95.3357 19.997 94.8793 17.9157 95.4412 16.0472C96.3915 12.8874 100.083 11.1902 103.335 9.69611C105.688 8.61345 107.905 7.59254 108.278 6.36621C108.408 5.93575 108.295 5.45006 107.942 4.88486C107.745 4.57086 107.843 4.15262 108.158 3.95543C108.473 3.75824 108.892 3.85381 109.088 4.16781C109.652 5.06984 109.813 5.93845 109.57 6.74932C109.022 8.56199 106.645 9.65899 103.893 10.9197C100.903 12.2975 97.5083 13.8568 96.7277 16.4339C96.2867 17.9091 96.6943 19.6318 97.9869 21.6985C101.683 27.6074 107.807 24.4443 113.728 21.3917C118.973 18.6836 124.394 15.8886 127.315 20.5586C128.015 21.6776 128.191 22.9414 127.828 24.312C125.726 32.3621 105.253 43.6817 81.5468 56.7932C55.3302 71.2843 25.6266 87.7101 22.3731 100.142C21.7949 102.354 22.0747 104.331 23.2281 106.175C24.6707 108.482 26.8754 108.564 29.932 108.67C34.7645 108.848 41.3866 109.083 47.9033 119.502C48.0997 119.816 48.0024 120.234 47.6871 120.431L47.6814 120.435Z" fill="#F1E4C5"/>
<path d="M99.4968 142.639C98.0465 143.546 96.5469 143.928 95.1699 143.741C93.5745 143.523 92.1794 142.529 91.1403 140.868C86.6982 133.766 91.5282 127.552 96.2074 121.544C101.1 115.251 106.158 108.752 101.23 100.873C100.252 99.3092 99.0253 98.4321 97.4816 98.1825C92.0502 97.3145 83.5029 104.368 75.2345 111.192C66.3468 118.53 57.9458 125.46 51.9139 124.499C49.9916 124.192 48.4184 123.079 47.24 121.195C46.2616 119.631 46.0323 117.9 46.5576 116.062C49.4016 106.087 74.6739 93.5287 99.1203 81.3839C120.398 70.8158 142.403 59.8803 144.465 52.6577C144.746 51.6795 144.634 50.8123 144.131 50.0073C143.702 49.3222 142.649 48.2497 141.316 46.8834C138.798 44.312 135.351 40.7893 132.601 36.3933C130.384 32.8479 129.349 29.6509 128.428 26.8274C127.732 24.6815 127.134 22.832 126.159 21.2734C125.963 20.9594 126.06 20.5412 126.375 20.344C126.69 20.1468 127.109 20.2424 127.305 20.5564C128.369 22.2577 128.99 24.1808 129.716 26.4116C130.608 29.1652 131.617 32.2829 133.746 35.6855C136.416 39.9559 139.804 43.4209 142.278 45.9481C143.721 47.4278 144.768 48.4888 145.275 49.2995C145.982 50.4299 146.142 51.6801 145.759 53.0315C143.533 60.8332 122.25 71.4049 99.714 82.601C75.5342 94.6109 50.5284 107.034 47.852 116.436C47.4296 117.916 47.6059 119.243 48.3843 120.487C49.3627 122.052 50.5891 122.929 52.1328 123.178C57.5642 124.046 66.1115 116.993 74.3799 110.169C83.2676 102.831 91.6686 95.9011 97.7004 96.8622C99.6228 97.1689 101.196 98.2817 102.374 100.166C107.798 108.838 102.207 116.028 97.2685 122.373C92.6767 128.279 88.3389 133.852 92.281 140.155C93.113 141.485 94.1463 142.244 95.348 142.406C96.4058 142.555 97.5867 142.237 98.7676 141.498C101.513 139.781 103.74 135.895 102.429 133.799C101.119 131.704 99.0685 132.685 98.2431 133.201C96.5291 134.273 95.588 136.045 96.0272 136.747C96.2236 137.061 96.1263 137.48 95.811 137.677C95.4958 137.874 95.0771 137.778 94.8807 137.464C93.8738 135.854 95.4367 133.368 97.5289 132.059C99.925 130.561 102.244 130.953 103.576 133.082C105.347 135.914 102.829 140.546 99.4817 142.64L99.4968 142.639Z" fill="#F1E4C5"/>
<path d="M101.948 100.758C101.632 100.956 101.214 100.86 101.017 100.546C97.9356 95.6192 92.9855 94.1563 89.0027 92.9779C86.3588 92.1932 84.268 91.5789 83.361 90.1288C83.1646 89.8148 83.2619 89.3965 83.5771 89.1993C83.8924 89.0021 84.311 89.0977 84.5074 89.4117C85.1466 90.4336 87.1129 91.0147 89.3912 91.6865C93.3647 92.8628 98.8143 94.4739 102.164 99.829C102.36 100.143 102.263 100.561 101.948 100.758Z" fill="#F1E4C5"/>
<path d="M90.7585 138.128C90.7298 138.146 90.6954 138.168 90.6632 138.18C90.3215 138.322 89.9216 138.167 89.7768 137.821L77.3749 108.328C77.2337 107.987 77.3846 107.591 77.7378 107.442C78.0794 107.299 78.4794 107.454 78.6242 107.801L91.0261 137.294C91.1552 137.602 91.0394 137.953 90.7585 138.128V138.128Z" fill="#F1E4C5"/>
<path d="M102.571 133.083C102.336 133.23 102.02 133.222 101.793 133.038L93.4113 126.343C93.1225 126.111 93.0737 125.688 93.3075 125.399C93.5413 125.11 93.9645 125.06 94.2533 125.292L102.635 131.987C102.924 132.219 102.973 132.641 102.739 132.931C102.69 132.993 102.635 133.044 102.571 133.083V133.083Z" fill="#F1E4C5"/>
<path d="M95.8261 137.675C95.8261 137.675 95.7975 137.693 95.786 137.7C95.4564 137.875 95.0479 137.757 94.8708 137.423L90.8932 129.967C90.7197 129.638 90.8392 129.23 91.1745 129.052C91.504 128.878 91.9126 128.996 92.0896 129.33L96.0673 136.786C96.2336 137.103 96.1242 137.489 95.8261 137.675Z" fill="#F1E4C5"/>
<path d="M112.644 23.4442C112.329 23.6414 111.91 23.5458 111.714 23.2318C109.557 19.7835 109.643 16.6956 109.73 13.7105C109.813 10.7833 109.899 8.0134 107.935 4.8734C107.738 4.5594 107.836 4.14115 108.151 3.94396C108.466 3.74677 108.885 3.84234 109.081 4.15634C111.259 7.63889 111.169 10.7454 111.083 13.7455C110.999 16.6576 110.917 19.409 112.86 22.5147C113.056 22.8287 112.959 23.247 112.644 23.4442Z" fill="#F1E4C5"/>
<path d="M114.623 37.4081C114.308 37.6053 113.889 37.5097 113.693 37.1957C111.647 33.9244 109.234 32.6934 106.683 31.3818C103.724 29.8647 100.664 28.2999 97.7685 23.6698C97.5721 23.3558 97.6693 22.9375 97.9846 22.7403C98.2999 22.5432 98.7185 22.6387 98.9149 22.9527C101.614 27.2688 104.509 28.7468 107.305 30.1828C109.909 31.5164 112.597 32.8934 114.839 36.4787C115.035 36.7927 114.938 37.2109 114.623 37.4081V37.4081Z" fill="#F1E4C5"/>
<path d="M31.0352 101.968C31.0352 101.968 31.3352 101.899 31.8572 101.803C32.1157 101.744 32.4422 101.731 32.8181 101.694C33.1997 101.654 33.617 101.671 34.0816 101.674C34.5476 101.693 35.0501 101.744 35.5739 101.829C36.0992 101.93 36.6546 102.027 37.2091 102.212C37.4896 102.291 37.7715 102.385 38.0491 102.497C38.3267 102.609 38.6179 102.705 38.8948 102.842C39.4449 103.109 40.0021 103.388 40.5371 103.721C40.8038 103.88 41.0606 104.06 41.3116 104.245C41.5568 104.433 41.8214 104.601 42.0495 104.8C42.5228 105.187 42.9617 105.596 43.3627 106.02C43.783 106.424 44.1195 106.873 44.4496 107.286C44.7855 107.695 45.0361 108.134 45.2904 108.515C45.5332 108.904 45.718 109.288 45.8915 109.617C46.0764 109.938 46.1812 110.246 46.2803 110.493C46.4786 110.989 46.5784 111.276 46.5784 111.276C46.5784 111.276 46.3776 111.044 46.0475 110.631C45.8795 110.426 45.6945 110.169 45.4537 109.899C45.2128 109.628 44.9585 109.311 44.6633 108.979C44.3488 108.668 44.0472 108.3 43.687 107.954C43.3267 107.607 42.9521 107.238 42.5396 106.884C42.1464 106.511 41.6823 106.189 41.2512 105.832C41.0338 105.65 40.7835 105.505 40.5525 105.339C40.3216 105.174 40.0791 105.016 39.8288 104.871C39.3496 104.551 38.8389 104.282 38.3411 104.022C37.8253 103.797 37.3375 103.514 36.8237 103.343C36.3222 103.14 35.8271 102.973 35.3541 102.816C34.8711 102.682 34.4182 102.544 33.9902 102.446C33.558 102.367 33.1623 102.257 32.8094 102.216C32.453 102.169 32.1424 102.093 31.8768 102.076C31.3465 102.019 31.048 101.975 31.048 101.975L31.0352 101.968Z" fill="#F1E4C5"/>
<path d="M34.8746 99.4868C34.8746 99.4868 35.111 99.4184 35.517 99.3154C35.9266 99.218 36.5317 99.1017 37.2641 99.0486C37.6285 99.0193 38.0316 99.0134 38.4546 99.0268C38.8791 99.0552 39.3336 99.0806 39.7952 99.1811C40.0321 99.2156 40.2625 99.278 40.4965 99.3461C40.7327 99.4049 40.9724 99.4694 41.2034 99.5711C41.68 99.7337 42.1242 99.9722 42.5777 100.213C42.9982 100.49 43.4302 100.76 43.8019 101.099C44.1973 101.4 44.506 101.779 44.8348 102.113C45.4444 102.82 45.9186 103.54 46.2584 104.185C46.5982 104.83 46.8357 105.389 46.9654 105.8C47.1066 106.204 47.1706 106.434 47.1706 106.434C47.1706 106.434 47.002 106.254 46.7326 105.938C46.5989 105.775 46.4382 105.582 46.2538 105.363C46.058 105.152 45.8407 104.907 45.6185 104.641C45.3962 104.375 45.1139 104.115 44.8552 103.816C44.585 103.524 44.2747 103.258 43.9788 102.95C43.6499 102.679 43.3368 102.383 42.9735 102.133C42.6318 101.855 42.2527 101.631 41.8815 101.395C41.4945 101.184 41.1076 100.973 40.7062 100.803C40.3106 100.63 39.9071 100.469 39.5021 100.357C39.0992 100.236 38.7014 100.135 38.3199 100.048C37.9342 99.9797 37.5621 99.8948 37.2207 99.8462C36.525 99.7412 35.941 99.6617 35.523 99.6055C35.105 99.5492 34.8646 99.509 34.8646 99.509L34.8746 99.4868Z" fill="#F1E4C5"/>
<path d="M139.091 47.3693C139.091 47.3693 138.792 47.3106 138.274 47.1974C138.011 47.1472 137.71 47.0342 137.352 46.9085C136.986 46.7957 136.611 46.6171 136.186 46.4222C135.767 46.2238 135.331 45.9724 134.882 45.689C134.442 45.3927 133.972 45.075 133.538 44.6872C133.312 44.5033 133.087 44.3101 132.878 44.0912C132.667 43.8815 132.436 43.6769 132.241 43.4415C131.839 42.9779 131.442 42.4957 131.09 41.9848C130.909 41.7329 130.745 41.4703 130.598 41.197C130.445 40.9272 130.275 40.6681 130.143 40.3933C129.864 39.8451 129.624 39.2961 129.427 38.752C129.204 38.2165 129.077 37.6687 128.941 37.1581C128.799 36.651 128.74 36.1481 128.658 35.6987C128.582 35.2459 128.573 34.8228 128.547 34.4499C128.509 34.0841 128.533 33.7517 128.535 33.4881C128.552 32.9535 128.572 32.6548 128.572 32.6548C128.572 32.6548 128.661 32.949 128.802 33.456C128.871 33.7067 128.94 34.021 129.052 34.3645C129.163 34.7079 129.272 35.1 129.409 35.5228C129.572 35.9369 129.706 36.3932 129.898 36.853C130.094 37.3185 130.285 37.8026 130.528 38.2937C130.739 38.797 131.036 39.2709 131.29 39.7791C131.417 40.0333 131.584 40.2623 131.732 40.5114C131.885 40.7569 132.035 40.9966 132.212 41.2278C132.521 41.7095 132.882 42.1589 133.236 42.5969C133.614 43.0113 133.951 43.46 134.356 43.8265C134.732 44.2108 135.12 44.5637 135.494 44.8938C135.881 45.2074 136.241 45.5146 136.596 45.7768C136.956 46.0204 137.278 46.2798 137.583 46.4621C137.888 46.6444 138.141 46.8439 138.383 46.9627C138.841 47.224 139.102 47.3864 139.102 47.3864L139.091 47.3693Z" fill="#F1E4C5"/>
<path d="M134.583 48.1164C134.583 48.1164 134.34 48.0854 133.924 48.0199C133.51 47.945 132.909 47.8127 132.216 47.5712C131.865 47.4569 131.496 47.2991 131.111 47.1184C130.729 46.9284 130.327 46.7192 129.941 46.4449C129.744 46.3217 129.554 46.1706 129.363 46.0195C129.173 45.8684 128.974 45.7152 128.805 45.5348C128.433 45.1954 128.12 44.7959 127.8 44.4C127.527 43.9754 127.232 43.5559 127.029 43.1033C126.782 42.67 126.656 42.2008 126.484 41.7603C126.212 40.8662 126.062 40.0147 126.006 39.2874C125.95 38.56 125.959 37.9505 125.999 37.5288C126.029 37.105 126.061 36.8626 126.061 36.8626C126.061 36.8626 126.143 37.0969 126.266 37.4968C126.327 37.6967 126.393 37.9417 126.476 38.2152C126.569 38.4908 126.673 38.7986 126.762 39.1321C126.861 39.4678 127.015 39.8162 127.129 40.1897C127.258 40.5617 127.441 40.9314 127.588 41.332C127.775 41.7075 127.956 42.1108 128.178 42.4798C128.382 42.8688 128.637 43.2256 128.878 43.5988C129.15 43.9448 129.417 44.2944 129.722 44.6038C130.016 44.9205 130.327 45.2264 130.646 45.4951C130.966 45.7638 131.29 46.014 131.607 46.2527C131.933 46.4692 132.24 46.6908 132.53 46.8745C133.124 47.2498 133.628 47.546 133.988 47.7653C134.354 47.9811 134.558 48.1157 134.558 48.1157L134.583 48.1164Z" fill="#F1E4C5"/>
<path d="M95.346 18.394C95.346 18.394 95.6619 17.7517 95.7402 17.5836C95.8335 17.414 95.8953 17.2324 96.0331 17.0191C96.1744 16.8116 96.3294 16.5876 96.4923 16.3507C96.6515 16.1081 96.8259 15.8641 97.0495 15.6606C97.2567 15.4437 97.4754 15.2195 97.6941 14.9954C97.9435 14.8076 98.1986 14.6163 98.4502 14.4192C98.6946 14.2108 98.989 14.0822 99.2541 13.9323C99.5249 13.7788 99.7843 13.6325 100.066 13.5354C100.336 13.4305 100.599 13.3291 100.848 13.2293C101.103 13.1651 101.345 13.0932 101.573 13.0376C102.016 12.9038 102.401 12.8694 102.661 12.8259C102.921 12.7825 103.074 12.7586 103.074 12.7586C103.074 12.7586 102.926 12.8032 102.672 12.8824C102.423 12.9672 102.051 13.0488 101.638 13.2433C101.431 13.3331 101.203 13.4279 100.97 13.5263C100.745 13.6511 100.509 13.7831 100.266 13.9187C100.017 14.0428 99.7848 14.2199 99.5584 14.3933C99.3297 14.576 99.0761 14.7187 98.8818 14.9435C98.6767 15.1512 98.4681 15.3532 98.2688 15.5573C98.1024 15.7884 97.9381 16.0103 97.7796 16.2286C97.6081 16.4391 97.4926 16.6623 97.3884 16.8783C97.2807 17.0886 97.1809 17.286 97.0855 17.4649C96.99 17.6438 96.9417 17.8725 96.8784 18.0392C96.8223 18.2172 96.5973 18.8901 96.5973 18.8901C96.4851 19.2462 96.0968 19.4414 95.7462 19.3272C95.3956 19.2129 95.1957 18.8296 95.3172 18.4756C95.3237 18.4477 95.3416 18.4126 95.3574 18.3869L95.346 18.394Z" fill="#F1E4C5"/>
<path d="M96.375 20.0775C96.375 20.0775 96.6952 19.4801 96.7806 19.3235C96.8717 19.1632 96.9407 18.993 97.0799 18.7947C97.2226 18.6022 97.704 17.9437 97.7843 17.83C97.8775 17.724 97.9836 17.6259 98.0862 17.522C98.2948 17.3201 98.502 17.1031 98.7199 16.9033C98.9614 16.7284 99.2087 16.5499 99.4559 16.3715C99.6924 16.1759 99.9804 16.0752 100.24 15.9289C100.503 15.7882 100.758 15.6605 101.026 15.5799C101.288 15.4879 101.536 15.388 101.778 15.316C102.022 15.259 102.26 15.2056 102.473 15.1516C102.896 15.0378 103.268 15.0198 103.516 14.9836C103.768 14.953 103.915 14.9327 103.915 14.9327C103.915 14.9327 103.773 14.9737 103.528 15.04C103.283 15.1213 102.931 15.1828 102.528 15.3551C102.329 15.432 102.113 15.5197 101.882 15.6088C101.661 15.715 101.436 15.8398 101.202 15.9625C100.96 16.0738 100.732 16.2322 100.514 16.3928C100.293 16.5626 100.044 16.6868 99.8574 16.8987C99.6603 17.0935 99.4595 17.2826 99.2646 17.4681C99.0931 17.6785 98.9403 17.8932 98.7804 18.0965C98.708 18.1974 98.6226 18.2905 98.5595 18.3935C98.5056 18.4987 98.1933 19.0832 98.1 19.2528C98.0067 19.4223 97.957 19.6361 97.8866 19.7913C97.8234 19.9579 97.5955 20.6008 97.5955 20.6008C97.4704 20.9491 97.0785 21.1386 96.7301 21.015C96.3817 20.8914 96.1968 20.5067 96.3183 20.1527C96.3305 20.1212 96.3428 20.0897 96.3586 20.064L96.375 20.0775Z" fill="#F1E4C5"/>
<path d="M97.404 21.761C97.404 21.761 97.7306 21.1994 97.8174 21.0577C97.91 20.9125 97.9768 20.7515 98.1231 20.5647C98.2637 20.3815 98.7435 19.7716 98.8275 19.6635C98.9185 19.5669 99.0225 19.478 99.1228 19.3835C99.3271 19.2001 99.5264 18.996 99.7493 18.8169C99.9829 18.6549 100.226 18.495 100.471 18.3258C100.707 18.1545 100.983 18.0611 101.235 17.9276C101.362 17.8637 101.488 17.8091 101.609 17.7489C101.742 17.7057 101.869 17.6661 101.992 17.6208C102.245 17.5417 102.482 17.449 102.72 17.3956C102.956 17.3515 103.182 17.3053 103.388 17.2641C103.797 17.1668 104.149 17.1689 104.383 17.1341C104.623 17.1107 104.759 17.0975 104.759 17.0975C104.759 17.0975 104.623 17.135 104.388 17.1941C104.156 17.2682 103.813 17.3075 103.428 17.4691C103.235 17.5424 103.026 17.6172 102.806 17.6991C102.59 17.7868 102.374 17.9137 102.148 18.0235C102.038 18.0767 101.925 18.1391 101.809 18.1958C101.7 18.2639 101.598 18.3434 101.484 18.4151C101.271 18.5721 101.037 18.6948 100.851 18.8824C100.658 19.0586 100.469 19.2405 100.276 19.4167C100.103 19.6122 99.9583 19.814 99.8027 19.9987C99.7267 20.0939 99.6564 20.1855 99.5861 20.2772C99.5286 20.3766 99.2193 20.9275 99.1281 21.0878C99.0334 21.2423 98.9766 21.4447 98.9119 21.5963C98.8508 21.7537 98.613 22.3551 98.613 22.3551C98.4786 22.7013 98.0853 22.8758 97.7355 22.7372C97.3892 22.6043 97.2158 22.2124 97.3559 21.8626C97.3681 21.8312 97.3861 21.7961 97.4019 21.7703L97.404 21.761Z" fill="#F1E4C5"/>
<path d="M98.4332 23.4446C98.4332 23.4446 98.764 22.928 98.8544 22.792C98.9505 22.6524 99.0187 22.5065 99.1665 22.3347C99.3084 22.1665 99.7832 21.5995 99.8685 21.5064C99.9667 21.4211 100.059 21.3395 100.163 21.2507C100.369 21.0823 100.56 20.8911 100.779 20.7305C101.008 20.5871 101.243 20.4401 101.478 20.2931C101.713 20.1461 101.978 20.0598 102.216 19.9428C102.46 19.8223 102.707 19.7467 102.953 19.6804C103.199 19.6141 103.424 19.5286 103.658 19.4938C103.882 19.4569 104.097 19.4178 104.294 19.3896C104.685 19.3123 105.023 19.3308 105.245 19.3032C105.474 19.287 105.607 19.2831 105.607 19.2831C105.607 19.2831 105.483 19.3134 105.256 19.3596C105.032 19.4208 104.71 19.4551 104.341 19.591C104.155 19.6514 103.958 19.719 103.746 19.788C103.534 19.8571 103.33 19.9769 103.111 20.0738C102.893 20.1708 102.676 20.2827 102.471 20.4268C102.266 20.5708 102.04 20.6807 101.852 20.8533C101.668 21.0166 101.483 21.1799 101.298 21.3433C101.126 21.5144 100.986 21.7127 100.833 21.8881C100.759 21.974 100.685 22.0599 100.617 22.1422C100.562 22.2324 100.252 22.744 100.163 22.8949C100.067 23.0345 100.006 23.2311 99.9402 23.3678C99.872 23.5137 99.6277 24.0795 99.6277 24.0795C99.4805 24.4178 99.0801 24.5808 98.7324 24.433C98.3847 24.2851 98.2321 23.8881 98.3815 23.5405C98.3937 23.509 98.4174 23.4704 98.4332 23.4446V23.4446Z" fill="#F1E4C5"/>
<path d="M99.8231 24.4813C99.8231 24.4813 100.167 24.0754 100.257 23.9637C100.35 23.8578 100.427 23.7383 100.581 23.6022C100.72 23.4675 100.871 23.3257 101.033 23.1767C101.182 23.0199 101.367 22.8959 101.559 22.7683C101.754 22.6464 101.924 22.4845 102.148 22.384C102.359 22.2756 102.576 22.1637 102.788 22.0553C103.013 21.9698 103.237 21.8936 103.46 21.8174C103.676 21.7297 103.904 21.6985 104.117 21.6445C104.332 21.6054 104.539 21.5399 104.738 21.5266C104.933 21.5076 105.119 21.4865 105.296 21.4633C105.638 21.424 105.928 21.4412 106.125 21.4372C106.322 21.4332 106.44 21.4308 106.44 21.4308C106.44 21.4308 106.327 21.4539 106.136 21.4936C105.944 21.5426 105.658 21.5704 105.337 21.6683C105.174 21.7144 105 21.7676 104.814 21.828C104.628 21.8735 104.448 21.9696 104.255 22.0429C104.069 22.1276 103.863 22.1931 103.683 22.3135C103.499 22.4283 103.305 22.5259 103.122 22.6406C102.949 22.7725 102.782 22.9007 102.615 23.029C102.441 23.1458 102.317 23.3183 102.169 23.4508C102.028 23.5948 101.891 23.7201 101.802 23.8711C101.696 24.0085 101.603 24.1388 101.511 24.2598C101.417 24.3657 101.351 24.5266 101.276 24.6368C101.209 24.7585 100.949 25.2228 100.949 25.2228C100.764 25.5526 100.35 25.6686 100.026 25.482C99.6966 25.2991 99.5819 24.8863 99.77 24.5622C99.7879 24.5271 99.8173 24.4849 99.8424 24.4613L99.8231 24.4813Z" fill="#F1E4C5"/>
<path d="M101.853 25.0231C101.853 25.0231 101.927 24.9765 102.046 24.8862C102.184 24.8001 102.315 24.6784 102.586 24.5249C102.838 24.3671 103.135 24.205 103.458 24.0828C103.615 24.016 103.782 23.9513 103.96 23.9038C104.137 23.8562 104.304 23.7916 104.483 23.759C104.838 23.6882 105.19 23.6267 105.518 23.6039C105.846 23.566 106.156 23.5782 106.413 23.5684C106.674 23.5642 106.889 23.5888 107.038 23.5985C107.188 23.6082 107.27 23.6123 107.27 23.6123C107.27 23.6123 107.184 23.6267 107.035 23.6564C106.886 23.686 106.673 23.7157 106.427 23.782C106.185 23.854 105.89 23.9039 105.597 24.0232C105.297 24.116 104.994 24.2574 104.698 24.3953C104.549 24.4642 104.415 24.5559 104.274 24.6363C104.135 24.7073 104.011 24.8012 103.892 24.8915C103.641 25.0643 103.455 25.2519 103.299 25.3973C103.141 25.5277 102.994 25.7388 102.897 25.839C102.802 25.9543 102.744 26.0144 102.744 26.0144C102.497 26.2958 102.067 26.3346 101.782 26.0837C101.501 25.8385 101.464 25.4091 101.716 25.1241C101.755 25.084 101.8 25.0403 101.845 25.0117L101.853 25.0231Z" fill="#F1E4C5"/>
<path d="M125.735 20.6092C125.735 20.6092 125.7 20.5914 125.627 20.5501C125.566 20.5167 125.45 20.4462 125.339 20.3964C125.233 20.3673 125.142 20.2975 124.969 20.2629C124.809 20.2118 124.611 20.1764 124.393 20.1462C124.173 20.1252 123.928 20.1036 123.663 20.1263C123.399 20.1247 123.115 20.1675 122.821 20.2082C122.525 20.2581 122.218 20.3152 121.91 20.3966C121.595 20.4666 121.286 20.5723 120.971 20.6666C119.719 21.0759 118.49 21.6224 117.59 22.058C116.687 22.488 116.085 22.8009 116.085 22.8009C116.085 22.8009 116.635 22.4174 117.482 21.8718C118.329 21.3261 119.482 20.6205 120.72 20.0369C121.032 19.8976 121.34 19.7526 121.662 19.6304C121.981 19.5025 122.299 19.3989 122.615 19.3046C122.938 19.2218 123.242 19.1347 123.556 19.089C123.86 19.0261 124.166 19.0176 124.444 19.0027C124.723 19.0028 124.988 19.0194 125.229 19.0596C125.455 19.077 125.694 19.1658 125.869 19.2155C126.032 19.2723 126.12 19.3121 126.202 19.3405C126.274 19.3668 126.315 19.381 126.315 19.381C126.665 19.5196 126.829 19.9094 126.695 20.2556C126.554 20.6053 126.163 20.7705 125.817 20.6376C125.795 20.6277 125.763 20.6156 125.738 20.5999L125.735 20.6092Z" fill="#F1E4C5"/>
<path d="M126.725 22.6115C126.725 22.6115 126.573 22.5475 126.299 22.4409C126.171 22.4019 125.981 22.2901 125.832 22.2804C125.668 22.2479 125.482 22.2054 125.281 22.1644C125.068 22.1305 124.811 22.1404 124.551 22.1202C124.284 22.0886 124.007 22.1428 123.712 22.1685C123.421 22.1998 123.111 22.2269 122.806 22.314C122.495 22.3897 122.183 22.4654 121.872 22.5411C121.567 22.6526 121.262 22.764 120.956 22.8754C120.653 22.9775 120.352 23.0946 120.08 23.2331C119.526 23.508 118.982 23.7214 118.554 23.981C117.684 24.4774 117.108 24.8059 117.108 24.8059C117.108 24.8059 117.641 24.4089 118.443 23.804C118.835 23.4874 119.352 23.204 119.878 22.8591C120.14 22.6792 120.426 22.5242 120.725 22.3771C121.02 22.2243 121.33 22.07 121.631 21.9135C121.953 21.7914 122.272 21.6635 122.588 21.5449C122.9 21.4056 123.23 21.3341 123.551 21.2606C123.872 21.187 124.178 21.0906 124.493 21.0842C124.807 21.0628 125.088 21.0143 125.374 21.0258C125.667 21.0488 125.934 21.0804 126.176 21.0963C126.432 21.1107 126.563 21.1798 126.717 21.2102C126.998 21.2889 127.16 21.3307 127.16 21.3307C127.524 21.4285 127.732 21.799 127.638 22.1593C127.539 22.5233 127.167 22.732 126.806 22.6399C126.778 22.6335 126.747 22.6214 126.725 22.6115Z" fill="#F1E4C5"/>
<path d="M126.971 24.3953C126.971 24.3953 126.822 24.3613 126.562 24.3018C126.435 24.2778 126.263 24.2189 126.104 24.2071C125.941 24.1895 125.76 24.1678 125.555 24.1454C125.357 24.1101 125.114 24.1427 124.871 24.1361C124.747 24.1421 124.62 24.1424 124.492 24.1426C124.361 24.1615 124.229 24.1804 124.097 24.1992C123.831 24.2462 123.541 24.2533 123.261 24.3411C122.983 24.4196 122.696 24.4959 122.409 24.5723C122.125 24.6544 121.849 24.7872 121.576 24.8864C121.305 25.0006 121.025 25.0883 120.78 25.2332C120.287 25.5022 119.795 25.7227 119.412 25.9779C118.643 26.4826 118.131 26.811 118.131 26.811C118.131 26.811 118.597 26.4084 119.292 25.7988C119.639 25.4865 120.098 25.1997 120.569 24.8571C120.798 24.6744 121.074 24.5416 121.335 24.3859C121.609 24.2381 121.87 24.0675 122.16 23.9333C122.449 23.8083 122.747 23.6855 123.036 23.5605C123.321 23.4298 123.628 23.3727 123.92 23.2778C124.067 23.2332 124.212 23.1978 124.349 23.1604C124.495 23.1401 124.639 23.114 124.776 23.0916C125.058 23.0581 125.309 22.9882 125.568 22.9934C125.828 22.9893 126.065 22.9845 126.277 22.979C126.489 22.9736 126.634 23.0018 126.768 23.013C127.038 23.0353 127.191 23.0507 127.191 23.0507C127.561 23.0813 127.837 23.4087 127.8 23.7818C127.767 24.1513 127.438 24.4286 127.065 24.3922C127.031 24.3894 127.003 24.3831 126.975 24.3767L126.971 24.3953Z" fill="#F1E4C5"/>
<path d="M126.412 26.2301C126.412 26.2301 125.814 26.1914 125.658 26.1853C125.519 26.1927 125.362 26.1959 125.195 26.197C125.025 26.1923 124.833 26.2171 124.63 26.2489C124.426 26.2808 124.205 26.2841 123.984 26.3511C123.761 26.403 123.533 26.4585 123.298 26.5176C123.069 26.5974 122.838 26.6865 122.609 26.7664C122.37 26.844 122.153 26.956 121.932 27.0622C121.715 27.1742 121.488 27.269 121.283 27.3888C121.083 27.5142 120.888 27.6361 120.704 27.7509C120.521 27.8656 120.336 27.9653 120.183 28.0771C119.567 28.5336 119.159 28.8368 119.159 28.8368C119.159 28.8368 119.515 28.463 120.049 27.9145C120.181 27.7684 120.352 27.6459 120.514 27.4969C120.685 27.35 120.862 27.1996 121.047 27.0362C121.239 26.8843 121.447 26.746 121.66 26.589C121.871 26.4414 122.084 26.2844 122.318 26.1617C122.549 26.0333 122.785 25.9013 123.01 25.7765C123.255 25.6709 123.494 25.5689 123.728 25.4705C123.954 25.3607 124.201 25.3094 124.419 25.2368C124.637 25.1642 124.856 25.1065 125.065 25.0711C125.274 25.0356 125.465 24.9959 125.638 24.9669C125.794 24.9487 126.395 24.8903 126.395 24.8903C126.771 24.8537 127.1 25.1246 127.132 25.494C127.167 25.869 126.895 26.1983 126.524 26.2313C126.489 26.2378 126.446 26.2329 126.412 26.2301V26.2301Z" fill="#F1E4C5"/>
<path d="M125.103 28.3832C125.103 28.3832 124.752 28.4597 124.222 28.5688C124.088 28.5969 123.936 28.6208 123.82 28.6775C123.691 28.7264 123.111 28.9463 122.961 29.0002C122.798 29.0463 122.66 29.1567 122.506 29.2292C122.201 29.4042 121.896 29.5792 121.61 29.7342C121.467 29.8238 121.349 29.9291 121.226 30.0137C121.107 30.104 120.171 30.8249 120.171 30.8249C120.171 30.8249 120.919 29.9043 121.016 29.7797C121.117 29.6609 121.214 29.5213 121.339 29.4032C121.59 29.1668 121.864 28.9161 122.128 28.6633C122.269 28.5437 122.391 28.3955 122.556 28.3008C122.712 28.1947 123.327 27.7868 123.466 27.6914C123.608 27.5868 123.743 27.5344 123.865 27.4741C124.35 27.2422 124.675 27.0864 124.675 27.0864C125.012 26.9235 125.419 27.0656 125.579 27.4104C125.741 27.7459 125.597 28.1535 125.251 28.3143C125.206 28.343 125.149 28.3545 125.098 28.3625L125.103 28.3832Z" fill="#F1E4C5"/>
<path d="M50.601 122.667C50.601 122.667 50.8517 122.622 51.2906 122.546C51.5111 122.503 51.7875 122.473 52.0618 122.389C52.349 122.313 52.672 122.23 53.025 122.144C53.3781 122.058 53.7706 121.908 54.1774 121.781C54.5899 121.65 55.0196 121.508 55.4545 121.323C55.8928 121.144 56.3462 120.964 56.8054 120.78C57.2524 120.564 58.8428 119.792 58.8428 119.792C59.0584 119.665 60.3445 118.916 60.7529 118.677C61.1542 118.426 61.519 118.142 61.8752 117.895C62.2277 117.643 62.5667 117.407 62.8827 117.186C64.0325 116.181 64.8009 115.509 64.8009 115.509C64.8009 115.509 64.0868 116.242 63.0221 117.345C62.7296 117.591 62.4121 117.861 62.0716 118.146C61.7276 118.424 61.3842 118.742 60.9987 119.031C60.606 119.309 59.3612 120.174 59.1505 120.322C59.1505 120.322 57.595 121.239 57.1579 121.497C56.703 121.726 56.2538 121.951 55.8219 122.166C55.3913 122.395 54.9622 122.576 54.5446 122.75C54.1327 122.92 53.7523 123.103 53.3756 123.227C52.9967 123.361 52.6465 123.477 52.3378 123.582C52.0269 123.697 51.7684 123.756 51.5493 123.814C51.1167 123.925 50.8711 123.991 50.8711 123.991C50.5066 124.084 50.1404 123.869 50.0486 123.505C49.9568 123.142 50.1742 122.775 50.5387 122.682C50.5559 122.672 50.5745 122.676 50.5953 122.671L50.601 122.667V122.667Z" fill="#F1E4C5"/>
<path d="M48.7036 121.074C48.7036 121.074 48.9671 121.037 49.4247 120.965C49.6617 120.936 49.9366 120.891 50.2202 120.809C50.5167 120.734 50.8526 120.659 51.2171 120.566C51.5895 120.461 51.9927 120.328 52.4203 120.195C52.6323 120.126 52.8536 120.059 53.0806 119.989C53.3005 119.907 54.6851 119.366 55.1593 119.181C55.6271 118.96 57.2833 118.178 57.2833 118.178C57.514 118.05 58.8567 117.289 59.2858 117.045C59.7043 116.783 60.0841 116.498 60.4611 116.246C60.8344 115.989 61.1848 115.746 61.5123 115.517C62.7101 114.474 63.5072 113.785 63.5072 113.785C63.5072 113.785 62.7622 114.545 61.6459 115.68C61.342 115.933 61.0037 116.209 60.6482 116.494C60.2927 116.78 59.9286 117.103 59.5223 117.397C59.1088 117.68 57.8075 118.557 57.5853 118.712C57.5853 118.712 55.9582 119.642 55.5004 119.905C55.0247 120.139 53.6514 120.799 53.4365 120.902C53.2144 120.993 52.9924 121.084 52.776 121.172C52.3434 121.347 51.9466 121.516 51.5562 121.657C51.1587 121.786 50.7934 121.904 50.4697 122.011C50.1438 122.127 49.8645 122.191 49.6418 122.243C49.1907 122.35 48.9321 122.409 48.9321 122.409C48.5698 122.492 48.2058 122.267 48.1233 121.906C48.0408 121.544 48.2675 121.18 48.6299 121.097C48.6471 121.086 48.6657 121.09 48.6807 121.089L48.6922 121.081L48.7036 121.074Z" fill="#F1E4C5"/>
<path d="M47.7858 119.25C47.7858 119.25 48.04 119.21 48.4861 119.145C48.7138 119.114 48.983 119.073 49.2609 118.994C49.5516 118.924 49.8782 118.847 50.237 118.757C50.5943 118.653 50.9918 118.523 51.4044 118.392C51.6106 118.327 51.8226 118.258 52.0439 118.191C52.2545 118.107 52.4801 118.021 52.6965 117.934C53.1441 117.757 53.6047 117.588 54.0682 117.385C54.5245 117.172 54.983 116.948 55.445 116.731C55.9142 116.525 56.3606 116.269 56.7977 116.012C57.2383 115.76 57.6639 115.51 58.0873 115.269C58.4907 115.009 58.8648 114.727 59.2267 114.477C59.5851 114.221 59.9297 113.981 60.2458 113.76C61.4091 112.738 62.189 112.06 62.189 112.06C62.189 112.06 61.467 112.805 60.3794 113.923C60.0812 114.173 59.7544 114.441 59.4082 114.729C59.0584 115.011 58.7057 115.327 58.318 115.625C57.916 115.9 57.5004 116.192 57.0754 116.482C56.6541 116.777 56.2177 117.074 55.762 117.327C55.3042 117.589 54.8556 117.854 54.4093 118.109C53.9522 118.348 53.4901 118.565 53.0524 118.783C52.8318 118.89 52.6111 118.996 52.3998 119.104C52.1777 119.195 51.9614 119.283 51.7544 119.373C51.3332 119.541 50.9399 119.715 50.5646 119.855C50.1728 119.981 49.8226 120.096 49.5046 120.2C49.1845 120.313 48.9145 120.379 48.6939 120.421C48.2542 120.521 47.9993 120.586 47.9993 120.586C47.6369 120.669 47.2729 120.444 47.1904 120.083C47.1079 119.721 47.3347 119.357 47.697 119.274C47.7142 119.263 47.7328 119.267 47.7478 119.266L47.7593 119.258L47.7858 119.25Z" fill="#F1E4C5"/>
<path d="M47.0004 117.446C47.0004 117.446 47.2567 117.396 47.6828 117.313C47.8905 117.262 48.1726 117.229 48.4411 117.148C48.719 117.07 49.0384 116.981 49.3879 116.889C49.7352 116.807 50.1127 116.658 50.5159 116.525C50.912 116.381 51.3467 116.26 51.7629 116.071C52.1863 115.894 52.6304 115.711 53.0802 115.525C53.5265 115.333 53.9592 115.095 54.4062 114.879C54.8533 114.662 55.2967 114.441 55.7094 114.183C56.1293 113.936 56.5399 113.687 56.9425 113.451C57.3452 113.215 57.6914 112.927 58.0454 112.69C58.3922 112.441 58.7219 112.203 59.0265 111.989C59.5941 111.507 60.0587 111.089 60.3898 110.802C60.721 110.516 60.9023 110.347 60.9023 110.347C60.9023 110.347 60.7281 110.527 60.4241 110.845C60.1165 111.156 59.6899 111.621 59.1601 112.151C58.8734 112.394 58.5616 112.661 58.2326 112.938C57.9 113.21 57.5659 113.53 57.179 113.804C56.792 114.077 56.3971 114.364 55.9929 114.649C55.5938 114.954 55.1624 115.208 54.7289 115.471C54.2919 115.728 53.8691 116.009 53.427 116.245C52.9814 116.477 52.5473 116.7 52.1246 116.917C51.7091 117.145 51.2786 117.311 50.8774 117.499C50.4748 117.671 50.1037 117.855 49.7327 117.976C49.3632 118.112 49.0315 118.232 48.7321 118.34C48.4306 118.457 48.1835 118.508 47.9715 118.577C47.5519 118.697 47.3098 118.769 47.3098 118.769C46.9524 118.873 46.5748 118.665 46.4715 118.308C46.3682 117.952 46.5785 117.574 46.9359 117.47C46.9531 117.459 46.9717 117.463 46.9925 117.458L47.0004 117.446Z" fill="#F1E4C5"/>
<path d="M47.1738 115.351C47.1738 115.351 48.1907 115.065 48.4571 114.994C48.7071 114.909 48.9986 114.814 49.3073 114.708C49.9297 114.517 50.6496 114.202 51.4289 113.905C51.8071 113.732 52.1968 113.552 52.598 113.365C53.0006 113.192 53.3932 112.978 53.7858 112.765C54.1748 112.545 54.5817 112.354 54.9543 112.121C55.3269 111.888 55.6938 111.659 56.0492 111.436C56.76 110.992 57.3621 110.488 57.9175 110.101C58.1934 109.905 58.4063 109.684 58.6199 109.503C58.8242 109.32 59.6141 108.619 59.6141 108.619C59.6141 108.619 58.8914 109.389 58.7014 109.595C58.5042 109.79 58.3091 110.039 58.0568 110.26C57.5429 110.701 56.9836 111.273 56.3007 111.787C55.9609 112.048 55.6098 112.315 55.2564 112.591C54.8995 112.862 54.5062 113.1 54.1328 113.358C53.7502 113.613 53.3732 113.865 52.9749 114.082C52.5837 114.311 52.2004 114.527 51.8264 114.745C51.0613 115.128 50.3541 115.515 49.7087 115.783C49.3914 115.926 49.097 116.055 48.8405 116.168C48.5827 116.265 47.5928 116.646 47.5928 116.646C47.244 116.777 46.8519 116.609 46.7221 116.261C46.5924 115.914 46.7619 115.522 47.1165 115.387C47.1337 115.377 47.1544 115.371 47.1752 115.366L47.1738 115.351Z" fill="#F1E4C5"/>
<path d="M48.5387 112.663C48.5387 112.663 48.7056 112.598 49.005 112.491C49.3008 112.377 49.7327 112.226 50.2076 112.016C50.6933 111.824 51.2578 111.566 51.861 111.268C52.1668 111.132 52.4663 110.961 52.7729 110.801C53.0817 110.632 53.4012 110.48 53.7015 110.284C54.0053 110.094 54.3162 109.915 54.6179 109.734C54.916 109.548 55.1976 109.348 55.4771 109.157C56.0503 108.799 56.5184 108.387 56.952 108.06C57.3763 107.731 57.6953 107.413 57.9433 107.21C58.1784 106.999 58.3132 106.883 58.3132 106.883C58.3132 106.883 58.1891 107.016 57.9869 107.254C57.7718 107.484 57.4835 107.839 57.1006 108.221C56.7049 108.596 56.2725 109.065 55.7457 109.498C55.4841 109.717 55.2239 109.951 54.9451 110.181C54.6591 110.4 54.3767 110.624 54.0851 110.846C53.8005 111.08 53.491 111.273 53.1979 111.48C52.9012 111.682 52.6117 111.895 52.3215 112.068C51.7461 112.436 51.198 112.771 50.7043 113.04C50.2178 113.32 49.8181 113.523 49.5401 113.665C49.2564 113.811 49.1002 113.892 49.1002 113.892C48.7671 114.061 48.3607 113.934 48.1872 113.606C48.0195 113.274 48.1482 112.868 48.4778 112.693C48.5007 112.679 48.5237 112.665 48.5537 112.662L48.5387 112.663Z" fill="#F1E4C5"/>
<path d="M95.4388 119.014C95.4388 119.014 96.2868 118.254 96.5047 118.054C96.7191 117.848 96.9385 117.6 97.1901 117.339C97.4382 117.073 97.7164 116.804 97.9739 116.476C98.2349 116.154 98.5096 115.815 98.7958 115.469C99.0655 115.11 99.323 114.718 99.5935 114.335C99.7269 114.14 99.8697 113.948 99.9903 113.745L100.351 113.123C100.585 112.706 100.844 112.306 101.047 111.877C101.244 111.452 101.438 111.037 101.631 110.63C101.836 110.232 101.961 109.82 102.104 109.437C102.238 109.051 102.371 108.69 102.488 108.355C102.605 108.019 102.66 107.699 102.734 107.422C102.799 107.143 103.084 106.004 103.084 106.004C103.174 105.638 103.538 105.418 103.905 105.507C104.271 105.595 104.49 105.959 104.4 106.325C104.396 106.343 104.392 106.362 104.387 106.38C104.387 106.38 104.012 107.489 103.915 107.78C103.809 108.069 103.721 108.401 103.571 108.734C103.414 109.07 103.245 109.438 103.066 109.828C102.888 110.217 102.714 110.628 102.469 111.027C102.234 111.429 102 111.845 101.754 112.269C101.505 112.686 101.199 113.077 100.928 113.484L100.508 114.089C100.36 114.285 100.195 114.467 100.048 114.654C99.7371 115.023 99.4444 115.397 99.134 115.742C98.8128 116.07 98.503 116.391 98.2127 116.692C97.9294 117.004 97.6162 117.255 97.3445 117.497C97.0636 117.736 96.8241 117.965 96.5897 118.152C96.3518 118.332 95.4481 119.017 95.4481 119.017L95.4388 119.014Z" fill="#F1E4C5"/>
<path d="M93.9105 116.571C93.9105 116.571 94.1183 116.393 94.4767 116.074C94.8316 115.749 95.3219 115.283 95.8819 114.687C96.4326 114.088 97.0472 113.362 97.6533 112.546C97.9417 112.127 98.2544 111.709 98.5272 111.253C98.8163 110.81 99.0783 110.336 99.3346 109.866C99.5744 109.383 99.8307 108.913 100.028 108.424C100.132 108.184 100.234 107.938 100.336 107.707C100.423 107.462 100.513 107.223 100.597 106.988C100.778 106.525 100.888 106.051 101.029 105.614C101.151 105.172 101.236 104.746 101.33 104.361C101.406 103.972 101.46 103.613 101.515 103.292C101.579 102.974 101.59 102.698 101.619 102.465C101.667 102.006 101.699 101.7 101.699 101.7C101.737 101.327 102.069 101.055 102.437 101.095C102.811 101.132 103.082 101.463 103.04 101.83C103.036 101.849 103.038 101.864 103.033 101.882C103.033 101.882 102.983 102.159 102.895 102.643C102.848 102.887 102.809 103.182 102.722 103.514C102.635 103.847 102.552 104.224 102.439 104.629C102.306 105.029 102.19 105.468 102.02 105.923C101.843 106.367 101.686 106.855 101.459 107.322C101.351 107.557 101.24 107.801 101.13 108.045C101.006 108.281 100.881 108.526 100.751 108.766C100.506 109.253 100.205 109.727 99.9182 110.2C99.6097 110.663 99.3105 111.128 98.9806 111.557C98.6671 111.999 98.3135 112.403 97.9901 112.804C97.3139 113.584 96.6349 114.271 96.0349 114.829C95.4256 115.385 94.8988 115.818 94.5168 116.112C94.1369 116.397 93.9126 116.562 93.9126 116.562L93.9105 116.571Z" fill="#F1E4C5"/>
<path d="M92.3859 114.133C92.3859 114.133 92.5902 113.95 92.9486 113.63C93.3035 113.305 93.7995 112.836 94.3595 112.239C94.9195 111.643 95.5305 110.911 96.1366 110.095C96.425 109.677 96.7342 109.253 97.0069 108.797C97.2961 108.354 97.5452 107.872 97.8072 107.399C98.0377 106.913 98.2904 106.437 98.4744 105.941C98.6842 105.46 98.8532 104.965 99.0121 104.493C99.1803 104.022 99.2812 103.546 99.4071 103.11C99.5016 102.661 99.5896 102.241 99.6653 101.852C99.7224 101.459 99.7674 101.097 99.813 100.775C99.8678 100.455 99.8597 100.174 99.8836 99.9444C99.913 99.4813 99.9392 99.1789 99.9392 99.1789C99.9619 98.8073 100.287 98.5243 100.663 98.5514C101.035 98.5728 101.318 98.8966 101.289 99.2718C101.291 99.2868 101.286 99.3054 101.282 99.324C101.282 99.324 101.241 99.6035 101.172 100.092C101.131 100.332 101.11 100.631 101.027 100.969C100.958 101.306 100.875 101.683 100.78 102.092C100.667 102.497 100.535 102.936 100.402 103.4C100.233 103.856 100.09 104.342 99.8771 104.817C99.6766 105.3 99.4625 105.799 99.2019 106.288C98.9693 106.783 98.6679 107.257 98.3944 107.738C98.0859 108.201 97.7938 108.678 97.4639 109.106C97.154 109.554 96.8005 109.958 96.4748 110.368C95.7929 111.152 95.1139 111.839 94.5082 112.401C93.8989 112.956 93.3663 113.393 92.9901 113.684C92.6081 113.978 92.3895 114.139 92.3895 114.139L92.3859 114.133Z" fill="#F1E4C5"/>
<path d="M90.8576 111.69C90.8576 111.69 91.0447 111.517 91.3745 111.215C91.7006 110.908 92.1602 110.47 92.6793 109.923C93.2041 109.372 93.7814 108.701 94.3573 107.952C94.6278 107.568 94.9247 107.176 95.1831 106.76C95.4636 106.355 95.6948 105.908 95.946 105.481C96.1678 105.033 96.4061 104.598 96.5908 104.141C96.7919 103.697 96.9558 103.245 97.1118 102.806C97.2714 102.373 97.3787 101.932 97.5017 101.53C97.5932 101.115 97.684 100.725 97.7626 100.366C97.8226 100.003 97.876 99.6673 97.9209 99.3692C97.975 99.0732 97.9775 98.8095 98.0029 98.5951C98.0386 98.1677 98.0698 97.8861 98.0698 97.8861C98.1019 97.5166 98.4309 97.2393 98.8045 97.2757C99.1746 97.3063 99.4511 97.6337 99.4133 98.0068C99.409 98.0254 99.4047 98.044 99.4061 98.059C99.4061 98.059 99.3606 98.3178 99.2812 98.7646C99.2386 98.9898 99.2038 99.2657 99.1268 99.576C99.0497 99.8863 98.964 100.234 98.8754 100.615C98.7589 100.99 98.6301 101.396 98.497 101.82C98.3268 102.237 98.1779 102.687 97.9768 103.131C97.7757 103.574 97.5703 104.036 97.3147 104.482C97.085 104.943 96.798 105.377 96.5296 105.815C96.2297 106.241 95.952 106.677 95.6307 107.068C95.3295 107.479 94.9939 107.848 94.6827 108.217C94.0366 108.931 93.3914 109.557 92.8265 110.069C92.2523 110.579 91.7585 110.975 91.4088 111.258C91.0518 111.528 90.854 111.684 90.854 111.684L90.8576 111.69Z" fill="#F1E4C5"/>
<path d="M89.3292 109.246C89.3292 109.246 89.4876 109.091 89.7694 108.828C90.0511 108.564 90.449 108.18 90.9078 107.703C91.1344 107.466 91.3932 107.217 91.6328 106.924C91.8759 106.637 92.1362 106.339 92.4008 106.022C92.6432 105.696 92.89 105.351 93.1461 105.008C93.415 104.673 93.6218 104.29 93.8414 103.914C94.0517 103.536 94.3042 103.188 94.4609 102.788C94.634 102.402 94.8049 102.025 94.9737 101.657C95.146 101.295 95.2254 100.912 95.3504 100.564C95.4605 100.217 95.5662 99.8887 95.6619 99.5827C95.8993 98.3302 96.0775 97.4166 96.0775 97.4166C96.1432 97.0498 96.5029 96.809 96.87 96.8732C97.2407 96.9431 97.4772 97.2956 97.4115 97.6624C97.4071 97.681 97.4007 97.7088 97.3963 97.7274C97.3963 97.7274 97.1387 98.6034 96.761 99.9119C96.6295 100.224 96.4858 100.568 96.3285 100.929C96.1676 101.284 96.0374 101.675 95.82 102.041C95.6118 102.41 95.3958 102.791 95.174 103.176C94.9744 103.571 94.6732 103.918 94.4164 104.285C94.1503 104.65 93.9027 105.02 93.593 105.34C93.3019 105.665 93.0107 105.99 92.7368 106.305C92.4393 106.594 92.1439 106.874 91.8715 107.14C91.6027 107.411 91.3203 107.635 91.068 107.857C90.5691 108.296 90.1333 108.632 89.828 108.871C89.5227 109.109 89.3535 109.247 89.3535 109.247L89.3292 109.246Z" fill="#F1E4C5"/>
<path d="M87.8044 106.808C87.8044 106.808 88.3199 106.319 89.0555 105.557C89.4362 105.184 89.842 104.724 90.2809 104.227C90.5003 103.978 90.6961 103.705 90.9142 103.442C91.1322 103.178 91.3359 102.892 91.521 102.601C91.7062 102.311 91.9228 102.032 92.08 101.735C92.2429 101.435 92.4037 101.144 92.5531 100.86C92.7246 100.586 92.8145 100.283 92.9352 100.017C93.0465 99.749 93.1557 99.4901 93.2549 99.2533C93.4124 98.7656 93.5225 98.3552 93.6138 98.0677C93.6995 97.7839 93.7664 97.5593 93.7664 97.5593C93.875 97.1975 94.2504 96.9945 94.6125 97.1016C94.971 97.203 95.1766 97.5828 95.068 97.9446C95.0615 97.9725 95.0514 97.9946 95.0414 98.0168C95.0414 98.0168 94.9724 98.187 94.8395 98.4846C94.7066 98.7821 94.5342 99.2077 94.3015 99.7027C94.1665 99.946 94.018 100.206 93.8615 100.478C93.7015 100.745 93.5571 101.05 93.352 101.321C93.1504 101.598 92.9503 101.89 92.7408 102.18C92.5349 102.476 92.2832 102.736 92.0516 103.016C91.8199 103.296 91.5812 103.564 91.3245 103.804C91.0715 104.05 90.8348 104.309 90.5825 104.531C90.0815 104.979 89.6134 105.391 89.1948 105.716C88.3663 106.393 87.7987 106.812 87.7987 106.812L87.8044 106.808Z" fill="#F1E4C5"/>
<path d="M86.2764 104.365C86.2764 104.365 86.5904 104.025 87.0651 103.522C87.3053 103.269 87.5749 102.973 87.8567 102.646C88.1328 102.322 88.4597 101.991 88.7259 101.626C88.9956 101.266 89.2617 100.901 89.5178 100.558C89.7846 100.233 89.9347 99.8607 90.112 99.5831C90.4371 99.0064 90.7005 98.5478 90.7005 98.5478C90.885 98.218 91.2989 98.102 91.6287 98.285C91.9584 98.4679 92.0673 98.8843 91.8886 99.2105C91.8706 99.2456 91.8434 99.2785 91.8161 99.3115C91.8161 99.3115 91.5049 99.6809 91.0416 100.241C90.7992 100.503 90.5689 100.862 90.2285 101.146C89.9044 101.444 89.5589 101.772 89.2155 102.09C88.8722 102.408 88.4873 102.672 88.1526 102.953C87.8107 103.222 87.4882 103.472 87.2066 103.672C86.6505 104.083 86.2785 104.356 86.2785 104.356L86.2764 104.365Z" fill="#F1E4C5"/>
<path d="M99.4909 131.396C99.4909 131.396 99.4094 131.368 99.2706 131.312C99.1854 131.277 99.1425 131.273 99.0831 131.254C99.0294 131.232 98.9435 131.222 98.8426 131.214C98.7439 131.196 98.6364 131.216 98.5148 131.212C98.4016 131.236 98.2685 131.239 98.136 131.283C97.866 131.348 97.5809 131.479 97.3022 131.645C96.7433 131.963 96.2415 132.436 95.8873 132.8C95.5367 133.17 95.3222 133.44 95.3222 133.44C95.3222 133.44 95.4595 133.123 95.7207 132.674C95.9819 132.225 96.3658 131.627 96.8913 131.116C97.1523 130.857 97.4483 130.617 97.7743 130.437C97.9291 130.34 98.1053 130.277 98.2686 130.207C98.4404 130.163 98.598 130.096 98.7634 130.08C98.9217 130.052 99.0685 130.032 99.2238 130.038C99.3756 130.039 99.5159 130.046 99.5681 130.053C99.7155 130.072 99.8014 130.082 99.8014 130.082C100.175 130.118 100.444 130.459 100.402 130.826C100.365 131.199 100.023 131.469 99.6548 131.429C99.5968 131.425 99.541 131.412 99.4931 131.387L99.4909 131.396Z" fill="#F1E4C5"/>
<path d="M98.4485 130.444C98.4485 130.444 97.9211 130.289 97.871 130.273C97.8374 130.27 97.8038 130.267 97.7644 130.268C97.6914 130.266 97.6148 130.258 97.5196 130.246C97.4222 130.244 97.3069 130.276 97.1867 130.288C97.0628 130.294 96.9418 130.33 96.8164 130.384C96.6968 130.435 96.5571 130.467 96.4368 130.542C96.1889 130.682 95.9352 130.824 95.7216 131.006C95.4938 131.164 95.3116 131.357 95.1439 131.51C94.9762 131.663 94.8571 131.816 94.766 131.913C94.675 132.01 94.6262 132.072 94.6262 132.072C94.6262 132.072 94.6621 132.002 94.7238 131.884C94.7856 131.766 94.8624 131.583 94.9866 131.386C95.1107 131.189 95.2364 130.944 95.4271 130.713C95.5979 130.464 95.8187 130.23 96.0582 130.001C96.1707 129.875 96.3212 129.797 96.4538 129.69C96.5864 129.583 96.7297 129.494 96.8873 129.427C97.0449 129.36 97.1824 129.274 97.3393 129.231C97.509 129.197 97.673 129.166 97.8312 129.138C97.9121 129.127 97.9837 129.114 98.0532 129.111C98.1019 129.112 98.6581 129.121 98.6581 129.121C99.0346 129.124 99.3341 129.437 99.3299 129.813C99.3258 130.189 99.0111 130.489 98.6345 130.486C98.5708 130.486 98.5057 130.472 98.4499 130.459L98.4485 130.444Z" fill="#F1E4C5"/>
<path d="M97.362 129.471C97.362 129.471 97.0557 129.377 96.9777 129.354C96.8997 129.331 96.796 129.293 96.7452 129.301C96.6779 129.296 96.607 129.284 96.5269 129.271C96.4453 129.242 96.345 129.273 96.2419 129.274C96.1367 129.285 96.0243 129.283 95.9161 129.327C95.8101 129.362 95.6913 129.388 95.5738 129.43C95.4635 129.483 95.3474 129.54 95.2464 129.595C95.1325 129.643 95.0343 129.728 94.9369 129.789C94.7305 129.918 94.5606 130.08 94.4087 130.206C94.2567 130.333 94.1477 130.465 94.0645 130.549C93.9814 130.633 93.9348 130.686 93.9348 130.686C93.9348 130.686 93.9685 130.625 94.013 130.517C94.0669 130.412 94.1337 130.251 94.2385 130.075C94.3433 129.898 94.4624 129.68 94.6317 129.479C94.7192 129.377 94.7866 129.255 94.8963 129.163C94.9988 129.059 95.1049 128.961 95.2132 128.853C95.3321 128.763 95.4604 128.675 95.5829 128.59C95.7076 128.497 95.848 128.44 95.9849 128.379C96.1253 128.323 96.2456 128.247 96.4017 128.229C96.5507 128.2 96.6939 128.174 96.8314 128.151C96.9839 128.127 97.0605 128.135 97.1449 128.13C97.2237 128.128 97.548 128.124 97.548 128.124C97.9267 128.117 98.2376 128.423 98.2335 128.799C98.2386 129.177 97.9311 129.489 97.5545 129.486C97.4815 129.484 97.4107 129.473 97.3455 129.458L97.362 129.471Z" fill="#F1E4C5"/>
<path d="M96.0383 128.465C96.0383 128.465 95.7928 128.404 95.7277 128.389C95.6719 128.376 95.5717 128.343 95.5323 128.344C95.4257 128.339 95.2962 128.285 95.1287 128.311C95.0477 128.322 94.9525 128.31 94.8731 128.336L94.6031 128.401C94.4304 128.469 94.2335 128.537 94.0765 128.643C93.9089 128.732 93.7684 128.852 93.638 128.949C93.39 129.152 93.2409 129.309 93.2409 129.309C93.2409 129.309 93.322 129.107 93.4771 128.819C93.5604 128.672 93.6537 128.503 93.7864 128.332C93.9062 128.154 94.0818 127.989 94.2575 127.823C94.3571 127.753 94.4588 127.673 94.5585 127.603C94.6545 127.527 94.772 127.485 94.8787 127.427C95.0829 127.307 95.3428 127.263 95.5469 127.207C95.6658 127.18 95.7145 127.182 95.7861 127.169C95.852 127.159 96.1004 127.123 96.1004 127.123C96.4806 127.068 96.8267 127.328 96.8827 127.698C96.9387 128.068 96.6747 128.424 96.3038 128.481C96.2172 128.496 96.1163 128.487 96.0326 128.468L96.0383 128.465Z" fill="#F1E4C5"/>
</g>
<defs>
<clipPath id="clip0_36_26905">
<rect width="135" height="113" fill="white" transform="translate(0 71.5874) rotate(-32.0241)"/>
</clipPath>
</defs>
</svg>
