<svg width="275" height="116" viewBox="0 0 275 116" fill="none" xmlns="http://www.w3.org/2000/svg">
<g clip-path="url(#clip0_36_27072)">
<path d="M268.647 82.0197C268.647 82.0197 268.566 81.8967 268.444 81.6713C268.322 81.4458 268.098 81.1179 267.874 80.667C267.405 79.7858 266.754 78.5356 266.143 76.937C265.837 76.1377 265.512 75.2769 265.227 74.3342C264.942 73.3914 264.636 72.4077 264.432 71.3419C264.188 70.2967 263.985 69.2105 263.842 68.0833C263.72 66.9561 263.577 65.8289 263.557 64.6607C263.496 63.513 263.557 62.3653 263.577 61.238C263.618 60.1108 263.801 59.0041 263.923 57.9384C264.127 56.8727 264.29 55.8479 264.575 54.9052C264.84 53.9624 265.084 53.0607 265.389 52.2614C265.695 51.4621 266 50.7448 266.265 50.0889C266.53 49.4536 266.855 48.9207 267.079 48.4903C267.548 47.6091 267.853 47.1377 267.853 47.1377C267.853 47.1377 267.731 47.6911 267.507 48.6543C267.405 49.1257 267.222 49.6995 267.079 50.3759C266.957 51.0522 266.815 51.79 266.632 52.6098C266.469 53.4296 266.387 54.3108 266.224 55.2536C266.082 56.1759 266.041 57.1801 265.899 58.2048C265.837 59.2296 265.797 60.2953 265.756 61.361C265.756 62.4267 265.715 63.5335 265.797 64.6197C265.797 65.7059 265.919 66.7921 266 67.8783C266.143 68.9441 266.204 70.0098 266.387 71.014C266.53 72.0388 266.693 73.0225 266.876 73.9448C267.059 74.867 267.222 75.7688 267.405 76.5681C267.751 78.1872 268.098 79.5603 268.322 80.5236C268.545 81.4868 268.688 82.0402 268.688 82.0402L268.647 82.0197Z" fill="#F1E4C5"/>
<path d="M263.496 75.3795C263.496 75.3795 263.272 75.0926 262.926 74.5392C262.58 73.9858 262.111 73.207 261.663 72.1823C261.439 71.6699 261.195 71.1166 261.012 70.5222C260.808 69.9279 260.584 69.2721 260.442 68.5957C260.116 67.2431 259.851 65.7675 259.81 64.2714C259.77 63.5335 259.81 62.7752 259.831 62.0374C259.871 61.2996 259.994 60.5823 260.095 59.8855C260.36 58.5123 260.727 57.2417 261.154 56.2169C261.582 55.1922 262.03 54.3724 262.396 53.8395C262.742 53.2862 262.966 52.9993 262.966 52.9993C262.966 52.9993 262.926 53.3682 262.824 54.0035C262.763 54.3109 262.702 54.6798 262.62 55.1307C262.559 55.5611 262.498 56.053 262.417 56.5653C262.335 57.0777 262.315 57.6721 262.213 58.2459C262.132 58.8403 262.152 59.4756 262.071 60.1109C262.071 60.7668 262.03 61.4226 262.03 62.0989C262.03 62.7752 262.03 63.4721 262.071 64.1484C262.071 64.8452 262.152 65.5215 262.193 66.1979C262.274 66.8742 262.294 67.5505 262.396 68.1858C262.478 68.8417 262.559 69.4565 262.641 70.0713C262.742 70.6657 263.496 75.3385 263.496 75.3385V75.3795Z" fill="#F1E4C5"/>
<path d="M5.78271 31.7873C5.78271 31.7873 5.86416 31.8898 6.04741 32.0947C6.2103 32.2997 6.475 32.5866 6.76006 32.9965C7.3709 33.7753 8.20571 34.923 9.06089 36.3986C9.48848 37.1364 9.95679 37.9357 10.3844 38.817C10.812 39.6983 11.2599 40.6205 11.6468 41.6248C12.054 42.6085 12.4205 43.6743 12.7463 44.74C13.0313 45.8262 13.3571 46.9329 13.5811 48.0601C13.8254 49.1873 13.9476 50.335 14.0901 51.4622C14.2327 52.5894 14.2327 53.7167 14.2734 54.7824C14.2327 55.8686 14.2327 56.8933 14.1105 57.8771C13.9883 58.8608 13.9069 59.7831 13.7236 60.6234C13.5404 61.4637 13.3571 62.222 13.1942 62.8983C13.0313 63.5746 12.787 64.128 12.6445 64.5993C12.3187 65.5421 12.0947 66.0545 12.0947 66.0545C12.0947 66.0545 12.1151 65.4806 12.1965 64.4969C12.2373 64.005 12.2983 63.4107 12.3391 62.7343C12.3391 62.058 12.3798 61.2792 12.4205 60.4594C12.4612 59.6396 12.4001 58.7379 12.4205 57.7951C12.4205 56.8523 12.2983 55.8686 12.278 54.8439C12.1762 53.8191 12.054 52.7739 11.9318 51.7082C11.7689 50.6425 11.6264 49.5562 11.3617 48.511C11.1785 47.4248 10.8934 46.3796 10.6491 45.3343C10.3437 44.3096 10.1197 43.2644 9.77353 42.2806C9.46811 41.2969 9.16269 40.3541 8.83691 39.4523C8.51113 38.5711 8.20571 37.7103 7.90029 36.9315C7.28945 35.3739 6.76006 34.0827 6.37319 33.181C5.98633 32.2587 5.78271 31.7463 5.78271 31.7463V31.7873Z" fill="#F1E4C5"/>
<path d="M11.9115 37.5259C11.9115 37.5259 12.1762 37.7718 12.6038 38.2637C13.0313 38.7556 13.6218 39.4524 14.2123 40.3951C14.5177 40.8665 14.8435 41.3584 15.1286 41.9322C15.434 42.4856 15.7394 43.0799 16.0041 43.7358C16.5539 45.0064 17.0222 46.4411 17.3072 47.9167C17.4701 48.6545 17.5516 49.3923 17.633 50.1301C17.7145 50.8679 17.6941 51.5852 17.7145 52.3026C17.6737 53.6962 17.4905 55.0079 17.2461 56.0941C16.9814 57.1803 16.676 58.0616 16.391 58.6354C16.1263 59.2298 15.9634 59.5577 15.9634 59.5577C15.9634 59.5577 15.9634 59.1888 15.9634 58.5534C15.9634 58.246 15.9634 57.8566 15.9634 57.4262C15.9634 56.9958 15.943 56.504 15.943 55.9711C15.943 55.4382 15.8819 54.8644 15.8616 54.27C15.8412 53.6757 15.7394 53.0404 15.719 52.405C15.6376 51.7697 15.5358 51.0934 15.4543 50.417C15.3322 49.7407 15.2507 49.0644 15.0878 48.3881C14.9657 47.7117 14.7824 47.0354 14.6399 46.3796C14.4566 45.7238 14.3345 45.0679 14.1309 44.4326C13.9476 43.7973 13.7644 43.2029 13.5811 42.6291C13.3979 42.0552 11.8911 37.5669 11.8911 37.5669L11.9115 37.5259Z" fill="#F1E4C5"/>
<path d="M7.14682 85.2989C6.51562 85.2989 6.02695 84.7866 6.02695 84.1717C6.02695 65.706 4.35732 59.7011 2.74878 53.9011C1.34385 48.8184 0 44.0021 0 31.5004C0 25.229 2.26011 20.2283 6.7396 16.6212C26.5715 0.594345 87.3093 14.3053 146.031 27.5449C197.831 39.2269 246.759 50.2735 260.421 39.2678C262.824 37.3413 263.985 34.7795 263.985 31.4594C263.985 29.123 263.252 27.3604 261.765 26.0488C256.125 21.1095 240.671 23.282 225.726 25.3929C210.292 27.5654 195.713 29.6148 189.829 24.4707C188.057 22.9131 187.161 20.8021 187.161 18.1788C187.161 14.4898 188.342 11.4565 190.663 9.14064C196.894 2.95124 210.271 3.13569 221.042 3.27915C227.517 3.36113 234.196 3.4636 235.804 1.84452C236.008 1.63958 236.11 1.41413 236.11 1.12721C236.11 0.491873 236.619 0 237.23 0C237.841 0 238.35 0.512368 238.35 1.12721C238.35 2.02898 238.003 2.82827 237.372 3.4636C235.071 5.73852 228.861 5.65654 220.981 5.55406C210.638 5.4106 197.77 5.24664 192.211 10.7597C190.297 12.6452 189.381 15.0841 189.381 18.1788C189.381 20.1463 189.991 21.6424 191.274 22.7491C196.385 27.217 211.127 25.147 225.379 23.1385C241.546 20.8636 256.797 18.7117 263.211 24.3272C265.206 26.0693 266.204 28.4671 266.204 31.4389C266.204 35.4353 264.718 38.653 261.786 41.0304C247.288 52.7124 197.831 41.5633 145.482 29.7583C87.3297 16.6417 27.1416 3.05371 8.14453 18.3633C4.19443 21.5604 2.26011 25.8438 2.26011 31.4594C2.26011 43.6742 3.56323 48.3265 4.92744 53.2657C6.57671 59.2092 8.28706 65.3781 8.28706 84.1512C8.28706 84.7866 7.77802 85.2785 7.16718 85.2785L7.14682 85.2989Z" fill="#F1E4C5"/>
<path d="M46.0979 116C35.6729 116 25.9809 113.295 18.8341 108.417C10.4656 102.699 6.02686 94.296 6.02686 84.1717C6.02686 78.4331 8.12407 73.8013 12.2981 70.3787C31.6821 54.4544 93.3769 67.1611 153.056 79.4374C205.955 90.3201 255.921 100.608 269.421 89.5413C271.661 87.6968 272.76 85.3194 272.76 82.2657C272.76 75.154 271.864 71.9363 271.05 69.1081C270.48 67.0791 269.93 65.1526 269.93 62.2628C269.93 59.3731 270.174 56.6063 270.419 53.7985C270.724 50.4989 271.05 46.7483 271.05 41.6862C271.05 30.578 268.871 29.0819 261.297 25.6388C260.727 25.3724 260.482 24.7165 260.727 24.1427C260.991 23.5688 261.643 23.3229 262.213 23.5688C270.581 27.3809 273.29 29.6148 273.29 41.6862C273.29 46.8508 272.943 50.6423 272.638 54.0035C272.394 56.7498 272.149 59.3526 272.149 62.2423C272.149 64.8042 272.597 66.4233 273.167 68.4522C273.961 71.2805 274.959 74.8056 274.959 82.2247C274.959 85.9547 273.554 88.9879 270.785 91.2628C256.471 103.027 205.995 92.6155 152.547 81.6098C93.3973 69.436 32.2319 56.8317 13.6827 72.0798C10.038 75.072 8.24624 79.007 8.24624 84.1102C8.24624 93.4558 12.3389 101.203 20.0558 106.47C26.8361 111.102 36.0802 113.664 46.0572 113.664C62.8146 113.664 79.7959 106.244 79.7959 92.0621C79.7959 82.2247 68.4343 75.6049 57.8057 75.6049C53.7742 75.6049 50.1906 76.6091 47.7065 78.4127C44.9577 80.4211 43.5528 83.3314 43.5528 87.0409C43.5528 90.4635 44.6116 93.0664 46.7088 94.7469C48.9689 96.571 51.962 96.9399 54.0592 96.9399C60.5545 96.9399 66.6629 93.5582 66.6629 90.9349C66.6629 90.2996 67.1719 89.8077 67.7827 89.8077C68.3936 89.8077 68.9026 90.3201 68.9026 90.9349C68.9026 95.6077 60.9006 99.2148 54.0389 99.2148C50.496 99.2148 47.4825 98.2925 45.2835 96.53C42.6365 94.3985 41.2723 91.2013 41.2723 87.0614C41.2723 82.6346 43.0437 79.007 46.3626 76.5886C49.2743 74.4777 53.2244 73.3505 57.7853 73.3505C69.4524 73.3505 82.0357 80.5031 82.0357 92.0826C82.0357 107.761 63.9345 115.959 46.0369 115.959L46.0979 116Z" fill="#F1E4C5"/>
<path d="M80.9361 94.1731C80.3049 94.1731 79.8163 93.6608 79.8163 93.0459C79.8163 82.6346 76.9249 78.5972 74.3798 75.0311C72.5676 72.4897 70.8369 70.0919 70.8369 65.9724C70.8369 65.3371 71.3459 64.8452 71.9568 64.8452C72.5676 64.8452 73.0767 65.3576 73.0767 65.9724C73.0767 69.354 74.4612 71.2805 76.1919 73.6989C78.7982 77.347 82.056 81.8968 82.056 93.0459C82.056 93.6813 81.547 94.1731 80.9361 94.1731Z" fill="#F1E4C5"/>
<path d="M43.4102 83.2494C43.4102 83.2494 43.227 83.2494 43.1455 83.2084C42.5347 83.0649 42.1682 82.4501 42.3107 81.8352L46.7291 63.8204C46.8717 63.2056 47.4825 62.8367 48.0933 62.9801C48.7042 63.1236 49.0707 63.7384 48.9282 64.3533L44.5098 82.3681C44.3876 82.8805 43.9193 83.2289 43.4102 83.2289V83.2494Z" fill="#F1E4C5"/>
<path d="M67.844 92.1238C67.3554 92.1238 66.9074 91.8164 66.7649 91.3245L61.8985 75.3591C61.7153 74.7648 62.0411 74.1294 62.6519 73.945C63.2424 73.7605 63.8736 74.109 64.0568 74.7033L68.9232 90.6687C69.1064 91.263 68.7807 91.8984 68.1698 92.0828C68.068 92.1238 67.9458 92.1238 67.844 92.1238V92.1238Z" fill="#F1E4C5"/>
<path d="M196.12 40.5999C195.489 40.5999 195 40.0875 195 39.4727C195 35.2508 193.514 32.443 190.541 26.8274C189.91 25.6387 189.218 24.3271 188.464 22.872C188.179 22.3186 188.403 21.6218 188.953 21.3349C189.503 21.0479 190.195 21.2734 190.48 21.8267C191.234 23.2819 191.905 24.573 192.537 25.7617C195.591 31.5207 197.261 34.6769 197.261 39.4727C197.261 40.108 196.751 40.5999 196.141 40.5999H196.12Z" fill="#F1E4C5"/>
<path d="M237.25 23.8558C236.619 23.8558 236.13 23.3435 236.13 22.7286V1.12721C236.13 0.491873 236.639 0 237.25 0C237.861 0 238.37 0.512367 238.37 1.12721V22.7081C238.37 23.3435 237.861 23.8353 237.25 23.8353V23.8558Z" fill="#F1E4C5"/>
<path d="M238.146 26.0693C238.146 26.0693 239.795 25.598 242.32 25.0856C244.845 24.5527 248.245 23.9994 251.727 23.9174C252.603 23.8764 253.458 23.9174 254.333 23.9174C255.188 23.9584 256.044 24.0199 256.858 24.1428C257.673 24.2248 258.467 24.4093 259.22 24.5527C259.953 24.7577 260.666 24.9216 261.317 25.1881C261.948 25.4545 262.539 25.6389 263.028 25.9464C263.516 26.2128 263.985 26.4177 264.31 26.6842C264.982 27.1556 265.369 27.4425 265.369 27.4425C265.878 27.8114 266 28.5082 265.634 29.0206C265.267 29.5329 264.575 29.6559 264.066 29.287C264.046 29.287 264.025 29.246 264.005 29.2255C264.005 29.2255 263.598 28.8771 263.068 28.4467C262.824 28.2008 262.437 28.0163 262.05 27.7499C261.663 27.463 261.154 27.258 260.605 26.9711C260.055 26.7047 259.424 26.4997 258.772 26.2538C258.1 26.0693 257.387 25.8234 256.614 25.7004C255.86 25.516 255.046 25.4135 254.231 25.2905C253.417 25.1881 252.582 25.1061 251.727 25.0651C248.347 24.8806 244.926 25.1266 242.381 25.4545C239.836 25.7619 238.146 26.0898 238.146 26.0898V26.0693Z" fill="#F1E4C5"/>
<path d="M238.879 29.3279C238.879 29.3279 240.549 28.9385 243.094 28.4876C244.356 28.2827 245.863 28.0367 247.471 27.8933C248.286 27.7908 249.121 27.7498 249.955 27.7088C250.811 27.6883 251.666 27.6269 252.541 27.6678C253.417 27.6678 254.292 27.7293 255.148 27.8113C256.003 27.8933 256.858 28.0163 257.672 28.1802C258.08 28.2622 258.487 28.3647 258.874 28.4466C259.261 28.5696 259.647 28.6926 260.014 28.8155C260.747 29.041 261.419 29.3894 262.05 29.6558C262.641 30.0247 263.231 30.2912 263.659 30.6601C264.107 31.029 264.534 31.2954 264.819 31.6028C265.41 32.1972 265.735 32.5456 265.735 32.5456C266.163 32.9965 266.163 33.7138 265.735 34.1647C265.288 34.595 264.575 34.595 264.127 34.1647C264.127 34.1442 264.086 34.1237 264.066 34.1032C264.066 34.1032 263.72 33.6933 263.292 33.1604C263.089 32.8735 262.742 32.6481 262.417 32.3201C262.091 31.9717 261.602 31.7258 261.134 31.3569C260.604 31.07 260.055 30.7216 259.403 30.4551C259.077 30.3117 258.752 30.1887 258.405 30.0452C258.059 29.9428 257.693 29.8198 257.326 29.6968C256.593 29.4714 255.799 29.3074 254.985 29.1435C254.17 29 253.335 28.877 252.501 28.795C251.666 28.6926 250.811 28.6721 249.976 28.6311C249.141 28.6311 248.327 28.5901 247.512 28.6311C245.924 28.6311 244.417 28.7541 243.155 28.8565C240.61 29.082 238.899 29.3279 238.899 29.3279H238.879Z" fill="#F1E4C5"/>
<path d="M239.632 32.5661C239.632 32.5661 241.18 32.2587 243.542 31.9103C244.723 31.7463 246.107 31.5824 247.594 31.4594C249.08 31.3364 250.689 31.2954 252.297 31.3364C253.091 31.3774 253.906 31.3979 254.7 31.5209C255.494 31.6028 256.268 31.7463 257.021 31.8898C257.774 32.0742 258.507 32.2382 259.179 32.5046C259.871 32.7096 260.482 33.0375 261.052 33.3039C261.602 33.6113 262.132 33.8983 262.559 34.2057C262.966 34.5336 263.374 34.7795 263.638 35.046C264.188 35.5788 264.514 35.8862 264.514 35.8862C264.962 36.3166 264.982 37.0339 264.555 37.5053C264.127 37.9562 263.414 37.9767 262.946 37.5463C262.926 37.5258 262.905 37.5053 262.885 37.4848C262.885 37.4848 262.559 37.1159 262.152 36.6445C261.948 36.3986 261.643 36.1732 261.317 35.8657C260.991 35.5788 260.564 35.2919 260.116 34.9845C259.627 34.718 259.138 34.3901 258.528 34.1442C257.958 33.8573 257.306 33.6523 256.634 33.4064C255.942 33.2219 255.229 32.9965 254.496 32.8735C253.763 32.6891 252.989 32.6071 252.216 32.5046C250.668 32.3202 249.1 32.2382 247.634 32.2177C246.168 32.2177 244.784 32.2587 243.603 32.2997C241.241 32.4431 239.673 32.6071 239.673 32.6071L239.632 32.5661Z" fill="#F1E4C5"/>
<path d="M240.386 35.8249C240.386 35.8249 241.75 35.6404 243.806 35.3535C244.315 35.2715 244.886 35.251 245.476 35.1895C246.067 35.1281 246.698 35.0871 247.349 35.0256C248.001 34.9846 248.673 34.9846 249.365 34.9641C250.057 34.9641 250.75 34.9026 251.462 34.9641C252.175 35.0051 252.867 35.0461 253.56 35.0871C254.252 35.1895 254.944 35.3125 255.596 35.415C256.268 35.4765 256.878 35.7429 257.489 35.9069C257.795 35.9888 258.08 36.0913 258.365 36.1733C258.629 36.2758 258.894 36.4192 259.159 36.5217C259.668 36.7471 260.116 36.9726 260.543 37.157C260.93 37.403 262.376 38.4072 262.376 38.4072C262.885 38.7556 263.028 39.4729 262.681 39.9853C262.335 40.4977 261.623 40.6411 261.114 40.2927C261.093 40.2722 261.052 40.2517 261.032 40.2312C261.032 40.2312 259.749 39.1655 259.464 38.9196C259.139 38.7146 258.752 38.4892 258.344 38.2432C258.141 38.1203 257.917 37.9768 257.693 37.8538C257.449 37.7514 257.204 37.6489 256.94 37.5464C256.41 37.362 255.881 37.0546 255.27 36.9316C254.659 36.7676 254.048 36.6037 253.397 36.4397C252.745 36.3372 252.073 36.2348 251.401 36.1118C250.729 35.9888 250.057 35.9478 249.385 35.9069C248.714 35.8659 248.062 35.7839 247.41 35.7634C246.759 35.7634 246.148 35.7634 245.558 35.7429C244.967 35.7429 244.417 35.7019 243.888 35.7429C241.811 35.8249 240.426 35.8659 240.426 35.8659L240.386 35.8249Z" fill="#F1E4C5"/>
<path d="M241.119 39.0629C241.119 39.0629 242.239 38.9195 243.929 38.7145C244.763 38.5915 245.761 38.5506 246.82 38.4686C247.349 38.4071 247.899 38.4071 248.469 38.4071C249.039 38.4071 249.609 38.3661 250.179 38.3866C250.75 38.4071 251.34 38.4481 251.89 38.4686C252.46 38.4686 253.01 38.5915 253.559 38.653C254.109 38.7145 254.639 38.817 255.127 38.94C255.616 39.0834 256.105 39.1449 256.512 39.3089C256.939 39.4523 257.326 39.5958 257.672 39.7188C258.019 39.8417 258.304 40.0057 258.548 40.1082C259.037 40.3336 259.301 40.4771 259.301 40.4771C259.871 40.7435 260.095 41.4403 259.831 41.9937C259.566 42.5675 258.874 42.793 258.324 42.5265C258.283 42.5265 258.243 42.4855 258.202 42.465C258.202 42.465 257.896 42.2601 257.51 42.0142C257.306 41.8912 257.082 41.7272 256.817 41.5838C256.532 41.4403 256.206 41.2763 255.86 41.0919C255.514 40.887 255.087 40.7845 254.659 40.6C254.231 40.4156 253.763 40.2721 253.274 40.1491C252.786 40.0262 252.277 39.8417 251.747 39.7802C251.218 39.6778 250.668 39.5958 250.118 39.4933C249.569 39.4113 249.019 39.3703 248.469 39.3089C247.919 39.2474 247.39 39.1859 246.861 39.1654C245.822 39.1244 244.824 39.0424 243.99 39.0424C242.3 39.0424 241.159 39.0424 241.159 39.0424L241.119 39.0629Z" fill="#F1E4C5"/>
<path d="M241.872 42.3217C241.872 42.3217 245.028 41.9323 245.741 41.8503C246.107 41.8094 246.474 41.8093 246.861 41.7684C247.247 41.7684 247.634 41.7274 248.021 41.7069C248.795 41.6659 249.589 41.6249 250.342 41.6864C250.709 41.6864 251.075 41.7274 251.422 41.7274C251.768 41.7479 252.093 41.7274 252.399 41.8093C253.6 42.0143 254.415 42.1373 254.415 42.1373C255.025 42.2397 255.453 42.8341 255.351 43.4489C255.249 44.0843 254.659 44.4942 254.048 44.3917C253.987 44.3917 253.906 44.3712 253.845 44.3507C253.845 44.3507 253.03 44.0638 252.012 43.6949C251.768 43.5924 251.462 43.5514 251.157 43.4694C250.851 43.3874 250.505 43.326 250.179 43.244C249.508 43.0595 248.754 42.9571 248.001 42.8546C247.614 42.8136 247.247 42.7521 246.881 42.7111C246.514 42.6701 246.148 42.5881 245.781 42.5677C245.069 42.5267 241.892 42.3217 241.892 42.3217H241.872Z" fill="#F1E4C5"/>
<path d="M188.037 14.6126C188.037 14.6126 188.342 14.4077 188.872 14.0388C189.136 13.8543 189.523 13.6289 189.93 13.3829C190.338 13.1165 190.806 12.8911 191.315 12.6041C192.353 12.0918 193.555 11.4974 194.898 11.026C196.242 10.5137 197.688 10.0628 199.174 9.73487C200.64 9.38646 202.147 9.16102 203.552 9.05854C204.957 8.95607 206.28 8.95607 207.4 9.05854C207.97 9.07904 208.479 9.18151 208.927 9.243C209.375 9.30448 209.762 9.38646 210.088 9.46844C210.719 9.6119 211.086 9.71437 211.086 9.71437C211.086 9.71437 210.719 9.67339 210.068 9.57091C209.742 9.50943 209.355 9.46844 208.907 9.46844C208.459 9.44794 207.95 9.40695 207.4 9.42745C206.301 9.42745 204.998 9.55042 203.654 9.77586C202.29 10.0218 200.864 10.3702 199.48 10.8416C198.095 11.2925 196.731 11.8663 195.509 12.4607C194.267 13.0345 193.188 13.7108 192.272 14.2847C191.824 14.5921 191.396 14.8585 191.071 15.125C190.724 15.3914 190.439 15.5964 190.195 15.8013C189.686 16.2317 189.401 16.4571 189.401 16.4571C188.933 16.867 188.2 16.8055 187.813 16.3137C187.406 15.8423 187.467 15.1045 187.955 14.7151C187.976 14.6946 188.016 14.6741 188.037 14.6536V14.6126Z" fill="#F1E4C5"/>
<path d="M188.077 17.8098C188.077 17.8098 189.421 16.9081 189.767 16.6826C190.093 16.4367 190.562 16.2112 191.03 15.9653C191.519 15.7194 192.028 15.4324 192.598 15.1455C193.168 14.8996 193.758 14.6741 194.369 14.4282C194.675 14.3052 194.98 14.1823 195.306 14.0593C195.631 13.9568 195.957 13.8748 196.303 13.7724C196.975 13.5879 197.627 13.3625 198.319 13.219C199.011 13.096 199.704 12.9731 200.376 12.8501C201.048 12.6862 201.72 12.6862 202.371 12.6247C203.023 12.6042 203.654 12.4812 204.244 12.5427C204.835 12.5632 206.423 12.6452 206.667 12.6657C206.891 12.7066 209.314 13.1985 209.314 13.1985C209.314 13.1985 206.871 12.9731 206.647 12.9526C206.423 12.9526 204.855 13.0551 204.265 13.0756C203.674 13.0756 203.084 13.26 202.453 13.3625C201.821 13.4854 201.17 13.5469 200.539 13.7724C199.907 13.9568 199.256 14.1413 198.604 14.3462C197.973 14.5717 197.342 14.8381 196.731 15.084C196.426 15.207 196.12 15.33 195.815 15.4529C195.53 15.5964 193.88 16.4777 193.371 16.7441C192.903 17.0515 192.475 17.3385 192.068 17.6049C191.661 17.8713 191.295 18.0968 190.969 18.3837C190.643 18.6501 189.401 19.6748 189.401 19.6748C188.912 20.0847 188.2 20.0028 187.813 19.5314C187.406 19.0395 187.487 18.3222 187.976 17.9328C187.996 17.9123 188.037 17.8918 188.077 17.8713V17.8098Z" fill="#F1E4C5"/>
<path d="M188.79 20.4537C188.79 20.4537 189.991 19.6954 190.297 19.5109C190.602 19.306 190.948 19.0806 191.396 18.8961C191.824 18.6912 192.292 18.4657 192.781 18.2198C193.27 17.9533 193.819 17.7894 194.349 17.5844C194.898 17.4 195.448 17.1541 196.039 17.0106C196.629 16.8671 197.22 16.7237 197.83 16.5597C198.421 16.3957 199.052 16.3548 199.643 16.2523C200.233 16.1498 200.824 16.0678 201.414 16.0678C201.984 16.0473 202.534 16.0268 203.063 16.0063C203.593 16.0473 204.081 16.0883 204.529 16.1088C204.977 16.1498 205.405 16.1498 205.751 16.2523C206.118 16.3343 207.502 16.6212 207.502 16.6212C207.502 16.6212 206.097 16.4982 205.731 16.4572C205.364 16.3957 204.957 16.4572 204.509 16.4572C204.061 16.4572 203.572 16.4982 203.063 16.5187C202.554 16.6007 202.025 16.6827 201.475 16.7647C200.925 16.8261 200.376 16.9696 199.805 17.1336C199.256 17.2975 198.665 17.4 198.116 17.6254C197.566 17.8304 197.016 18.0353 196.466 18.2403C195.916 18.4452 195.428 18.7321 194.939 18.9576C194.45 19.2035 193.962 19.4085 193.555 19.6954C193.147 19.9618 192.76 20.2078 192.394 20.4332C192.027 20.6382 191.722 20.9046 191.417 21.13C191.132 21.3555 190.032 22.2572 190.032 22.2572C189.543 22.6466 188.831 22.5647 188.444 22.0728C188.057 21.5809 188.138 20.8636 188.627 20.4742C188.668 20.4537 188.709 20.4127 188.729 20.3922L188.79 20.4537Z" fill="#F1E4C5"/>
<path d="M190.297 22.544C190.297 22.544 191.315 22.0111 191.58 21.8676C191.844 21.7242 192.129 21.5602 192.496 21.4167C193.229 21.1503 194.064 20.7199 195 20.474C195.469 20.351 195.937 20.2076 196.405 20.0846C196.894 19.9616 197.403 19.9001 197.892 19.7977C198.38 19.6952 198.889 19.6337 199.378 19.6132C199.867 19.5927 200.355 19.5107 200.824 19.5107C201.292 19.5107 201.74 19.5107 202.167 19.5312C202.595 19.5312 203.002 19.6132 203.369 19.6542C204.102 19.7157 204.713 19.8592 205.14 19.9616C205.568 20.0641 205.792 20.1051 205.792 20.1051C205.792 20.1051 205.547 20.0846 205.12 20.0436C204.692 20.0026 204.081 19.9411 203.348 19.9821C202.982 20.0026 202.595 19.9821 202.167 20.0436C201.76 20.0846 201.312 20.1461 200.864 20.2076C200.416 20.269 199.968 20.392 199.5 20.4945C199.032 20.5765 198.584 20.7199 198.116 20.8839C197.668 21.0478 197.199 21.1708 196.772 21.3553C196.344 21.5397 195.916 21.7242 195.509 21.9086C194.695 22.257 194.043 22.7284 193.432 23.0358C193.127 23.1998 192.862 23.4457 192.618 23.6097C192.374 23.7941 191.437 24.4705 191.437 24.4705C190.928 24.8394 190.215 24.7164 189.849 24.204C189.482 23.6917 189.605 22.9743 190.114 22.6054C190.154 22.5645 190.215 22.544 190.256 22.5235L190.297 22.544Z" fill="#F1E4C5"/>
<path d="M193.331 23.9377C193.331 23.9377 193.962 23.7533 194.919 23.4663C195.448 23.3639 196.059 23.1999 196.711 23.0974C197.362 23.036 198.034 22.913 198.726 22.913C199.073 22.913 199.398 22.872 199.744 22.913C200.07 22.913 200.396 22.954 200.722 22.9745C201.353 23.0565 201.943 23.0974 202.432 23.2204C202.921 23.3229 203.328 23.4254 203.613 23.5073C203.898 23.5893 204.061 23.6303 204.061 23.6303C204.061 23.6303 203.898 23.6303 203.613 23.6098C203.328 23.5893 202.921 23.5688 202.432 23.5893C201.943 23.5893 201.373 23.6508 200.763 23.7123C200.457 23.7533 200.152 23.8148 199.846 23.8557C199.541 23.8967 199.215 23.9992 198.91 24.0607C198.278 24.1837 197.688 24.4296 197.138 24.6141C196.588 24.8395 196.12 25.0649 195.713 25.2494C194.837 25.7413 194.267 26.0487 194.267 26.0487C193.718 26.3561 193.025 26.1512 192.72 25.5978C192.414 25.0444 192.618 24.3476 193.168 24.0402C193.229 23.9992 193.31 23.9582 193.392 23.9377H193.331Z" fill="#F1E4C5"/>
<path d="M44.7543 92.3492C44.7543 92.3492 45.019 92.4722 45.4873 92.7181C45.7316 92.8411 45.9759 92.9231 46.2814 93.0666C46.5664 93.21 46.9533 93.3125 47.3402 93.4764C48.9283 94.0298 51.2088 94.5012 53.5096 94.5217C54.6702 94.5627 55.8105 94.4397 56.8896 94.2552C57.9688 94.0708 58.9461 93.7839 59.7606 93.4559C60.1881 93.3125 60.5343 93.128 60.8601 92.9846C61.1859 92.8411 61.4709 92.6976 61.6949 92.5542C62.1428 92.2878 62.4075 92.1443 62.4075 92.1443C62.4075 92.1443 62.1632 92.3287 61.756 92.6362C61.5524 92.8001 61.2877 92.9846 60.9822 93.169C60.6768 93.3535 60.3307 93.5994 59.9235 93.7839C59.1294 94.2143 58.152 94.6242 57.0729 94.9521C55.9937 95.2595 54.7924 95.5464 53.5911 95.6489C51.1681 95.9358 48.684 95.7104 46.8718 95.321C46.4239 95.2185 45.9963 95.1365 45.6298 95.0135C45.2633 94.9111 44.8968 94.8086 44.6728 94.7266C44.1842 94.5627 43.8991 94.4602 43.8991 94.4602C43.3086 94.2552 43.0032 93.5994 43.2068 93.0051C43.4104 92.4107 44.062 92.1033 44.6525 92.3082C44.6932 92.3082 44.7339 92.3492 44.7746 92.3697L44.7543 92.3492Z" fill="#F1E4C5"/>
<path d="M43.675 88.6601C43.675 88.6601 43.9193 88.8035 44.3469 89.07C44.5709 89.2134 44.7745 89.3159 45.0595 89.4594C45.3242 89.6028 45.6907 89.7463 46.0369 89.9103C47.5233 90.5251 49.6612 91.1194 51.8602 91.2219C52.41 91.2629 52.9597 91.2424 53.5095 91.2424C54.0592 91.2014 54.5886 91.1809 55.0977 91.099C56.1361 90.976 57.0727 90.7096 57.8872 90.4431C58.2944 90.3202 58.6405 90.1562 58.9663 90.0332C59.2921 89.9103 59.5568 89.7668 59.7808 89.6438C60.2287 89.4184 60.4731 89.2749 60.4731 89.2749C60.4731 89.2749 60.2491 89.4389 59.8215 89.7258C59.6179 89.8693 59.3735 90.0537 59.0681 90.2177C58.7627 90.3816 58.4369 90.6071 58.0297 90.771C57.256 91.1399 56.3193 91.5293 55.2606 91.8163C54.7312 91.9802 54.1814 92.0622 53.6113 92.1852C53.0412 92.2671 52.4711 92.3491 51.8806 92.3901C51.2901 92.4516 50.6996 92.4311 50.1295 92.4311C49.5594 92.3901 48.9689 92.3901 48.4192 92.3081C47.3196 92.2057 46.3016 91.9597 45.426 91.7343C44.9984 91.5908 44.5912 91.4883 44.2451 91.3449C43.8989 91.2014 43.5528 91.0785 43.3288 90.976C42.8809 90.771 42.6162 90.6481 42.6162 90.6481C42.0461 90.3816 41.8017 89.7053 42.0664 89.1315C42.3311 88.5576 43.003 88.3117 43.5732 88.5781C43.6139 88.5781 43.6546 88.6191 43.6953 88.6396L43.675 88.6601Z" fill="#F1E4C5"/>
<path d="M43.5122 85.4424C43.5122 85.4424 44.5506 86.0777 44.8153 86.2417C45.08 86.4056 45.3447 86.4876 45.6705 86.6516C45.9963 86.7745 46.3017 86.9795 46.7089 87.082C47.0958 87.2049 47.5234 87.3279 47.951 87.4713C48.3785 87.6148 48.8469 87.6558 49.3355 87.7583C49.8038 87.8607 50.2925 87.9427 50.7812 87.9427C51.2699 87.9632 51.7585 87.9837 52.2472 88.0042C52.7359 87.9632 53.2042 87.9222 53.6725 87.8812C53.8965 87.8607 54.1408 87.8607 54.3648 87.8198C54.5888 87.7583 55.8104 87.4713 56.1769 87.3689C56.5434 87.3074 56.8489 87.1024 57.1339 87C57.419 86.877 58.5185 86.4056 58.5185 86.4056C58.5185 86.4056 57.5004 87.0205 57.2357 87.1844C56.9507 87.3279 56.686 87.5738 56.3195 87.6968C55.953 87.8403 54.7313 88.3321 54.5073 88.4141C54.2833 88.4961 54.039 88.5166 53.815 88.5781C53.3467 88.6805 52.8377 88.8035 52.349 88.906C51.84 88.9675 51.3106 89.0085 50.8015 89.0494C50.2722 89.1109 49.7428 89.1109 49.2337 89.0699C48.7247 89.0289 48.1953 89.0699 47.7066 88.9675C47.218 88.8855 46.7293 88.8035 46.2813 88.742C45.8334 88.6805 45.3854 88.4961 44.9782 88.3936C44.5913 88.2706 44.1841 88.1682 43.8991 88.0452C43.614 87.9222 42.5145 87.4508 42.5145 87.4508C41.9444 87.2049 41.6797 86.5286 41.924 85.9547C42.1683 85.3809 42.8403 85.1145 43.4104 85.3604C43.4511 85.3809 43.4918 85.4014 43.5529 85.4219L43.5122 85.4424Z" fill="#F1E4C5"/>
<path d="M44.0417 82.6551C44.0417 82.6551 44.8969 83.147 45.1208 83.2699C45.3448 83.4134 45.5688 83.4749 45.8335 83.5979C46.0982 83.7003 46.3629 83.8643 46.6887 83.9463C47.0144 84.0487 47.3606 84.1512 47.7271 84.2537C48.0936 84.3766 48.4805 84.3971 48.8673 84.4791C49.2542 84.5611 49.6614 84.6226 50.0686 84.6226C50.4759 84.6226 50.8831 84.6841 51.2903 84.6841C51.6975 84.6636 52.0844 84.6226 52.4713 84.6021C52.8581 84.6021 53.2246 84.5201 53.5708 84.4381C53.9169 84.3562 54.2631 84.2947 54.5685 84.2332C54.8739 84.1717 55.1386 84.0282 55.3829 83.9668C55.6273 83.8848 56.5435 83.5364 56.5435 83.5364C56.5435 83.5364 55.6884 84.0282 55.4644 84.1717C55.2404 84.2947 54.9961 84.4791 54.6907 84.5816C54.3852 84.7046 54.0595 84.8275 53.7133 84.971C53.3672 85.1145 53.0007 85.2579 52.5934 85.3399C52.1862 85.4424 51.779 85.5448 51.3718 85.6473C50.9442 85.7088 50.5166 85.7498 50.0686 85.8113C49.6207 85.8728 49.1931 85.8728 48.7452 85.8728C48.3176 85.8728 47.8696 85.8728 47.4624 85.8318C47.0552 85.7703 46.6479 85.7293 46.2611 85.6883C45.8742 85.6473 45.5077 85.5243 45.1616 85.4424C44.8358 85.3604 44.4693 85.2784 44.2453 85.1964C44.001 85.1145 43.0643 84.766 43.0643 84.766C42.4739 84.5406 42.1684 83.9053 42.3924 83.3109C42.596 82.7166 43.2476 82.4092 43.8381 82.6346C43.8992 82.6551 43.9602 82.6961 44.0213 82.7166L44.0417 82.6551Z" fill="#F1E4C5"/>
<path d="M44.8559 80.0113C44.8559 80.0113 45.5482 80.3597 45.7315 80.4417C45.9147 80.5442 46.0776 80.5852 46.2812 80.6672C46.6681 80.8516 47.1771 80.9746 47.7473 81.1385C48.0323 81.2205 48.3174 81.241 48.6228 81.3025C48.9282 81.364 49.2336 81.405 49.539 81.405C49.8445 81.405 50.1703 81.446 50.4757 81.446C50.7811 81.446 51.0865 81.405 51.3919 81.3845C52.0028 81.364 52.5322 81.2 53.0208 81.1385C53.2652 81.0976 53.4688 81.0156 53.652 80.9541C53.8353 80.8926 54.5683 80.6672 54.5683 80.6672C54.5683 80.6672 53.8964 81.0566 53.7335 81.1385C53.5502 81.241 53.367 81.364 53.143 81.4665C52.6747 81.6509 52.1453 81.9173 51.5345 82.0813C51.229 82.1633 50.9033 82.2658 50.5978 82.3477C50.2721 82.4297 49.9259 82.4707 49.6001 82.5322C49.254 82.5937 48.9282 82.6347 48.5821 82.6347C48.2359 82.6347 47.9101 82.6961 47.5844 82.6756C46.9328 82.6552 46.322 82.6142 45.7722 82.5117C45.5075 82.4707 45.2224 82.4297 45.0392 82.3887C44.8356 82.3477 44.1026 82.1633 44.1026 82.1633C43.4917 82.0198 43.1252 81.405 43.2678 80.7901C43.4103 80.1753 44.0211 79.8064 44.632 79.9498C44.7134 79.9498 44.7949 79.9908 44.8559 80.0318V80.0113Z" fill="#F1E4C5"/>
<path d="M46.3424 77.47C46.3424 77.47 46.7496 77.5929 47.3401 77.7569C47.4826 77.7979 47.6658 77.8594 47.8084 77.9004C47.9713 77.9209 48.1138 77.9413 48.297 77.9823C48.6432 78.0233 49.0097 78.1258 49.3966 78.1258C49.8038 78.1258 50.1907 78.1258 50.5775 78.1258C50.9644 78.1258 51.2902 78.0233 51.5956 78.0028C52.2064 77.9004 52.6136 77.8389 52.6136 77.8389C52.6136 77.8389 52.2471 78.0438 51.6974 78.3512C51.4123 78.4947 51.1069 78.7202 50.72 78.8431C50.3332 78.9866 49.926 79.13 49.5187 79.2735C49.1115 79.4375 48.6432 79.458 48.2156 79.5604C47.9916 79.6014 47.788 79.6424 47.5844 79.6629C47.4012 79.6834 47.2383 79.6834 47.0754 79.7039C46.4442 79.7449 46.0369 79.7654 46.0369 79.7654C45.4057 79.8064 44.856 79.3145 44.8356 78.6792C44.7949 78.0438 45.2836 77.4905 45.9148 77.47C46.0573 77.47 46.1795 77.47 46.3016 77.511L46.3424 77.47Z" fill="#F1E4C5"/>
<path d="M80.0608 87.1846H78.8595L77.9229 86.4468C78.1265 85.8524 78.778 85.545 79.3685 85.7499C79.959 85.9549 80.2644 86.5902 80.0608 87.1846Z" fill="#F1E4C5"/>
<path d="M81.5473 95.6079C81.5473 95.6079 81.2215 96.0998 80.7532 96.8171C80.5292 97.186 80.122 97.6369 79.7759 98.0673C79.5926 98.2927 79.3483 98.4977 79.1243 98.7026C78.9003 98.9076 78.6764 99.133 78.3913 99.2765C78.1062 99.4404 77.8823 99.6454 77.5769 99.7479C77.2918 99.8503 77.0067 99.9733 76.7217 100.055C76.4366 100.096 76.1719 100.137 75.9072 100.158C75.6425 100.178 75.4186 100.158 75.1946 100.137C74.7466 100.137 74.4005 100.014 74.1561 99.9733C73.9118 99.9118 73.7693 99.8913 73.7693 99.8913C73.7693 99.8913 73.9118 99.8913 74.1561 99.8913C74.4005 99.8913 74.7466 99.8913 75.1539 99.8093C75.3575 99.7684 75.5814 99.7479 75.8054 99.6659C76.009 99.5839 76.233 99.5019 76.4773 99.3994C76.681 99.2765 76.8846 99.1125 77.0882 98.9896C77.2918 98.8666 77.4547 98.6207 77.6379 98.4567C77.8212 98.2927 77.9637 98.0673 78.0859 97.8419C78.2081 97.6164 78.3709 97.432 78.4728 97.2065C78.6764 96.7351 78.8596 96.3867 79.0021 95.9768C79.2872 95.1571 79.4705 94.6242 79.4705 94.6242C79.6741 94.0298 80.3256 93.7019 80.9161 93.9069C81.5066 94.1118 81.8324 94.7676 81.6288 95.362C81.588 95.444 81.5473 95.526 81.5066 95.6079H81.5473Z" fill="#F1E4C5"/>
<path d="M81.1604 92.8204C81.1604 92.8204 80.855 93.2918 80.4071 94.0091C80.3053 94.1731 80.122 94.3985 79.9591 94.624C79.7962 94.8289 79.613 95.0544 79.4297 95.3003C79.2465 95.5257 79.0021 95.7102 78.7782 95.9356C78.5542 96.1406 78.3302 96.3455 78.0452 96.5095C77.7601 96.6529 77.5361 96.8784 77.2307 96.9399C76.9456 97.0423 76.6606 97.1448 76.3755 97.2063C76.0905 97.2268 75.8258 97.2678 75.5611 97.2883C75.3167 97.2883 75.0724 97.2473 74.8484 97.2473C74.4208 97.2473 74.0747 97.1038 73.8304 97.0628C73.586 97.0014 73.4639 96.9809 73.4639 96.9809C73.4639 96.9809 73.6064 96.9809 73.8507 96.9809C74.0951 96.9809 74.4412 97.0014 74.8484 96.9194C75.052 96.8784 75.276 96.8579 75.4796 96.7964C75.6832 96.7144 75.9072 96.6325 76.1516 96.5505C76.3755 96.448 76.5588 96.284 76.7828 96.1611C77.0067 96.0586 77.1493 95.8127 77.3325 95.6487C77.5158 95.4847 77.6583 95.2798 77.7805 95.0544C77.9026 94.8289 78.0655 94.6445 78.1673 94.4395C78.2691 94.2346 78.3506 94.0091 78.432 93.8247C78.5135 93.6197 78.5949 93.4763 78.656 93.2508C78.9207 92.4515 79.0836 91.8982 79.0836 91.8982C79.2668 91.3038 79.9184 90.9554 80.5089 91.1604C81.0994 91.3448 81.4455 92.0007 81.2419 92.595C81.2215 92.677 81.1808 92.7795 81.1197 92.8614L81.1604 92.8204Z" fill="#F1E4C5"/>
<path d="M80.5902 90.0332C80.5902 90.0332 80.3052 90.5046 79.898 91.2219C79.8165 91.3859 79.6333 91.6113 79.4907 91.8163C79.3278 92.0212 79.1649 92.2467 78.9817 92.4721C78.7984 92.6975 78.5745 92.882 78.3505 93.0869L78.0247 93.3944L77.6378 93.6403C77.3731 93.7838 77.1288 93.9887 76.8438 94.0502C76.5587 94.1322 76.294 94.2551 76.0089 94.2961C75.7442 94.3166 75.4795 94.3371 75.2148 94.3576C74.9705 94.3576 74.7465 94.3166 74.5226 94.2961C74.095 94.2756 73.7692 94.1322 73.5452 94.0912C73.3212 94.0297 73.1787 93.9887 73.1787 93.9887C73.1787 93.9887 73.3212 93.9887 73.5452 93.9887C73.7896 93.9887 74.1153 94.0297 74.5226 93.9477C74.7262 93.9067 74.9298 93.9067 75.1538 93.8453C75.3574 93.7633 75.5813 93.7018 75.8053 93.6198C76.0293 93.5378 76.2125 93.3739 76.4162 93.2509C76.6198 93.1484 76.7623 92.923 76.9456 92.759L77.1899 92.5131L77.3731 92.2057C77.4953 92.0007 77.6378 91.8163 77.7193 91.6113C77.8007 91.4064 77.8822 91.2014 77.9636 91.017C78.0451 90.812 78.1265 90.6686 78.1672 90.4636C78.3912 89.6643 78.5337 89.152 78.5337 89.152C78.6966 88.5371 79.3278 88.1887 79.9387 88.3527C80.5495 88.5166 80.8957 89.152 80.7328 89.7668C80.7124 89.8693 80.6717 89.9513 80.6106 90.0332H80.5902Z" fill="#F1E4C5"/>
<path d="M79.8979 87.6353C79.8979 87.6353 79.6332 88.0657 79.2464 88.7215C79.1649 88.8855 78.9817 89.0904 78.8392 89.2953C78.6966 89.5003 78.5337 89.7052 78.3505 89.9102C78.1469 90.0946 77.9433 90.2996 77.7396 90.484C77.5564 90.689 77.2917 90.8324 77.027 90.9759C76.7827 91.1194 76.5383 91.2628 76.2533 91.3243C75.9886 91.3858 75.7239 91.5088 75.4592 91.4883C75.2148 91.4883 74.9705 91.4883 74.7262 91.5088C74.5022 91.4678 74.2986 91.4473 74.095 91.4063C73.7081 91.3653 73.4027 91.2219 73.1991 91.1809C72.9955 91.1194 72.8733 91.0784 72.8733 91.0784C72.8733 91.0784 72.9955 91.0784 73.2194 91.0784C73.4434 91.0784 73.7488 91.1194 74.1153 91.0579C74.2986 91.0374 74.4818 91.0169 74.6854 90.9759C74.8687 90.9144 75.0723 90.8529 75.2963 90.771C75.5203 90.73 75.6831 90.566 75.8664 90.4635C76.07 90.3611 76.2125 90.1971 76.3551 90.0536C76.4976 89.9102 76.6605 89.7667 76.7623 89.5618C76.8641 89.3773 76.9863 89.1929 77.0881 89.0289C77.1695 88.8445 77.2306 88.66 77.2917 88.4756C77.3528 88.2911 77.4342 88.1886 77.4749 87.9837C77.6582 87.2459 77.8007 86.754 77.8007 86.754C77.9636 86.1392 78.5948 85.7703 79.1853 85.9342C79.7961 86.0982 80.1626 86.7335 79.9998 87.3483C79.9794 87.4508 79.9387 87.5533 79.8776 87.6353H79.8979Z" fill="#F1E4C5"/>
<path d="M79.1243 85.5039C79.1243 85.5039 78.8799 85.8728 78.5134 86.4466C78.4116 86.5901 78.2487 86.7746 78.1062 86.959C77.9433 87.1435 77.8008 87.3279 77.6175 87.4919C77.4139 87.6558 77.2307 87.7993 77.0271 87.9632C76.8438 88.1272 76.5587 88.2092 76.3348 88.3321C76.1108 88.4551 75.8461 88.4961 75.6018 88.5576C75.3574 88.6191 75.1131 88.6396 74.8891 88.6191C74.6651 88.6191 74.4412 88.6191 74.2375 88.5781C74.0339 88.5371 73.8507 88.4961 73.6878 88.4551C73.3416 88.3936 73.077 88.2707 72.8937 88.2092C72.7104 88.1477 72.6086 88.1067 72.6086 88.1067C72.6086 88.1067 72.7308 88.1067 72.9141 88.1067C73.1177 88.1067 73.3824 88.1477 73.7082 88.1067C73.871 88.1067 74.0543 88.0657 74.2375 88.0452C74.4208 88.0452 74.6041 87.9427 74.7873 87.9018C74.9706 87.8608 75.1538 87.7788 75.3167 87.6763C75.4796 87.5738 75.6628 87.4919 75.785 87.3484C75.9072 87.2049 76.0701 87.123 76.1719 86.9385C76.2737 86.7745 76.3755 86.6311 76.4569 86.4876C76.5384 86.3442 76.5791 86.1802 76.6402 86.0367C76.7013 85.8933 76.7624 85.7908 76.8031 85.6268C76.9863 84.971 77.0881 84.5406 77.0881 84.5406C77.251 83.9258 77.8822 83.5569 78.4931 83.7208C79.1039 83.8848 79.4704 84.5201 79.3075 85.135C79.2668 85.2579 79.2261 85.3604 79.165 85.4629L79.1243 85.5039Z" fill="#F1E4C5"/>
<path d="M77.984 84.1103C77.984 84.1103 77.6989 84.4177 77.6175 84.4792C77.536 84.5612 77.4749 84.6227 77.3324 84.7456C77.0474 84.9711 76.7419 85.2785 76.3551 85.4425C76.1718 85.5244 75.9886 85.6474 75.785 85.6884C75.5813 85.7499 75.3777 85.7909 75.1741 85.8319C74.9705 85.8319 74.7669 85.8319 74.5633 85.8319C74.3597 85.8319 74.1764 85.7909 74.0135 85.7704C73.6674 85.7294 73.362 85.5859 73.0973 85.5244C72.5882 85.3195 72.2625 85.176 72.2625 85.176C72.2625 85.176 72.6289 85.176 73.138 85.176C73.4027 85.1351 73.6877 85.1555 73.9932 85.0531C74.1357 85.0121 74.2986 84.9916 74.4411 84.9301L74.8483 84.7456L75.1945 84.4792C75.3166 84.4177 75.3777 84.2743 75.4592 84.1923C75.6424 84.0078 75.6832 83.7824 75.785 83.6594C75.8257 83.5979 75.8664 83.434 75.9071 83.352C75.9478 83.2495 76.0904 82.8601 76.0904 82.8601C76.3143 82.2658 76.9863 81.9584 77.5767 82.2043C78.1672 82.4297 78.4726 83.1061 78.2283 83.7004C78.1672 83.8439 78.0858 83.9668 77.984 84.0898V84.1103Z" fill="#F1E4C5"/>
<path d="M76.6605 82.5117C76.6605 82.5117 76.3754 82.6757 76.294 82.7167C76.2329 82.7576 76.1311 82.7986 75.9682 82.8806C75.6832 83.0241 75.337 83.147 75.0316 83.1675C74.7058 83.2085 74.3597 83.2085 74.0542 83.147C73.423 83.0446 72.9344 82.7781 72.5475 82.5937C72.181 82.3887 71.957 82.2658 71.957 82.2658C71.957 82.2658 72.2217 82.2658 72.629 82.2658C73.0362 82.2248 73.5656 82.2043 73.9932 82.0198C74.2171 81.9379 74.4004 81.8354 74.5226 81.7124C74.6651 81.5894 74.7465 81.4665 74.7669 81.3845C74.9501 81.0771 75.0723 80.8721 75.0723 80.8721C75.4185 80.3188 76.1311 80.1343 76.6809 80.4827C77.2306 80.8311 77.4139 81.5485 77.0677 82.1018C76.9659 82.2863 76.803 82.4297 76.6401 82.5117H76.6605Z" fill="#F1E4C5"/>
<path d="M8.30741 86.2827C8.30741 86.2827 8.34813 86.4057 8.42958 86.6106C8.51102 86.836 8.63319 87.164 8.79608 87.5329C8.95897 87.9018 9.16258 88.3732 9.42728 88.906C9.67162 89.4389 9.9974 90.0332 10.3435 90.6686C10.71 91.3039 11.0969 92.0007 11.5652 92.6975C12.0132 93.4148 12.5426 94.1322 13.072 94.87C13.6421 95.5873 14.2122 96.3456 14.8638 97.0629C15.1895 97.4318 15.5153 97.7802 15.8411 98.1491L16.8795 99.1739C17.5514 99.8912 18.3455 100.486 19.0582 101.121C19.8319 101.695 20.5853 102.289 21.359 102.801C22.1531 103.273 22.8658 103.826 23.6395 104.195C24.3929 104.584 25.0851 104.994 25.7774 105.281C26.4697 105.568 27.0805 105.835 27.6507 106.081C28.2208 106.286 28.7298 106.429 29.137 106.572C29.9719 106.839 30.4402 107.003 30.4402 107.003C30.4402 107.003 29.9515 106.88 29.1167 106.675C28.6891 106.572 28.1801 106.449 27.5896 106.286C27.0195 106.081 26.3679 105.876 25.6553 105.63C24.9426 105.404 24.2096 105.015 23.4155 104.687C22.6214 104.359 21.8477 103.867 20.9925 103.437C20.1781 102.986 19.3636 102.412 18.5288 101.879C17.7551 101.264 16.8999 100.711 16.1465 100.035L14.9859 99.0509C14.6194 98.7025 14.2529 98.3541 13.9068 98.0057C13.1738 97.3088 12.5426 96.571 11.891 95.8742C11.2802 95.1364 10.6693 94.4396 10.1603 93.7223C9.61053 93.0254 9.16258 92.3286 8.735 91.6933C8.32777 91.0375 7.9409 90.4431 7.63548 89.9103C7.33006 89.3774 7.06537 88.8855 6.84139 88.4551C6.61742 88.0452 6.49525 87.7378 6.39344 87.5124C6.29164 87.3074 6.25091 87.1845 6.25091 87.1845C5.98622 86.6106 6.25091 85.9343 6.80067 85.6679C7.35043 85.4014 8.04271 85.6679 8.30741 86.2212C8.30741 86.2417 8.32777 86.2827 8.34813 86.3032L8.30741 86.2827Z" fill="#F1E4C5"/>
<path d="M8.6943 80.6468C8.6943 80.6468 8.73503 80.7698 8.79611 80.9952C8.85719 81.2002 8.959 81.5691 9.10153 81.938C9.36623 82.6758 9.81417 83.803 10.4657 85.0942C10.8119 85.7295 11.158 86.4263 11.606 87.1231C11.8299 87.4715 12.0539 87.8405 12.2779 88.2094C12.5222 88.5578 12.7869 88.9267 13.0516 89.2956C13.581 90.0334 14.1715 90.7507 14.8027 91.468C15.4339 92.1853 16.1058 92.8822 16.8388 93.538C17.5311 94.2348 18.3252 94.7882 19.0582 95.4235C19.8319 95.9769 20.6057 96.5302 21.3998 97.0016C22.2142 97.432 22.9472 97.9443 23.721 98.2518C24.4947 98.5797 25.187 98.9691 25.8996 99.1945C26.5919 99.4405 27.2231 99.6659 27.7932 99.8708C28.3633 100.035 28.8724 100.158 29.3 100.26C30.1348 100.465 30.6234 100.588 30.6234 100.588C30.6234 100.588 30.1348 100.506 29.2796 100.342C28.852 100.26 28.3226 100.178 27.7525 100.055C27.162 99.8913 26.5105 99.7069 25.7978 99.5224C25.0648 99.338 24.3318 99.0101 23.5173 98.7231C22.7029 98.4567 21.9088 97.9853 21.0536 97.6164C20.2188 97.186 19.384 96.6737 18.5492 96.1613C17.7551 95.5874 16.8796 95.0546 16.1262 94.3988C15.3321 93.7839 14.5787 93.0871 13.8661 92.4108C13.1534 91.714 12.4815 90.9966 11.8707 90.2588C11.5652 89.8899 11.2598 89.521 10.9748 89.1726C10.7101 88.8037 10.4454 88.4348 10.1807 88.0864C9.65128 87.3896 9.2237 86.6723 8.81647 86.0164C8.02238 84.6843 7.45226 83.5571 7.08576 82.6758C6.88214 82.2454 6.8007 81.938 6.69889 81.7125C6.61745 81.4871 6.57673 81.3846 6.57673 81.3846C6.35275 80.7903 6.63781 80.1345 7.22829 79.909C7.81877 79.6836 8.47033 79.9705 8.6943 80.5648C8.6943 80.5853 8.6943 80.6263 8.71466 80.6468H8.6943Z" fill="#F1E4C5"/>
<path d="M9.89565 76.5477C9.89565 76.5477 10.0585 76.9986 10.3232 77.7364C10.5879 78.4537 11.0359 79.4989 11.6264 80.7081C11.9521 81.3025 12.2779 81.9583 12.6852 82.5936C13.072 83.27 13.5607 83.9053 14.029 84.6021C14.5584 85.2579 15.0674 85.9548 15.6986 86.5901C16.2891 87.2664 16.961 87.8608 17.633 88.4551C18.3252 89.029 19.0379 89.5823 19.7709 90.0947C20.5243 90.5456 21.2369 91.0784 22.031 91.4269C22.7844 91.8163 23.5174 92.2057 24.2707 92.4516C25.0038 92.7385 25.6757 93.0254 26.3476 93.1894C26.9992 93.3739 27.61 93.5583 28.1598 93.7018C28.7095 93.8042 30.8271 94.2141 30.8271 94.2141C30.8271 94.2141 28.6891 93.9682 28.119 93.9067C27.5693 93.8042 26.9381 93.6608 26.2662 93.5378C25.5739 93.4353 24.8612 93.1894 24.1079 92.9435C23.3341 92.7385 22.5604 92.4106 21.7459 92.0622C20.9111 91.7548 20.1374 91.2834 19.3229 90.8735C18.5288 90.4021 17.7348 89.8897 16.961 89.3364C16.2077 88.7625 15.4543 88.1887 14.7824 87.5329C14.0697 86.918 13.4792 86.2212 12.8684 85.5654C12.2983 84.8685 11.7485 84.2127 11.2802 83.5364C10.7915 82.8806 10.3843 82.2247 9.99746 81.6099C9.26445 80.3802 8.71469 79.3145 8.36855 78.5562C8.00205 77.7979 7.83916 77.388 7.83916 77.388V77.347C7.57446 76.7731 7.83916 76.0968 8.40927 75.8509C8.97939 75.6049 9.65131 75.8714 9.89565 76.4452C9.89565 76.4657 9.91601 76.5067 9.91601 76.5272L9.89565 76.5477Z" fill="#F1E4C5"/>
<path d="M11.545 73.7605C11.545 73.7605 11.7079 74.1294 11.9726 74.8057C12.2576 75.4205 12.6445 76.3223 13.235 77.3265C13.52 77.8389 13.8865 78.3718 14.253 78.9251C14.6602 79.458 15.0675 80.0523 15.5561 80.5852C16.0245 81.159 16.5742 81.6714 17.1443 82.2248C17.7348 82.7371 18.3253 83.2495 18.9768 83.7004C19.608 84.1923 20.3207 84.5407 20.9723 84.971C21.6849 85.299 22.3568 85.6884 23.0695 85.9548C23.7618 86.2212 24.4337 86.5082 25.1056 86.6721C25.7775 86.8566 26.3884 87.082 26.9992 87.164C27.5897 87.2869 28.1394 87.3894 28.6281 87.4919C29.1168 87.5534 31.0104 87.7788 31.0104 87.7788C31.0104 87.7788 29.0964 87.7173 28.6078 87.6968C28.1191 87.6354 27.549 87.5739 26.9381 87.5124C26.3273 87.4714 25.6757 87.3074 24.9834 87.164C24.2912 87.0615 23.5785 86.8156 22.8251 86.6106C22.0718 86.4057 21.3388 86.0778 20.565 85.7908C19.832 85.4219 19.0583 85.1145 18.3456 84.6431C17.6126 84.2332 16.9204 83.7414 16.2688 83.2495C15.6172 82.7371 14.986 82.2248 14.4159 81.6509C13.8254 81.118 13.3368 80.5237 12.8481 79.9703C12.4001 79.3965 11.9522 78.8636 11.606 78.3308C10.873 77.2855 10.364 76.3633 9.97714 75.687C9.65136 75.0516 9.44775 74.6827 9.44775 74.6827C9.16269 74.1294 9.3663 73.4325 9.93642 73.1456C10.4862 72.8587 11.1785 73.0636 11.4635 73.6375C11.4635 73.658 11.5042 73.699 11.5042 73.74L11.545 73.7605Z" fill="#F1E4C5"/>
<path d="M13.5607 71.506C13.5607 71.506 14.3548 72.9201 14.5584 73.2685C14.7824 73.576 15.0268 73.9449 15.3118 74.3138C15.5562 74.7237 15.9227 75.1131 16.3095 75.5025C16.6964 75.8919 17.0629 76.3837 17.5719 76.7526C18.0606 77.142 18.5493 77.5314 19.0583 77.9413C19.6284 78.2693 20.1985 78.5972 20.7687 78.9251C21.3184 79.294 21.9903 79.4784 22.5808 79.7244C23.212 79.9293 23.7821 80.2572 24.4133 80.3802C25.0242 80.5237 25.635 80.6466 26.2051 80.7901C26.7752 80.9131 27.3046 81.077 27.8137 81.0975C29.8498 81.282 31.214 81.4049 31.214 81.4049C31.214 81.4049 29.8294 81.4049 27.7729 81.4459C27.2436 81.4869 26.6938 81.3639 26.1033 81.3025C25.5128 81.2205 24.8816 81.159 24.2301 81.077C23.5785 81.0155 22.9473 80.7696 22.2754 80.6057C21.6238 80.4007 20.9112 80.2982 20.28 79.9703C19.6284 79.6834 18.9769 79.3965 18.3457 79.1095C17.7552 78.7201 17.1647 78.3512 16.5946 78.0028C16.0041 77.6749 15.5562 77.183 15.0675 76.7936C14.5992 76.3837 14.1512 75.9943 13.8051 75.564C13.4386 75.1336 13.0924 74.7647 12.8074 74.4163C12.563 74.0678 11.6264 72.7562 11.6264 72.7562C11.2599 72.2438 11.3821 71.5265 11.8911 71.1576C12.4001 70.7887 13.1128 70.9117 13.4589 71.424C13.4793 71.465 13.4997 71.4855 13.52 71.5265L13.5607 71.506Z" fill="#F1E4C5"/>
<path d="M16.0447 69.2311C16.0447 69.2311 16.8999 70.1944 17.1238 70.4608C17.3478 70.6657 17.5921 70.8912 17.8772 71.1371C18.1419 71.4035 18.4677 71.629 18.8545 71.8954C19.2211 72.1414 19.5876 72.4488 20.0355 72.6537C20.4835 72.8792 20.9314 73.1046 21.3794 73.3505C21.868 73.535 22.3771 73.7194 22.8657 73.8834C23.3544 74.0884 23.8838 74.1703 24.4132 74.3138C24.9222 74.4163 25.4313 74.5802 25.9403 74.6417C26.4493 74.7032 26.938 74.7647 27.4063 74.8262C27.8746 74.8671 28.3022 74.9696 28.7298 74.9696C30.3791 75.0106 31.4786 75.0516 31.4786 75.0516C31.4786 75.0516 30.3791 75.1541 28.7298 75.318C28.3226 75.3795 27.8746 75.3385 27.3859 75.359C26.9176 75.359 26.4086 75.359 25.8792 75.359C25.3498 75.359 24.8204 75.277 24.2707 75.2156C23.7209 75.1541 23.1508 75.1336 22.601 74.9901C22.0513 74.8672 21.4812 74.7442 20.9518 74.6212C20.4224 74.4368 19.893 74.2523 19.3839 74.0679C18.8545 73.9039 18.4066 73.617 17.9586 73.412C17.5107 73.1866 17.0831 72.9611 16.7166 72.6947C16.3501 72.4283 16.004 72.1823 15.6985 71.9774C15.4542 71.752 14.4769 70.8912 14.4769 70.8912C14.0086 70.4813 13.9678 69.764 14.3751 69.2926C14.7823 68.8212 15.4949 68.7802 15.9632 69.1901C16.004 69.2311 16.0447 69.2516 16.065 69.2926L16.0447 69.2311Z" fill="#F1E4C5"/>
<path d="M20.0355 66.5873C20.0355 66.5873 20.7278 66.8948 21.7866 67.3457C22.0513 67.4686 22.3364 67.5711 22.6214 67.6326C22.9065 67.7146 24.2096 68.0425 24.5354 68.1449C24.8815 68.2269 25.248 68.2474 25.6145 68.3089C26.3475 68.3909 27.1009 68.4934 27.7932 68.5753C28.5058 68.5753 31.6211 68.6163 31.6211 68.6163C31.6211 68.6163 28.5262 69.1697 27.8136 69.2926C27.1009 69.3336 26.3272 69.3951 25.5534 69.4361C25.1666 69.4361 24.7797 69.5181 24.3929 69.4771C24.006 69.4566 22.4789 69.3336 22.1327 69.3131C21.7662 69.3131 21.4608 69.2312 21.1961 69.1697C20.0763 68.9237 19.3432 68.7598 19.3432 68.7598C18.7324 68.6163 18.3455 68.0015 18.4881 67.3866C18.6306 66.7718 19.2414 66.3824 19.8523 66.5259C19.9134 66.5259 19.9948 66.5669 20.0559 66.5873H20.0355Z" fill="#F1E4C5"/>
<path d="M98.5283 39.5139C98.5283 45.8263 98.5283 52.1386 98.5283 58.451C97.4492 58.4305 96.37 58.41 95.2705 58.41V39.4729C96.3497 39.4729 97.4288 39.4729 98.5283 39.5139V39.5139Z" fill="#F1E4C5"/>
<path d="M109.401 40.2518V59.1889C108.607 59.1069 107.813 59.025 106.999 58.9635C106.184 55.6433 105.39 52.3437 104.576 49.044V58.7585C103.68 58.697 102.784 58.6356 101.888 58.5946V39.6575C102.804 39.6985 103.72 39.7599 104.616 39.8419C105.309 42.6907 106.001 45.5394 106.693 48.3882V40.0059C107.589 40.0879 108.485 40.1698 109.381 40.2723L109.401 40.2518Z" fill="#F1E4C5"/>
<path d="M119.948 56.1556V56.5245C119.948 57.9796 119.602 59.0044 118.91 59.6192C118.218 60.2341 117.261 60.439 116.019 60.2546C113.677 59.9266 112.496 58.369 112.496 55.5203C112.496 54.6595 112.557 53.7987 112.7 52.897C113.514 53.1019 114.329 53.3069 115.143 53.5118C115.021 54.3316 114.98 55.0284 114.98 55.5818C114.98 56.3606 115.041 56.8934 115.184 57.2008C115.306 57.5083 115.53 57.6722 115.835 57.7132C116.385 57.7952 116.67 57.3033 116.67 56.2581V55.7457C116.67 54.9874 116.528 54.2496 116.243 53.4913C115.958 52.7535 115.449 51.8517 114.695 50.8475C113.901 49.7818 113.331 48.798 112.985 47.8963C112.639 46.9945 112.476 46.0107 112.476 44.9245V44.6376C112.476 41.7478 113.718 40.4567 116.222 40.8051C117.485 40.9895 118.401 41.5019 118.93 42.3012C119.46 43.121 119.724 44.2277 119.724 45.6008C119.724 46.2977 119.663 47.0765 119.562 47.9167C118.747 47.6913 117.912 47.4659 117.098 47.2404C117.179 46.5436 117.22 45.9698 117.22 45.4779C117.22 44.6991 117.159 44.1457 117.057 43.8383C116.935 43.5309 116.752 43.3669 116.467 43.3259C116.202 43.2849 116.019 43.3669 115.917 43.5719C115.815 43.7768 115.754 44.1457 115.754 44.6991V45.0885C115.754 46.1952 116.283 47.4864 117.322 48.9825C119.114 51.5648 120.01 53.9832 120.01 56.1556H119.948Z" fill="#F1E4C5"/>
<path d="M130.272 43.4693V46.0721C129.416 45.9081 128.561 45.7442 127.706 45.6007V61.935C126.627 61.73 125.548 61.5456 124.448 61.3611V45.0269C123.593 44.8834 122.758 44.7399 121.903 44.5965V41.9937C124.693 42.4445 127.482 42.9569 130.251 43.4898L130.272 43.4693Z" fill="#F1E4C5"/>
<path d="M137.602 44.9041C138.437 51.3599 139.271 57.8362 140.106 64.2921C139.068 64.0871 138.009 63.8822 136.971 63.6772C136.848 62.7755 136.726 61.8737 136.624 60.9719C135.973 60.849 135.321 60.7055 134.67 60.5825C134.588 61.4433 134.507 62.3041 134.405 63.1649C133.509 62.9804 132.593 62.8164 131.697 62.632C132.45 56.4836 133.204 50.3352 133.957 44.1868C135.179 44.4327 136.38 44.6581 137.602 44.9041V44.9041ZM134.934 58.0002C135.382 58.0822 135.83 58.1846 136.278 58.2666C136.075 55.7253 135.891 53.1634 135.688 50.6221C135.444 53.0815 135.179 55.5408 134.934 58.0002V58.0002Z" fill="#F1E4C5"/>
<path d="M150.47 57.2624V66.321C150.185 66.2595 149.88 66.2186 149.595 66.1571C149.432 65.8496 149.269 65.5627 149.106 65.2553C148.475 65.8701 147.457 66.0341 146.052 65.7677C144.932 65.5422 144.036 65.0504 143.405 64.2921C142.753 63.5338 142.448 62.509 142.448 61.2793V49.7613C142.448 48.3882 142.794 47.4044 143.507 46.8306C144.219 46.2567 145.197 46.0928 146.418 46.3387C147.62 46.5846 148.536 47.056 149.126 47.7938C149.737 48.5316 150.022 49.6793 150.022 51.2779C150.022 52.1387 149.961 52.938 149.859 53.6553C149.045 53.4299 148.21 53.2044 147.396 52.979C147.497 52.2822 147.538 51.6673 147.538 51.1345C147.538 50.3147 147.457 49.7408 147.314 49.4334C147.151 49.126 146.927 48.9415 146.622 48.88C146.255 48.8186 146.011 48.88 145.889 49.0235C145.767 49.1875 145.685 49.4949 145.685 49.9458V62.1401C145.685 62.8574 145.991 63.2878 146.581 63.4108C147.11 63.5133 147.355 63.2058 147.355 62.4885V56.6885C148.393 56.8935 149.432 57.0984 150.45 57.2829L150.47 57.2624Z" fill="#F1E4C5"/>
<path d="M161.75 68.35C160.671 68.1861 159.592 68.0016 158.533 67.8172C158.411 67.4893 158.33 67.0999 158.289 66.649C158.289 66.444 158.269 65.2758 158.207 63.1649C158.207 62.2836 158.146 61.5868 158.045 61.0744C157.963 60.5825 157.861 60.2546 157.759 60.1317C157.658 60.0087 157.536 59.9267 157.373 59.8857C157.21 59.8652 157.067 59.8242 156.904 59.8037V67.5302C155.825 67.3458 154.746 67.1408 153.646 66.9564V48.0193C154.99 48.2652 156.355 48.5112 157.698 48.7366C160.366 49.1875 161.71 51.0525 161.71 54.3726C161.71 55.8073 161.587 56.873 161.363 57.5493C161.119 58.2256 160.63 58.6765 159.857 58.9225C160.895 59.7627 161.425 61.2794 161.425 63.4928V64.9274C161.425 66.3006 161.526 67.4483 161.75 68.35V68.35ZM158.554 54.3521C158.554 53.2249 158.452 52.4461 158.269 52.0362C158.065 51.6264 157.78 51.3804 157.373 51.2984C157.23 51.2779 157.088 51.2574 156.925 51.2165V57.2009C157.067 57.2214 157.21 57.2419 157.332 57.2829C157.739 57.3444 158.045 57.1804 158.248 56.7705C158.452 56.3606 158.554 55.5613 158.554 54.3726V54.3521Z" fill="#F1E4C5"/>
<path d="M170.139 50.5605C170.974 56.9549 171.809 63.3492 172.644 69.7231C171.605 69.6206 170.546 69.4976 169.508 69.3746C169.386 68.4934 169.264 67.5916 169.162 66.7103C168.51 66.6284 167.859 66.5464 167.207 66.4644C167.126 67.3252 167.044 68.186 166.942 69.0672C166.047 68.9443 165.13 68.8213 164.234 68.6983C164.988 62.5089 165.741 56.3195 166.494 50.1301C167.716 50.2941 168.917 50.458 170.139 50.581V50.5605ZM167.451 63.8616C167.899 63.9231 168.347 63.9845 168.795 64.0255C168.592 61.4842 168.408 58.9633 168.205 56.422C167.96 58.9019 167.696 61.3817 167.451 63.8411V63.8616Z" fill="#F1E4C5"/>
<path d="M186.163 51.5647V70.5018C185.125 70.5018 184.087 70.5018 183.028 70.4608V61.6071C182.56 64.5378 182.091 67.489 181.643 70.4198C180.971 70.3993 180.299 70.3583 179.648 70.3378C179.159 67.3661 178.671 64.3738 178.182 61.4021V70.2558C177.286 70.1943 176.39 70.1329 175.494 70.0509V51.1138C176.757 51.2162 177.999 51.2982 179.261 51.3802C179.75 55.1307 180.259 58.8608 180.747 62.5908C181.338 58.9018 181.928 55.2127 182.498 51.5237C183.72 51.5647 184.942 51.5851 186.163 51.5851V51.5647Z" fill="#F1E4C5"/>
</g>
<defs>
<clipPath id="clip0_36_27072">
<rect width="275" height="116" fill="white"/>
</clipPath>
</defs>
</svg>
