<svg width="259" height="127" viewBox="0 0 259 127" fill="none" xmlns="http://www.w3.org/2000/svg">
<g clip-path="url(#clip0_36_27131)">
<path d="M231.631 127C231.537 127 231.442 127 231.348 126.962C230.989 126.849 230.762 126.508 230.762 126.129C230.762 119.333 222.918 115.434 214.602 111.326C205.359 106.745 195.814 102.013 195.814 92.6045C195.814 89.7651 196.665 87.5692 198.328 86.0359C202.127 82.5339 209.536 83.1964 216.076 83.7643C220.952 84.1808 225.98 84.6351 227.719 83.0261C228.191 82.5907 228.418 82.0228 228.418 81.2088C228.418 77.9529 227.227 75.4352 224.789 73.5044C209.82 61.73 152.928 75.5866 102.746 87.8153C61.1257 97.9617 25.195 106.726 16.9541 100.252C15.6878 99.2489 15.0451 97.9427 15.0451 96.3337C15.0451 92.9642 15.5366 91.1469 16.0469 89.235C16.6706 86.9445 17.37 84.3322 17.3133 78.18C17.2565 72.7282 16.4438 68.2419 15.7256 64.2856C15.1207 60.9539 14.5537 57.8116 14.5537 54.6882C14.5537 54.196 14.9506 53.8174 15.4232 53.8174C15.8957 53.8174 16.2926 54.2149 16.2926 54.6882C16.2926 57.6412 16.8218 60.5753 17.4267 63.9638C18.1449 67.9958 18.9765 72.5389 19.0332 78.1422C19.1088 84.5404 18.3717 87.2663 17.7102 89.6704C17.1998 91.5445 16.7651 93.1724 16.7651 96.3148C16.7651 97.3748 17.162 98.2078 17.9937 98.8514C25.5541 104.795 62.8268 95.709 102.292 86.0927C152.852 73.7694 210.179 59.7992 225.829 72.1036C228.683 74.3562 230.138 77.4039 230.138 81.1899C230.138 82.4771 229.722 83.5182 228.872 84.2944C228.683 84.4647 228.494 84.6162 228.267 84.7487C234.41 87.1338 252.177 94.0432 258.395 96.4473C258.735 96.5798 258.962 96.9205 258.962 97.2802C258.962 97.6399 258.716 97.9806 258.376 98.0942C257.62 98.3592 240.628 104.19 234.92 105.571C235.412 108.846 236.791 120.829 232.293 126.659C232.123 126.886 231.858 127 231.594 127H231.631ZM208.345 85.0326C204.716 85.0326 201.447 85.5248 199.519 87.3042C198.214 88.5157 197.572 90.2383 197.572 92.5856C197.572 100.915 206.625 105.401 215.377 109.736C222.805 113.427 230.46 117.213 232.161 123.479C235.109 116.74 233.125 105.155 233.106 105.041C233.03 104.568 233.332 104.133 233.786 104.038C237.396 103.319 250.287 99.0028 255.56 97.2045C246.847 93.835 228.135 86.547 225.791 85.6573C223.22 86.1305 219.743 85.8277 215.925 85.4869C213.43 85.2787 210.802 85.0326 208.326 85.0326H208.345Z" fill="#F1E4C5"/>
<path d="M197.232 90.0679C197.232 90.0679 197.194 90.0679 197.156 90.0679C196.683 90.0301 196.305 89.6136 196.343 89.1215L197.931 68.2419C197.969 67.7686 198.366 67.39 198.876 67.4279C199.348 67.4658 199.708 67.8822 199.689 68.3744L198.101 89.254C198.063 89.7083 197.685 90.0679 197.232 90.0679Z" fill="#F1E4C5"/>
<path d="M49.426 62.8279C49.048 62.8279 48.6889 62.5629 48.5755 62.1654C45.7026 51.2429 49.2937 45.4882 53.0928 39.3928C54.0568 37.8595 55.0396 36.2694 55.9658 34.5468C56.1926 34.1304 56.7218 33.96 57.1565 34.1871C57.5724 34.4143 57.7425 34.9443 57.5157 35.3797C56.5706 37.1402 55.5689 38.7682 54.586 40.3204C50.8436 46.3211 47.5927 51.5268 50.2766 61.7111C50.39 62.1843 50.1254 62.6576 49.6529 62.7711C49.5773 62.7901 49.5017 62.809 49.426 62.809V62.8279Z" fill="#F1E4C5"/>
<path d="M229.08 80.0542C228.588 80.0542 228.21 79.6567 228.21 79.1834C228.21 69.5482 231.367 62.847 233.899 57.452C235.487 54.0825 236.867 51.1673 236.867 48.555C236.867 41.9675 234.693 37.1025 230.214 33.6951C211.199 19.2328 155.007 34.8688 105.43 48.6686C63.9797 60.2158 28.1813 70.1729 17.6912 62.2034C15.6121 60.6133 14.5537 58.3796 14.5537 55.559C14.5537 50.997 15.6499 47.7221 17.4833 45.3748C10.8302 43.8226 0.642566 37.1214 -6.67312e-05 33.5437C-0.0756706 33.1083 0.188943 32.6729 0.604764 32.5593C7.39021 30.5528 17.2943 23.7759 20.7343 21.334C20.0917 15.5793 22.7378 1.34411 22.8512 0.719428C22.9268 0.284043 23.3426 -0.0377635 23.7963 9.61112e-05C24.2499 0.0379557 24.5901 0.416552 24.5901 0.870867C24.5901 6.62552 31.4889 8.82138 39.4841 11.3769C48.8778 14.3678 59.5191 17.7562 59.5191 28.4327C59.5191 39.8852 49.0101 40.3016 38.8414 40.7181C31.3566 41.021 24.1176 41.3049 19.9405 45.2234C19.8649 45.3559 19.7514 45.4505 19.638 45.5263C17.54 47.6653 16.2737 50.8455 16.2737 55.5401C16.2737 57.8306 17.0675 59.5532 18.7119 60.8026C28.5026 68.2609 65.6241 57.9253 104.919 46.9838C154.893 33.0704 211.521 17.3019 231.216 32.2943C236.092 36.0046 238.568 41.4753 238.568 48.5361C238.568 51.527 237.113 54.6126 235.449 58.1714C232.992 63.396 229.93 69.9078 229.93 79.1456C229.93 79.6378 229.533 80.0163 229.061 80.0163L229.08 80.0542ZM2.02234 33.9412C3.83683 36.8943 13.155 43.0465 18.9009 43.8604C23.645 39.5823 31.5268 39.2605 38.8036 38.9765C48.9913 38.5601 57.7991 38.2194 57.7991 28.4516C57.7991 18.6838 48.2352 16.0147 38.9737 13.0617C32.5096 10.9983 26.3479 9.02961 23.9286 4.94077C23.1347 9.88145 21.9818 18.1538 22.5488 21.599C22.6055 21.9208 22.4732 22.2615 22.1897 22.4508C19.1844 24.6088 9.28031 31.4803 2.02234 33.9602V33.9412Z" fill="#F1E4C5"/>
<path d="M22.1142 70.7786C22.1142 70.7786 22.3977 71.0625 22.8514 71.5736C23.0971 71.8197 23.3239 72.1604 23.6263 72.558C23.9287 72.9555 24.1933 73.4287 24.4957 73.9398C24.7982 74.4699 25.0817 75.0567 25.3463 75.6814C25.592 76.325 25.8566 77.0065 26.0267 77.7447C26.1401 78.1044 26.2157 78.483 26.2913 78.8616C26.3669 79.2402 26.4614 79.6377 26.4803 80.0352C26.5559 80.8303 26.6315 81.6253 26.6315 82.4393C26.6315 82.8368 26.6316 83.2533 26.5748 83.6508C26.537 84.0484 26.537 84.4459 26.4614 84.8434C26.348 85.6385 26.2157 86.3956 26.0078 87.1339C25.8566 87.8722 25.592 88.5536 25.3463 89.1973C25.1195 89.8409 24.8171 90.4277 24.5713 90.9577C24.3067 91.4878 24.0232 91.961 23.7775 92.3775C23.5507 92.7939 23.2861 93.1347 23.0782 93.4186C22.6623 93.9676 22.4166 94.2894 22.4166 94.2894C22.4166 94.2894 22.53 93.9108 22.7569 93.2672C22.8703 92.9454 23.0215 92.5668 23.1538 92.1124C23.2861 91.6581 23.4562 91.166 23.6263 90.617C23.7586 90.0491 23.9476 89.4623 24.0799 88.8376C24.2122 88.194 24.3634 87.5314 24.4768 86.831C24.628 86.1306 24.6658 85.4113 24.7604 84.692C24.7982 84.3323 24.7982 83.9537 24.836 83.5751C24.8549 83.1965 24.8738 82.8368 24.8549 82.4583C24.8738 81.72 24.836 80.9628 24.7793 80.2435C24.6847 79.5241 24.6469 78.7859 24.4957 78.1044C24.3823 77.404 24.2311 76.7604 24.0799 76.1168C23.9098 75.4921 23.7397 74.9053 23.5507 74.3563C23.3428 73.8263 23.1916 73.3152 23.0026 72.8987C22.8136 72.4822 22.6812 72.0847 22.53 71.7818C22.2276 71.1572 22.0764 70.7975 22.0764 70.7975L22.1142 70.7786Z" fill="#F1E4C5"/>
<path d="M27.4631 73.2961C27.4631 73.2961 27.7088 73.5044 28.0869 73.883C28.4649 74.2616 29.013 74.8484 29.5611 75.6245C29.8447 76.0031 30.1282 76.4385 30.3928 76.9307C30.6574 77.4228 30.9409 77.9339 31.1299 78.5018C31.2433 78.7858 31.3378 79.0887 31.4323 79.3915C31.5268 79.6944 31.6213 79.9973 31.6781 80.3191C31.8293 80.9627 31.8671 81.6063 31.9049 82.2689C31.9049 82.9314 31.886 83.594 31.7726 84.2186C31.7159 84.8622 31.5079 85.468 31.3567 86.0548C30.9976 87.2095 30.5251 88.2318 30.0526 89.0457C29.58 89.8597 29.1264 90.5033 28.7673 90.9387C28.4271 91.3741 28.2192 91.6013 28.2192 91.6013C28.2192 91.6013 28.2948 91.2984 28.4649 90.7683C28.5594 90.5033 28.6539 90.2004 28.7673 89.8408C28.8807 89.4811 28.9941 89.0836 29.1264 88.6482C29.2587 88.2128 29.3532 87.7396 29.5233 87.2474C29.6556 86.7552 29.7313 86.2252 29.8825 85.6952C29.9581 85.1462 30.0715 84.5972 30.1093 84.0293C30.1849 83.4614 30.166 82.8936 30.1849 82.3257C30.1471 81.7578 30.1282 81.1899 30.0337 80.622C29.9581 80.073 29.8447 79.5051 29.7124 78.994C29.58 78.464 29.4099 77.9529 29.2398 77.4796C29.0508 77.0064 28.8996 76.5521 28.7106 76.1356C28.3515 75.3027 28.0491 74.6023 27.8223 74.1101C27.5954 73.6179 27.482 73.3151 27.482 73.3151L27.4631 73.2961Z" fill="#F1E4C5"/>
<path d="M226.906 69.7184C226.906 69.7184 226.755 69.3587 226.509 68.7151C226.377 68.3933 226.282 67.9958 226.15 67.5225C225.999 67.0493 225.923 66.5192 225.829 65.9135C225.734 65.3267 225.696 64.6641 225.677 63.9826C225.677 63.3012 225.677 62.5629 225.772 61.8057C225.81 61.4271 225.848 61.0485 225.923 60.6699C225.999 60.2913 226.056 59.8938 226.15 59.5152C226.358 58.7391 226.585 57.963 226.887 57.2247C227.019 56.8461 227.19 56.4675 227.379 56.1078C227.549 55.7482 227.719 55.3696 227.908 55.0288C228.286 54.3284 228.702 53.6659 229.155 53.0601C229.571 52.4355 230.063 51.8865 230.516 51.3754C230.951 50.8454 231.461 50.4289 231.877 50.0124C232.312 49.596 232.765 49.2742 233.124 48.9713C233.484 48.6684 233.862 48.4413 234.145 48.252C234.731 47.8734 235.071 47.6841 235.071 47.6841C235.071 47.6841 234.826 48.0059 234.372 48.517C234.145 48.782 233.862 49.0849 233.578 49.4446C233.295 49.8231 232.954 50.2207 232.595 50.675C232.274 51.1482 231.877 51.6215 231.518 52.1704C231.159 52.7194 230.781 53.2873 230.422 53.8931C230.044 54.4799 229.741 55.1424 229.382 55.786C229.212 56.1078 229.08 56.4486 228.91 56.7893C228.758 57.13 228.607 57.4708 228.494 57.8305C228.21 58.5119 227.983 59.2313 227.775 59.9317C227.605 60.651 227.379 61.3325 227.265 62.0329C227.133 62.7143 227.019 63.3958 226.944 64.0394C226.887 64.683 226.83 65.2888 226.793 65.8567C226.793 66.4246 226.736 66.9546 226.774 67.4089C226.793 67.8632 226.774 68.2797 226.812 68.6204C226.868 69.3019 226.868 69.6994 226.868 69.6994L226.906 69.7184Z" fill="#F1E4C5"/>
<path d="M222.842 65.4215C222.842 65.4215 222.691 65.1375 222.464 64.6454C222.238 64.1532 221.954 63.396 221.708 62.4874C221.576 62.033 221.482 61.5219 221.387 60.973C221.311 60.424 221.255 59.8372 221.274 59.2314C221.274 58.9286 221.274 58.6068 221.311 58.3039C221.33 57.9821 221.349 57.6603 221.425 57.3574C221.519 56.7138 221.708 56.0891 221.916 55.4455C222.162 54.8397 222.408 54.215 222.748 53.6661C223.031 53.0793 223.447 52.606 223.788 52.0949C224.544 51.1484 225.356 50.3723 226.093 49.7855C226.831 49.1986 227.492 48.7633 227.984 48.4982C228.456 48.2143 228.74 48.0818 228.74 48.0818C228.74 48.0818 228.551 48.3468 228.21 48.7633C228.04 48.9715 227.832 49.2176 227.587 49.5205C227.36 49.8233 227.114 50.1451 226.812 50.5048C226.528 50.8645 226.264 51.2809 225.942 51.6784C225.64 52.0949 225.375 52.5492 225.054 53.0035C224.789 53.4768 224.487 53.969 224.241 54.4801C223.977 54.9912 223.769 55.5212 223.561 56.0512C223.391 56.6002 223.202 57.1302 223.088 57.6981C222.956 58.2471 222.861 58.7961 222.805 59.345C222.748 59.894 222.71 60.424 222.691 60.9351C222.691 61.4462 222.691 61.9384 222.691 62.3927C222.729 63.3013 222.767 64.0585 222.786 64.6075C222.824 65.1565 222.824 65.4783 222.824 65.4783L222.842 65.4215Z" fill="#F1E4C5"/>
<path d="M56.9863 33.1461C56.9863 33.1461 56.9863 32.8622 56.9485 32.3511C56.9107 31.8778 56.854 31.1774 56.6839 30.3445C56.6083 29.9281 56.4949 29.4927 56.3815 29.0194C56.2303 28.5651 56.098 28.073 55.8901 27.5997C55.72 27.1075 55.4553 26.6343 55.2096 26.1232C54.9261 25.6499 54.6615 25.1578 54.3024 24.7034C54 24.2302 53.603 23.8137 53.2439 23.3784C52.847 22.9998 52.469 22.5644 52.0532 22.2236C51.6373 21.8829 51.2593 21.5232 50.8435 21.2582C50.4466 20.9743 50.0686 20.6903 49.6905 20.4632C49.3125 20.236 48.9723 20.0278 48.6699 19.8574C48.3486 19.706 47.1389 19.0813 47.1389 19.0813C47.1389 19.0813 48.4053 19.5924 48.7455 19.7249C49.0668 19.8764 49.4259 20.0467 49.8229 20.2549C50.2198 20.4253 50.6356 20.6903 51.0703 20.9364C51.5239 21.1825 51.9398 21.5043 52.4123 21.8072C52.8848 22.1101 53.3006 22.5076 53.7543 22.8862C54.1701 23.3026 54.6237 23.7002 55.0017 24.1734C55.4175 24.6088 55.7578 25.1199 56.098 25.5932C56.4193 26.1043 56.7406 26.5964 56.9863 27.1075C57.2509 27.6186 57.4588 28.1297 57.6668 28.603C57.8369 29.0952 58.007 29.5684 58.1204 30.0038C58.385 30.8746 58.5173 31.6318 58.6118 32.1618C58.6874 32.6729 58.7252 32.9568 58.7252 32.9568C58.8008 33.4301 58.4795 33.8844 57.9881 33.9601C57.5155 34.0358 57.0619 33.714 56.9863 33.2219C56.9863 33.2029 56.9863 33.1651 56.9863 33.1461V33.1461Z" fill="#F1E4C5"/>
<path d="M53.7731 35.9478C53.7731 35.9478 53.7731 35.6639 53.7353 35.1717C53.6975 34.6985 53.6597 34.017 53.5274 33.2219C53.4707 32.8244 53.3762 32.389 53.2628 31.9347C53.1305 31.4993 53.0171 31.0071 52.8281 30.5528C52.658 30.0796 52.4312 29.6063 52.1855 29.1331C51.9208 28.6788 51.6562 28.2055 51.316 27.7891C51.0136 27.3348 50.6167 26.9562 50.2576 26.5586C49.8606 26.199 49.4826 25.8015 49.0668 25.5175C48.651 25.1957 48.2541 24.8928 47.8382 24.6467C47.4413 24.4007 47.0633 24.1356 46.6664 23.9653C46.2884 23.776 45.9481 23.6056 45.6457 23.4542C45.3244 23.3217 44.1147 22.8105 44.1147 22.8105C44.1147 22.8105 45.3811 23.2081 45.7024 23.3027C46.0237 23.4352 46.3829 23.5677 46.7798 23.7192C47.1767 23.8517 47.5925 24.0788 48.0272 24.2871C48.4809 24.4953 48.9156 24.7792 49.3692 25.0443C49.8417 25.3093 50.2576 25.6879 50.7112 26.0097C51.127 26.4072 51.5806 26.7669 51.9586 27.2212C52.3745 27.6376 52.6958 28.1298 53.0549 28.5841C53.3573 29.0763 53.6786 29.5496 53.9054 30.0607C54.1701 30.5528 54.3402 31.0639 54.5292 31.5372C54.6993 32.0104 54.8316 32.4837 54.945 32.9001C55.1718 33.752 55.2852 34.4713 55.3797 34.9824C55.4553 35.4746 55.4931 35.7396 55.4931 35.7396C55.5687 36.2128 55.2285 36.6672 54.756 36.7429C54.2835 36.8186 53.8298 36.4779 53.7542 36.0046C53.7542 35.9857 53.7542 35.9478 53.7542 35.91L53.7731 35.9478Z" fill="#F1E4C5"/>
<path d="M50.5033 38.1815C50.5033 38.1815 50.5033 37.9165 50.4655 37.4622C50.4277 37.0268 50.3899 36.4021 50.2765 35.6449C50.2198 35.2663 50.1442 34.8688 50.0308 34.4523C49.9174 34.0359 49.804 33.6005 49.615 33.184C49.4448 32.7487 49.218 32.3322 48.9912 31.8968C48.7266 31.4804 48.462 31.0639 48.1218 30.6853C47.8194 30.2878 47.4224 29.947 47.0822 29.5874C46.6853 29.2845 46.3262 28.9438 45.9104 28.6977C45.5134 28.4327 45.1165 28.1676 44.7196 27.9783C44.3227 27.7701 43.9447 27.5619 43.5855 27.4294C43.2264 27.2779 42.8862 27.1265 42.6027 27.0129C42.3003 26.9183 41.1284 26.5208 41.1284 26.5208C41.1284 26.5208 42.3381 26.7858 42.6405 26.8615C42.9429 26.9372 43.302 27.0508 43.68 27.1644C44.0581 27.259 44.4739 27.4294 44.8897 27.5997C45.3244 27.7512 45.7592 27.9783 46.1939 28.2055C46.6475 28.4137 47.0633 28.7355 47.5358 29.0195C47.9517 29.3602 48.4053 29.6631 48.7833 30.0796C49.1991 30.4582 49.5204 30.8935 49.8796 31.31C50.182 31.7643 50.4844 32.1997 50.7112 32.6729C50.9569 33.1273 51.1459 33.6005 51.316 34.0359C51.4861 34.4902 51.6185 34.9067 51.7319 35.3042C51.9398 36.0992 52.0721 36.7807 52.1477 37.2539C52.2233 37.7083 52.2611 37.9733 52.2611 37.9733C52.3367 38.4465 52.0154 38.9008 51.5429 38.9766C51.0703 39.0523 50.6167 38.7305 50.5411 38.2572C50.5411 38.2194 50.5411 38.2004 50.5411 38.1626L50.5033 38.1815Z" fill="#F1E4C5"/>
<path d="M47.0822 39.1278C47.0822 39.1278 47.0633 38.9007 47.0066 38.5221C46.9499 38.1624 46.8932 37.6513 46.7231 37.0456C46.6475 36.7427 46.553 36.4209 46.4207 36.0801C46.2884 35.7394 46.1372 35.3987 45.9482 35.0579C45.7591 34.7172 45.5323 34.3954 45.2866 34.0546C45.022 33.7518 44.7385 33.43 44.4172 33.146C44.1148 32.8431 43.7556 32.616 43.4154 32.351C43.0563 32.1427 42.6972 31.8777 42.3381 31.7263C41.9789 31.537 41.6198 31.3666 41.2607 31.2341C40.9016 31.0827 40.5803 30.9502 40.259 30.8555C39.6352 30.6473 39.0871 30.4958 38.7091 30.4012C38.3311 30.3065 38.1042 30.2498 38.1042 30.2498C38.1042 30.2498 38.3311 30.2687 38.7091 30.3255C39.106 30.3633 39.6541 30.4391 40.3157 30.5716C40.6559 30.6284 40.9961 30.723 41.3741 30.8177C41.7521 30.9123 42.1491 31.0448 42.546 31.1962C42.9618 31.3288 43.3587 31.537 43.7745 31.7263C44.1715 31.9534 44.5873 32.1617 44.9653 32.4456C45.3622 32.7106 45.7024 33.0324 46.0616 33.3353C46.3829 33.6761 46.7042 34.0168 46.9688 34.3954C47.2334 34.755 47.4602 35.1336 47.6681 35.4933C47.876 35.853 48.0273 36.2126 48.1596 36.5534C48.4242 37.2159 48.5754 37.8027 48.6888 38.2192C48.7833 38.5978 48.84 38.825 48.84 38.825C48.9534 39.2982 48.6699 39.7714 48.1974 39.885C47.7248 39.9986 47.2523 39.7147 47.1389 39.2414C47.1389 39.2036 47.1389 39.1657 47.1389 39.1278H47.0822Z" fill="#F1E4C5"/>
<path d="M43.4154 39.6581C43.4154 39.6581 43.1508 38.8819 43.0752 38.6737C42.9996 38.5223 42.9051 38.333 42.7917 38.1437C42.7161 37.9354 42.5649 37.7272 42.3948 37.519C42.2246 37.3108 42.0734 37.0457 41.8466 36.8564C41.6198 36.6482 41.4119 36.4211 41.1473 36.2318C40.8827 36.0425 40.5992 35.8721 40.3156 35.6828C40.0321 35.4935 39.7108 35.3799 39.4084 35.2285C39.106 35.096 38.8036 34.9256 38.5012 34.8499C37.8774 34.6606 37.3104 34.4334 36.8001 34.3388C35.7605 34.1306 35.0801 33.998 35.0801 33.998C35.0801 33.998 35.7794 34.0359 36.8379 34.0738C37.3671 34.0738 37.9908 34.2252 38.6524 34.3199C38.9926 34.3577 39.3139 34.4713 39.673 34.5659C40.0132 34.6795 40.3724 34.7363 40.7126 34.9067C41.0528 35.0581 41.393 35.2096 41.7143 35.3799C42.0356 35.5503 42.3381 35.7774 42.6216 35.9857C42.9429 36.175 43.1508 36.44 43.3965 36.6672C43.6422 36.8943 43.869 37.1215 44.0202 37.3865C44.1903 37.6326 44.3605 37.8597 44.5117 38.068C44.6062 38.2573 45.0031 38.9955 45.0031 38.9955C45.2299 39.4309 45.0787 39.9609 44.644 40.1881C44.2092 40.4152 43.68 40.2638 43.4532 39.8284C43.4343 39.7906 43.4154 39.7338 43.3965 39.6959L43.4154 39.6581Z" fill="#F1E4C5"/>
<path d="M38.8604 40.3016C38.8604 40.3016 38.4445 39.923 38.3311 39.8094C38.2366 39.7337 38.1232 39.658 38.0098 39.5633C37.8964 39.4687 37.7452 39.374 37.5751 39.2794C37.405 39.1847 37.2349 39.0712 37.0459 38.9765C36.8569 38.8819 36.6489 38.7872 36.441 38.6926C36.2331 38.6168 36.0063 38.5411 35.7795 38.4654C35.3448 38.314 34.8723 38.2004 34.4375 38.0868C34.0028 37.9922 33.587 37.9164 33.2279 37.8596C32.5096 37.765 32.0371 37.6893 32.0371 37.6893C32.0371 37.6893 32.5285 37.6514 33.2468 37.5757C33.6059 37.5568 34.0406 37.5568 34.4942 37.5378C34.9479 37.5378 35.4582 37.5378 35.9496 37.6136C36.1953 37.6514 36.4599 37.6704 36.7056 37.7082C36.9514 37.765 37.1971 37.8218 37.4239 37.8596C37.6696 37.8975 37.8775 37.9922 38.1043 38.0489C38.3122 38.1247 38.5201 38.1815 38.7281 38.2761C38.9171 38.3708 39.1061 38.4465 39.2573 38.5222C39.3896 38.5979 39.881 38.8819 39.881 38.8819C40.2968 39.1279 40.448 39.658 40.2023 40.0934C39.9566 40.5098 39.4274 40.6613 38.9927 40.4152C38.936 40.3773 38.8793 40.3395 38.8415 40.3016H38.8604Z" fill="#F1E4C5"/>
<path d="M199.386 98.5106C199.386 98.5106 200.123 98.927 200.312 99.0406C200.501 99.1542 200.709 99.2299 200.936 99.3624C201.163 99.476 201.409 99.6085 201.692 99.7031C201.976 99.8167 202.259 99.9303 202.581 100.044C202.883 100.157 203.223 100.252 203.544 100.347C203.885 100.46 204.225 100.555 204.565 100.612C204.905 100.687 205.264 100.782 205.605 100.839C205.945 100.896 206.304 100.934 206.625 100.99C207.287 101.085 207.929 101.085 208.459 101.142C209.007 101.142 209.442 101.142 209.763 101.142C210.084 101.142 210.254 101.142 210.254 101.142C210.254 101.142 210.084 101.18 209.763 101.218C209.442 101.255 209.007 101.35 208.459 101.426C207.911 101.464 207.268 101.558 206.588 101.558C206.247 101.558 205.888 101.558 205.529 101.558C205.17 101.558 204.792 101.52 204.433 101.501C204.055 101.501 203.696 101.445 203.337 101.388C202.977 101.331 202.618 101.293 202.259 101.218C201.919 101.142 201.579 101.066 201.276 100.99C200.955 100.915 200.653 100.801 200.388 100.725C200.123 100.631 199.84 100.574 199.651 100.479C199.443 100.404 198.649 100.101 198.649 100.101C198.195 99.9303 197.969 99.4192 198.158 98.9649C198.328 98.5106 198.838 98.2834 199.292 98.4727C199.33 98.4727 199.367 98.5106 199.405 98.5295L199.386 98.5106Z" fill="#F1E4C5"/>
<path d="M197.912 95.0085C197.912 95.0085 198.687 95.5575 198.876 95.7089C199.084 95.8604 199.292 95.955 199.537 96.1065C199.783 96.239 200.029 96.4283 200.331 96.5418C200.634 96.6744 200.955 96.8258 201.276 96.9772C201.617 97.1097 201.976 97.2233 202.335 97.3558C202.694 97.4883 203.072 97.583 203.469 97.6776C203.847 97.7533 204.225 97.8859 204.622 97.9237C205 97.9805 205.397 98.0373 205.756 98.0752C206.134 98.1509 206.493 98.113 206.833 98.1509C207.173 98.1509 207.495 98.1887 207.797 98.1887C209.007 98.1319 209.801 98.0941 209.801 98.0941C209.801 98.0941 209.007 98.2455 207.816 98.4537C207.514 98.4916 207.192 98.5105 206.833 98.5484C206.493 98.5673 206.115 98.643 205.737 98.6241C205.359 98.6241 204.962 98.6241 204.546 98.6241C204.13 98.6241 203.733 98.5673 203.318 98.5295C202.902 98.4916 202.486 98.4538 202.089 98.3591C201.692 98.2834 201.295 98.2077 200.898 98.113C200.52 97.9994 200.161 97.8859 199.802 97.7912C199.443 97.6966 199.122 97.5451 198.819 97.4126C198.517 97.2801 198.214 97.1665 198.006 97.0529C197.78 96.9394 196.948 96.4851 196.948 96.4851C196.513 96.2579 196.362 95.7279 196.589 95.2925C196.816 94.8571 197.345 94.7057 197.78 94.9328C197.817 94.9328 197.855 94.9707 197.874 94.9896L197.912 95.0085Z" fill="#F1E4C5"/>
<path d="M197.534 92.1311C197.534 92.1311 198.271 92.718 198.479 92.8694C198.668 93.0208 198.876 93.1155 199.122 93.2669C199.367 93.3994 199.594 93.5887 199.897 93.7212C200.199 93.8537 200.501 94.0052 200.842 94.1566C201.182 94.2702 201.541 94.4027 201.9 94.5163C202.259 94.6488 202.637 94.7245 203.034 94.8192C203.412 94.8949 203.809 95.0085 204.187 95.0463C204.584 95.0842 204.962 95.141 205.321 95.1788C205.699 95.2356 206.058 95.1978 206.399 95.2167C206.739 95.2167 207.079 95.2167 207.363 95.2167C208.572 95.1031 209.366 95.0463 209.366 95.0463C209.366 95.0463 208.572 95.2167 207.381 95.5006C207.079 95.5385 206.758 95.5764 206.399 95.6331C206.058 95.671 205.68 95.7467 205.302 95.7467C204.924 95.7467 204.508 95.7656 204.112 95.7846C203.696 95.8224 203.299 95.7467 202.883 95.7278C202.467 95.6899 202.051 95.671 201.654 95.5764C201.257 95.5006 200.842 95.4249 200.464 95.3303C200.086 95.2167 199.708 95.1031 199.367 94.9895C199.008 94.8949 198.687 94.7245 198.385 94.592C198.082 94.4595 197.78 94.327 197.572 94.2134C197.364 94.0809 196.551 93.6077 196.551 93.6077C196.135 93.3616 196.003 92.8315 196.249 92.4151C196.494 91.9986 197.024 91.8661 197.439 92.1122C197.477 92.1311 197.515 92.1501 197.534 92.1879V92.1311Z" fill="#F1E4C5"/>
<path d="M197.685 89.6514C197.685 89.6514 198.384 90.2193 198.574 90.3518C198.763 90.5032 198.952 90.5789 199.178 90.7304C199.405 90.8629 199.613 91.0333 199.915 91.1279C200.199 91.2604 200.501 91.3929 200.804 91.5254C201.125 91.6201 201.465 91.7337 201.824 91.8283C202.165 91.9419 202.543 91.9987 202.902 92.0555C203.261 92.1123 203.639 92.2069 203.998 92.2069C204.376 92.2258 204.735 92.2637 205.075 92.2826C205.435 92.3205 205.775 92.2826 206.096 92.2826C206.417 92.2826 206.739 92.2637 207.022 92.2448C208.156 92.0933 208.912 91.9798 208.912 91.9798C208.912 91.9798 208.175 92.188 207.06 92.5098C206.777 92.5666 206.474 92.6234 206.134 92.6802C205.813 92.7369 205.453 92.8316 205.094 92.8505C204.735 92.8694 204.357 92.9073 203.96 92.9452C203.582 93.002 203.185 92.9452 202.788 92.9452C202.392 92.9452 201.995 92.9452 201.598 92.8505C201.22 92.7937 200.823 92.7369 200.445 92.6802C200.086 92.5855 199.726 92.4719 199.386 92.3962C199.046 92.3205 198.725 92.1501 198.441 92.0365C198.158 91.904 197.855 91.7905 197.647 91.6769C197.439 91.5633 196.665 91.109 196.665 91.109C196.249 90.8629 196.097 90.3329 196.343 89.9164C196.589 89.4999 197.118 89.3485 197.534 89.5946C197.572 89.6135 197.61 89.6325 197.647 89.6703L197.685 89.6514Z" fill="#F1E4C5"/>
<path d="M198.309 87.5312C198.309 87.5312 198.971 87.9855 199.141 88.0991C199.311 88.2127 199.481 88.2695 199.689 88.383C199.897 88.4777 200.086 88.6102 200.369 88.6859C200.634 88.7806 200.898 88.8752 201.182 88.9699C201.484 89.0456 201.787 89.1024 202.108 89.1781C202.429 89.2728 202.751 89.2917 203.072 89.3295C203.393 89.3485 203.734 89.4242 204.055 89.4053C204.395 89.4053 204.716 89.4053 205.019 89.4053C205.34 89.4053 205.643 89.3485 205.926 89.3295C206.21 89.2917 206.493 89.2728 206.739 89.2538C207.741 89.0645 208.421 88.932 208.421 88.932C208.421 88.932 207.778 89.1592 206.796 89.5188C206.55 89.5946 206.266 89.6513 205.983 89.7271C205.699 89.8028 205.397 89.8974 205.076 89.9542C204.754 90.011 204.414 90.0678 204.074 90.1246C203.734 90.2003 203.375 90.1814 203.015 90.2192C202.656 90.2382 202.297 90.276 201.957 90.2192C201.598 90.2003 201.258 90.1814 200.917 90.1435C200.577 90.0867 200.256 90.0299 199.953 89.9732C199.651 89.9353 199.349 89.8028 199.065 89.7271C198.8 89.6324 198.517 89.5567 198.328 89.462C198.139 89.3674 197.402 89.0267 197.402 89.0267C196.967 88.8184 196.778 88.3073 196.986 87.853C197.194 87.4176 197.704 87.2283 198.158 87.4366C198.196 87.4555 198.252 87.4744 198.271 87.5123L198.309 87.5312Z" fill="#F1E4C5"/>
<path d="M199.613 85.6951C199.613 85.6951 200.218 85.9601 200.369 86.0169C200.52 86.0926 200.672 86.1115 200.842 86.1683C201.012 86.2062 201.201 86.3008 201.409 86.3198C201.636 86.3576 201.862 86.4144 202.108 86.4523C202.354 86.4901 202.599 86.4901 202.864 86.528C203.129 86.5658 203.393 86.5658 203.658 86.5469C203.923 86.5469 204.206 86.5469 204.471 86.528C204.735 86.5091 205 86.4712 205.246 86.4523C205.51 86.4523 205.737 86.3766 205.983 86.3387C206.21 86.3008 206.436 86.263 206.644 86.2251C207.457 86.0169 207.986 85.8844 207.986 85.8844C207.986 85.8844 207.476 86.1305 206.72 86.4901C206.531 86.5658 206.304 86.6416 206.077 86.7362C205.85 86.8119 205.624 86.9255 205.359 87.0012C205.094 87.077 204.83 87.1527 204.565 87.2473C204.301 87.342 204.017 87.3798 203.734 87.4366C203.45 87.4934 203.167 87.5502 202.883 87.5691C202.599 87.607 202.316 87.6448 202.032 87.6448C201.749 87.6448 201.484 87.6448 201.239 87.6448C200.993 87.6448 200.728 87.607 200.483 87.5881C200.256 87.5691 200.01 87.5502 199.859 87.5123C199.689 87.4745 199.046 87.342 199.046 87.342C198.574 87.2473 198.271 86.7741 198.366 86.3008C198.46 85.8276 198.933 85.5247 199.405 85.6194C199.462 85.6194 199.519 85.6572 199.575 85.6761L199.613 85.6951Z" fill="#F1E4C5"/>
<path d="M14.913 56.373L15.6501 56.8841L16.0848 57.6603C15.7257 57.9821 15.1776 57.9631 14.8563 57.6035C14.5349 57.2438 14.5538 56.6949 14.913 56.373Z" fill="#F1E4C5"/>
<path d="M16.6708 47.1163C16.6708 47.1163 16.9165 46.9838 17.3512 46.7756C17.7859 46.5674 18.3718 46.2266 19.1846 45.9048C19.5815 45.7345 19.9973 45.5452 20.4509 45.3559C20.9046 45.1666 21.396 45.0151 21.8874 44.8448C22.3788 44.6555 22.9081 44.4851 23.4373 44.3526C23.9665 44.2201 24.5147 44.0497 25.0628 43.9172C25.6109 43.8225 26.1779 43.709 26.7261 43.6143C27.2742 43.5007 27.8223 43.5007 28.3327 43.4439C28.8619 43.425 29.3533 43.3304 29.8447 43.3682C30.3173 43.3682 30.7709 43.4061 31.2056 43.425C31.6214 43.425 31.9994 43.4818 32.3397 43.5386C32.6799 43.5954 33.9462 43.8225 33.9462 43.8225C33.9462 43.8225 32.661 43.7279 32.3208 43.709C31.9805 43.6711 31.6025 43.6522 31.2056 43.709C30.7898 43.7279 30.3551 43.7658 29.8825 43.7847C29.41 43.7847 28.9186 43.9361 28.4272 44.0118C27.9168 44.1065 27.4065 44.1633 26.8773 44.3336C26.367 44.4851 25.8377 44.6365 25.3085 44.769C24.7982 44.9394 24.2878 45.1476 23.7775 45.3369C23.2672 45.5073 22.7947 45.7345 22.341 45.9616C21.8874 46.1888 21.4338 46.3781 21.018 46.5863C20.6211 46.8135 20.2241 47.0217 19.8839 47.211C19.1846 47.5706 18.5987 47.9871 18.1828 48.2332C17.767 48.4982 17.5402 48.6496 17.5402 48.6496C17.1244 48.9147 16.5952 48.7821 16.3305 48.3846C16.0659 47.9682 16.1982 47.4381 16.5952 47.1731C16.6141 47.1731 16.6519 47.1353 16.6708 47.1353V47.1163Z" fill="#F1E4C5"/>
<path d="M15.3098 51.9435C15.3098 51.9435 15.5555 51.7731 15.9902 51.4892C16.4438 51.2052 17.1054 50.7699 17.9181 50.3155C18.7309 49.8612 19.6948 49.3691 20.7533 48.9337C21.8117 48.4794 22.9647 48.0629 24.1554 47.76C24.7414 47.5896 25.3462 47.4761 25.9321 47.3625C26.537 47.2678 27.104 47.1543 27.671 47.1164C28.2381 47.0596 28.7862 47.0218 29.3154 47.0218C29.8446 47.0028 30.3361 47.0218 30.7897 47.0407C31.2433 47.0407 31.6591 47.1164 32.0182 47.1543C32.3774 47.1921 32.6987 47.2489 32.9633 47.2868C33.4736 47.3814 33.776 47.4382 33.776 47.4382C33.776 47.4382 33.4736 47.4193 32.9444 47.3625C32.6798 47.3436 32.3585 47.3057 31.9993 47.3057C31.6402 47.3057 31.2244 47.2678 30.7708 47.3057C30.3172 47.3246 29.8446 47.3436 29.3343 47.4193C28.824 47.4761 28.2948 47.5518 27.7466 47.6654C27.1985 47.7411 26.6504 47.9115 26.0833 48.044C25.5163 48.2143 24.9493 48.3658 24.4012 48.5929C23.286 48.9905 22.2086 49.4826 21.2447 50.0127C20.2618 50.5238 19.3924 51.0727 18.6742 51.5649C18.315 51.811 17.9748 52.0382 17.7102 52.2653C17.4267 52.4925 17.181 52.6439 16.9731 52.8332C16.5573 53.1739 16.3304 53.3632 16.3304 53.3632C15.9524 53.6661 15.4043 53.6093 15.1019 53.2307C14.7995 52.8521 14.8562 52.3032 15.2342 52.0003C15.2531 52.0003 15.272 51.9624 15.2909 51.9624L15.3098 51.9435Z" fill="#F1E4C5"/>
<path d="M15.0641 56.2215C15.0641 56.2215 15.3098 56.0322 15.7256 55.6915C16.1603 55.3507 16.803 54.8775 17.5968 54.3474C17.9937 54.1014 18.4285 53.8174 18.901 53.5524C19.3735 53.2874 19.8649 53.0224 20.4131 52.7573C20.9423 52.5113 21.4904 52.2462 22.0763 52.038C22.6434 51.8109 23.2482 51.6216 23.853 51.4323C24.4579 51.2619 25.0627 51.1105 25.6675 50.9969C26.2724 50.8833 26.8583 50.7886 27.4442 50.7319C28.0302 50.6561 28.5783 50.6561 29.1075 50.6372C29.6367 50.6372 30.1471 50.6561 30.6007 50.6561C31.0543 50.694 31.489 50.7319 31.8481 50.7697C32.2262 50.7886 32.5475 50.8644 32.8121 50.9022C33.3413 50.9969 33.6437 51.0347 33.6437 51.0347C33.6437 51.0347 33.3413 51.0158 32.8121 50.9779C32.5475 50.9779 32.2262 50.9212 31.8481 50.9212C31.4701 50.9212 31.0543 50.9212 30.6007 50.9212C30.1471 50.959 29.6556 50.9779 29.1264 51.0347C28.6161 51.1105 28.068 51.1483 27.5009 51.2808C26.9528 51.3755 26.3858 51.508 25.7998 51.6783C25.2328 51.8298 24.6658 52.038 24.0988 52.2462C23.5317 52.4734 22.9836 52.7006 22.4733 52.9656C21.944 53.2117 21.4337 53.5145 20.9612 53.7796C20.4887 54.0635 20.035 54.3664 19.6192 54.6503C19.1845 54.9343 18.8254 55.2371 18.4663 55.5022C17.7669 56.0701 17.2188 56.5433 16.8408 56.903C16.4628 57.2816 16.2359 57.4898 16.2359 57.4898C15.8957 57.8305 15.3287 57.8116 15.0074 57.4709C14.6672 57.1112 14.6861 56.5622 15.0263 56.2404C15.0263 56.2404 15.0641 56.2026 15.083 56.1836L15.0641 56.2215Z" fill="#F1E4C5"/>
<path d="M16.1603 59.3638C16.1603 59.3638 17.1998 58.5119 17.4644 58.3037C17.729 58.0766 18.1071 57.8494 18.4662 57.6033C18.8442 57.3572 19.2222 57.0544 19.6758 56.8272C20.1295 56.5811 20.5831 56.335 21.0745 56.07C21.5848 55.8618 22.1141 55.6536 22.6433 55.4264C23.1725 55.1803 23.7584 55.0857 24.3066 54.9153C24.8736 54.7639 25.4217 54.5935 26.0077 54.5556C26.5747 54.4799 27.1228 54.4042 27.6709 54.3474C28.2191 54.3095 28.7294 54.3474 29.2397 54.3474C29.7312 54.3474 30.2037 54.3474 30.6384 54.3663C32.3395 54.5935 33.4735 54.726 33.4735 54.726C33.4735 54.726 32.3395 54.6881 30.6384 54.6313C30.2226 54.6313 29.7501 54.7071 29.2775 54.7449C28.7861 54.8017 28.2758 54.8206 27.7654 54.8964C27.2551 55.0099 26.7259 55.1424 26.1778 55.256C25.6296 55.3507 25.1193 55.5589 24.5901 55.7482C24.0798 55.9564 23.5316 56.0889 23.0591 56.3729C22.5677 56.619 22.0952 56.8651 21.6415 57.1111C21.2068 57.3951 20.8099 57.679 20.413 57.9441C20.0161 58.1901 19.6947 58.493 19.3734 58.758C19.071 59.0231 18.7686 59.2502 18.5229 59.4774C18.2772 59.7235 17.3321 60.6699 17.3321 60.6699C16.9919 61.0107 16.4438 61.0107 16.1036 60.6699C15.7633 60.3292 15.7633 59.7802 16.1036 59.4395C16.1225 59.4206 16.1414 59.4017 16.1603 59.3827V59.3638Z" fill="#F1E4C5"/>
<path d="M18.5041 61.2759C18.5041 61.2759 19.4113 60.6133 19.6381 60.443C19.8838 60.2726 20.2051 60.1022 20.5265 59.9129C20.8478 59.7047 21.2069 59.5154 21.6038 59.345C22.0007 59.1747 22.3977 58.9664 22.8513 58.815C23.286 58.6825 23.7585 58.5311 24.2121 58.3986C24.6847 58.266 25.1761 58.2093 25.6486 58.1146C25.8943 58.0768 26.1211 58.02 26.3669 58.001C26.6126 58.001 26.8583 57.9632 27.0851 57.9632C27.5576 57.9442 28.0301 57.8875 28.4838 57.8875C28.9374 57.9064 29.3721 57.9253 29.7879 57.9442C30.2038 57.9632 30.5818 57.9442 30.9409 58.02C32.3585 58.2093 33.3035 58.3418 33.3035 58.3418C33.3035 58.3418 32.3585 58.3228 30.922 58.285C30.5629 58.285 30.1849 58.3228 29.769 58.3418C29.3721 58.3796 28.9374 58.3986 28.5027 58.4364C28.0679 58.4932 27.6143 58.5879 27.1607 58.6636C26.9339 58.7014 26.7071 58.7393 26.4803 58.7961C26.2534 58.8529 26.0266 58.9286 25.8187 58.9854C25.384 59.1368 24.9304 59.2315 24.5146 59.4018C24.0987 59.5911 23.7018 59.7615 23.3049 59.9319C22.9269 60.1022 22.5678 60.3483 22.2275 60.5376C21.8873 60.7269 21.5849 60.9351 21.3392 61.1434C21.0746 61.3516 20.8289 61.522 20.621 61.6923C20.413 61.8816 19.5814 62.6388 19.5814 62.6388C19.2223 62.9606 18.6742 62.9417 18.3528 62.582C18.0315 62.2224 18.0504 61.6734 18.4095 61.3516C18.4284 61.3327 18.4662 61.3137 18.4851 61.2948L18.5041 61.2759Z" fill="#F1E4C5"/>
<path d="M22.1899 62.4116C22.1899 62.4116 22.9459 62.1466 23.1349 62.0708C23.3617 62.014 23.6074 61.9383 23.8721 61.8626C24.1367 61.7869 24.4202 61.7112 24.7226 61.6733C25.025 61.6165 25.3463 61.5408 25.6676 61.5219C25.989 61.484 26.3292 61.4651 26.6883 61.4272C27.0285 61.4083 27.3876 61.4272 27.7279 61.4083C28.4272 61.3894 29.1076 61.4651 29.7503 61.484C30.3929 61.5597 30.9788 61.6165 31.4891 61.6922C32.4909 61.8626 33.1713 61.9762 33.1713 61.9762C33.1713 61.9762 32.4909 61.9762 31.4702 61.9762C30.9599 61.9762 30.374 62.033 29.7503 62.0519C29.1265 62.1276 28.4461 62.1655 27.8035 62.298C27.4821 62.3548 27.1419 62.4116 26.8395 62.4873C26.5182 62.563 26.2158 62.6577 25.9134 62.7334C25.6109 62.8091 25.3463 62.9227 25.0817 63.0173C24.8171 63.112 24.5714 63.2066 24.3635 63.3013C24.1556 63.3959 23.9666 63.4906 23.7965 63.5663C23.6074 63.6609 22.927 64.0585 22.927 64.0585C22.5112 64.3045 21.9631 64.1531 21.7362 63.7177C21.5094 63.2823 21.6417 62.7523 22.0765 62.5251C22.1143 62.5062 22.171 62.4873 22.2088 62.4684L22.1899 62.4116Z" fill="#F1E4C5"/>
<path d="M228.796 83.6128C228.796 83.6128 227.341 83.7831 226.944 83.821C226.566 83.8778 226.112 83.8778 225.621 83.8967C225.13 83.8967 224.6 83.9346 224.052 83.9535C223.504 83.9535 222.918 83.9156 222.313 83.8778C221.708 83.8778 221.104 83.821 220.48 83.7453C219.856 83.6696 219.232 83.5938 218.59 83.5181C217.966 83.4045 217.342 83.272 216.719 83.1585C216.095 83.0638 215.509 82.8934 214.942 82.7231C214.375 82.5527 213.808 82.4202 213.298 82.2498C212.787 82.0605 212.315 81.8712 211.861 81.7009C211.426 81.5305 211.01 81.3791 210.67 81.1708C210.33 80.9815 209.026 80.3 209.026 80.3C209.026 80.3 210.387 80.8869 210.727 81.0194C211.067 81.1898 211.483 81.3033 211.937 81.4358C212.39 81.5683 212.882 81.7009 213.392 81.8523C213.902 81.9848 214.469 82.0605 215.036 82.1741C215.603 82.2877 216.208 82.4013 216.813 82.4581C217.418 82.5148 218.042 82.5906 218.665 82.6473C219.289 82.6473 219.913 82.6852 220.518 82.7041C221.123 82.742 221.727 82.7041 222.313 82.6852C222.899 82.6473 223.447 82.6473 223.977 82.6095C224.487 82.5527 224.978 82.4959 225.432 82.4391C225.886 82.3823 226.282 82.3445 226.66 82.2498C227.039 82.1741 228.475 81.8712 228.475 81.8712C228.948 81.7766 229.42 82.0795 229.515 82.5527C229.609 83.0259 229.307 83.4992 228.834 83.5938C228.815 83.5938 228.777 83.5938 228.758 83.5938L228.796 83.6128Z" fill="#F1E4C5"/>
<path d="M229.193 81.417C229.193 81.417 227.832 81.6252 227.473 81.682C227.133 81.7577 226.698 81.7766 226.245 81.7956C225.791 81.8334 225.3 81.8523 224.77 81.8902C224.26 81.8902 222.578 81.8713 222.294 81.8523C222.011 81.8334 221.709 81.7956 221.425 81.7766C220.839 81.7198 220.253 81.682 219.648 81.6063C219.062 81.5116 218.476 81.398 217.891 81.3034C217.305 81.2277 216.756 81.0573 216.227 80.9059C215.698 80.7544 215.169 80.6408 214.696 80.4705C214.224 80.2812 212.957 79.8079 212.768 79.7322C212.579 79.6565 212.428 79.5429 212.258 79.4672C211.937 79.2968 210.727 78.6343 210.727 78.6343C210.727 78.6343 211.993 79.1643 212.315 79.3158C212.485 79.3725 212.655 79.4672 212.844 79.524C213.033 79.5808 214.318 79.9404 214.81 80.0729C215.282 80.2054 215.83 80.2622 216.36 80.3569C216.889 80.4515 217.437 80.5651 218.023 80.584C218.59 80.6219 219.176 80.6787 219.743 80.7166C220.329 80.7166 220.896 80.7166 221.463 80.7166C221.746 80.7166 222.03 80.7166 222.313 80.7166C222.597 80.6976 224.185 80.5651 224.676 80.5273C225.149 80.4515 225.602 80.3758 226.018 80.3001C226.434 80.2244 226.812 80.1865 227.152 80.0919C227.492 79.9972 228.834 79.6565 228.834 79.6565C229.307 79.5429 229.779 79.8079 229.893 80.2812C230.006 80.7544 229.741 81.2277 229.269 81.3412C229.25 81.3412 229.212 81.3412 229.193 81.3412V81.417Z" fill="#F1E4C5"/>
<path d="M228.853 79.3915C228.853 79.3915 227.643 79.5997 227.322 79.6376C227.02 79.6944 226.623 79.7322 226.226 79.7512C225.81 79.789 225.375 79.8269 224.903 79.8647C224.449 79.8647 222.956 79.8647 222.691 79.8647C222.427 79.8458 222.181 79.8269 221.916 79.808C221.387 79.7701 220.858 79.7322 220.329 79.6754C219.799 79.5808 219.27 79.5051 218.76 79.4104C218.25 79.3536 217.739 79.1833 217.267 79.0697C216.794 78.9372 216.322 78.8425 215.887 78.6722C215.471 78.5018 214.337 78.0664 214.167 78.0096C214.016 77.915 212.371 77.0063 212.371 77.0063C212.371 77.0063 214.091 77.7257 214.261 77.8014C214.432 77.8393 215.585 78.1611 216.019 78.2746C216.435 78.4071 216.926 78.4261 217.399 78.5207C217.872 78.5964 218.363 78.6911 218.873 78.71C219.384 78.7479 219.894 78.7668 220.404 78.8047C220.915 78.8047 221.425 78.7857 221.935 78.7668C222.181 78.7668 222.446 78.7668 222.691 78.7479C222.937 78.729 224.355 78.5775 224.789 78.5207C225.205 78.445 225.621 78.3693 225.98 78.2936C226.339 78.2179 226.679 78.18 227.001 78.0664C227.303 77.9907 228.494 77.65 228.494 77.65C228.966 77.5175 229.439 77.8014 229.571 78.2557C229.704 78.71 229.42 79.2022 228.966 79.3347C228.929 79.3347 228.91 79.3347 228.872 79.3536L228.853 79.3915Z" fill="#F1E4C5"/>
<path d="M228.116 77.4795C228.116 77.4795 227.889 77.5174 227.511 77.5742C227.114 77.6309 226.585 77.7445 225.867 77.7824C225.526 77.8202 225.148 77.8392 224.733 77.877C224.336 77.877 223.92 77.877 223.485 77.877C223.05 77.877 222.616 77.877 222.162 77.8392C221.708 77.8013 221.255 77.7824 220.801 77.7256C220.348 77.6499 219.894 77.5742 219.459 77.4984C219.006 77.4416 218.59 77.2902 218.174 77.1956C217.758 77.0631 217.361 77.0063 217.002 76.8359C216.643 76.6845 216.303 76.5519 215.981 76.4194C215.66 76.3059 215.395 76.1544 215.15 76.0219C214.904 75.8894 213.997 75.3594 213.997 75.3594C213.997 75.3594 214.961 75.7569 215.206 75.8705C215.452 75.9841 215.736 76.0976 216.057 76.1734C216.378 76.268 216.719 76.3437 217.097 76.4573C217.456 76.5709 217.872 76.5898 218.268 76.6655C218.684 76.7223 219.1 76.817 219.535 76.817C219.97 76.817 220.404 76.8548 220.839 76.8738C221.274 76.8738 221.708 76.8359 222.143 76.817C222.578 76.817 222.994 76.7602 223.391 76.7034C223.788 76.6466 224.184 76.6087 224.562 76.5519C224.922 76.4762 225.262 76.4005 225.583 76.3437C226.207 76.2301 226.755 76.0408 227.133 75.9462C227.511 75.8326 227.719 75.7758 227.719 75.7758C228.191 75.6433 228.664 75.9083 228.796 76.3816C228.929 76.8548 228.664 77.3281 228.191 77.4606C228.154 77.4606 228.116 77.4606 228.078 77.4795H228.116Z" fill="#F1E4C5"/>
<path d="M227.19 75.6055C227.19 75.6055 227.001 75.6244 226.698 75.6812C226.377 75.7191 225.942 75.8137 225.356 75.8327C224.789 75.8894 224.109 75.9273 223.41 75.9084C223.05 75.9084 222.691 75.9084 222.313 75.8705C221.935 75.8327 221.576 75.8137 221.198 75.7759C220.82 75.7191 220.461 75.6434 220.102 75.5866C219.743 75.5487 219.384 75.3973 219.062 75.3215C218.722 75.208 218.401 75.1512 218.117 74.9997C217.834 74.8672 217.55 74.7537 217.286 74.6401C216.775 74.4318 216.397 74.129 216.133 73.9965C215.868 73.8261 215.698 73.7314 215.698 73.7314C215.698 73.7314 215.868 73.8072 216.171 73.9207C216.473 74.0343 216.87 74.2615 217.399 74.394C217.664 74.4697 217.947 74.5454 218.25 74.6211C218.533 74.7158 218.873 74.7347 219.195 74.7915C219.535 74.8294 219.856 74.9051 220.215 74.9051C220.574 74.9051 220.915 74.9051 221.274 74.924C221.633 74.924 221.992 74.8862 222.332 74.8672C222.672 74.8672 223.013 74.8104 223.353 74.7537C224.014 74.6779 224.6 74.5265 225.111 74.4129C225.602 74.3183 226.056 74.1479 226.358 74.0722C226.661 73.9775 226.831 73.9207 226.831 73.9207C227.303 73.7882 227.776 74.0533 227.927 74.5076C228.059 74.9808 227.795 75.4541 227.341 75.6055C227.303 75.6055 227.246 75.6244 227.209 75.6244L227.19 75.6055Z" fill="#F1E4C5"/>
<path d="M225.356 73.9776C225.356 73.9776 225.224 73.9776 224.997 73.9965C224.771 73.9965 224.487 74.0533 224.052 74.0533C223.636 74.0533 223.164 74.0533 222.672 74.0154C222.427 74.0154 222.162 73.9776 221.898 73.9397C221.633 73.9018 221.368 73.864 221.123 73.8072C220.858 73.7504 220.612 73.6747 220.348 73.6179C220.102 73.5611 219.856 73.4475 219.629 73.3718C219.157 73.2204 218.76 72.9743 218.42 72.8039C218.08 72.6146 217.834 72.4064 217.645 72.2928C217.456 72.1603 217.361 72.1035 217.361 72.1035C217.361 72.1035 217.475 72.1603 217.683 72.236C217.891 72.3117 218.174 72.4632 218.533 72.5578C218.911 72.6525 219.308 72.8039 219.781 72.8418C220.007 72.8607 220.234 72.9175 220.48 72.9364C220.726 72.9364 220.971 72.9364 221.217 72.9554C221.463 72.9554 221.709 72.9364 221.935 72.9175C222.181 72.9175 222.408 72.8796 222.635 72.8418C223.088 72.785 223.504 72.6903 223.844 72.6146C224.185 72.5389 224.506 72.4253 224.714 72.3685C224.922 72.3117 225.054 72.2739 225.054 72.2739C225.527 72.1414 225.999 72.4064 226.15 72.8796C226.283 73.3529 226.018 73.8261 225.545 73.9776C225.489 73.9776 225.413 74.0154 225.356 74.0154V73.9776Z" fill="#F1E4C5"/>
<path d="M96.4516 68.7153C96.4138 71.4979 96.376 74.2995 96.3571 77.0822C96.0925 77.1201 95.809 77.1579 95.5444 77.1769C95.3932 76.9497 95.242 76.7036 95.0908 76.4765C94.4859 77.2147 93.5409 77.669 92.2367 77.7448C91.1972 77.8016 90.3844 77.5176 89.7796 76.9308C89.1937 76.344 88.9102 75.4732 88.9102 74.3185C88.948 70.7786 88.9858 67.2387 89.0425 63.6799C89.0425 62.4116 89.4016 61.4462 90.0631 60.7837C90.7247 60.1211 91.6319 59.7615 92.7849 59.6857C93.9 59.61 94.7317 59.7993 95.2987 60.3104C95.8468 60.8215 96.1114 61.8059 96.0925 63.2635C96.0925 64.0585 96.0169 64.8157 95.9035 65.5161C95.1475 65.554 94.3725 65.5729 93.6165 65.5729C93.711 64.8914 93.7677 64.3235 93.7677 63.8314C93.7677 63.0742 93.711 62.582 93.5787 62.317C93.4464 62.0709 93.2196 61.9573 92.9361 61.9762C92.5958 61.9952 92.369 62.1088 92.2556 62.2981C92.1233 62.4873 92.0666 62.7902 92.0666 63.1878C92.0288 66.9548 91.9721 70.7029 91.9343 74.4699C91.9343 75.1325 92.1989 75.4543 92.766 75.4164C93.2574 75.3785 93.5031 75.0189 93.5031 74.3563L93.5598 68.9803C94.5237 68.9045 95.4877 68.791 96.4327 68.6774L96.4516 68.7153Z" fill="#F1E4C5"/>
<path d="M102.557 58.5498C102.481 64.3991 102.424 70.2484 102.349 76.0977C101.347 76.306 100.345 76.5142 99.3247 76.6845C99.4003 70.8352 99.457 65.0049 99.5326 59.1556C100.534 58.9852 101.536 58.777 102.557 58.5498V58.5498Z" fill="#F1E4C5"/>
<path d="M113.047 55.8051C113.047 56.619 113.028 57.4141 113.009 58.2281C112.215 58.4552 111.421 58.6824 110.627 58.9096C110.571 63.9638 110.514 68.9991 110.438 74.0534C109.436 74.3373 108.435 74.6024 107.414 74.8674C107.471 69.8131 107.527 64.7778 107.603 59.7235C106.809 59.9318 106.034 60.14 105.24 60.3293C105.24 59.5153 105.259 58.7203 105.278 57.9063C107.868 57.2816 110.457 56.5433 113.028 55.7861L113.047 55.8051Z" fill="#F1E4C5"/>
<path d="M123.518 52.7384C123.442 58.5877 123.385 64.437 123.31 70.2863C122.308 70.5703 121.306 70.8542 120.324 71.1382C120.361 68.5637 120.38 65.9703 120.418 63.377C119.851 63.5473 119.265 63.7177 118.698 63.8881C118.66 66.4625 118.641 69.018 118.604 71.5925C117.602 71.8954 116.6 72.1793 115.617 72.4822C115.693 66.6518 115.749 60.8025 115.825 54.9721C116.827 54.6693 117.829 54.3853 118.811 54.0824C118.774 56.5244 118.755 58.9852 118.717 61.4272C119.284 61.2568 119.87 61.0865 120.437 60.9161C120.475 58.4741 120.494 56.0133 120.531 53.5713C121.533 53.2874 122.535 53.0034 123.518 52.7195V52.7384Z" fill="#F1E4C5"/>
<path d="M133.97 50.2776C133.913 54.9722 133.857 59.6668 133.8 64.3614C133.8 65.5539 133.441 66.5194 132.76 67.2765C132.08 68.0337 131.173 68.5259 130.02 68.7909C128.848 69.0559 127.96 68.9613 127.317 68.507C126.674 68.0527 126.353 67.2387 126.372 66.0461C126.429 61.3326 126.485 56.6191 126.542 51.9245C127.544 51.6595 128.545 51.4134 129.528 51.1862C129.472 55.9944 129.415 60.8026 129.358 65.6107C129.358 66.2733 129.642 66.5383 130.209 66.4247C130.662 66.3301 130.889 65.9325 130.908 65.2511C130.965 60.4618 131.022 55.6537 131.078 50.8644C132.042 50.6562 133.006 50.4669 133.951 50.2965L133.97 50.2776Z" fill="#F1E4C5"/>
<path d="M144.498 62.033C144.46 65.2132 143.156 66.7276 140.604 66.898C139.338 66.9926 138.072 67.1251 136.786 67.2955C136.862 61.4651 136.919 55.6537 136.994 49.8233C138.28 49.6529 139.546 49.5204 140.831 49.4447C143.232 49.2933 144.422 50.8455 144.385 53.7985C144.366 55.824 143.836 57.1491 142.835 57.8306C143.969 58.3985 144.517 59.8182 144.479 62.0519L144.498 62.033ZM141.568 61.8816C141.587 60.0264 141.134 59.0989 140.17 59.1746C140.075 59.1746 139.981 59.1746 139.905 59.1935C139.886 60.9729 139.867 62.7523 139.848 64.5317C140.018 64.5317 140.189 64.5128 140.378 64.4939C140.793 64.456 141.096 64.2478 141.285 63.8692C141.474 63.4906 141.568 62.8091 141.587 61.8816H141.568ZM141.549 54.2529C141.549 53.2307 141.474 52.587 141.304 52.2842C141.134 52.0002 140.85 51.8488 140.472 51.8866C140.321 51.8866 140.151 51.9056 140 51.9245C139.981 53.5525 139.962 55.1804 139.943 56.8084C140.094 56.8084 140.264 56.7895 140.415 56.7705C140.812 56.7327 141.096 56.5623 141.266 56.2216C141.436 55.8808 141.531 55.2183 141.549 54.2529V54.2529Z" fill="#F1E4C5"/>
</g>
<defs>
<clipPath id="clip0_36_27131">
<rect width="259" height="127" fill="white"/>
</clipPath>
</defs>
</svg>
