<svg width="379" height="29" viewBox="0 0 379 29" fill="none" xmlns="http://www.w3.org/2000/svg">
<g clip-path="url(#clip0_12_14094)">
<path d="M189.32 27.3302C189.12 27.3302 188.89 27.2802 188.75 27.1402L188.68 27.0702C186.57 24.9102 181.7 19.9002 175.42 15.5402C167.97 20.8802 161.24 23.5802 155.4 23.5802C155.34 23.5802 155.29 23.5802 155.23 23.5802C149.54 23.5402 146.88 19.1302 146.82 15.0502C146.76 10.9602 149.29 6.4702 154.98 6.2602C160.84 6.0202 167.71 8.5402 175.4 13.7102C181.8 9.0002 186.84 3.7102 188.74 1.6202C189.03 1.3102 189.56 1.3102 189.85 1.6202C191.75 3.7102 196.8 8.9902 203.19 13.7102C210.87 8.5502 217.74 6.0302 223.61 6.2602C229.3 6.4702 231.83 10.9602 231.77 15.0502C231.71 19.1302 229.05 23.5402 223.36 23.5802C223.3 23.5802 223.25 23.5802 223.19 23.5802C217.35 23.5802 210.62 20.8802 203.17 15.5402C196.88 19.9002 192.01 24.9002 189.9 27.0702C189.76 27.2102 189.53 27.3302 189.33 27.3302H189.32ZM188.75 26.0902L189.29 26.6102L188.75 26.0902ZM176.7 14.6002C182.47 18.6702 187.01 23.2002 189.29 25.5302C191.58 23.1902 196.11 18.6602 201.88 14.6002C196.12 10.2902 191.49 5.5902 189.29 3.2302C187.09 5.5902 182.46 10.3002 176.7 14.6002V14.6002ZM204.49 14.6402C211.5 19.5802 217.78 22.0802 223.19 22.0802C223.24 22.0802 223.29 22.0802 223.35 22.0802C228.04 22.0502 230.23 18.4002 230.28 15.0202C230.33 11.6402 228.25 7.9302 223.56 7.7502C218.14 7.5502 211.72 9.8602 204.5 14.6302L204.49 14.6402ZM155.7 7.7402C155.48 7.7402 155.26 7.7402 155.04 7.7502C150.35 7.9202 148.27 11.6402 148.32 15.0202C148.37 18.3902 150.56 22.0402 155.25 22.0802C155.3 22.0802 155.36 22.0802 155.41 22.0802C160.82 22.0802 167.1 19.5802 174.11 14.6402C167.18 10.0602 160.99 7.7402 155.71 7.7402H155.7Z" fill="white"/>
<path d="M362.07 15.1299H230.99C230.58 15.1299 230.24 14.7899 230.24 14.3799C230.24 13.9699 230.58 13.6299 230.99 13.6299H362.07C362.48 13.6299 362.82 13.9699 362.82 14.3799C362.82 14.7899 362.48 15.1299 362.07 15.1299V15.1299Z" fill="white"/>
<path d="M369.94 23C369.75 23 369.56 22.93 369.41 22.78L361.54 14.91C361.4 14.77 361.32 14.58 361.32 14.38C361.32 14.18 361.4 13.99 361.54 13.85L369.41 5.98002C369.69 5.70002 370.19 5.70002 370.47 5.98002L378.34 13.85C378.48 13.99 378.56 14.18 378.56 14.38C378.56 14.58 378.48 14.77 378.34 14.91L370.47 22.78C370.32 22.93 370.13 23 369.94 23V23ZM363.13 14.38L369.94 21.19L376.75 14.38L369.94 7.57002L363.13 14.38V14.38Z" fill="white"/>
<path d="M353.82 15.1299C353.63 15.1299 353.44 15.0599 353.29 14.9099C353 14.6199 353 14.1399 353.29 13.8499L366.91 0.219941C367.2 -0.0700586 367.68 -0.0700586 367.97 0.219941C368.26 0.509941 368.26 0.989941 367.97 1.27994L354.35 14.8999C354.2 15.0499 354.01 15.1199 353.82 15.1199V15.1299Z" fill="white"/>
<path d="M367.44 28.7498C367.25 28.7498 367.06 28.6798 366.91 28.5298L353.29 14.9098C353 14.6198 353 14.1398 353.29 13.8498C353.58 13.5598 354.06 13.5598 354.35 13.8498L367.97 27.4698C368.26 27.7598 368.26 28.2398 367.97 28.5298C367.82 28.6798 367.63 28.7498 367.44 28.7498V28.7498Z" fill="white"/>
<path d="M147.57 15.1299H16.5C16.09 15.1299 15.75 14.7899 15.75 14.3799C15.75 13.9699 16.09 13.6299 16.5 13.6299H147.57C147.98 13.6299 148.32 13.9699 148.32 14.3799C148.32 14.7899 147.98 15.1299 147.57 15.1299Z" fill="white"/>
<path d="M8.62 23C8.43 23 8.24 22.93 8.09 22.78L0.22 14.91C0.08 14.77 0 14.58 0 14.38C0 14.18 0.08 13.99 0.22 13.85L8.09 5.98002C8.37 5.70002 8.87 5.70002 9.15 5.98002L17.02 13.85C17.16 13.99 17.24 14.18 17.24 14.38C17.24 14.58 17.16 14.77 17.02 14.91L9.15 22.78C9 22.93 8.81 23 8.62 23ZM1.81 14.38L8.62 21.19L15.43 14.38L8.62 7.57002L1.81 14.38Z" fill="white"/>
<path d="M24.75 15.1299C24.56 15.1299 24.37 15.0599 24.22 14.9099L10.59 1.27994C10.3 0.989941 10.3 0.509941 10.59 0.219941C10.88 -0.0700586 11.36 -0.0700586 11.65 0.219941L25.27 13.8399C25.56 14.1299 25.56 14.6099 25.27 14.8999C25.12 15.0499 24.93 15.1199 24.74 15.1199L24.75 15.1299Z" fill="white"/>
<path d="M11.12 28.7498C10.93 28.7498 10.74 28.6798 10.59 28.5298C10.3 28.2398 10.3 27.7598 10.59 27.4698L24.21 13.8498C24.5 13.5598 24.98 13.5598 25.27 13.8498C25.56 14.1398 25.56 14.6198 25.27 14.9098L11.65 28.5298C11.5 28.6798 11.31 28.7498 11.12 28.7498V28.7498Z" fill="white"/>
<path d="M201.8 27.63C201.61 27.63 201.42 27.56 201.27 27.41L194.99 21.13C194.7 20.84 194.7 20.36 194.99 20.07C195.28 19.78 195.76 19.78 196.05 20.07L202.33 26.35C202.62 26.64 202.62 27.12 202.33 27.41C202.18 27.56 201.99 27.63 201.8 27.63Z" fill="white"/>
<path d="M183.16 8.99021C182.97 8.99021 182.78 8.92022 182.63 8.77022L177.17 3.31021C176.88 3.02021 176.88 2.54021 177.17 2.25021C177.46 1.96021 177.94 1.96021 178.23 2.25021L183.69 7.71022C183.98 8.00022 183.98 8.48022 183.69 8.77022C183.54 8.92022 183.35 8.99021 183.16 8.99021Z" fill="white"/>
<path d="M176.76 27.63C176.57 27.63 176.38 27.56 176.23 27.41C175.94 27.12 175.94 26.64 176.23 26.35L182.51 20.07C182.8 19.78 183.28 19.78 183.57 20.07C183.86 20.36 183.86 20.84 183.57 21.13L177.29 27.41C177.14 27.56 176.95 27.63 176.76 27.63Z" fill="white"/>
<path d="M195.4 8.99021C195.21 8.99021 195.02 8.92022 194.87 8.77022C194.58 8.48022 194.58 8.00022 194.87 7.71022L200.33 2.25021C200.62 1.96021 201.1 1.96021 201.39 2.25021C201.68 2.54021 201.68 3.02021 201.39 3.31021L195.93 8.77022C195.78 8.92022 195.59 8.99021 195.4 8.99021Z" fill="white"/>
</g>
<defs>
<clipPath id="clip0_12_14094">
<rect width="378.57" height="28.75" fill="white"/>
</clipPath>
</defs>
</svg>
