<svg width="45" height="88" viewBox="0 0 45 88" fill="none" xmlns="http://www.w3.org/2000/svg">
<g clip-path="url(#clip0_9_13244)">
<path d="M30.6001 87.97C30.4901 87.97 30.3901 87.97 30.2801 87.97C24.8301 87.84 18.8001 84.4 17.8101 78.05C17.1001 73.51 19.1601 67.7 24.3501 65.88C26.9501 64.96 30.0801 65.47 32.3401 67.16C34.2501 68.59 35.2401 70.63 35.1201 72.89C34.9901 75.31 33.6601 77.6 31.7201 78.71C30.1401 79.61 28.3501 79.63 26.6701 78.77C26.3001 78.58 26.1601 78.13 26.3501 77.76C26.5401 77.39 26.9901 77.25 27.3601 77.44C28.9201 78.24 30.1801 77.87 30.9801 77.42C32.4601 76.57 33.5301 74.72 33.6301 72.82C33.7201 71.07 32.9501 69.49 31.4501 68.37C29.5801 66.97 27.0001 66.56 24.8601 67.31C20.4301 68.87 18.6901 73.9 19.3001 77.84C20.1601 83.37 25.5001 86.38 30.3201 86.49C36.6701 86.63 42.2001 81.88 43.1501 75.43C44.3101 67.49 39.7201 60.22 36.8801 56.6C32.6801 51.25 27.0001 46.86 21.5001 42.62C13.8101 36.67 5.86008 30.55 1.87008 21.68C-1.02992 15.22 -0.949924 6.15001 4.92008 2.03001C8.01008 -0.129992 12.9001 -0.639991 16.0601 0.870009C19.5601 2.54001 21.6101 5.33001 21.8401 8.71001C21.8701 9.12001 21.5601 9.48001 21.1401 9.51001C20.7201 9.53001 20.3701 9.23001 20.3401 8.81001C20.1501 5.99001 18.4001 3.65001 15.4101 2.22001C12.7801 0.970009 8.37008 1.44001 5.77008 3.26001C0.760076 6.78001 0.550076 15.08 3.24008 21.06C7.08008 29.59 14.5201 35.33 22.4101 41.41C27.9801 45.71 33.7401 50.15 38.0601 55.65C43.2201 62.24 45.5601 69.33 44.6401 75.63C43.6001 82.72 37.6001 87.97 30.6101 87.97H30.6001Z" fill="#1E1E1E"/>
<path d="M22.4701 27.0101C22.2801 27.0101 22.1001 26.9401 21.9601 26.8101C20.1201 25.1001 19.1301 21.9301 18.9101 19.3301C16.6401 19.9401 13.4601 19.7901 11.6501 18.5001C11.4001 18.3201 11.2901 18.0101 11.3601 17.7101C11.4301 17.4101 11.6801 17.1901 11.9801 17.1501C14.9301 16.7301 19.7401 14.3401 20.3201 11.9001C20.4101 11.5201 20.7601 11.2801 21.1601 11.3301C21.4401 11.3701 21.6701 11.5701 21.7601 11.8201C22.8901 14.0501 27.9601 15.3801 30.8901 15.2101C31.1901 15.1701 31.4801 15.3601 31.6101 15.6301C31.7401 15.9101 31.6901 16.2401 31.4901 16.4601C29.9901 18.1001 27.0101 18.8701 24.7001 18.7301C24.9801 21.3201 24.5401 24.6301 23.0801 26.6901C22.9601 26.8701 22.7601 26.9801 22.5401 27.0001C22.5101 27.0001 22.4901 27.0001 22.4601 27.0001L22.4701 27.0101ZM19.6001 17.5501C19.7401 17.5501 19.8801 17.5901 20.0101 17.6701C20.2201 17.8101 20.3501 18.0401 20.3501 18.2901C20.3701 20.4501 21.0601 23.2601 22.3401 24.9901C23.3101 22.9601 23.4701 20.0301 23.0701 18.0101C23.0201 17.7601 23.1001 17.5101 23.2801 17.3301C23.4601 17.1501 23.7201 17.0801 23.9601 17.1301C25.2501 17.4001 27.1101 17.2101 28.5901 16.6001C26.0201 16.2801 22.8701 15.3201 21.2001 13.5701C19.9101 15.6101 17.0101 17.2001 14.5301 18.0401C16.1501 18.3301 18.0701 18.1401 19.3001 17.6101C19.4001 17.5701 19.5001 17.5501 19.6001 17.5501V17.5501Z" fill="#1E1E1E"/>
</g>
<defs>
<clipPath id="clip0_9_13244">
<rect width="44.83" height="87.97" fill="white"/>
</clipPath>
</defs>
</svg>
