<svg width="56" height="57" viewBox="0 0 56 57" fill="none" xmlns="http://www.w3.org/2000/svg">
<g clip-path="url(#clip0_9_12752)">
<path d="M49.3388 25.2728C49.1588 25.2728 49.0038 25.1429 48.9687 24.9631C48.9337 24.7583 49.0688 24.5635 49.2738 24.5285L54.9498 23.5194C55.1498 23.4844 55.3499 23.6193 55.3849 23.8241C55.4199 24.0289 55.2849 24.2238 55.0798 24.2587L49.4038 25.2678C49.4038 25.2678 49.3588 25.2728 49.3388 25.2728V25.2728Z" fill="#F1E4C5"/>
<path d="M48.0936 15.8311C47.9686 15.8311 47.8486 15.7712 47.7785 15.6613C47.6635 15.4864 47.7135 15.2566 47.8886 15.1417L50.7491 13.2884C50.9241 13.1735 51.1541 13.2234 51.2692 13.3983C51.3842 13.5731 51.3342 13.8029 51.1592 13.9178L48.2986 15.7712C48.2336 15.8112 48.1636 15.8311 48.0936 15.8311V15.8311Z" fill="#F1E4C5"/>
<path d="M6.05608 25.2029C6.05608 25.2029 6.01107 25.2029 5.99107 25.1979L0.310055 24.1888C0.105019 24.1538 -0.0300053 23.959 0.00500096 23.7542C0.0400072 23.5493 0.240043 23.4145 0.440079 23.4494L6.11609 24.4585C6.32113 24.4935 6.45615 24.6883 6.42115 24.8932C6.39114 25.073 6.23111 25.2029 6.05108 25.2029H6.05608Z" fill="#F1E4C5"/>
<path d="M18.5883 27.421C18.5883 27.421 18.5433 27.421 18.5233 27.416L10.967 26.0821C10.7619 26.0472 10.6269 25.8523 10.6619 25.6475C10.6969 25.4427 10.892 25.3078 11.097 25.3428L18.6533 26.6766C18.8584 26.7116 18.9934 26.9064 18.9584 27.1112C18.9284 27.2911 18.7684 27.421 18.5883 27.421V27.421Z" fill="#F1E4C5"/>
<path d="M19.0934 25.6176C19.0484 25.6176 19.0034 25.6076 18.9584 25.5926L1.75034 18.8135C1.5553 18.7386 1.46529 18.5188 1.5403 18.3289C1.61532 18.1341 1.83535 18.0392 2.02539 18.1191L19.2285 24.8982C19.4235 24.9731 19.5135 25.1929 19.4385 25.3828C19.3785 25.5276 19.2385 25.6176 19.0884 25.6176H19.0934Z" fill="#F1E4C5"/>
<path d="M7.30131 15.7562C7.2313 15.7562 7.16129 15.7362 7.09628 15.6962L4.23577 13.8429C4.06074 13.728 4.01073 13.4982 4.12575 13.3233C4.24077 13.1485 4.47081 13.0985 4.64584 13.2134L7.50635 15.0668C7.68138 15.1817 7.73139 15.4115 7.61637 15.5863C7.54636 15.6962 7.42634 15.7562 7.30131 15.7562V15.7562Z" fill="#F1E4C5"/>
<path d="M19.9336 23.944C19.8635 23.944 19.7935 23.924 19.7285 23.884L10.5719 17.9493C10.3969 17.8393 10.3468 17.6046 10.4619 17.4297C10.5769 17.2549 10.8069 17.2049 10.982 17.3198L20.1386 23.2546C20.3136 23.3645 20.3636 23.5993 20.2486 23.7741C20.1786 23.884 20.0586 23.944 19.9336 23.944V23.944Z" fill="#F1E4C5"/>
<path d="M35.9414 23.7092C35.8164 23.7092 35.6964 23.6493 35.6264 23.5393C35.5114 23.3645 35.5614 23.1347 35.7364 23.0198L44.538 17.3198C44.713 17.2049 44.9431 17.2549 45.0581 17.4297C45.1731 17.6046 45.1231 17.8344 44.9481 17.9493L36.1465 23.6493C36.0815 23.6892 36.0115 23.7092 35.9414 23.7092Z" fill="#F1E4C5"/>
<path d="M21.0988 22.4753C21.0037 22.4753 20.9087 22.4403 20.8387 22.3704L7.65637 9.4617C7.50634 9.31683 7.50634 9.08203 7.65137 8.93216C7.79639 8.7823 8.03143 8.7823 8.18146 8.93216L21.3588 21.8358C21.5088 21.9807 21.5088 22.2155 21.3638 22.3654C21.2888 22.4403 21.1938 22.4753 21.0938 22.4753H21.0988Z" fill="#F1E4C5"/>
<path d="M16.3579 12.1493C16.2379 12.1493 16.1179 12.0894 16.0479 11.9845L11.8821 5.84487C11.7671 5.67502 11.8121 5.44022 11.9821 5.32532C12.1522 5.21042 12.3872 5.25538 12.5022 5.42523L16.668 11.5648C16.783 11.7347 16.738 11.9695 16.568 12.0844C16.5029 12.1294 16.4279 12.1493 16.3579 12.1493Z" fill="#F1E4C5"/>
<path d="M22.524 21.2364C22.404 21.2364 22.284 21.1764 22.214 21.0715L18.1383 15.0668C18.0232 14.8969 18.0682 14.6621 18.2383 14.5472C18.4083 14.4323 18.6433 14.4773 18.7584 14.6472L22.8341 20.6519C22.9491 20.8217 22.9041 21.0565 22.7341 21.1714C22.6691 21.2164 22.5941 21.2364 22.524 21.2364V21.2364Z" fill="#F1E4C5"/>
<path d="M24.1743 20.3172C24.0293 20.3172 23.8893 20.2322 23.8293 20.0874L16.743 3.13723C16.663 2.9474 16.753 2.72759 16.943 2.64766C17.1331 2.56773 17.3531 2.65766 17.4331 2.84749L24.5194 19.7976C24.5994 19.9875 24.5094 20.2073 24.3194 20.2872C24.2743 20.3072 24.2243 20.3172 24.1743 20.3172V20.3172Z" fill="#F1E4C5"/>
<path d="M23.0041 4.71086C22.8291 4.71086 22.6741 4.58597 22.6391 4.41112L22.0539 1.44872C22.0139 1.2439 22.144 1.04907 22.349 1.00911C22.554 0.969143 22.7491 1.09903 22.7891 1.30385L23.3742 4.26625C23.4142 4.47107 23.2842 4.6659 23.0791 4.70586C23.0541 4.70586 23.0291 4.71086 23.0041 4.71086V4.71086Z" fill="#F1E4C5"/>
<path d="M25.9797 19.7277C25.8046 19.7277 25.6496 19.6028 25.6146 19.4279L23.2492 7.4934C23.2092 7.28858 23.3392 7.09375 23.5442 7.05379C23.7443 7.01382 23.9443 7.14371 23.9843 7.34853L26.3497 19.2831C26.3897 19.4879 26.2597 19.6827 26.0547 19.7227C26.0297 19.7227 26.0047 19.7277 25.9797 19.7277V19.7277Z" fill="#F1E4C5"/>
<path d="M37.4267 27.356C37.2467 27.356 37.0916 27.2261 37.0566 27.0463C37.0216 26.8415 37.1567 26.6466 37.3617 26.6117L44.548 25.3378C44.753 25.3028 44.948 25.4377 44.9831 25.6425C45.0181 25.8473 44.883 26.0422 44.678 26.0771L37.4917 27.346C37.4917 27.346 37.4467 27.351 37.4267 27.351V27.356Z" fill="#F1E4C5"/>
<path d="M36.8966 25.4876C36.6916 25.4876 36.5215 25.3228 36.5215 25.118V25.108C36.5215 24.9531 36.6166 24.8182 36.7616 24.7583L53.6296 18.1191C53.8246 18.0442 54.0397 18.1391 54.1147 18.3289C54.1897 18.5238 54.0947 18.7386 53.9047 18.8135L37.0816 25.4377C37.0266 25.4677 36.9666 25.4876 36.8966 25.4876V25.4876Z" fill="#F1E4C5"/>
<path d="M34.7512 22.2805C34.6562 22.2805 34.5562 22.2405 34.4812 22.1706C34.3361 22.0207 34.3361 21.7859 34.4862 21.641L47.4585 8.9272C47.6085 8.78232 47.8436 8.78232 47.9886 8.9272C48.1336 9.07707 48.1336 9.31186 47.9836 9.45673L35.0113 22.1706C34.9363 22.2405 34.8412 22.2755 34.7462 22.2755L34.7512 22.2805Z" fill="#F1E4C5"/>
<path d="M39.292 12.1493C39.217 12.1493 39.147 12.1294 39.082 12.0844C38.912 11.9695 38.867 11.7347 38.982 11.5648L43.1477 5.42523C43.2627 5.25538 43.4978 5.21042 43.6678 5.32532C43.8378 5.44022 43.8828 5.67502 43.7678 5.84487L39.6021 11.9845C39.5321 12.0894 39.4121 12.1493 39.292 12.1493Z" fill="#F1E4C5"/>
<path d="M33.2409 21.0615C33.1709 21.0615 33.0959 21.0416 33.0309 20.9966C32.8609 20.8817 32.8159 20.6469 32.9309 20.4771L36.8866 14.6522C37.0016 14.4823 37.2367 14.4374 37.4067 14.5523C37.5767 14.6672 37.6217 14.9019 37.5067 15.0718L33.551 20.8967C33.481 21.0016 33.361 21.0615 33.2409 21.0615Z" fill="#F1E4C5"/>
<path d="M31.5306 20.1773C31.4806 20.1773 31.4356 20.1673 31.3856 20.1473C31.1956 20.0674 31.1056 19.8476 31.1856 19.6577L38.2168 2.84749C38.2968 2.65766 38.5169 2.56773 38.7069 2.64766C38.8969 2.72759 38.987 2.9474 38.9069 3.13723L31.8757 19.9475C31.8157 20.0924 31.6757 20.1773 31.5306 20.1773V20.1773Z" fill="#F1E4C5"/>
<path d="M32.6408 4.71086C32.6408 4.71086 32.5908 4.71086 32.5658 4.70586C32.3608 4.6659 32.2308 4.47107 32.2708 4.26625L32.8559 1.30385C32.8959 1.09903 33.0909 0.969143 33.296 1.00911C33.501 1.04907 33.631 1.2439 33.591 1.44872L33.0059 4.41112C32.9709 4.59097 32.8159 4.71086 32.6408 4.71086V4.71086Z" fill="#F1E4C5"/>
<path d="M29.6903 19.6528C29.6903 19.6528 29.6403 19.6528 29.6153 19.6478C29.4103 19.6078 29.2802 19.413 29.3202 19.2082L31.6657 7.34358C31.7057 7.13876 31.9057 7.00888 32.1057 7.04884C32.3108 7.08881 32.4408 7.28364 32.4008 7.48846L30.0554 19.353C30.0204 19.5329 29.8653 19.6528 29.6903 19.6528Z" fill="#F1E4C5"/>
<path d="M28.2001 0.374671C28.2001 0.167746 28.0321 0 27.825 0C27.6178 0 27.4499 0.167746 27.4499 0.374671V19.1332C27.4499 19.3401 27.6178 19.5079 27.825 19.5079C28.0321 19.5079 28.2001 19.3401 28.2001 19.1332V0.374671Z" fill="#F1E4C5"/>
<path d="M37.5817 29.0595C37.3767 29.0595 37.2067 28.8897 37.2067 28.6848C37.2067 28.1403 37.1567 27.5908 37.0566 27.0513C36.9566 26.4518 36.7816 25.8523 36.5465 25.2578C36.3065 24.6734 36.0114 24.1188 35.6764 23.6043C35.3163 23.0698 34.9163 22.5902 34.4912 22.1755C34.0411 21.7309 33.551 21.3363 33.0459 21.0016C32.5258 20.6619 31.9707 20.3721 31.4006 20.1473C30.8055 19.9175 30.2054 19.7477 29.6253 19.6478C29.1252 19.5528 28.5851 19.5079 28.015 19.5079H27.83C27.2249 19.5179 26.6298 19.5878 26.0647 19.7177C25.4846 19.8376 24.9045 20.0274 24.3294 20.2822C23.7943 20.512 23.2642 20.8067 22.7441 21.1714C22.249 21.5211 21.7839 21.9208 21.3738 22.3554C20.9638 22.775 20.5887 23.2496 20.2536 23.7741C19.9386 24.2687 19.6685 24.8132 19.4435 25.3827C19.2285 25.9173 19.0684 26.5018 18.9584 27.1112C18.8734 27.6158 18.8284 28.1453 18.8284 28.6848C18.8284 28.8897 18.6584 29.0595 18.4533 29.0595C18.2483 29.0595 18.0782 28.8897 18.0782 28.6848C18.0782 28.1053 18.1283 27.5308 18.2233 26.9813C18.3383 26.3169 18.5183 25.6875 18.7484 25.103C18.9884 24.4885 19.2835 23.904 19.6235 23.3695C19.9886 22.8 20.3937 22.2855 20.8337 21.8358C21.2738 21.3663 21.7739 20.9366 22.314 20.557C22.8791 20.1673 23.4542 19.8426 24.0293 19.5978C24.6494 19.323 25.2795 19.1182 25.9046 18.9883C26.5148 18.8485 27.1649 18.7685 27.825 18.7585H28.015C28.6301 18.7585 29.2152 18.8085 29.7603 18.9134C30.3854 19.0183 31.0306 19.2032 31.6757 19.4529C32.2958 19.6977 32.8909 20.0075 33.456 20.3771C34.0061 20.7418 34.5312 21.1664 35.0163 21.641C35.4764 22.0906 35.9064 22.6102 36.3015 23.1897C36.6716 23.7442 36.9866 24.3436 37.2467 24.9781C37.5067 25.6225 37.6917 26.2769 37.8018 26.9214C37.9068 27.5009 37.9618 28.0954 37.9618 28.6848C37.9618 28.8897 37.7918 29.0595 37.5867 29.0595H37.5817Z" fill="#F1E4C5"/>
<path d="M6.66119 31.7222C6.84122 31.7222 6.99625 31.8521 7.03125 32.0319C7.06626 32.2367 6.93124 32.4315 6.7262 32.4665L1.05019 33.4756C0.85015 33.5106 0.650115 33.3757 0.615108 33.1709C0.580102 32.9661 0.715126 32.7712 0.920163 32.7363L6.59618 31.7272C6.59618 31.7272 6.64118 31.7222 6.66119 31.7222V31.7222Z" fill="#F1E4C5"/>
<path d="M7.90642 41.1689C8.03144 41.1689 8.15146 41.2288 8.22147 41.3387C8.33649 41.5136 8.28648 41.7434 8.11145 41.8583L5.25094 43.7117C5.07591 43.8266 4.84587 43.7766 4.73085 43.6017C4.61583 43.4269 4.66584 43.1971 4.84087 43.0822L7.70138 41.2288C7.76639 41.1889 7.8364 41.1689 7.90642 41.1689V41.1689Z" fill="#F1E4C5"/>
<path d="M49.9439 31.7971C49.9439 31.7971 49.9889 31.7971 50.0089 31.8021L55.6849 32.8112C55.89 32.8462 56.025 33.041 55.99 33.2458C55.955 33.4507 55.755 33.5856 55.5549 33.5506L49.8789 32.5415C49.6739 32.5065 49.5388 32.3117 49.5738 32.1068C49.6039 31.927 49.7639 31.7971 49.9439 31.7971V31.7971Z" fill="#F1E4C5"/>
<path d="M37.4067 29.579C37.4067 29.579 37.4517 29.579 37.4717 29.584L45.028 30.9179C45.2331 30.9528 45.3681 31.1477 45.3331 31.3525C45.2981 31.5573 45.1031 31.6922 44.898 31.6572L37.3417 30.3234C37.1366 30.2884 37.0016 30.0936 37.0366 29.8888C37.0666 29.7089 37.2267 29.579 37.4067 29.579V29.579Z" fill="#F1E4C5"/>
<path d="M36.9066 31.3775C36.9516 31.3775 36.9966 31.3875 37.0416 31.4025L54.2447 38.1815C54.4397 38.2565 54.5297 38.4763 54.4547 38.6661C54.3797 38.8609 54.1597 38.9559 53.9696 38.8759L36.7666 32.0969C36.5715 32.0219 36.4815 31.8021 36.5565 31.6123C36.6165 31.4674 36.7566 31.3775 36.9066 31.3775V31.3775Z" fill="#F1E4C5"/>
<path d="M48.6987 41.2388C48.7687 41.2388 48.8387 41.2588 48.9037 41.2988L51.7643 43.1521C51.9393 43.267 51.9893 43.4968 51.8743 43.6717C51.7593 43.8465 51.5292 43.8965 51.3542 43.7816L48.4937 41.9282C48.3186 41.8133 48.2686 41.5835 48.3837 41.4087C48.4537 41.2988 48.5737 41.2388 48.6987 41.2388V41.2388Z" fill="#F1E4C5"/>
<path d="M36.0614 33.051C36.1315 33.051 36.2015 33.071 36.2665 33.111L45.4231 39.0458C45.5981 39.1557 45.6482 39.3905 45.5331 39.5653C45.4181 39.7402 45.1881 39.7901 45.013 39.6752L35.8564 33.7404C35.6814 33.6305 35.6314 33.3957 35.7464 33.2209C35.8164 33.111 35.9364 33.051 36.0614 33.051V33.051Z" fill="#F1E4C5"/>
<path d="M20.0536 33.2908C20.1786 33.2908 20.2986 33.3507 20.3686 33.4606C20.4837 33.6355 20.4337 33.8653 20.2586 33.9802L11.4571 39.6802C11.282 39.7951 11.052 39.7451 10.937 39.5703C10.8219 39.3954 10.872 39.1656 11.047 39.0507L19.8486 33.3507C19.9136 33.3108 19.9836 33.2908 20.0536 33.2908Z" fill="#F1E4C5"/>
<path d="M34.9012 34.5247C34.9963 34.5247 35.0913 34.5597 35.1613 34.6296L48.3386 47.5333C48.4887 47.6782 48.4887 47.913 48.3436 48.0628C48.1986 48.2127 47.9636 48.2127 47.8135 48.0628L34.6362 35.1592C34.4862 35.0143 34.4862 34.7795 34.6312 34.6296C34.7062 34.5547 34.8012 34.5197 34.9012 34.5197V34.5247Z" fill="#F1E4C5"/>
<path d="M39.6421 44.8506C39.7621 44.8506 39.8821 44.9106 39.9522 45.0155L44.1179 51.1551C44.2329 51.325 44.1879 51.5598 44.0179 51.6747C43.8478 51.7896 43.6128 51.7446 43.4978 51.5747L39.332 45.4351C39.217 45.2653 39.262 45.0305 39.4321 44.9156C39.4971 44.8706 39.5721 44.8506 39.6421 44.8506V44.8506Z" fill="#F1E4C5"/>
<path d="M33.471 35.7586C33.591 35.7586 33.711 35.8186 33.781 35.9235L37.8568 41.9282C37.9718 42.098 37.9268 42.3328 37.7568 42.4477C37.5867 42.5626 37.3517 42.5177 37.2367 42.3478L33.1609 36.3431C33.0459 36.1732 33.0909 35.9384 33.261 35.8235C33.326 35.7786 33.401 35.7586 33.471 35.7586Z" fill="#F1E4C5"/>
<path d="M31.8257 36.6828C31.9707 36.6828 32.1108 36.7677 32.1708 36.9126L39.257 53.8627C39.337 54.0526 39.247 54.2724 39.057 54.3523C38.867 54.4322 38.6469 54.3423 38.5669 54.1525L31.4806 37.2023C31.4006 37.0125 31.4906 36.7927 31.6807 36.7128C31.7257 36.6928 31.7757 36.6828 31.8257 36.6828V36.6828Z" fill="#F1E4C5"/>
<path d="M32.9959 52.2891C33.1709 52.2891 33.326 52.414 33.361 52.5889L33.9461 55.5513C33.9861 55.7561 33.8561 55.9509 33.651 55.9909C33.446 56.0308 33.251 55.901 33.211 55.6961L32.6258 52.7337C32.5858 52.5289 32.7159 52.3341 32.9209 52.2941C32.9459 52.2941 32.9709 52.2891 32.9959 52.2891V52.2891Z" fill="#F1E4C5"/>
<path d="M30.0204 37.2723C30.1954 37.2723 30.3504 37.3972 30.3854 37.572L32.7508 49.5065C32.7908 49.7114 32.6608 49.9062 32.4558 49.9462C32.2558 49.9861 32.0557 49.8562 32.0157 49.6514L29.6503 37.7169C29.6103 37.5121 29.7403 37.3172 29.9453 37.2773C29.9703 37.2773 29.9953 37.2723 30.0204 37.2723V37.2723Z" fill="#F1E4C5"/>
<path d="M18.5733 29.644C18.7533 29.644 18.9084 29.7739 18.9434 29.9537C18.9784 30.1585 18.8434 30.3534 18.6383 30.3883L11.452 31.6572C11.247 31.6922 11.052 31.5573 11.017 31.3525C10.982 31.1477 11.117 30.9528 11.322 30.9179L18.5083 29.649C18.5083 29.649 18.5533 29.644 18.5733 29.644V29.644Z" fill="#F1E4C5"/>
<path d="M19.1034 31.5123C19.3085 31.5123 19.4785 31.6772 19.4785 31.882V31.892C19.4785 32.0469 19.3835 32.1817 19.2384 32.2417L2.37543 38.8809C2.1804 38.9558 1.96536 38.8609 1.89035 38.6711C1.81533 38.4762 1.91035 38.2614 2.10038 38.1865L18.9234 31.5623C18.9784 31.5323 19.0384 31.5123 19.1084 31.5123H19.1034Z" fill="#F1E4C5"/>
<path d="M21.2438 34.7195C21.3388 34.7195 21.4388 34.7595 21.5138 34.8294C21.6589 34.9793 21.6589 35.2141 21.5088 35.359L8.53653 48.0728C8.3865 48.2177 8.15146 48.2177 8.00644 48.0728C7.86141 47.923 7.86141 47.6882 8.01144 47.5433L20.9838 34.8294C21.0588 34.7595 21.1538 34.7245 21.2488 34.7245L21.2438 34.7195Z" fill="#F1E4C5"/>
<path d="M16.708 44.8506C16.783 44.8506 16.853 44.8706 16.918 44.9156C17.0881 45.0305 17.1331 45.2653 17.018 45.4351L12.8523 51.5747C12.7373 51.7446 12.5022 51.7896 12.3322 51.6747C12.1622 51.5598 12.1172 51.325 12.2322 51.1551L16.3979 45.0155C16.4679 44.9106 16.588 44.8506 16.708 44.8506V44.8506Z" fill="#F1E4C5"/>
<path d="M22.7591 35.9335C22.8291 35.9335 22.9041 35.9535 22.9691 35.9984C23.1391 36.1133 23.1841 36.3481 23.0691 36.518L19.1134 42.3429C18.9984 42.5127 18.7633 42.5577 18.5933 42.4428C18.4233 42.3279 18.3783 42.0931 18.4933 41.9232L22.449 36.0983C22.519 35.9934 22.639 35.9335 22.7591 35.9335Z" fill="#F1E4C5"/>
<path d="M24.4694 36.8227C24.5194 36.8227 24.5644 36.8327 24.6144 36.8527C24.8044 36.9326 24.8945 37.1524 24.8144 37.3422L17.7832 54.1525C17.7032 54.3423 17.4831 54.4322 17.2931 54.3523C17.1031 54.2724 17.0131 54.0526 17.0931 53.8627L24.1243 37.0525C24.1843 36.9076 24.3244 36.8227 24.4694 36.8227V36.8227Z" fill="#F1E4C5"/>
<path d="M23.3542 52.2891C23.3542 52.2891 23.4042 52.2891 23.4292 52.2941C23.6342 52.3341 23.7643 52.5289 23.7242 52.7337L23.1391 55.6961C23.0991 55.901 22.9041 56.0308 22.6991 55.9909C22.494 55.9509 22.364 55.7561 22.404 55.5513L22.9891 52.5889C23.0241 52.409 23.1792 52.2891 23.3542 52.2891V52.2891Z" fill="#F1E4C5"/>
<path d="M26.3097 37.3422C26.3097 37.3422 26.3597 37.3422 26.3847 37.3472C26.5898 37.3872 26.7198 37.582 26.6798 37.7868L24.3344 49.6514C24.2944 49.8562 24.0943 49.9861 23.8943 49.9462C23.6892 49.9062 23.5592 49.7114 23.5992 49.5066L25.9447 37.642C25.9797 37.4621 26.1347 37.3422 26.3097 37.3422V37.3422Z" fill="#F1E4C5"/>
<path d="M28.1751 37.4871C28.3801 37.4871 28.5501 37.657 28.5501 37.8618V56.6203C28.5501 56.8252 28.3801 56.995 28.1751 56.995C27.97 56.995 27.8 56.8252 27.8 56.6203V37.8618C27.8 37.657 27.97 37.4871 28.1751 37.4871Z" fill="#F1E4C5"/>
<path d="M18.4183 27.9405C18.6233 27.9405 18.7934 28.1103 18.7934 28.3152C18.7934 28.8597 18.8434 29.4092 18.9434 29.9487C19.0434 30.5482 19.2185 31.1477 19.4535 31.7422C19.6935 32.3266 19.9886 32.8812 20.3236 33.3957C20.6837 33.9302 21.0838 34.4098 21.5089 34.8245C21.9589 35.2691 22.449 35.6637 22.9541 35.9984C23.4742 36.3381 24.0293 36.6279 24.5994 36.8527C25.1945 37.0825 25.7946 37.2523 26.3747 37.3522C26.8748 37.4471 27.4149 37.4921 27.985 37.4921H28.17C28.7752 37.4821 29.3703 37.4122 29.9354 37.2823C30.5155 37.1624 31.0956 36.9726 31.6707 36.7178C32.2058 36.488 32.7359 36.1933 33.256 35.8286C33.751 35.4789 34.2161 35.0792 34.6262 34.6446C35.0363 34.225 35.4113 33.7504 35.7464 33.2259C36.0615 32.7313 36.3315 32.1868 36.5565 31.6173C36.7716 31.0827 36.9316 30.4982 37.0416 29.8888C37.1266 29.3842 37.1717 28.8547 37.1717 28.3152C37.1717 28.1103 37.3417 27.9405 37.5467 27.9405C37.7518 27.9405 37.9218 28.1103 37.9218 28.3152C37.9218 28.8947 37.8718 29.4691 37.7768 30.0187C37.6617 30.6831 37.4817 31.3125 37.2517 31.897C37.0116 32.5115 36.7166 33.096 36.3765 33.6305C36.0114 34.2 35.6064 34.7145 35.1663 35.1642C34.7262 35.6337 34.2261 36.0634 33.686 36.443C33.1209 36.8327 32.5458 37.1574 31.9707 37.4022C31.3506 37.677 30.7205 37.8818 30.0954 38.0117C29.4853 38.1515 28.8352 38.2315 28.175 38.2415H27.985C27.3699 38.2415 26.7848 38.1915 26.2397 38.0866C25.6146 37.9817 24.9695 37.7968 24.3244 37.5471C23.7042 37.3023 23.1091 36.9925 22.544 36.6229C21.9939 36.2582 21.4689 35.8336 20.9838 35.359C20.5237 34.9094 20.0936 34.3898 19.6985 33.8103C19.3285 33.2558 19.0134 32.6564 18.7534 32.0219C18.4933 31.3775 18.3083 30.723 18.1983 30.0786C18.0932 29.4991 18.0382 28.9046 18.0382 28.3152C18.0382 28.1103 18.2083 27.9405 18.4133 27.9405H18.4183Z" fill="#F1E4C5"/>
</g>
<defs>
<clipPath id="clip0_9_12752">
<rect width="56" height="57" fill="white"/>
</clipPath>
</defs>
</svg>
