<svg width="86" height="26" viewBox="0 0 86 26" fill="none" xmlns="http://www.w3.org/2000/svg">
<g clip-path="url(#clip0_8_202)">
<path d="M58.1819 13.7633C56.2713 13.7633 54.3369 13.269 52.6126 12.7407C49.2165 11.6988 45.3763 9.05759 42.7827 7.15787C42.6871 7.09002 42.6346 6.97856 42.6346 6.86225C42.6346 6.74594 42.6919 6.63448 42.7827 6.56663C46.7805 3.63951 49.9999 1.82702 52.6126 1.02739C54.9244 0.319846 57.6231 -0.334395 60.1259 0.19869C63.1494 0.838392 65.1794 3.52805 65.1794 6.88648C65.1794 10.2449 63.1494 12.9346 60.1259 13.5743C59.4859 13.71 58.8363 13.7681 58.1819 13.7681V13.7633ZM43.609 6.86225C46.1453 8.69897 49.699 11.0882 52.8227 12.0429C55.0486 12.7262 57.6374 13.3562 59.9827 12.857C62.6622 12.29 64.463 9.88629 64.463 6.88163C64.463 3.87698 62.6622 1.47325 59.9827 0.906239C57.6374 0.407078 55.0438 1.03709 52.8227 1.7204C50.3724 2.47157 47.3585 4.15321 43.609 6.86225V6.86225Z" fill="white"/>
<path d="M27.8037 13.7633C27.1493 13.7633 26.495 13.7051 25.8597 13.5694C22.8362 12.9297 20.8062 10.2401 20.8062 6.88163C20.8062 3.52319 22.8362 0.833539 25.8597 0.193838C28.3626 -0.339247 31.0613 0.314993 33.3731 1.02254C35.9858 1.82217 39.2003 3.63466 43.203 6.56178C43.2985 6.62963 43.3511 6.74109 43.3511 6.8574C43.3511 6.97371 43.2937 7.08517 43.203 7.15302C40.6094 9.05274 36.7691 11.6939 33.3731 12.7359C31.6535 13.2641 29.7143 13.7584 27.8037 13.7584V13.7633ZM27.8037 0.726922C27.1971 0.726922 26.5905 0.780231 26.003 0.906233C23.3234 1.47324 21.5227 3.87697 21.5227 6.88163C21.5227 9.88629 23.3234 12.29 26.003 12.857C28.3482 13.3513 30.9371 12.7262 33.1629 12.0429C36.2867 11.0833 39.8404 8.69896 42.3767 6.86224C38.6319 4.1532 35.6132 2.47156 33.1629 1.7204C31.4959 1.21155 29.6235 0.726922 27.8037 0.726922V0.726922Z" fill="white"/>
<path d="M37.2468 26C35.9237 26 34.763 25.37 34.2185 24.2457C34.1325 24.0664 34.2042 23.8483 34.3809 23.7611C34.5576 23.6738 34.7726 23.7465 34.8585 23.9258C35.532 25.3118 37.2563 25.5299 38.6081 25.0211C40.3515 24.3668 42.0805 22.3557 41.1969 18.8518C40.7909 17.2332 39.8643 15.915 38.8373 14.8828C37.7053 15.6339 36.5494 16.3948 35.3983 17.1266C32.5515 18.9245 29.2128 20.7806 25.5827 19.9471C23.9348 19.5691 22.5496 18.532 21.7902 17.1023C21.1071 15.8229 21.0116 14.3545 21.5179 12.9734C22.6929 9.76031 27.2688 9.30477 30.0582 9.78454C33.096 10.3031 36.5064 11.7376 38.9281 13.9571C39.0809 13.8554 39.2338 13.7536 39.3866 13.6518L40.361 13.0024C46.642 8.82984 53.7637 4.09507 61.6926 3.12098C65.0027 2.7139 68.5182 3.05798 71.3411 4.06115C74.0445 5.02555 76.022 6.55696 77.1683 8.55845C77.4119 8.42275 77.6651 8.29191 77.9278 8.17075C80.5023 6.95435 83.3634 6.7605 85.766 7.63766C85.9522 7.70551 86.0478 7.9139 85.9809 8.1029C85.914 8.2919 85.7086 8.38883 85.5224 8.32098C83.2918 7.50682 80.636 7.69097 78.2287 8.82984C77.9803 8.94615 77.7367 9.07215 77.5027 9.203C77.732 9.69731 77.9135 10.2159 78.0472 10.7586C78.372 12.0768 78.1618 14.8246 76.9247 16.3366C76.3516 17.0393 75.6112 17.3883 74.7897 17.3398C73.992 17.2913 73.3854 16.9133 73.0224 16.2397C72.411 15.096 72.6498 13.332 73.2373 12.2852C73.9586 11.0058 75.1097 9.8427 76.5522 8.92676C75.2482 6.65388 72.9746 5.41325 71.107 4.74931C68.4227 3.79461 64.9406 3.45537 61.7834 3.84307C54.0169 4.79778 47.2773 9.27569 40.7575 13.6082L39.7831 14.2576C39.678 14.3303 39.5681 14.3981 39.463 14.4708C40.6237 15.6727 41.4978 17.0781 41.899 18.6725C42.8352 22.3896 41.0488 24.8854 38.866 25.7044C38.3215 25.9079 37.777 26.0049 37.2563 26.0049L37.2468 26ZM28.1237 10.3467C25.7737 10.3467 22.9843 11.0446 22.1866 13.2205C21.752 14.403 21.8332 15.6582 22.4159 16.7486C23.0703 17.9747 24.3121 18.9051 25.7403 19.2298C29.1029 20.0004 32.2936 18.2267 35.0162 16.5014C36.1147 15.8084 37.2133 15.0815 38.2976 14.3642C37.7913 13.9135 37.2754 13.5307 36.7978 13.2108C34.8203 11.8878 32.3175 10.8992 29.934 10.4872C29.3991 10.3952 28.7781 10.3419 28.1237 10.3419V10.3467ZM76.877 9.57131C75.5539 10.4194 74.5079 11.4759 73.8535 12.639C73.3711 13.4968 73.1752 15.0039 73.6481 15.8859C73.8917 16.3415 74.2786 16.5741 74.8279 16.608C75.4249 16.6468 75.9408 16.3948 76.3707 15.8714C77.4024 14.6065 77.6364 12.101 77.3499 10.9331C77.2304 10.4485 77.0728 9.99293 76.8818 9.57131H76.877Z" fill="white"/>
<path d="M48.7485 26C48.2278 26 47.6833 25.9031 47.1388 25.6995C44.956 24.8805 43.1696 22.3847 44.1057 18.6677C44.507 17.0733 45.3811 15.6679 46.5417 14.466C46.4319 14.3933 46.3268 14.3206 46.2169 14.2528L45.2473 13.6082C38.7275 9.27569 31.9879 4.79778 24.2214 3.84307C21.0689 3.45537 17.5821 3.79461 14.8977 4.74931C13.0254 5.41325 10.7566 6.65388 9.44781 8.92676C10.8903 9.8427 12.0414 11.0009 12.7627 12.2852C13.3502 13.332 13.589 15.096 12.9776 16.2397C12.6146 16.9133 12.0032 17.2962 11.2103 17.3398C10.384 17.3883 9.64842 17.0393 9.07525 16.3366C7.83815 14.8246 7.62798 12.0768 7.95278 10.7586C8.08652 10.2159 8.26803 9.69731 8.4973 9.203C8.26325 9.07215 8.01965 8.94615 7.77128 8.82984C5.36394 7.69097 2.70824 7.50682 0.477635 8.32098C0.291353 8.38883 0.0859658 8.2919 0.0190955 8.1029C-0.0477748 7.9139 0.0477542 7.70551 0.234036 7.63766C2.64137 6.7605 5.49768 6.95435 8.07219 8.17075C8.33012 8.29191 8.58327 8.42275 8.83165 8.55845C9.978 6.55696 11.9554 5.02555 14.6589 4.06115C17.4818 3.05798 20.9973 2.7139 24.3073 3.12098C32.241 4.09507 39.358 8.82499 45.639 13.0024L46.6086 13.647C46.7615 13.7488 46.9143 13.8505 47.0671 13.9523C49.4888 11.7327 52.8944 10.2982 55.937 9.7797C58.7265 9.29992 63.2975 9.76031 64.4773 12.9685C64.9836 14.3545 64.8881 15.8181 64.205 17.0975C63.4408 18.5271 62.0604 19.5642 60.4125 19.9422C56.7824 20.7709 53.4437 18.9245 50.5969 17.1217C49.441 16.3899 48.2851 15.6291 47.1579 14.8779C46.131 15.9102 45.2043 17.2332 44.7983 18.847C43.9147 22.3508 45.639 24.362 47.3872 25.0162C48.7389 25.5251 50.4584 25.3118 51.1367 23.921C51.2227 23.7417 51.4376 23.669 51.6143 23.7562C51.7911 23.8434 51.8627 24.0615 51.7767 24.2408C51.2274 25.3652 50.0715 25.9952 48.7485 25.9952V26ZM47.6976 14.3642C48.7771 15.0815 49.8805 15.8084 50.9791 16.5014C53.7064 18.2267 56.8923 20.0004 60.2549 19.2298C61.6783 18.9051 62.9202 17.9747 63.5793 16.7486C64.1621 15.6582 64.2433 14.403 63.8086 13.2205C62.7912 10.4436 58.5163 10.0753 56.0612 10.4921C53.6778 10.8992 51.1749 11.8927 49.1974 13.2157C48.7198 13.5355 48.2087 13.9184 47.6976 14.3691V14.3642ZM9.12301 9.57131C8.93195 9.99293 8.77433 10.4436 8.65492 10.9331C8.36356 12.1059 8.60238 14.6114 9.63409 15.8714C10.064 16.3948 10.5798 16.6468 11.1769 16.608C11.7262 16.5741 12.1131 16.3415 12.3567 15.8859C12.8295 15.0039 12.6289 13.4968 12.1513 12.639C11.4969 11.4759 10.4509 10.4194 9.12779 9.57131H9.12301Z" fill="white"/>
</g>
<defs>
<clipPath id="clip0_8_202">
<rect width="86" height="26" fill="white"/>
</clipPath>
</defs>
</svg>
