<svg width="120" height="54" viewBox="0 0 120 54" fill="none" xmlns="http://www.w3.org/2000/svg">
<g clip-path="url(#clip0_8_156)">
<path d="M59.64 53.87C59.37 53.87 59.12 53.72 58.99 53.49C53.59 43.96 46.19 35.17 37.46 27.89C36.93 28.32 36.4 28.74 35.86 29.16C29.3 34.26 22.16 39 14.43 39.14C10.48 39.2 6.27 37.54 3.47 34.79C1.2 32.57 0 29.85 0 26.92C0 23.99 1.2 21.27 3.46 19.05C6.26 16.3 10.48 14.66 14.42 14.7C22.15 14.84 29.29 19.58 35.85 24.68C36.39 25.1 36.92 25.52 37.45 25.95C46.19 18.68 53.59 9.88 58.99 0.349998C59.26 -0.120002 60.03 -0.120002 60.3 0.349998C65.7 9.88 73.1 18.67 81.83 25.95C82.36 25.52 82.89 25.1 83.43 24.68C89.99 19.58 97.13 14.84 104.86 14.7C108.84 14.67 113.02 16.3 115.82 19.05C118.08 21.27 119.28 24 119.28 26.92C119.28 29.84 118.08 32.57 115.82 34.79C113.02 37.55 108.81 39.21 104.86 39.14C97.13 39 89.99 34.26 83.43 29.16C82.89 28.74 82.36 28.32 81.83 27.89C73.1 35.16 65.7 43.96 60.3 53.49C60.17 53.73 59.92 53.87 59.65 53.87H59.64ZM38.64 26.92C47.07 33.98 54.27 42.45 59.64 51.62C65.02 42.45 72.22 33.99 80.64 26.92C72.21 19.86 65.01 11.39 59.64 2.22C54.26 11.39 47.06 19.85 38.64 26.92ZM14.18 16.19C10.67 16.19 6.99 17.68 4.51 20.11C2.54 22.05 1.5 24.4 1.5 26.91C1.5 29.42 2.54 31.78 4.51 33.71C7.04 36.19 10.84 37.66 14.4 37.63C21.69 37.5 28.58 32.91 34.94 27.96C35.39 27.61 35.83 27.26 36.28 26.9C35.84 26.54 35.39 26.19 34.94 25.84C28.58 20.9 21.7 16.3 14.4 16.17C14.33 16.17 14.25 16.17 14.18 16.17V16.19ZM83 26.92C83.44 27.28 83.89 27.63 84.34 27.98C90.7 32.92 97.58 37.52 104.88 37.65C108.47 37.72 112.24 36.21 114.77 33.73C116.74 31.79 117.78 29.44 117.78 26.93C117.78 24.42 116.74 22.06 114.77 20.13C112.24 17.65 108.48 16.15 104.88 16.21C97.59 16.34 90.7 20.93 84.34 25.88C83.89 26.23 83.45 26.58 83 26.94V26.92Z" fill="#F1E4C5"/>
<path d="M14.33 30.89C12.14 30.89 10.36 29.11 10.36 26.92C10.36 24.73 12.14 22.95 14.33 22.95C16.52 22.95 18.3 24.73 18.3 26.92C18.3 29.11 16.52 30.89 14.33 30.89ZM14.33 24.45C12.97 24.45 11.86 25.56 11.86 26.92C11.86 28.28 12.97 29.39 14.33 29.39C15.69 29.39 16.8 28.28 16.8 26.92C16.8 25.56 15.69 24.45 14.33 24.45Z" fill="#F1E4C5"/>
<path d="M104.86 30.89C102.67 30.89 100.89 29.11 100.89 26.92C100.89 24.73 102.67 22.95 104.86 22.95C107.05 22.95 108.83 24.73 108.83 26.92C108.83 29.11 107.05 30.89 104.86 30.89ZM104.86 24.45C103.5 24.45 102.39 25.56 102.39 26.92C102.39 28.28 103.5 29.39 104.86 29.39C106.22 29.39 107.33 28.28 107.33 26.92C107.33 25.56 106.22 24.45 104.86 24.45Z" fill="#F1E4C5"/>
<path d="M14.19 47.07C10.03 47.07 5.63 45.37 2.92 42.7C1.01 40.82 0 38.58 0 36.2C0 30.43 5.52 27.01 11 26.18C11.41 26.12 11.79 26.4 11.85 26.81C11.91 27.22 11.63 27.6 11.22 27.66C6.38 28.39 1.5 31.32 1.5 36.2C1.5 38.16 2.35 40.04 3.97 41.63C6.46 44.08 10.53 45.62 14.41 45.57C22.06 45.45 29.04 41.11 34.98 37.05C44.81 30.3 53.12 21.89 59.01 12.72C59.23 12.37 59.7 12.27 60.05 12.49C60.4 12.71 60.5 13.18 60.28 13.53C54.28 22.87 45.82 31.43 35.83 38.29C29.71 42.47 22.51 46.95 14.44 47.08C14.36 47.08 14.28 47.08 14.2 47.08L14.19 47.07Z" fill="#F1E4C5"/>
<path d="M59.64 41.48C59.39 41.48 59.15 41.36 59.01 41.14C53.12 31.97 44.81 23.55 34.97 16.81C29.03 12.75 22.06 8.40999 14.4 8.28999C10.55 8.20999 6.45 9.76999 3.96 12.23C2.35 13.82 1.49 15.7 1.49 17.66C1.49 22.51 6.53 25.49 11.21 26.2C11.62 26.26 11.9 26.64 11.84 27.05C11.78 27.46 11.39 27.74 10.99 27.68C5.52 26.83 0 23.41 0 17.64C0 15.26 1.01 13.02 2.92 11.14C5.68 8.41999 10.21 6.71999 14.43 6.76999C22.5 6.89999 29.7 11.37 35.82 15.56C45.82 22.42 54.27 30.98 60.27 40.32C60.49 40.67 60.39 41.13 60.04 41.36C59.91 41.44 59.77 41.48 59.64 41.48Z" fill="#F1E4C5"/>
<path d="M59.55 41.48C59.41 41.48 59.27 41.44 59.15 41.36C58.8 41.14 58.7 40.67 58.92 40.32C64.92 30.98 73.37 22.42 83.37 15.56C89.49 11.37 96.7 6.90001 104.76 6.77001C109 6.73001 113.51 8.42001 116.27 11.14C118.18 13.02 119.19 15.26 119.19 17.64C119.19 23.41 113.67 26.83 108.19 27.66C107.78 27.73 107.4 27.44 107.34 27.03C107.28 26.62 107.56 26.24 107.97 26.18C112.65 25.47 117.69 22.5 117.69 17.64C117.69 15.68 116.84 13.8 115.22 12.21C112.73 9.76001 108.67 8.22001 104.78 8.27001C97.13 8.39001 90.15 12.73 84.21 16.79C74.38 23.54 66.07 31.95 60.17 41.12C60.03 41.34 59.79 41.46 59.54 41.46L59.55 41.48Z" fill="#F1E4C5"/>
<path d="M105 47.07C104.92 47.07 104.84 47.07 104.76 47.07C96.69 46.94 89.49 42.47 83.37 38.29C73.37 31.43 64.92 22.87 58.92 13.53C58.7 13.18 58.8 12.72 59.15 12.49C59.5 12.27 59.96 12.37 60.19 12.72C66.08 21.89 74.4 30.31 84.23 37.06C90.17 41.12 97.15 45.46 104.8 45.58C108.61 45.62 112.75 44.1 115.24 41.64C116.85 40.05 117.71 38.17 117.71 36.21C117.71 31.36 112.67 28.38 107.99 27.67C107.58 27.61 107.3 27.23 107.36 26.82C107.42 26.41 107.81 26.13 108.21 26.19C113.68 27.02 119.21 30.44 119.21 36.21C119.21 38.59 118.2 40.83 116.29 42.71C113.58 45.38 109.18 47.08 105.02 47.08L105 47.07Z" fill="#F1E4C5"/>
</g>
<defs>
<clipPath id="clip0_8_156">
<rect width="119.28" height="53.87" fill="white"/>
</clipPath>
</defs>
</svg>
